<svg xmlns="http://www.w3.org/2000/svg" xmlns:xlink="http://www.w3.org/1999/xlink" width="200" zoomAndPan="magnify" viewBox="0 0 150 74.999997" height="100" preserveAspectRatio="xMidYMid meet" version="1.0"><defs><g/></defs><g fill="#c5f656" fill-opacity="1"><g transform="translate(1.521343, 31.499996)"><g><path d="M 11.457031 -9.371094 L 11.457031 -11.476562 C 11.882812 -12.085938 12.289062 -12.714844 12.632812 -13.34375 L 18.941406 -13.34375 L 18.941406 -15.820312 L 1.359375 -15.820312 L 1.359375 -13.34375 L 9.449219 -13.34375 C 7.5625 -10.242188 4.402344 -7.097656 0.710938 -5.375 C 1.238281 -4.828125 1.988281 -3.832031 2.371094 -3.183594 C 4.804688 -4.441406 6.976562 -6.207031 8.820312 -8.171875 L 8.820312 1.722656 L 11.457031 1.722656 L 11.457031 -8.78125 C 13.648438 -7.097656 16.40625 -4.785156 17.664062 -3.285156 L 19.710938 -5.128906 C 18.253906 -6.734375 15.128906 -9.066406 12.957031 -10.625 Z M 11.457031 -9.371094 "/></g></g></g><g fill="#c5f656" fill-opacity="1"><g transform="translate(22.606164, 31.499996)"><g><path d="M 11.558594 -6.429688 L 11.558594 -8.921875 L 15.839844 -8.921875 L 15.839844 -6.429688 Z M 5.253906 -6.429688 C 5.292969 -7.179688 5.3125 -7.910156 5.3125 -8.558594 L 5.3125 -8.921875 L 9.125 -8.921875 L 9.125 -6.429688 Z M 9.125 -13.527344 L 9.125 -11.175781 L 5.3125 -11.175781 L 5.3125 -13.527344 Z M 15.839844 -11.175781 L 11.558594 -11.175781 L 11.558594 -13.527344 L 15.839844 -13.527344 Z M 18.230469 -15.820312 L 2.921875 -15.820312 L 2.921875 -8.578125 C 2.921875 -5.738281 2.738281 -2.128906 0.527344 0.304688 C 1.074219 0.589844 2.046875 1.417969 2.433594 1.867188 C 3.894531 0.285156 4.625 -1.945312 4.988281 -4.15625 L 9.125 -4.15625 L 9.125 1.5 L 11.558594 1.5 L 11.558594 -4.15625 L 15.839844 -4.15625 L 15.839844 -1.117188 C 15.839844 -0.75 15.695312 -0.628906 15.3125 -0.628906 C 14.945312 -0.628906 13.609375 -0.609375 12.472656 -0.667969 C 12.777344 -0.0390625 13.160156 0.992188 13.242188 1.644531 C 15.066406 1.664062 16.304688 1.621094 17.136719 1.21875 C 17.949219 0.851562 18.230469 0.203125 18.230469 -1.09375 Z M 18.230469 -15.820312 "/></g></g></g><g fill="#c5f656" fill-opacity="1"><g transform="translate(43.690984, 31.499996)"><g><path d="M 13.6875 -11.335938 L 6.589844 -11.335938 L 6.589844 -14.074219 L 13.6875 -14.074219 Z M 16.144531 -16.386719 L 4.257812 -16.386719 L 4.257812 -9.042969 L 16.144531 -9.042969 Z M 6.773438 -5.050781 L 6.773438 -1.5625 L 3.75 -1.5625 L 3.75 -5.050781 Z M 1.460938 1.765625 L 3.75 1.765625 L 3.75 0.75 L 6.773438 0.75 L 6.773438 1.664062 L 9.1875 1.664062 L 9.1875 -7.363281 L 1.460938 -7.363281 Z M 13.222656 -1.5625 L 13.222656 -5.050781 L 16.445312 -5.050781 L 16.445312 -1.5625 Z M 10.910156 -7.363281 L 10.910156 1.765625 L 13.222656 1.765625 L 13.222656 0.75 L 16.445312 0.75 L 16.445312 1.683594 L 18.878906 1.683594 L 18.878906 -7.363281 Z M 10.910156 -7.363281 "/></g></g></g><g fill="#c5f656" fill-opacity="1"><g transform="translate(64.775803, 31.499996)"><g><path d="M 11.78125 -6.023438 L 8.214844 -6.023438 L 8.214844 -9.53125 L 11.78125 -9.53125 Z M 5.941406 -11.640625 L 5.941406 -3.933594 L 14.214844 -3.933594 L 14.214844 -11.640625 Z M 3.996094 -1.582031 L 3.996094 -14.035156 L 16.183594 -14.035156 L 16.183594 -1.582031 Z M 1.480469 -16.507812 L 1.480469 1.742188 L 3.996094 1.742188 L 3.996094 0.667969 L 16.183594 0.667969 L 16.183594 1.742188 L 18.820312 1.742188 L 18.820312 -16.507812 Z M 1.480469 -16.507812 "/></g></g></g><g fill="#c5f656" fill-opacity="1"><g transform="translate(85.860624, 31.499996)"><g><path d="M 5.882812 -5.515625 L 4.015625 -4.886719 L 4.015625 -15.089844 L 1.824219 -15.089844 L 1.824219 -5.171875 C 1.824219 -4.378906 1.5 -3.996094 1.15625 -3.773438 C 1.480469 -3.246094 1.867188 -2.148438 1.988281 -1.5 C 2.394531 -1.84375 2.960938 -2.230469 5.882812 -3.324219 L 5.882812 1.785156 L 8.152344 1.785156 L 8.152344 -16.8125 L 5.882812 -16.8125 Z M 16.265625 -13.789062 C 15.839844 -11.050781 15.128906 -8.617188 14.113281 -6.550781 C 13.082031 -8.679688 12.332031 -11.132812 11.824219 -13.789062 Z M 17.238281 -16.042969 L 16.851562 -15.960938 L 8.902344 -15.960938 L 8.902344 -13.789062 L 11.152344 -13.789062 L 9.671875 -13.527344 C 10.363281 -9.9375 11.296875 -6.753906 12.757812 -4.15625 C 11.519531 -2.394531 10.039062 -1.015625 8.316406 -0.101562 C 8.863281 0.324219 9.550781 1.277344 9.898438 1.886719 C 11.539062 0.890625 12.957031 -0.40625 14.15625 -1.96875 C 15.269531 -0.507812 16.648438 0.730469 18.273438 1.664062 C 18.636719 1.074219 19.367188 0.140625 19.914062 -0.304688 C 18.171875 -1.195312 16.730469 -2.515625 15.554688 -4.117188 C 17.21875 -7.078125 18.292969 -10.871094 18.757812 -15.617188 Z M 17.238281 -16.042969 "/></g></g></g><g fill="#c5f656" fill-opacity="1"><g transform="translate(106.945441, 31.499996)"><g><path d="M 19.226562 -13.769531 C 18.636719 -14.722656 17.378906 -16.0625 16.304688 -17.035156 L 14.5 -15.917969 C 15.554688 -14.886719 16.773438 -13.464844 17.277344 -12.511719 Z M 5.78125 -17.015625 C 4.5625 -13.953125 2.433594 -10.972656 0.242188 -9.105469 C 0.667969 -8.519531 1.359375 -7.21875 1.582031 -6.652344 C 2.3125 -7.300781 3 -8.070312 3.691406 -8.921875 L 3.691406 1.722656 L 6.207031 1.722656 L 6.207031 -12.53125 C 6.9375 -13.769531 7.5625 -15.027344 8.089844 -16.265625 Z M 19.53125 -9.734375 L 19.183594 -12.003906 L 13.40625 -11.253906 C 13.261719 -12.980469 13.183594 -14.886719 13.140625 -16.871094 L 10.6875 -16.871094 C 10.75 -14.742188 10.871094 -12.757812 11.011719 -10.929688 L 6.914062 -10.382812 L 7.261719 -8.050781 L 11.253906 -8.597656 C 11.984375 -2.414062 13.585938 1.398438 17.015625 1.722656 C 18.152344 1.785156 19.246094 0.851562 19.753906 -3.0625 C 19.304688 -3.304688 18.230469 -3.914062 17.785156 -4.441406 C 17.625 -2.191406 17.378906 -1.175781 16.914062 -1.21875 C 15.292969 -1.417969 14.214844 -4.421875 13.648438 -8.921875 Z M 19.53125 -9.734375 "/></g></g></g><g fill="#c5f656" fill-opacity="1"><g transform="translate(128.030263, 31.499996)"><g><path d="M 18.921875 -16.019531 L 9.066406 -16.019531 L 9.066406 -13.730469 L 18.921875 -13.730469 Z M 5.171875 -17.175781 C 4.199219 -15.757812 2.269531 -13.933594 0.589844 -12.859375 C 1.015625 -12.390625 1.621094 -11.417969 1.925781 -10.890625 C 3.851562 -12.230469 6.042969 -14.316406 7.503906 -16.222656 Z M 5.941406 -12.796875 C 4.644531 -10.503906 2.433594 -8.152344 0.363281 -6.734375 C 0.851562 -6.226562 1.664062 -5.128906 2.007812 -4.644531 C 2.554688 -5.089844 3.101562 -5.597656 3.671875 -6.144531 L 3.671875 1.785156 L 6.085938 1.785156 L 6.085938 -8.800781 C 6.894531 -9.816406 7.644531 -10.871094 8.253906 -11.90625 Z M 19.429688 -10.445312 L 8.214844 -10.445312 L 8.214844 -8.152344 L 14.195312 -8.152344 L 14.195312 -1.09375 C 14.195312 -0.789062 14.054688 -0.710938 13.6875 -0.710938 C 13.324219 -0.691406 11.984375 -0.691406 10.828125 -0.75 C 11.152344 -0.0625 11.457031 0.992188 11.558594 1.703125 C 13.363281 1.703125 14.664062 1.664062 15.515625 1.296875 C 16.40625 0.933594 16.648438 0.261719 16.648438 -1.035156 L 16.648438 -8.152344 L 19.429688 -8.152344 Z M 19.429688 -10.445312 "/></g></g></g><g fill="#c5f656" fill-opacity="1"><g transform="translate(33.150247, 59.249994)"><g><path d="M 15.167969 -12.128906 L 15.167969 -14.257812 C 15.167969 -15.066406 15.25 -15.738281 15.292969 -16.144531 L 12.410156 -16.144531 C 12.472656 -15.738281 12.53125 -15.066406 12.53125 -14.257812 L 12.53125 -12.128906 L 7.726562 -12.128906 L 7.726562 -14.113281 C 7.726562 -14.925781 7.789062 -15.574219 7.847656 -15.960938 L 4.96875 -15.960938 C 5.007812 -15.574219 5.089844 -14.90625 5.089844 -14.136719 L 5.089844 -12.128906 L 3.367188 -12.128906 C 2.351562 -12.128906 1.542969 -12.25 1.175781 -12.308594 L 1.175781 -9.550781 C 1.621094 -9.59375 2.351562 -9.632812 3.367188 -9.632812 L 5.089844 -9.632812 L 5.089844 -6.875 C 5.089844 -5.960938 5.03125 -5.152344 4.96875 -4.746094 L 7.808594 -4.746094 C 7.789062 -5.152344 7.726562 -5.984375 7.726562 -6.875 L 7.726562 -9.632812 L 12.53125 -9.632812 L 12.53125 -8.863281 C 12.53125 -3.894531 10.808594 -2.128906 6.894531 -0.769531 L 9.066406 1.277344 C 13.953125 -0.871094 15.167969 -3.933594 15.167969 -8.964844 L 15.167969 -9.632812 L 16.671875 -9.632812 C 17.746094 -9.632812 18.453125 -9.613281 18.902344 -9.570312 L 18.902344 -12.269531 C 18.351562 -12.167969 17.746094 -12.128906 16.671875 -12.128906 Z M 15.167969 -12.128906 "/></g></g></g><g fill="#c5f656" fill-opacity="1"><g transform="translate(54.235067, 59.249994)"><g><path d="M 1.867188 -6.207031 C 2.617188 -6.265625 3.976562 -6.308594 5.128906 -6.308594 L 16.019531 -6.308594 C 16.871094 -6.308594 17.90625 -6.226562 18.394531 -6.207031 L 18.394531 -9.390625 C 17.867188 -9.347656 16.953125 -9.269531 16.019531 -9.269531 L 5.128906 -9.269531 C 4.078125 -9.269531 2.597656 -9.328125 1.867188 -9.390625 Z M 1.867188 -6.207031 "/></g></g></g><g fill="#c5f656" fill-opacity="1"><g transform="translate(75.319888, 59.249994)"><g><path d="M 16.589844 -13.648438 C 16.203125 -14.398438 15.472656 -15.675781 14.964844 -16.425781 L 13.363281 -15.757812 C 13.910156 -14.988281 14.539062 -13.789062 14.945312 -12.957031 Z M 6.0625 -6.957031 C 8.699219 -7.605469 11.964844 -8.617188 14.011719 -9.429688 C 14.683594 -9.671875 15.59375 -10.058594 16.386719 -10.382812 L 15.292969 -12.957031 C 14.5 -12.472656 13.8125 -12.148438 13.082031 -11.863281 C 11.277344 -11.09375 8.457031 -10.199219 6.0625 -9.613281 L 6.0625 -13.445312 C 6.0625 -14.011719 6.125 -14.925781 6.226562 -15.554688 L 3.222656 -15.554688 C 3.324219 -14.925781 3.386719 -13.890625 3.386719 -13.445312 L 3.386719 -2.394531 C 3.386719 -0.648438 4.402344 0.324219 6.164062 0.628906 C 7.039062 0.769531 8.253906 0.871094 9.570312 0.871094 C 11.804688 0.871094 14.886719 0.730469 16.792969 0.445312 L 16.792969 -2.515625 C 15.128906 -2.070312 11.84375 -1.804688 9.734375 -1.804688 C 8.820312 -1.804688 7.992188 -1.84375 7.382812 -1.925781 C 6.46875 -2.109375 6.0625 -2.332031 6.0625 -3.203125 Z M 15.757812 -16.691406 C 16.324219 -15.917969 16.972656 -14.742188 17.398438 -13.890625 L 19.003906 -14.582031 C 18.636719 -15.292969 17.90625 -16.589844 17.359375 -17.339844 Z M 15.757812 -16.691406 "/></g></g></g><g fill="#c5f656" fill-opacity="1"><g transform="translate(96.404706, 59.249994)"><g><path d="M 15.25 -14.988281 C 14.84375 -14.84375 14.035156 -14.722656 13.140625 -14.722656 L 6.003906 -14.722656 C 5.394531 -14.722656 4.15625 -14.785156 3.609375 -14.867188 L 3.609375 -11.984375 C 4.035156 -12.003906 5.152344 -12.128906 6.003906 -12.128906 L 12.878906 -12.128906 C 12.429688 -10.6875 11.195312 -8.679688 9.855469 -7.160156 C 7.949219 -5.03125 4.804688 -2.574219 1.542969 -1.339844 L 3.628906 0.851562 C 6.410156 -0.464844 9.105469 -2.574219 11.253906 -4.847656 C 13.160156 -3 15.046875 -0.933594 16.367188 0.890625 L 18.679688 -1.117188 C 17.480469 -2.574219 15.027344 -5.171875 13.019531 -6.914062 C 14.378906 -8.742188 15.515625 -10.910156 16.203125 -12.492188 C 16.386719 -12.898438 16.75 -13.527344 16.914062 -13.75 Z M 15.25 -14.988281 "/></g></g></g></svg>