<svg xmlns="http://www.w3.org/2000/svg" xmlns:xlink="http://www.w3.org/1999/xlink" width="400" zoomAndPan="magnify" viewBox="0 0 300 74.999997" height="100" preserveAspectRatio="xMidYMid meet" version="1.0"><defs><g/><clipPath id="b7a3014d15"><path d="M 3.753906 15.042969 L 45 15.042969 L 45 56.292969 L 3.753906 56.292969 Z M 3.753906 15.042969 " clip-rule="nonzero"/></clipPath></defs><g clip-path="url(#b7a3014d15)"><path fill="#7ed957" d="M 24.3125 15.042969 C 23.640625 15.042969 22.96875 15.074219 22.296875 15.140625 C 21.628906 15.207031 20.960938 15.304688 20.300781 15.4375 C 19.640625 15.566406 18.988281 15.730469 18.34375 15.925781 C 17.699219 16.121094 17.066406 16.347656 16.445312 16.605469 C 15.824219 16.863281 15.214844 17.152344 14.621094 17.46875 C 14.027344 17.785156 13.449219 18.132812 12.890625 18.507812 C 12.332031 18.878906 11.789062 19.28125 11.269531 19.707031 C 10.75 20.136719 10.25 20.585938 9.773438 21.0625 C 9.296875 21.539062 8.847656 22.039062 8.417969 22.558594 C 7.992188 23.078125 7.59375 23.617188 7.21875 24.179688 C 6.84375 24.738281 6.496094 25.316406 6.179688 25.910156 C 5.863281 26.503906 5.574219 27.113281 5.316406 27.734375 C 5.058594 28.355469 4.832031 28.988281 4.636719 29.632812 C 4.441406 30.277344 4.277344 30.929688 4.148438 31.589844 C 4.015625 32.25 3.917969 32.917969 3.851562 33.585938 C 3.785156 34.257812 3.753906 34.929688 3.753906 35.601562 C 3.753906 36.273438 3.785156 36.945312 3.851562 37.617188 C 3.917969 38.285156 4.015625 38.953125 4.148438 39.613281 C 4.277344 40.273438 4.441406 40.925781 4.636719 41.570312 C 4.832031 42.214844 5.058594 42.847656 5.316406 43.46875 C 5.574219 44.09375 5.863281 44.699219 6.179688 45.292969 C 6.496094 45.886719 6.84375 46.464844 7.21875 47.023438 C 7.59375 47.585938 7.992188 48.125 8.417969 48.644531 C 8.847656 49.164062 9.296875 49.664062 9.773438 50.140625 C 10.25 50.617188 10.75 51.066406 11.269531 51.496094 C 11.789062 51.921875 12.332031 52.324219 12.890625 52.695312 C 13.449219 53.070312 14.027344 53.417969 14.621094 53.734375 C 15.214844 54.050781 15.824219 54.339844 16.445312 54.597656 C 17.066406 54.855469 17.699219 55.082031 18.34375 55.277344 C 18.988281 55.472656 19.640625 55.636719 20.300781 55.765625 C 20.960938 55.898438 21.628906 55.996094 22.296875 56.0625 C 22.96875 56.128906 23.640625 56.164062 24.3125 56.164062 C 24.988281 56.164062 25.660156 56.128906 26.328125 56.0625 C 27 55.996094 27.664062 55.898438 28.324219 55.765625 C 28.984375 55.636719 29.636719 55.472656 30.28125 55.277344 C 30.925781 55.082031 31.558594 54.855469 32.179688 54.597656 C 32.804688 54.339844 33.410156 54.050781 34.003906 53.734375 C 34.597656 53.417969 35.175781 53.070312 35.734375 52.695312 C 36.296875 52.324219 36.835938 51.921875 37.355469 51.496094 C 37.878906 51.066406 38.375 50.617188 38.851562 50.140625 C 39.328125 49.664062 39.78125 49.164062 40.207031 48.644531 C 40.632812 48.125 41.035156 47.585938 41.410156 47.023438 C 41.78125 46.464844 42.128906 45.886719 42.445312 45.292969 C 42.761719 44.699219 43.050781 44.09375 43.308594 43.46875 C 43.566406 42.847656 43.792969 42.214844 43.988281 41.570312 C 44.183594 40.925781 44.347656 40.273438 44.480469 39.613281 C 44.609375 38.953125 44.707031 38.285156 44.773438 37.617188 C 44.839844 36.945312 44.875 36.273438 44.875 35.601562 C 44.875 34.929688 44.839844 34.257812 44.773438 33.585938 C 44.707031 32.917969 44.609375 32.25 44.476562 31.589844 C 44.347656 30.929688 44.183594 30.277344 43.988281 29.632812 C 43.792969 28.988281 43.566406 28.355469 43.308594 27.734375 C 43.050781 27.113281 42.761719 26.503906 42.445312 25.910156 C 42.128906 25.316406 41.78125 24.738281 41.40625 24.179688 C 41.035156 23.621094 40.632812 23.078125 40.207031 22.558594 C 39.777344 22.039062 39.328125 21.539062 38.851562 21.0625 C 38.375 20.585938 37.875 20.136719 37.355469 19.707031 C 36.835938 19.28125 36.296875 18.882812 35.734375 18.507812 C 35.175781 18.132812 34.597656 17.785156 34.003906 17.46875 C 33.410156 17.152344 32.804688 16.863281 32.179688 16.605469 C 31.558594 16.347656 30.925781 16.121094 30.28125 15.925781 C 29.636719 15.730469 28.984375 15.566406 28.324219 15.4375 C 27.664062 15.304688 27 15.207031 26.328125 15.140625 C 25.660156 15.074219 24.988281 15.042969 24.3125 15.042969 Z M 36.789062 44.5 C 36.527344 44.941406 36.222656 45.355469 35.878906 45.738281 C 35.535156 46.121094 35.160156 46.46875 34.75 46.78125 C 34.339844 47.09375 33.90625 47.363281 33.445312 47.59375 C 32.984375 47.824219 32.503906 48.007812 32.007812 48.148438 C 31.515625 48.285156 31.007812 48.378906 30.496094 48.421875 C 29.984375 48.464844 29.472656 48.460938 28.960938 48.40625 C 28.445312 48.351562 27.945312 48.25 27.453125 48.101562 C 26.960938 47.953125 26.484375 47.757812 26.027344 47.519531 C 23.113281 45.996094 20.492188 44.074219 18.164062 41.75 C 15.835938 39.414062 13.910156 36.785156 12.386719 33.859375 C 12.152344 33.40625 11.957031 32.929688 11.808594 32.4375 C 11.664062 31.945312 11.5625 31.445312 11.511719 30.933594 C 11.457031 30.421875 11.453125 29.910156 11.496094 29.398438 C 11.542969 28.886719 11.632812 28.382812 11.773438 27.890625 C 11.914062 27.394531 12.097656 26.917969 12.328125 26.460938 C 12.558594 26 12.828125 25.566406 13.140625 25.160156 C 13.453125 24.75 13.800781 24.375 14.183594 24.03125 C 14.566406 23.691406 14.980469 23.386719 15.421875 23.125 C 15.714844 22.945312 16.035156 22.832031 16.375 22.78125 C 16.714844 22.730469 17.054688 22.746094 17.386719 22.828125 C 17.722656 22.914062 18.027344 23.058594 18.304688 23.261719 C 18.582031 23.464844 18.808594 23.714844 18.988281 24.011719 L 20.65625 26.804688 C 20.757812 26.976562 20.835938 27.15625 20.898438 27.34375 C 20.957031 27.53125 20.996094 27.722656 21.011719 27.917969 C 21.027344 28.117188 21.019531 28.3125 20.992188 28.507812 C 20.964844 28.703125 20.914062 28.890625 20.84375 29.074219 C 20.773438 29.257812 20.679688 29.433594 20.570312 29.59375 C 20.460938 29.757812 20.332031 29.90625 20.191406 30.042969 C 20.046875 30.175781 19.886719 30.292969 19.71875 30.390625 C 19.546875 30.492188 19.367188 30.570312 19.179688 30.628906 C 18.917969 30.703125 18.6875 30.835938 18.484375 31.019531 C 18.285156 31.199219 18.132812 31.417969 18.03125 31.671875 C 17.933594 31.925781 17.894531 32.1875 17.914062 32.457031 C 17.933594 32.730469 18.015625 32.984375 18.152344 33.21875 C 19.203125 34.96875 20.453125 36.570312 21.898438 38.015625 C 23.347656 39.46875 24.949219 40.71875 26.710938 41.769531 C 27.1875 42.0625 27.6875 42.109375 28.214844 41.910156 C 28.800781 41.691406 29.167969 41.277344 29.3125 40.664062 C 29.375 40.480469 29.457031 40.304688 29.558594 40.140625 C 29.660156 39.976562 29.777344 39.824219 29.914062 39.683594 C 30.046875 39.546875 30.195312 39.421875 30.359375 39.316406 C 30.523438 39.210938 30.695312 39.125 30.875 39.058594 C 31.058594 38.988281 31.246094 38.945312 31.4375 38.917969 C 31.628906 38.890625 31.820312 38.886719 32.015625 38.90625 C 32.207031 38.921875 32.398438 38.960938 32.582031 39.019531 C 32.765625 39.078125 32.941406 39.160156 33.109375 39.257812 L 35.90625 40.929688 C 36.199219 41.105469 36.449219 41.335938 36.652344 41.613281 C 36.855469 41.890625 37 42.195312 37.082031 42.53125 C 37.167969 42.867188 37.183594 43.203125 37.132812 43.546875 C 37.082031 43.886719 36.96875 44.203125 36.789062 44.5 Z M 36.789062 44.5 " fill-opacity="1" fill-rule="nonzero"/></g><path stroke-linecap="butt" transform="matrix(0.75, 0, 0, 0.75, 32.361357, 12.519662)" fill="none" stroke-linejoin="miter" d="M 30.21611 36.343578 C 28.257776 36.343578 26.554651 35.911287 25.106734 35.041495 C 23.653609 34.171703 22.528609 32.817536 21.726526 30.978994 C 20.919234 29.140453 20.518192 26.817536 20.518192 24.005036 C 20.518192 21.192535 20.919234 18.86441 21.726526 17.031077 C 22.528609 15.192535 23.653609 13.838368 25.106734 12.968576 C 26.554651 12.098785 28.257776 11.661285 30.21611 11.661285 C 32.18486 11.661285 33.898402 12.098785 35.346318 12.968576 C 36.794235 13.838368 37.924444 15.192535 38.726527 17.031077 C 39.52861 18.86441 39.93486 21.192535 39.93486 24.005036 C 39.93486 26.817536 39.52861 29.140453 38.726527 30.978994 C 37.924444 32.817536 36.794235 34.171703 35.346318 35.041495 C 33.898402 35.911287 32.18486 36.343578 30.21611 36.343578 Z M 30.21611 32.322745 C 31.289026 32.322745 32.18486 32.062328 32.908818 31.546703 C 33.632777 31.025869 34.18486 30.150869 34.575485 28.926911 C 34.960902 27.702953 35.158818 26.062327 35.158818 24.005036 C 35.158818 21.947744 34.960902 20.307119 34.575485 19.077952 C 34.18486 17.853993 33.632777 16.984202 32.908818 16.463368 C 32.18486 15.942535 31.289026 15.682118 30.21611 15.682118 C 29.143193 15.682118 28.247359 15.942535 27.528609 16.463368 C 26.804651 16.984202 26.247359 17.853993 25.861943 19.077952 C 25.471318 20.307119 25.278609 21.947744 25.278609 24.005036 C 25.278609 26.062327 25.471318 27.702953 25.861943 28.926911 C 26.247359 30.150869 26.804651 31.025869 27.528609 31.546703 C 28.247359 32.062328 29.143193 32.322745 30.21611 32.322745 Z M 51.273403 35.999828 L 46.429653 35.999828 L 54.700487 16.338368 L 54.601528 15.994618 L 43.950486 15.994618 L 43.950486 12.005035 L 59.507779 12.005035 L 59.507779 16.20816 Z M 73.377572 36.343578 C 71.419238 36.343578 69.716113 35.911287 68.262988 35.041495 C 66.815071 34.171703 65.690071 32.817536 64.882779 30.978994 C 64.080696 29.140453 63.679654 26.817536 63.679654 24.005036 C 63.679654 21.192535 64.080696 18.86441 64.882779 17.031077 C 65.690071 15.192535 66.815071 13.838368 68.262988 12.968576 C 69.716113 12.098785 71.419238 11.661285 73.377572 11.661285 C 75.346322 11.661285 77.054655 12.098785 78.502572 12.968576 C 79.955697 13.838368 81.080697 15.192535 81.882781 17.031077 C 82.690072 18.86441 83.091114 21.192535 83.091114 24.005036 C 83.091114 26.817536 82.690072 29.140453 81.882781 30.978994 C 81.080697 32.817536 79.955697 34.171703 78.502572 35.041495 C 77.054655 35.911287 75.346322 36.343578 73.377572 36.343578 Z M 73.377572 32.322745 C 74.450488 32.322745 75.346322 32.062328 76.065072 31.546703 C 76.78903 31.025869 77.346322 30.150869 77.731739 28.926911 C 78.122364 27.702953 78.315072 26.062327 78.315072 24.005036 C 78.315072 21.947744 78.122364 20.307119 77.731739 19.077952 C 77.346322 17.853993 76.78903 16.984202 76.065072 16.463368 C 75.346322 15.942535 74.450488 15.682118 73.377572 15.682118 C 72.304655 15.682118 71.408821 15.942535 70.684863 16.463368 C 69.960905 16.984202 69.408821 17.853993 69.018196 19.077952 C 68.632779 20.307119 68.434863 21.947744 68.434863 24.005036 C 68.434863 26.062327 68.632779 27.702953 69.018196 28.926911 C 69.408821 30.150869 69.960905 31.025869 70.684863 31.546703 C 71.408821 32.062328 72.304655 32.322745 73.377572 32.322745 Z M 97.940074 26.348786 L 87.882781 26.348786 L 87.882781 22.343577 L 97.940074 22.343577 Z M 117.044242 35.999828 L 112.497366 35.999828 L 112.497366 30.781078 L 101.570282 30.781078 L 101.570282 26.958161 L 110.971325 12.005035 L 117.044242 12.005035 L 117.044242 26.958161 L 120.73695 26.958161 L 120.73695 30.781078 L 117.044242 30.781078 Z M 106.424449 26.614411 L 106.575491 26.958161 L 112.497366 26.958161 L 112.497366 17.666493 L 112.122366 17.603993 Z M 130.976535 35.999828 L 126.132784 35.999828 L 134.403618 16.338368 L 134.30466 15.994618 L 123.653617 15.994618 L 123.653617 12.005035 L 139.216119 12.005035 L 139.216119 16.20816 Z M 151.387995 36.343578 C 149.122369 36.343578 147.341119 35.890453 146.039036 34.973786 C 144.736952 34.062328 143.867161 32.781078 143.429661 31.140453 L 147.039036 29.515453 L 147.419244 29.598786 C 148.044244 31.426911 149.356744 32.33837 151.356745 32.33837 C 152.919245 32.33837 154.111953 31.692536 154.924453 30.395661 C 155.742162 29.098786 156.148412 27.156077 156.148412 24.562327 L 155.820287 24.447744 C 155.273412 25.484202 154.55987 26.275869 153.679661 26.812327 C 152.799453 27.343578 151.658828 27.614411 150.257786 27.614411 C 148.825494 27.614411 147.565078 27.296702 146.476536 26.661286 C 145.387994 26.025869 144.539036 25.119619 143.940077 23.947744 C 143.335911 22.77066 143.033827 21.390452 143.033827 19.80191 C 143.033827 18.150868 143.387994 16.713368 144.085911 15.484202 C 144.789036 14.260243 145.783827 13.317535 147.075494 12.656076 C 148.361953 11.994618 149.867161 11.661285 151.585911 11.661285 C 154.549453 11.661285 156.867162 12.598785 158.539037 14.478993 C 160.205704 16.353993 161.039037 19.374827 161.039037 23.541494 C 161.039037 26.411286 160.65362 28.796703 159.882787 30.697744 C 159.111954 32.603995 158.007787 34.020661 156.565078 34.947745 C 155.127578 35.880037 153.40362 36.343578 151.387995 36.343578 Z M 151.71612 23.723786 C 152.945286 23.723786 153.914036 23.364411 154.632786 22.640452 C 155.346328 21.921702 155.705703 20.947744 155.705703 19.718577 C 155.705703 18.484202 155.351537 17.505035 154.648411 16.781077 C 153.940078 16.062327 152.96612 15.697743 151.71612 15.697743 C 150.492161 15.697743 149.533828 16.05191 148.846328 16.749827 C 148.158828 17.447743 147.809869 18.442535 147.809869 19.718577 C 147.809869 20.98941 148.158828 21.973785 148.846328 22.671702 C 149.533828 23.374827 150.492161 23.723786 151.71612 23.723786 Z M 172.37758 35.999828 L 167.539038 35.999828 L 175.809872 16.338368 L 175.710913 15.994618 L 165.059871 15.994618 L 165.059871 12.005035 L 180.617164 12.005035 L 180.617164 16.20816 Z M 194.252581 26.348786 L 184.195289 26.348786 L 184.195289 22.343577 L 194.252581 22.343577 Z M 207.346332 36.343578 C 205.445291 36.343578 203.830707 36.046703 202.512999 35.458161 C 201.19529 34.86962 200.205707 34.02587 199.533832 32.93212 C 198.867165 31.83837 198.533832 30.541494 198.533832 29.041494 C 198.533832 27.650869 198.877582 26.447744 199.57029 25.432119 C 200.25779 24.411286 201.262999 23.614411 202.585915 23.036285 L 202.585915 22.692535 C 201.648415 22.109202 200.929665 21.421702 200.429665 20.624827 C 199.934874 19.822744 199.684873 18.890452 199.684873 17.817535 C 199.684873 16.603993 199.981749 15.531077 200.580707 14.598785 C 201.174457 13.671701 202.049457 12.947743 203.205707 12.432118 C 204.356749 11.921701 205.736957 11.661285 207.346332 11.661285 C 208.955708 11.661285 210.335916 11.921701 211.481749 12.432118 C 212.632791 12.947743 213.507791 13.671701 214.10675 14.598785 C 214.710916 15.531077 215.013 16.603993 215.013 17.817535 C 215.013 18.890452 214.757791 19.822744 214.257791 20.61441 C 213.752583 21.406077 213.023416 22.098785 212.075499 22.692535 L 212.075499 23.036285 C 213.476541 23.593577 214.502583 24.385244 215.158833 25.416494 C 215.815083 26.442536 216.143208 27.650869 216.143208 29.041494 C 216.143208 30.541494 215.809875 31.83837 215.143208 32.93212 C 214.476541 34.02587 213.486958 34.86962 212.174458 35.458161 C 210.861958 36.046703 209.252583 36.343578 207.346332 36.343578 Z M 207.346332 21.343577 C 208.299458 21.343577 209.054666 21.08316 209.622374 20.557119 C 210.184874 20.031077 210.466124 19.30191 210.466124 18.374827 C 210.466124 17.432118 210.184874 16.692535 209.622374 16.161285 C 209.054666 15.624827 208.299458 15.353993 207.346332 15.353993 C 206.372374 15.353993 205.606749 15.619618 205.049457 16.150868 C 204.492166 16.682118 204.210916 17.421702 204.210916 18.374827 C 204.210916 19.317535 204.492166 20.046702 205.049457 20.567535 C 205.606749 21.08316 206.372374 21.343577 207.346332 21.343577 Z M 207.346332 32.30712 C 208.627583 32.30712 209.617166 31.989411 210.320291 31.348786 C 211.018208 30.708161 211.367166 29.817536 211.367166 28.682119 C 211.367166 27.541494 211.018208 26.656077 210.320291 26.015452 C 209.617166 25.374827 208.627583 25.051911 207.346332 25.051911 C 206.054666 25.051911 205.059874 25.374827 204.361957 26.015452 C 203.658832 26.656077 203.309874 27.541494 203.309874 28.682119 C 203.309874 29.817536 203.658832 30.708161 204.361957 31.348786 C 205.059874 31.989411 206.054666 32.30712 207.346332 32.30712 Z M 230.700501 36.343578 C 228.742168 36.343578 227.039042 35.911287 225.585917 35.041495 C 224.138 34.171703 223.013 32.817536 222.205709 30.978994 C 221.403625 29.140453 221.002584 26.817536 221.002584 24.005036 C 221.002584 21.192535 221.403625 18.86441 222.205709 17.031077 C 223.013 15.192535 224.138 13.838368 225.585917 12.968576 C 227.039042 12.098785 228.742168 11.661285 230.700501 11.661285 C 232.669251 11.661285 234.377585 12.098785 235.825501 12.968576 C 237.278627 13.838368 238.403627 15.192535 239.210918 17.031077 C 240.013002 18.86441 240.414043 21.192535 240.414043 24.005036 C 240.414043 26.817536 240.013002 29.140453 239.210918 30.978994 C 238.403627 32.817536 237.278627 34.171703 235.825501 35.041495 C 234.377585 35.911287 232.669251 36.343578 230.700501 36.343578 Z M 230.700501 32.322745 C 231.773418 32.322745 232.669251 32.062328 233.39321 31.546703 C 234.11196 31.025869 234.669251 30.150869 235.054668 28.926911 C 235.445293 27.702953 235.638001 26.062327 235.638001 24.005036 C 235.638001 21.947744 235.445293 20.307119 235.054668 19.077952 C 234.669251 17.853993 234.11196 16.984202 233.39321 16.463368 C 232.669251 15.942535 231.773418 15.682118 230.700501 15.682118 C 229.627584 15.682118 228.731751 15.942535 228.007792 16.463368 C 227.283834 16.984202 226.731751 17.853993 226.341126 19.077952 C 225.955709 20.307119 225.757792 21.947744 225.757792 24.005036 C 225.757792 26.062327 225.955709 27.702953 226.341126 28.926911 C 226.731751 30.150869 227.283834 31.025869 228.007792 31.546703 C 228.731751 32.062328 229.627584 32.322745 230.700501 32.322745 Z M 253.80467 36.343578 C 251.539044 36.343578 249.757794 35.890453 248.455711 34.973786 C 247.153627 34.062328 246.283836 32.781078 245.846336 31.140453 L 249.455711 29.515453 L 249.835919 29.598786 C 250.455711 31.426911 251.768211 32.33837 253.77342 32.33837 C 255.33592 32.33837 256.528628 31.692536 257.341128 30.395661 C 258.158837 29.098786 258.565087 27.156077 258.565087 24.562327 L 258.236962 24.447744 C 257.690087 25.484202 256.976545 26.275869 256.096336 26.812327 C 255.216128 27.343578 254.075503 27.614411 252.674461 27.614411 C 251.236961 27.614411 249.976544 27.296702 248.888003 26.661286 C 247.799461 26.025869 246.955711 25.119619 246.356752 23.947744 C 245.752586 22.77066 245.450502 21.390452 245.450502 19.80191 C 245.450502 18.150868 245.799461 16.713368 246.502586 15.484202 C 247.200502 14.260243 248.195294 13.317535 249.486961 12.656076 C 250.778628 11.994618 252.283836 11.661285 254.002586 11.661285 C 256.966128 11.661285 259.283837 12.598785 260.950503 14.478993 C 262.622379 16.353993 263.455712 19.374827 263.455712 23.541494 C 263.455712 26.411286 263.070295 28.796703 262.299462 30.697744 C 261.528629 32.603995 260.419253 34.020661 258.981753 34.947745 C 257.544253 35.880037 255.820295 36.343578 253.80467 36.343578 Z M 254.132795 23.723786 C 255.356753 23.723786 256.330711 23.364411 257.044253 22.640452 C 257.763003 21.921702 258.122378 20.947744 258.122378 19.718577 C 258.122378 18.484202 257.768212 17.505035 257.065087 16.781077 C 256.356753 16.062327 255.382795 15.697743 254.132795 15.697743 C 252.908836 15.697743 251.950503 16.05191 251.263003 16.749827 C 250.570294 17.447743 250.226544 18.442535 250.226544 19.718577 C 250.226544 20.98941 250.570294 21.973785 251.263003 22.671702 C 251.950503 23.374827 252.908836 23.723786 254.132795 23.723786 Z M 276.846338 36.343578 C 274.580713 36.343578 272.794254 35.890453 271.497379 34.973786 C 270.195296 34.062328 269.325504 32.781078 268.888004 31.140453 L 272.497379 29.515453 L 272.872379 29.598786 C 273.49738 31.426911 274.80988 32.33837 276.80988 32.33837 C 278.377588 32.33837 279.565088 31.692536 280.382797 30.395661 C 281.195297 29.098786 281.601547 27.156077 281.601547 24.562327 L 281.273422 24.447744 C 280.726547 25.484202 280.013005 26.275869 279.132797 26.812327 C 278.252588 27.343578 277.111963 27.614411 275.710921 27.614411 C 274.27863 27.614411 273.018213 27.296702 271.929671 26.661286 C 270.841129 26.025869 269.997379 25.119619 269.393213 23.947744 C 268.794254 22.77066 268.492171 21.390452 268.492171 19.80191 C 268.492171 18.150868 268.841129 16.713368 269.544254 15.484202 C 270.242171 14.260243 271.236963 13.317535 272.528629 12.656076 C 273.820296 11.994618 275.325505 11.661285 277.044255 11.661285 C 280.007797 11.661285 282.325505 12.598785 283.992172 14.478993 C 285.658839 16.353993 286.492172 19.374827 286.492172 23.541494 C 286.492172 26.411286 286.106756 28.796703 285.335922 30.697744 C 284.565089 32.603995 283.460922 34.020661 282.023422 34.947745 C 280.585922 35.880037 278.856755 36.343578 276.846338 36.343578 Z M 277.174463 23.723786 C 278.398422 23.723786 279.367172 23.364411 280.085922 22.640452 C 280.804672 21.921702 281.158838 20.947744 281.158838 19.718577 C 281.158838 18.484202 280.80988 17.505035 280.101547 16.781077 C 279.398422 16.062327 278.419255 15.697743 277.174463 15.697743 C 275.945296 15.697743 274.992171 16.05191 274.299463 16.749827 C 273.611963 17.447743 273.268213 18.442535 273.268213 19.718577 C 273.268213 20.98941 273.611963 21.973785 274.299463 22.671702 C 274.992171 23.374827 275.945296 23.723786 277.174463 23.723786 Z M 277.174463 23.723786 " stroke="#c1ff72" stroke-width="2.521432" stroke-opacity="1" stroke-miterlimit="4"/><g fill="#ffffff" fill-opacity="1"><g transform="translate(39.275419, 39.51966)"><g/></g></g><g fill="#ffffff" fill-opacity="1"><g transform="translate(46.236356, 39.51966)"><g><path d="M 8.78125 0.265625 C 7.3125 0.265625 6.035156 -0.0625 4.953125 -0.71875 C 3.867188 -1.375 3.023438 -2.390625 2.421875 -3.765625 C 1.816406 -5.140625 1.515625 -6.882812 1.515625 -9 C 1.515625 -11.101562 1.816406 -12.84375 2.421875 -14.21875 C 3.023438 -15.601562 3.867188 -16.617188 4.953125 -17.265625 C 6.035156 -17.921875 7.3125 -18.25 8.78125 -18.25 C 10.257812 -18.25 11.539062 -17.921875 12.625 -17.265625 C 13.71875 -16.617188 14.566406 -15.601562 15.171875 -14.21875 C 15.773438 -12.84375 16.078125 -11.101562 16.078125 -9 C 16.078125 -6.882812 15.773438 -5.140625 15.171875 -3.765625 C 14.566406 -2.390625 13.71875 -1.375 12.625 -0.71875 C 11.539062 -0.0625 10.257812 0.265625 8.78125 0.265625 Z M 8.78125 -2.75 C 9.59375 -2.75 10.265625 -2.941406 10.796875 -3.328125 C 11.335938 -3.722656 11.753906 -4.378906 12.046875 -5.296875 C 12.335938 -6.222656 12.484375 -7.457031 12.484375 -9 C 12.484375 -10.539062 12.335938 -11.769531 12.046875 -12.6875 C 11.753906 -13.601562 11.335938 -14.253906 10.796875 -14.640625 C 10.265625 -15.035156 9.59375 -15.234375 8.78125 -15.234375 C 7.976562 -15.234375 7.304688 -15.035156 6.765625 -14.640625 C 6.222656 -14.253906 5.804688 -13.601562 5.515625 -12.6875 C 5.222656 -11.769531 5.078125 -10.539062 5.078125 -9 C 5.078125 -7.457031 5.222656 -6.222656 5.515625 -5.296875 C 5.804688 -4.378906 6.222656 -3.722656 6.765625 -3.328125 C 7.304688 -2.941406 7.976562 -2.75 8.78125 -2.75 Z M 8.78125 -2.75 "/></g></g></g><g fill="#ffffff" fill-opacity="1"><g transform="translate(64.833238, 39.51966)"><g><path d="M 5.984375 0 L 2.34375 0 L 8.546875 -14.75 L 8.484375 -15 L 0.5 -15 L 0.5 -17.984375 L 12.15625 -17.984375 L 12.15625 -14.84375 Z M 5.984375 0 "/></g></g></g><g fill="#ffffff" fill-opacity="1"><g transform="translate(78.605338, 39.51966)"><g><path d="M 8.78125 0.265625 C 7.3125 0.265625 6.035156 -0.0625 4.953125 -0.71875 C 3.867188 -1.375 3.023438 -2.390625 2.421875 -3.765625 C 1.816406 -5.140625 1.515625 -6.882812 1.515625 -9 C 1.515625 -11.101562 1.816406 -12.84375 2.421875 -14.21875 C 3.023438 -15.601562 3.867188 -16.617188 4.953125 -17.265625 C 6.035156 -17.921875 7.3125 -18.25 8.78125 -18.25 C 10.257812 -18.25 11.539062 -17.921875 12.625 -17.265625 C 13.71875 -16.617188 14.566406 -15.601562 15.171875 -14.21875 C 15.773438 -12.84375 16.078125 -11.101562 16.078125 -9 C 16.078125 -6.882812 15.773438 -5.140625 15.171875 -3.765625 C 14.566406 -2.390625 13.71875 -1.375 12.625 -0.71875 C 11.539062 -0.0625 10.257812 0.265625 8.78125 0.265625 Z M 8.78125 -2.75 C 9.59375 -2.75 10.265625 -2.941406 10.796875 -3.328125 C 11.335938 -3.722656 11.753906 -4.378906 12.046875 -5.296875 C 12.335938 -6.222656 12.484375 -7.457031 12.484375 -9 C 12.484375 -10.539062 12.335938 -11.769531 12.046875 -12.6875 C 11.753906 -13.601562 11.335938 -14.253906 10.796875 -14.640625 C 10.265625 -15.035156 9.59375 -15.234375 8.78125 -15.234375 C 7.976562 -15.234375 7.304688 -15.035156 6.765625 -14.640625 C 6.222656 -14.253906 5.804688 -13.601562 5.515625 -12.6875 C 5.222656 -11.769531 5.078125 -10.539062 5.078125 -9 C 5.078125 -7.457031 5.222656 -6.222656 5.515625 -5.296875 C 5.804688 -4.378906 6.222656 -3.722656 6.765625 -3.328125 C 7.304688 -2.941406 7.976562 -2.75 8.78125 -2.75 Z M 8.78125 -2.75 "/></g></g></g><g fill="#ffffff" fill-opacity="1"><g transform="translate(97.20222, 39.51966)"><g><path d="M 8.609375 -7.234375 L 1.078125 -7.234375 L 1.078125 -10.234375 L 8.609375 -10.234375 Z M 8.609375 -7.234375 "/></g></g></g><g fill="#ffffff" fill-opacity="1"><g transform="translate(107.921906, 39.51966)"><g><path d="M 12.21875 0 L 8.8125 0 L 8.8125 -3.90625 L 0.609375 -3.90625 L 0.609375 -6.78125 L 7.671875 -17.984375 L 12.21875 -17.984375 L 12.21875 -6.78125 L 14.984375 -6.78125 L 14.984375 -3.90625 L 12.21875 -3.90625 Z M 4.265625 -7.046875 L 4.375 -6.78125 L 8.8125 -6.78125 L 8.8125 -13.75 L 8.53125 -13.796875 Z M 4.265625 -7.046875 "/></g></g></g><g fill="#ffffff" fill-opacity="1"><g transform="translate(124.611024, 39.51966)"><g><path d="M 5.984375 0 L 2.34375 0 L 8.546875 -14.75 L 8.484375 -15 L 0.5 -15 L 0.5 -17.984375 L 12.15625 -17.984375 L 12.15625 -14.84375 Z M 5.984375 0 "/></g></g></g><g fill="#ffffff" fill-opacity="1"><g transform="translate(138.383123, 39.51966)"><g><path d="M 7.515625 0.265625 C 5.816406 0.265625 4.476562 -0.078125 3.5 -0.765625 C 2.53125 -1.453125 1.878906 -2.410156 1.546875 -3.640625 L 4.265625 -4.859375 L 4.546875 -4.796875 C 5.015625 -3.429688 6 -2.75 7.5 -2.75 C 8.664062 -2.75 9.554688 -3.234375 10.171875 -4.203125 C 10.785156 -5.171875 11.09375 -6.628906 11.09375 -8.578125 L 10.84375 -8.65625 C 10.425781 -7.882812 9.890625 -7.296875 9.234375 -6.890625 C 8.578125 -6.484375 7.722656 -6.28125 6.671875 -6.28125 C 5.597656 -6.28125 4.648438 -6.519531 3.828125 -7 C 3.015625 -7.476562 2.378906 -8.15625 1.921875 -9.03125 C 1.472656 -9.914062 1.25 -10.953125 1.25 -12.140625 C 1.25 -13.378906 1.507812 -14.457031 2.03125 -15.375 C 2.5625 -16.300781 3.3125 -17.007812 4.28125 -17.5 C 5.25 -18 6.378906 -18.25 7.671875 -18.25 C 9.890625 -18.25 11.625 -17.546875 12.875 -16.140625 C 14.125 -14.734375 14.75 -12.46875 14.75 -9.34375 C 14.75 -7.1875 14.457031 -5.394531 13.875 -3.96875 C 13.300781 -2.539062 12.472656 -1.476562 11.390625 -0.78125 C 10.316406 -0.0820312 9.023438 0.265625 7.515625 0.265625 Z M 7.765625 -9.203125 C 8.679688 -9.203125 9.40625 -9.472656 9.9375 -10.015625 C 10.476562 -10.554688 10.75 -11.285156 10.75 -12.203125 C 10.75 -13.128906 10.484375 -13.863281 9.953125 -14.40625 C 9.429688 -14.945312 8.703125 -15.21875 7.765625 -15.21875 C 6.847656 -15.21875 6.128906 -14.953125 5.609375 -14.421875 C 5.097656 -13.898438 4.84375 -13.160156 4.84375 -12.203125 C 4.84375 -11.253906 5.097656 -10.515625 5.609375 -9.984375 C 6.128906 -9.460938 6.847656 -9.203125 7.765625 -9.203125 Z M 7.765625 -9.203125 "/></g></g></g><g fill="#ffffff" fill-opacity="1"><g transform="translate(155.663036, 39.51966)"><g><path d="M 5.984375 0 L 2.34375 0 L 8.546875 -14.75 L 8.484375 -15 L 0.5 -15 L 0.5 -17.984375 L 12.15625 -17.984375 L 12.15625 -14.84375 Z M 5.984375 0 "/></g></g></g><g fill="#ffffff" fill-opacity="1"><g transform="translate(169.43513, 39.51966)"><g><path d="M 8.609375 -7.234375 L 1.078125 -7.234375 L 1.078125 -10.234375 L 8.609375 -10.234375 Z M 8.609375 -7.234375 "/></g></g></g><g fill="#ffffff" fill-opacity="1"><g transform="translate(180.15481, 39.51966)"><g><path d="M 7.71875 0.265625 C 6.289062 0.265625 5.082031 0.0390625 4.09375 -0.40625 C 3.101562 -0.851562 2.359375 -1.484375 1.859375 -2.296875 C 1.359375 -3.117188 1.109375 -4.09375 1.109375 -5.21875 C 1.109375 -6.257812 1.363281 -7.160156 1.875 -7.921875 C 2.394531 -8.679688 3.148438 -9.28125 4.140625 -9.71875 L 4.140625 -9.984375 C 3.441406 -10.410156 2.90625 -10.921875 2.53125 -11.515625 C 2.15625 -12.117188 1.96875 -12.828125 1.96875 -13.640625 C 1.96875 -14.546875 2.191406 -15.347656 2.640625 -16.046875 C 3.085938 -16.742188 3.742188 -17.285156 4.609375 -17.671875 C 5.472656 -18.054688 6.507812 -18.25 7.71875 -18.25 C 8.925781 -18.25 9.957031 -18.054688 10.8125 -17.671875 C 11.675781 -17.285156 12.332031 -16.742188 12.78125 -16.046875 C 13.238281 -15.347656 13.46875 -14.546875 13.46875 -13.640625 C 13.46875 -12.828125 13.273438 -12.125 12.890625 -11.53125 C 12.515625 -10.9375 11.972656 -10.421875 11.265625 -9.984375 L 11.265625 -9.71875 C 12.304688 -9.300781 13.070312 -8.707031 13.5625 -7.9375 C 14.0625 -7.164062 14.3125 -6.257812 14.3125 -5.21875 C 14.3125 -4.09375 14.0625 -3.117188 13.5625 -2.296875 C 13.0625 -1.484375 12.316406 -0.851562 11.328125 -0.40625 C 10.347656 0.0390625 9.144531 0.265625 7.71875 0.265625 Z M 7.71875 -10.984375 C 8.425781 -10.984375 8.988281 -11.179688 9.40625 -11.578125 C 9.832031 -11.972656 10.046875 -12.519531 10.046875 -13.21875 C 10.046875 -13.925781 9.832031 -14.476562 9.40625 -14.875 C 8.988281 -15.28125 8.425781 -15.484375 7.71875 -15.484375 C 6.988281 -15.484375 6.410156 -15.28125 5.984375 -14.875 C 5.566406 -14.476562 5.359375 -13.925781 5.359375 -13.21875 C 5.359375 -12.507812 5.566406 -11.957031 5.984375 -11.5625 C 6.410156 -11.175781 6.988281 -10.984375 7.71875 -10.984375 Z M 7.71875 -2.765625 C 8.675781 -2.765625 9.414062 -3.003906 9.9375 -3.484375 C 10.46875 -3.960938 10.734375 -4.628906 10.734375 -5.484375 C 10.734375 -6.335938 10.46875 -7.003906 9.9375 -7.484375 C 9.414062 -7.960938 8.675781 -8.203125 7.71875 -8.203125 C 6.75 -8.203125 6 -7.960938 5.46875 -7.484375 C 4.945312 -7.003906 4.6875 -6.335938 4.6875 -5.484375 C 4.6875 -4.628906 4.945312 -3.960938 5.46875 -3.484375 C 6 -3.003906 6.75 -2.765625 7.71875 -2.765625 Z M 7.71875 -2.765625 "/></g></g></g><g fill="#ffffff" fill-opacity="1"><g transform="translate(196.597771, 39.51966)"><g><path d="M 8.78125 0.265625 C 7.3125 0.265625 6.035156 -0.0625 4.953125 -0.71875 C 3.867188 -1.375 3.023438 -2.390625 2.421875 -3.765625 C 1.816406 -5.140625 1.515625 -6.882812 1.515625 -9 C 1.515625 -11.101562 1.816406 -12.84375 2.421875 -14.21875 C 3.023438 -15.601562 3.867188 -16.617188 4.953125 -17.265625 C 6.035156 -17.921875 7.3125 -18.25 8.78125 -18.25 C 10.257812 -18.25 11.539062 -17.921875 12.625 -17.265625 C 13.71875 -16.617188 14.566406 -15.601562 15.171875 -14.21875 C 15.773438 -12.84375 16.078125 -11.101562 16.078125 -9 C 16.078125 -6.882812 15.773438 -5.140625 15.171875 -3.765625 C 14.566406 -2.390625 13.71875 -1.375 12.625 -0.71875 C 11.539062 -0.0625 10.257812 0.265625 8.78125 0.265625 Z M 8.78125 -2.75 C 9.59375 -2.75 10.265625 -2.941406 10.796875 -3.328125 C 11.335938 -3.722656 11.753906 -4.378906 12.046875 -5.296875 C 12.335938 -6.222656 12.484375 -7.457031 12.484375 -9 C 12.484375 -10.539062 12.335938 -11.769531 12.046875 -12.6875 C 11.753906 -13.601562 11.335938 -14.253906 10.796875 -14.640625 C 10.265625 -15.035156 9.59375 -15.234375 8.78125 -15.234375 C 7.976562 -15.234375 7.304688 -15.035156 6.765625 -14.640625 C 6.222656 -14.253906 5.804688 -13.601562 5.515625 -12.6875 C 5.222656 -11.769531 5.078125 -10.539062 5.078125 -9 C 5.078125 -7.457031 5.222656 -6.222656 5.515625 -5.296875 C 5.804688 -4.378906 6.222656 -3.722656 6.765625 -3.328125 C 7.304688 -2.941406 7.976562 -2.75 8.78125 -2.75 Z M 8.78125 -2.75 "/></g></g></g><g fill="#ffffff" fill-opacity="1"><g transform="translate(215.194647, 39.51966)"><g><path d="M 7.515625 0.265625 C 5.816406 0.265625 4.476562 -0.078125 3.5 -0.765625 C 2.53125 -1.453125 1.878906 -2.410156 1.546875 -3.640625 L 4.265625 -4.859375 L 4.546875 -4.796875 C 5.015625 -3.429688 6 -2.75 7.5 -2.75 C 8.664062 -2.75 9.554688 -3.234375 10.171875 -4.203125 C 10.785156 -5.171875 11.09375 -6.628906 11.09375 -8.578125 L 10.84375 -8.65625 C 10.425781 -7.882812 9.890625 -7.296875 9.234375 -6.890625 C 8.578125 -6.484375 7.722656 -6.28125 6.671875 -6.28125 C 5.597656 -6.28125 4.648438 -6.519531 3.828125 -7 C 3.015625 -7.476562 2.378906 -8.15625 1.921875 -9.03125 C 1.472656 -9.914062 1.25 -10.953125 1.25 -12.140625 C 1.25 -13.378906 1.507812 -14.457031 2.03125 -15.375 C 2.5625 -16.300781 3.3125 -17.007812 4.28125 -17.5 C 5.25 -18 6.378906 -18.25 7.671875 -18.25 C 9.890625 -18.25 11.625 -17.546875 12.875 -16.140625 C 14.125 -14.734375 14.75 -12.46875 14.75 -9.34375 C 14.75 -7.1875 14.457031 -5.394531 13.875 -3.96875 C 13.300781 -2.539062 12.472656 -1.476562 11.390625 -0.78125 C 10.316406 -0.0820312 9.023438 0.265625 7.515625 0.265625 Z M 7.765625 -9.203125 C 8.679688 -9.203125 9.40625 -9.472656 9.9375 -10.015625 C 10.476562 -10.554688 10.75 -11.285156 10.75 -12.203125 C 10.75 -13.128906 10.484375 -13.863281 9.953125 -14.40625 C 9.429688 -14.945312 8.703125 -15.21875 7.765625 -15.21875 C 6.847656 -15.21875 6.128906 -14.953125 5.609375 -14.421875 C 5.097656 -13.898438 4.84375 -13.160156 4.84375 -12.203125 C 4.84375 -11.253906 5.097656 -10.515625 5.609375 -9.984375 C 6.128906 -9.460938 6.847656 -9.203125 7.765625 -9.203125 Z M 7.765625 -9.203125 "/></g></g></g><g fill="#ffffff" fill-opacity="1"><g transform="translate(232.47456, 39.51966)"><g><path d="M 7.515625 0.265625 C 5.816406 0.265625 4.476562 -0.078125 3.5 -0.765625 C 2.53125 -1.453125 1.878906 -2.410156 1.546875 -3.640625 L 4.265625 -4.859375 L 4.546875 -4.796875 C 5.015625 -3.429688 6 -2.75 7.5 -2.75 C 8.664062 -2.75 9.554688 -3.234375 10.171875 -4.203125 C 10.785156 -5.171875 11.09375 -6.628906 11.09375 -8.578125 L 10.84375 -8.65625 C 10.425781 -7.882812 9.890625 -7.296875 9.234375 -6.890625 C 8.578125 -6.484375 7.722656 -6.28125 6.671875 -6.28125 C 5.597656 -6.28125 4.648438 -6.519531 3.828125 -7 C 3.015625 -7.476562 2.378906 -8.15625 1.921875 -9.03125 C 1.472656 -9.914062 1.25 -10.953125 1.25 -12.140625 C 1.25 -13.378906 1.507812 -14.457031 2.03125 -15.375 C 2.5625 -16.300781 3.3125 -17.007812 4.28125 -17.5 C 5.25 -18 6.378906 -18.25 7.671875 -18.25 C 9.890625 -18.25 11.625 -17.546875 12.875 -16.140625 C 14.125 -14.734375 14.75 -12.46875 14.75 -9.34375 C 14.75 -7.1875 14.457031 -5.394531 13.875 -3.96875 C 13.300781 -2.539062 12.472656 -1.476562 11.390625 -0.78125 C 10.316406 -0.0820312 9.023438 0.265625 7.515625 0.265625 Z M 7.765625 -9.203125 C 8.679688 -9.203125 9.40625 -9.472656 9.9375 -10.015625 C 10.476562 -10.554688 10.75 -11.285156 10.75 -12.203125 C 10.75 -13.128906 10.484375 -13.863281 9.953125 -14.40625 C 9.429688 -14.945312 8.703125 -15.21875 7.765625 -15.21875 C 6.847656 -15.21875 6.128906 -14.953125 5.609375 -14.421875 C 5.097656 -13.898438 4.84375 -13.160156 4.84375 -12.203125 C 4.84375 -11.253906 5.097656 -10.515625 5.609375 -9.984375 C 6.128906 -9.460938 6.847656 -9.203125 7.765625 -9.203125 Z M 7.765625 -9.203125 "/></g></g></g><path stroke-linecap="butt" transform="matrix(0.75, 0, 0, 0.75, 11.73088, 42.944381)" fill="none" stroke-linejoin="miter" d="M 59.108831 13.001243 L 52.931747 13.001243 L 52.931747 10.324159 L 59.108831 10.324159 Z M 62.265081 6.334576 L 62.265081 4.751242 L 56.936956 4.751242 L 56.936956 2.433534 L 55.160914 2.433534 L 55.160914 4.751242 L 49.843205 4.751242 L 49.843205 6.334576 L 55.160914 6.334576 L 55.160914 8.782493 L 51.228622 8.782493 L 51.228622 15.188743 L 52.931747 15.188743 L 52.931747 14.548118 L 59.108831 14.548118 L 59.108831 15.131451 L 60.884873 15.131451 L 60.884873 8.782493 L 56.936956 8.782493 L 56.936956 6.334576 Z M 69.009874 8.454368 L 67.749457 8.808534 L 67.749457 6.610617 L 68.884874 6.610617 L 68.884874 5.063742 L 67.749457 5.063742 L 67.749457 2.44395 L 66.265082 2.44395 L 66.265082 5.063742 L 65.619248 5.063742 C 65.702582 4.516867 65.77029 3.990826 65.827582 3.44395 L 64.473415 3.209575 C 64.353623 4.818951 64.119248 6.527284 63.697373 7.605409 C 63.994248 7.782493 64.593207 8.152284 64.843207 8.355409 C 65.030707 7.865826 65.197373 7.282492 65.348415 6.610617 L 66.265082 6.610617 L 66.265082 9.219993 C 65.33279 9.475201 64.499457 9.699159 63.817165 9.850201 L 64.212998 11.391868 C 64.843207 11.230409 65.525498 11.006451 66.265082 10.787701 L 66.265082 15.19916 L 67.749457 15.19916 L 67.749457 10.339784 C 68.254665 10.188743 68.733832 10.027284 69.228624 9.886659 Z M 71.436957 4.548117 C 71.629665 3.943951 71.806749 3.329367 71.947374 2.704367 L 70.473415 2.433534 C 70.061957 4.438742 69.306749 6.391867 68.228623 7.579367 C 68.556749 7.782493 69.202582 8.235618 69.45779 8.496034 C 69.98904 7.839784 70.473415 6.990826 70.86404 6.048117 L 71.561957 6.048117 C 70.962999 8.032493 69.89529 10.053326 68.546332 11.121034 C 68.968207 11.350201 69.48904 11.719993 69.785915 12.032493 C 71.166124 10.719993 72.311957 8.277284 72.916124 6.048117 L 73.556749 6.048117 C 72.874457 9.246034 71.509874 12.344993 69.322374 13.91791 C 69.775499 14.152285 70.33279 14.548118 70.650499 14.860618 C 72.848416 13.04291 74.254666 9.490826 74.921332 6.048117 L 74.989041 6.048117 C 74.775499 10.954368 74.525499 12.813743 74.186957 13.251243 C 74.020291 13.454368 73.884874 13.51166 73.681749 13.51166 C 73.421332 13.51166 72.968207 13.51166 72.468207 13.454368 C 72.707791 13.902285 72.874457 14.57416 72.916124 15.037701 C 73.504666 15.063743 74.077582 15.063743 74.457791 14.996035 C 74.910916 14.902285 75.212999 14.751243 75.525499 14.287701 C 76.046332 13.60541 76.285916 11.376243 76.546332 5.287701 C 76.561957 5.089784 76.572374 4.548117 76.572374 4.548117 Z M 82.5255 6.761659 L 83.499458 6.417909 C 83.348416 6.074159 83.061958 5.548117 82.811958 5.110617 L 86.176542 5.110617 C 86.009875 5.610617 85.723417 6.240826 85.452583 6.761659 Z M 88.416125 9.699159 C 87.843208 9.230409 86.936958 8.589784 86.213 8.068951 L 88.416125 8.068951 Z M 82.348416 10.173118 C 83.004666 9.673118 83.676541 9.110618 84.155708 8.605409 L 83.072375 8.068951 L 85.749458 8.068951 L 85.0255 8.808534 C 85.546333 9.219993 86.228625 9.709576 86.7755 10.173118 Z M 85.765083 12.38666 L 83.11925 12.38666 L 83.11925 11.292909 L 85.765083 11.292909 Z M 90.546334 3.740826 L 85.697375 3.740826 C 85.520292 3.303325 85.285917 2.782492 85.067167 2.360617 L 83.43175 2.75645 C 83.567166 3.058534 83.718208 3.402284 83.838 3.740826 L 78.400499 3.740826 L 78.400499 5.110617 L 82.134875 5.110617 L 81.218208 5.397076 C 81.421333 5.818951 81.68175 6.350201 81.848416 6.761659 L 79.046333 6.761659 L 79.046333 15.147076 L 80.603624 15.147076 L 80.603624 8.068951 L 83.035916 8.068951 C 82.421333 8.615826 81.421333 9.204368 80.640083 9.600201 C 80.838 9.912701 81.160916 10.683534 81.24425 10.923118 C 81.410916 10.829368 81.588 10.719993 81.765083 10.600201 L 81.765083 14.068951 L 83.11925 14.068951 L 83.11925 13.51166 L 87.061958 13.51166 L 87.061958 10.407493 C 87.280708 10.584576 87.457792 10.746034 87.608833 10.886659 L 88.416125 10.011659 L 88.416125 13.657493 C 88.416125 13.865826 88.332792 13.933535 88.114042 13.933535 C 87.910917 13.94916 87.129667 13.94916 86.463 13.91791 C 86.6505 14.246035 86.843208 14.751243 86.910917 15.10541 C 88.004667 15.10541 88.74425 15.094993 89.233834 14.902285 C 89.739042 14.709576 89.916125 14.397076 89.916125 13.673118 L 89.916125 6.761659 L 87.093208 6.761659 C 87.364042 6.350201 87.666125 5.871034 87.936958 5.397076 L 86.530708 5.110617 L 90.546334 5.110617 Z M 95.853626 11.621034 L 95.853626 13.193951 L 94.296334 13.193951 L 94.296334 11.621034 Z M 97.275501 10.339784 L 92.890084 10.339784 L 92.890084 15.01166 L 94.296334 15.01166 L 94.296334 14.464785 L 97.275501 14.464785 Z M 92.93175 9.673118 L 97.317168 9.673118 L 97.317168 8.454368 L 92.93175 8.454368 Z M 105.035918 8.537701 L 102.223418 8.537701 L 102.223418 5.803326 L 104.733835 5.803326 L 104.733835 4.313742 L 100.296334 4.313742 C 100.473418 3.782492 100.640084 3.246034 100.759876 2.704367 L 99.119251 2.376242 C 98.874459 3.657492 98.421334 4.928326 97.864043 5.954367 L 97.864043 4.683534 L 95.009876 4.683534 L 95.827584 4.355409 C 95.759876 3.824159 95.473417 3.016867 95.119251 2.44395 L 93.957792 2.865825 C 94.244251 3.44395 94.478626 4.152284 94.556751 4.683534 L 92.265084 4.683534 L 92.265084 5.969992 L 97.848418 5.969992 C 97.686959 6.272076 97.509876 6.542909 97.317168 6.787701 L 97.317168 6.594992 L 92.93175 6.594992 L 92.93175 7.829368 L 97.317168 7.829368 L 97.317168 7.131451 C 97.728626 7.334576 98.275501 7.704368 98.561959 7.917909 C 98.983834 7.344992 99.395293 6.621034 99.749459 5.803326 L 100.567168 5.803326 L 100.567168 8.537701 L 97.728626 8.537701 L 97.728626 10.079368 L 100.567168 10.079368 L 100.567168 15.173118 L 102.223418 15.173118 L 102.223418 10.079368 L 105.035918 10.079368 Z M 112.160919 8.058534 L 112.160919 10.246034 L 109.567169 10.246034 L 109.567169 8.058534 Z M 113.775502 11.803326 L 113.775502 6.511659 L 107.983835 6.511659 L 107.983835 12.839785 L 109.567169 12.839785 L 109.567169 11.803326 Z M 119.030711 3.344992 L 106.728627 3.344992 L 106.728627 4.985617 L 115.754669 4.985617 L 115.754669 13.100201 C 115.754669 13.38666 115.629669 13.48041 115.317169 13.48041 C 114.989044 13.48041 113.801544 13.490826 112.832794 13.438743 C 113.077585 13.876243 113.40571 14.683535 113.504669 15.162701 C 114.895294 15.162701 115.905711 15.131451 116.588002 14.860618 C 117.233836 14.584576 117.463002 14.110618 117.463002 13.126243 L 117.463002 4.985617 L 119.030711 4.985617 Z M 125.749462 4.490826 L 123.207795 4.490826 L 124.046336 4.110617 C 123.921336 3.647076 123.561961 2.907492 123.22342 2.376242 L 122.00467 2.88145 C 122.291128 3.386659 122.56717 4.016867 122.702586 4.490826 L 120.671336 4.490826 L 120.671336 5.777284 L 125.749462 5.777284 Z M 125.259878 7.746034 L 125.259878 6.511659 L 121.327586 6.511659 L 121.327586 7.746034 Z M 123.963003 11.803326 L 123.963003 13.371035 L 122.650503 13.371035 L 122.650503 11.803326 Z M 125.353628 10.516868 L 121.280711 10.516868 L 121.280711 15.188743 L 122.650503 15.188743 L 122.650503 14.657493 L 125.353628 14.657493 Z M 121.103628 9.725201 L 125.369253 9.725201 L 125.369253 8.496034 L 121.103628 8.496034 Z M 130.572379 13.152285 L 130.572379 9.329368 L 132.989045 9.329368 L 132.989045 7.798118 L 130.572379 7.798118 L 130.572379 4.615826 L 133.12967 4.615826 L 133.12967 3.06895 L 126.077587 3.06895 L 126.077587 4.615826 L 128.97342 4.615826 L 128.97342 13.152285 L 127.963003 13.152285 L 127.963003 6.501242 L 126.447378 6.501242 L 126.447378 13.152285 L 125.69217 13.152285 L 125.69217 14.69916 L 133.468212 14.69916 L 133.468212 13.152285 Z M 130.572379 13.152285 " stroke="#7ed957" stroke-width="1.024695" stroke-opacity="1" stroke-miterlimit="4"/><path stroke-linecap="butt" transform="matrix(0.75, 0, 0, 0.75, 11.73088, 42.944381)" fill="none" stroke-linejoin="miter" d="M 136.317171 14.058535 C 136.077587 14.058535 135.874462 14.01166 135.692171 13.91791 C 135.509879 13.818951 135.374462 13.688743 135.280712 13.522076 C 135.181754 13.350201 135.134879 13.157493 135.134879 12.943951 C 135.134879 12.73041 135.181754 12.54291 135.280712 12.371035 C 135.374462 12.204368 135.509879 12.068951 135.692171 11.969993 C 135.874462 11.876243 136.077587 11.82416 136.317171 11.82416 C 136.556754 11.82416 136.765087 11.871035 136.947379 11.969993 C 137.124462 12.063743 137.265087 12.19916 137.358837 12.365826 C 137.452587 12.532493 137.504671 12.725201 137.504671 12.938743 C 137.504671 13.26166 137.395296 13.532493 137.181754 13.740826 C 136.963004 13.954368 136.676546 14.058535 136.317171 14.058535 Z M 136.317171 8.803326 C 136.077587 8.803326 135.874462 8.756451 135.692171 8.662701 C 135.509879 8.563743 135.374462 8.433534 135.280712 8.261659 C 135.181754 8.094993 135.134879 7.902284 135.134879 7.688743 C 135.134879 7.475201 135.181754 7.287701 135.280712 7.115826 C 135.374462 6.949159 135.509879 6.813742 135.692171 6.714784 C 135.874462 6.621034 136.077587 6.568951 136.317171 6.568951 C 136.556754 6.568951 136.765087 6.615826 136.947379 6.714784 C 137.124462 6.808534 137.265087 6.938742 137.358837 7.110617 C 137.452587 7.277284 137.504671 7.469992 137.504671 7.683534 C 137.504671 8.006451 137.395296 8.277284 137.181754 8.485618 C 136.963004 8.699159 136.676546 8.803326 136.317171 8.803326 Z M 136.317171 8.803326 " stroke="#7ed957" stroke-width="1.024695" stroke-opacity="1" stroke-miterlimit="4"/><path stroke-linecap="butt" transform="matrix(0.75, 0, 0, 0.75, 11.73088, 42.944381)" fill="none" stroke-linejoin="miter" d="M 150.358839 6.214784 C 150.72863 5.777284 151.108839 5.240826 151.421339 4.641867 L 151.968214 4.641867 C 152.348422 5.162701 152.75988 5.777284 152.952589 6.214784 Z M 152.718214 8.329368 L 150.004672 8.329368 L 150.004672 7.553326 L 152.718214 7.553326 Z M 148.400505 10.475201 L 146.067171 10.475201 C 146.108838 10.214784 146.13488 9.943951 146.176547 9.673118 L 148.400505 9.673118 Z M 146.108838 4.657492 C 146.421338 5.173117 146.692172 5.787701 146.817172 6.214784 L 144.494255 6.214784 C 144.905713 5.777284 145.317171 5.261659 145.69738 4.657492 Z M 155.640089 3.469992 L 152.00988 3.469992 C 152.119255 3.209575 152.213005 2.933534 152.285922 2.688742 L 150.713005 2.31895 C 150.369255 3.522075 149.671338 4.740826 148.85363 5.475201 C 149.19738 5.636659 149.780713 5.969992 150.150505 6.214784 L 146.900505 6.214784 L 148.239047 5.709576 C 148.145297 5.423117 147.952588 5.037701 147.749463 4.657492 L 149.520297 4.657492 L 149.520297 3.480409 L 146.369255 3.480409 C 146.489047 3.219992 146.60363 2.959575 146.707797 2.719992 L 145.233838 2.31895 C 144.785921 3.553325 143.94738 4.777284 143.035921 5.558534 C 143.364046 5.709576 143.921338 6.011659 144.265088 6.240826 L 144.265088 7.553326 L 148.400505 7.553326 L 148.400505 8.329368 L 144.754671 8.329368 C 144.660921 9.475201 144.457796 10.897076 144.249463 11.829368 L 147.186963 11.829368 C 146.119255 12.688743 144.645296 13.438743 143.22863 13.865826 C 143.567171 14.162701 144.020296 14.751243 144.249463 15.147076 C 145.739046 14.584576 147.254672 13.657493 148.400505 12.537701 L 148.400505 15.19916 L 150.004672 15.19916 L 150.004672 11.829368 L 153.270297 11.829368 C 153.181755 12.579368 153.07238 12.94916 152.936964 13.084576 C 152.811964 13.193951 152.676547 13.204368 152.473422 13.204368 C 152.22863 13.225201 151.655714 13.204368 151.077589 13.152285 C 151.338005 13.548118 151.504672 14.152285 151.530714 14.626243 C 152.239047 14.657493 152.88488 14.641868 153.270297 14.600201 C 153.692172 14.558535 154.020297 14.44916 154.306756 14.121035 C 154.660922 13.766868 154.822381 12.881451 154.957797 11.063743 C 154.989047 10.871034 154.999464 10.475201 154.999464 10.475201 L 150.004672 10.475201 L 150.004672 9.673118 L 154.332797 9.673118 L 154.332797 6.214784 L 152.97863 6.214784 L 154.369256 5.636659 C 154.233839 5.365826 153.989047 5.001242 153.718214 4.641867 L 155.640089 4.641867 Z M 155.640089 3.469992 " stroke="#7ed957" stroke-width="1.024695" stroke-opacity="1" stroke-miterlimit="4"/><path stroke-linecap="butt" transform="matrix(0.75, 0, 0, 0.75, 11.73088, 42.944381)" fill="none" stroke-linejoin="miter" d="M 160.692173 14.141868 C 159.650506 14.141868 158.817173 13.91791 158.207797 13.475201 C 157.593214 13.032493 157.202589 12.407493 157.041131 11.600201 L 158.499464 10.917909 L 158.650506 10.943951 C 158.817173 11.485618 159.051548 11.876243 159.358839 12.121035 C 159.660923 12.371035 160.082798 12.490826 160.624464 12.490826 C 161.150506 12.490826 161.551548 12.371035 161.827589 12.126243 C 162.103631 11.881451 162.239048 11.527284 162.239048 11.058534 C 162.239048 10.600201 162.103631 10.251243 161.832798 10.006451 C 161.556756 9.761659 161.155714 9.636659 160.624464 9.636659 L 159.160923 9.636659 L 159.160923 8.136659 L 160.442173 8.136659 C 160.874464 8.136659 161.223423 8.027284 161.478631 7.808534 C 161.739048 7.594992 161.869256 7.282492 161.869256 6.876242 C 161.869256 6.475201 161.744256 6.173117 161.504673 5.975201 C 161.259881 5.772076 160.926548 5.667909 160.499464 5.667909 C 160.061964 5.667909 159.676548 5.772076 159.343214 5.975201 C 159.009881 6.178326 158.739048 6.454367 158.530714 6.803326 L 158.379673 6.829367 L 157.364047 5.647076 C 157.707797 5.188742 158.150506 4.813742 158.686964 4.532492 C 159.223423 4.251242 159.864048 4.110617 160.608839 4.110617 C 161.629673 4.110617 162.410923 4.324159 162.947381 4.751242 C 163.48384 5.173117 163.754673 5.777284 163.754673 6.548117 C 163.754673 7.016867 163.645298 7.417909 163.426548 7.746034 C 163.213006 8.079368 162.895298 8.365826 162.489048 8.605409 L 162.489048 8.746034 C 163.614048 9.141868 164.176548 9.938743 164.176548 11.147076 C 164.176548 11.751243 164.04634 12.277285 163.791131 12.725201 C 163.530715 13.173118 163.14009 13.522076 162.619256 13.772076 C 162.103631 14.016868 161.457798 14.141868 160.692173 14.141868 Z M 170.093215 14.141868 C 169.301548 14.141868 168.60884 13.964785 168.020298 13.610618 C 167.426548 13.256451 166.968215 12.704368 166.645298 11.959576 C 166.317173 11.209576 166.155715 10.266868 166.155715 9.126243 C 166.155715 7.980409 166.317173 7.037701 166.645298 6.287701 C 166.968215 5.542909 167.426548 4.990826 168.020298 4.636659 C 168.60884 4.287701 169.301548 4.110617 170.093215 4.110617 C 170.895299 4.110617 171.593215 4.287701 172.181757 4.636659 C 172.770299 4.990826 173.228632 5.542909 173.551549 6.287701 C 173.879674 7.037701 174.04634 7.980409 174.04634 9.126243 C 174.04634 10.266868 173.879674 11.209576 173.551549 11.959576 C 173.228632 12.704368 172.770299 13.256451 172.181757 13.610618 C 171.593215 13.964785 170.895299 14.141868 170.093215 14.141868 Z M 170.093215 12.506451 C 170.530715 12.506451 170.895299 12.402285 171.186965 12.188743 C 171.48384 11.98041 171.707799 11.621034 171.864049 11.126243 C 172.025507 10.626243 172.103632 9.959576 172.103632 9.126243 C 172.103632 8.287701 172.025507 7.621034 171.864049 7.121034 C 171.707799 6.626242 171.48384 6.272076 171.186965 6.058534 C 170.895299 5.850201 170.530715 5.740826 170.093215 5.740826 C 169.660923 5.740826 169.29634 5.850201 168.999465 6.058534 C 168.707798 6.272076 168.48384 6.626242 168.322382 7.121034 C 168.166132 7.621034 168.088007 8.287701 168.088007 9.126243 C 168.088007 9.959576 168.166132 10.626243 168.322382 11.126243 C 168.48384 11.621034 168.707798 11.98041 168.999465 12.188743 C 169.29634 12.402285 169.660923 12.506451 170.093215 12.506451 Z M 180.072383 14.141868 C 179.338008 14.141868 178.681757 13.969993 178.108841 13.631451 C 177.530716 13.29291 177.072382 12.756451 176.733841 12.022076 C 176.400507 11.287701 176.228632 10.350201 176.228632 9.219993 C 176.228632 8.063743 176.405716 7.100201 176.765091 6.339784 C 177.119257 5.579367 177.603632 5.016867 178.218216 4.652284 C 178.838008 4.287701 179.541133 4.110617 180.338008 4.110617 C 180.999466 4.110617 181.572383 4.204367 182.046341 4.397076 C 182.525508 4.584576 182.900508 4.871034 183.166133 5.240826 L 182.218216 6.454367 L 182.051549 6.454367 C 181.645299 5.969992 181.077591 5.730409 180.338008 5.730409 C 178.952591 5.730409 178.239049 6.746034 178.207799 8.777284 L 178.348424 8.824159 C 178.577591 8.407493 178.874466 8.084576 179.249466 7.865826 C 179.619258 7.647076 180.088008 7.537701 180.650508 7.537701 C 181.254674 7.537701 181.780716 7.662701 182.218216 7.917909 C 182.660924 8.178326 182.994258 8.542909 183.233841 9.016868 C 183.468216 9.490826 183.588008 10.058534 183.588008 10.709576 C 183.588008 11.423118 183.442175 12.037701 183.160925 12.553326 C 182.879675 13.068951 182.473424 13.459576 181.947383 13.735618 C 181.416133 14.006451 180.791133 14.141868 180.072383 14.141868 Z M 180.030716 12.490826 C 180.530716 12.490826 180.926549 12.344993 181.213008 12.048118 C 181.494258 11.751243 181.640091 11.339784 181.640091 10.803326 C 181.640091 10.272076 181.494258 9.855409 181.213008 9.563743 C 180.926549 9.266868 180.530716 9.115826 180.030716 9.115826 C 179.702591 9.115826 179.416133 9.188743 179.166133 9.324159 C 178.921341 9.464784 178.728633 9.657493 178.598424 9.912701 C 178.463007 10.162701 178.395299 10.464784 178.395299 10.803326 C 178.395299 11.324159 178.541132 11.735618 178.832799 12.037701 C 179.124466 12.339785 179.525508 12.490826 180.030716 12.490826 Z M 189.473425 14.141868 C 188.73905 14.141868 188.0828 13.969993 187.509883 13.631451 C 186.931758 13.29291 186.473425 12.756451 186.140091 12.022076 C 185.80155 11.287701 185.629675 10.350201 185.629675 9.219993 C 185.629675 8.063743 185.806758 7.100201 186.166133 6.339784 C 186.5203 5.579367 187.004675 5.016867 187.619258 4.652284 C 188.23905 4.287701 188.942175 4.110617 189.73905 4.110617 C 190.400508 4.110617 190.973425 4.204367 191.452592 4.397076 C 191.92655 4.584576 192.30155 4.871034 192.567175 5.240826 L 191.619259 6.454367 L 191.452592 6.454367 C 191.046342 5.969992 190.478633 5.730409 189.73905 5.730409 C 188.353633 5.730409 187.6453 6.746034 187.61405 8.777284 L 187.749467 8.824159 C 187.978633 8.407493 188.275508 8.084576 188.650508 7.865826 C 189.0203 7.647076 189.48905 7.537701 190.05155 7.537701 C 190.655717 7.537701 191.181759 7.662701 191.619259 7.917909 C 192.061967 8.178326 192.400509 8.542909 192.634884 9.016868 C 192.869259 9.490826 192.98905 10.058534 192.98905 10.709576 C 192.98905 11.423118 192.848425 12.037701 192.561967 12.553326 C 192.280717 13.068951 191.874467 13.459576 191.348425 13.735618 C 190.817175 14.006451 190.192175 14.141868 189.473425 14.141868 Z M 189.431758 12.490826 C 189.936967 12.490826 190.327592 12.344993 190.61405 12.048118 C 190.8953 11.751243 191.041134 11.339784 191.041134 10.803326 C 191.041134 10.272076 190.8953 9.855409 190.61405 9.563743 C 190.327592 9.266868 189.936967 9.115826 189.431758 9.115826 C 189.103633 9.115826 188.817175 9.188743 188.567175 9.324159 C 188.322383 9.464784 188.129675 9.657493 187.999467 9.912701 C 187.86405 10.162701 187.796342 10.464784 187.796342 10.803326 C 187.796342 11.324159 187.942175 11.735618 188.233842 12.037701 C 188.525508 12.339785 188.92655 12.490826 189.431758 12.490826 Z M 194.723425 14.001243 L 194.723425 12.407493 L 197.077592 12.407493 L 197.077592 6.334576 L 196.926551 6.298117 C 196.593217 6.454367 196.265092 6.584576 195.942176 6.678326 C 195.619259 6.772076 195.254676 6.844992 194.838009 6.897076 L 194.838009 5.251242 C 195.921342 5.022076 196.791134 4.688742 197.457801 4.246034 L 198.989051 4.246034 L 198.989051 12.407493 L 201.088009 12.407493 L 201.088009 14.001243 Z M 202.426551 13.225201 C 202.426551 12.688743 202.483843 12.235618 202.603634 11.865826 C 202.723426 11.496034 202.916134 11.157493 203.181759 10.855409 C 203.447385 10.548118 203.827593 10.225201 204.311968 9.871034 L 205.614051 8.928326 C 205.973426 8.678326 206.249468 8.459576 206.447385 8.272076 C 206.645301 8.084576 206.791135 7.886659 206.890093 7.683534 C 206.99426 7.480409 207.041135 7.246034 207.041135 6.985617 C 207.041135 6.589784 206.921343 6.282492 206.68176 6.063742 C 206.442176 5.850201 206.082801 5.740826 205.603635 5.740826 C 205.140093 5.740826 204.728635 5.850201 204.36926 6.074159 C 204.009885 6.292909 203.707801 6.594992 203.473426 6.975201 L 203.348426 7.011659 L 202.285926 5.824159 C 202.634884 5.308534 203.088009 4.891867 203.645301 4.579367 C 204.202593 4.266867 204.879676 4.110617 205.676551 4.110617 C 206.405718 4.110617 207.015093 4.230409 207.504677 4.469992 C 207.999468 4.709576 208.364052 5.037701 208.598427 5.454367 C 208.83801 5.865826 208.957802 6.344992 208.957802 6.881451 C 208.957802 7.344992 208.858843 7.766868 208.666135 8.152284 C 208.473427 8.532493 208.207802 8.886659 207.864052 9.209576 C 207.520302 9.537701 207.082801 9.886659 206.551551 10.256451 L 205.395301 11.063743 C 205.046343 11.313743 204.80676 11.537701 204.666135 11.73041 C 204.530718 11.923118 204.46301 12.141868 204.46301 12.38666 L 208.864052 12.38666 L 208.864052 14.001243 L 202.426551 14.001243 Z M 214.082802 14.141868 C 213.035927 14.141868 212.207802 13.91791 211.593219 13.475201 C 210.983843 13.032493 210.593218 12.407493 210.426552 11.600201 L 211.890094 10.917909 L 212.041135 10.943951 C 212.207802 11.485618 212.442177 11.876243 212.74426 12.121035 C 213.051552 12.371035 213.473427 12.490826 214.015094 12.490826 C 214.541135 12.490826 214.942177 12.371035 215.218219 12.126243 C 215.494261 11.881451 215.629677 11.527284 215.629677 11.058534 C 215.629677 10.600201 215.494261 10.251243 215.218219 10.006451 C 214.947385 9.761659 214.546344 9.636659 214.015094 9.636659 L 212.551552 9.636659 L 212.551552 8.136659 L 213.827594 8.136659 C 214.265094 8.136659 214.614052 8.027284 214.86926 7.808534 C 215.129677 7.594992 215.259885 7.282492 215.259885 6.876242 C 215.259885 6.475201 215.134885 6.173117 214.895302 5.975201 C 214.65051 5.772076 214.317177 5.667909 213.890094 5.667909 C 213.452594 5.667909 213.067177 5.772076 212.733844 5.975201 C 212.395302 6.178326 212.124469 6.454367 211.921344 6.803326 L 211.770302 6.829367 L 210.754677 5.647076 C 211.098427 5.188742 211.535927 4.813742 212.077594 4.532492 C 212.614052 4.251242 213.254677 4.110617 213.99426 4.110617 C 215.020302 4.110617 215.801552 4.324159 216.338011 4.751242 C 216.874469 5.173117 217.145302 5.777284 217.145302 6.548117 C 217.145302 7.016867 217.035927 7.417909 216.817177 7.746034 C 216.598427 8.079368 216.285927 8.365826 215.879677 8.605409 L 215.879677 8.746034 C 217.004677 9.141868 217.567177 9.938743 217.567177 11.147076 C 217.567177 11.751243 217.436969 12.277285 217.176552 12.725201 C 216.921344 13.173118 216.530719 13.522076 216.009886 13.772076 C 215.489052 14.016868 214.848427 14.141868 214.082802 14.141868 Z M 219.197386 13.225201 C 219.197386 12.688743 219.254677 12.235618 219.374469 11.865826 C 219.489052 11.496034 219.681761 11.157493 219.952594 10.855409 C 220.218219 10.548118 220.593219 10.225201 221.082803 9.871034 L 222.384886 8.928326 C 222.739053 8.678326 223.015094 8.459576 223.213011 8.272076 C 223.410928 8.084576 223.561969 7.886659 223.660928 7.683534 C 223.759886 7.480409 223.81197 7.246034 223.81197 6.985617 C 223.81197 6.589784 223.692178 6.282492 223.452594 6.063742 C 223.213011 5.850201 222.853636 5.740826 222.369261 5.740826 C 221.910928 5.740826 221.499469 5.850201 221.140094 6.074159 C 220.775511 6.292909 220.478636 6.594992 220.244261 6.975201 L 220.119261 7.011659 L 219.056761 5.824159 C 219.405719 5.308534 219.853636 4.891867 220.416136 4.579367 C 220.973428 4.266867 221.650511 4.110617 222.447386 4.110617 C 223.176553 4.110617 223.785928 4.230409 224.275511 4.469992 C 224.765095 4.709576 225.129678 5.037701 225.369261 5.454367 C 225.608845 5.865826 225.728636 6.344992 225.728636 6.881451 C 225.728636 7.344992 225.629678 7.766868 225.43697 8.152284 C 225.244261 8.532493 224.973428 8.886659 224.634886 9.209576 C 224.291136 9.537701 223.853636 9.886659 223.317178 10.256451 L 222.166136 11.063743 C 221.817178 11.313743 221.577594 11.537701 221.436969 11.73041 C 221.301553 11.923118 221.228636 12.141868 221.228636 12.38666 L 225.634886 12.38666 L 225.634886 14.001243 L 219.197386 14.001243 Z M 231.640095 14.141868 C 230.84322 14.141868 230.150512 13.964785 229.56197 13.610618 C 228.973428 13.256451 228.515095 12.704368 228.18697 11.959576 C 227.864053 11.209576 227.697386 10.266868 227.697386 9.126243 C 227.697386 7.980409 227.864053 7.037701 228.18697 6.287701 C 228.515095 5.542909 228.973428 4.990826 229.56197 4.636659 C 230.150512 4.287701 230.84322 4.110617 231.640095 4.110617 C 232.442179 4.110617 233.134887 4.287701 233.723429 4.636659 C 234.31197 4.990826 234.770304 5.542909 235.098429 6.287701 C 235.426554 7.037701 235.588012 7.980409 235.588012 9.126243 C 235.588012 10.266868 235.426554 11.209576 235.098429 11.959576 C 234.770304 12.704368 234.31197 13.256451 233.723429 13.610618 C 233.134887 13.964785 232.442179 14.141868 231.640095 14.141868 Z M 231.640095 12.506451 C 232.077595 12.506451 232.442179 12.402285 232.733845 12.188743 C 233.025512 11.98041 233.254679 11.621034 233.410929 11.126243 C 233.567179 10.626243 233.645304 9.959576 233.645304 9.126243 C 233.645304 8.287701 233.567179 7.621034 233.410929 7.121034 C 233.254679 6.626242 233.025512 6.272076 232.733845 6.058534 C 232.442179 5.850201 232.077595 5.740826 231.640095 5.740826 C 231.202595 5.740826 230.838012 5.850201 230.546345 6.058534 C 230.254678 6.272076 230.025512 6.626242 229.869262 7.121034 C 229.713012 7.621034 229.634887 8.287701 229.634887 9.126243 C 229.634887 9.959576 229.713012 10.626243 229.869262 11.126243 C 230.025512 11.621034 230.254678 11.98041 230.546345 12.188743 C 230.838012 12.402285 231.202595 12.506451 231.640095 12.506451 Z M 241.134888 14.141868 C 240.358846 14.141868 239.707804 14.022076 239.171346 13.782493 C 238.634887 13.537701 238.233846 13.19916 237.957804 12.751243 C 237.686971 12.308535 237.551554 11.782493 237.551554 11.173118 C 237.551554 10.605409 237.692179 10.115826 237.973429 9.704368 C 238.254679 9.292909 238.660929 8.964784 239.202596 8.730409 L 239.202596 8.589784 C 238.817179 8.355409 238.525512 8.074159 238.322387 7.751243 C 238.119262 7.423117 238.020304 7.042909 238.020304 6.610617 C 238.020304 6.115826 238.140096 5.678326 238.384887 5.303326 C 238.624471 4.923117 238.983846 4.631451 239.452596 4.423117 C 239.921346 4.214784 240.483846 4.110617 241.134888 4.110617 C 241.791138 4.110617 242.348429 4.214784 242.817179 4.423117 C 243.280721 4.631451 243.640096 4.923117 243.884888 5.303326 C 244.12968 5.678326 244.249471 6.115826 244.249471 6.610617 C 244.249471 7.042909 244.145305 7.423117 243.942179 7.746034 C 243.739054 8.068951 243.442179 8.350201 243.056763 8.589784 L 243.056763 8.730409 C 243.624471 8.959576 244.041138 9.282493 244.311971 9.699159 C 244.577596 10.115826 244.707805 10.605409 244.707805 11.173118 C 244.707805 11.782493 244.572388 12.308535 244.301555 12.751243 C 244.030721 13.19916 243.629679 13.537701 243.098429 13.782493 C 242.561971 14.022076 241.910929 14.141868 241.134888 14.141868 Z M 241.134888 8.042909 C 241.520304 8.042909 241.827596 7.938743 242.056763 7.725201 C 242.285929 7.511659 242.400513 7.214784 242.400513 6.834576 C 242.400513 6.454367 242.285929 6.152284 242.056763 5.933534 C 241.827596 5.719992 241.520304 5.610617 241.134888 5.610617 C 240.739054 5.610617 240.426554 5.714784 240.202596 5.933534 C 239.973429 6.147076 239.858846 6.449159 239.858846 6.834576 C 239.858846 7.219992 239.973429 7.516867 240.202596 7.725201 C 240.426554 7.938743 240.739054 8.042909 241.134888 8.042909 Z M 241.134888 12.501243 C 241.655721 12.501243 242.056763 12.371035 242.343221 12.110618 C 242.624471 11.850201 242.770304 11.485618 242.770304 11.027284 C 242.770304 10.563743 242.624471 10.199159 242.343221 9.943951 C 242.056763 9.683534 241.655721 9.553326 241.134888 9.553326 C 240.608846 9.553326 240.207804 9.683534 239.921346 9.943951 C 239.634887 10.199159 239.494262 10.563743 239.494262 11.027284 C 239.494262 11.485618 239.634887 11.850201 239.921346 12.110618 C 240.207804 12.371035 240.608846 12.501243 241.134888 12.501243 Z M 246.332805 13.225201 C 246.332805 12.688743 246.395305 12.235618 246.509888 11.865826 C 246.62968 11.496034 246.822388 11.157493 247.088013 10.855409 C 247.353638 10.548118 247.733846 10.225201 248.22343 9.871034 L 249.525513 8.928326 C 249.87968 8.678326 250.155722 8.459576 250.353638 8.272076 C 250.551555 8.084576 250.702597 7.886659 250.801555 7.683534 C 250.900513 7.480409 250.952597 7.246034 250.952597 6.985617 C 250.952597 6.589784 250.832805 6.282492 250.588013 6.063742 C 250.34843 5.850201 249.989055 5.740826 249.509888 5.740826 C 249.046347 5.740826 248.634888 5.850201 248.275513 6.074159 C 247.916138 6.292909 247.619263 6.594992 247.37968 6.975201 L 247.25468 7.011659 L 246.197388 5.824159 C 246.541138 5.308534 246.994263 4.891867 247.551555 4.579367 C 248.108846 4.266867 248.78593 4.110617 249.582805 4.110617 C 250.311972 4.110617 250.921347 4.230409 251.416138 4.469992 C 251.905722 4.709576 252.270305 5.037701 252.509889 5.454367 C 252.744264 5.865826 252.864055 6.344992 252.864055 6.881451 C 252.864055 7.344992 252.770305 7.766868 252.572389 8.152284 C 252.37968 8.532493 252.114055 8.886659 251.770305 9.209576 C 251.426555 9.537701 250.989055 9.886659 250.457805 10.256451 L 249.301555 11.063743 C 248.957805 11.313743 248.713013 11.537701 248.577597 11.73041 C 248.436972 11.923118 248.369263 12.141868 248.369263 12.38666 L 252.770305 12.38666 L 252.770305 14.001243 L 246.332805 14.001243 Z M 258.077597 14.141868 C 257.103639 14.141868 256.332806 13.933535 255.759889 13.527285 C 255.186972 13.115826 254.81718 12.548118 254.645305 11.813743 L 256.103639 11.162701 L 256.25468 11.193951 C 256.400514 11.621034 256.614056 11.94916 256.895306 12.16791 C 257.176556 12.381451 257.567181 12.490826 258.056764 12.490826 C 258.567181 12.490826 258.957806 12.350201 259.233847 12.058535 C 259.509889 11.772076 259.645306 11.339784 259.645306 10.766868 C 259.645306 10.193951 259.509889 9.766868 259.233847 9.469993 C 258.963014 9.178326 258.588014 9.032493 258.119264 9.032493 C 257.759889 9.032493 257.457806 9.110618 257.213014 9.266868 C 256.968222 9.417909 256.759889 9.652284 256.598431 9.959576 L 255.00468 9.844993 L 255.202597 4.246034 L 261.004681 4.246034 L 261.004681 5.871034 L 256.822389 5.871034 L 256.728639 8.355409 L 256.869264 8.381451 C 257.098431 8.084576 257.369264 7.860618 257.686972 7.704368 C 257.999472 7.553326 258.379681 7.475201 258.827597 7.475201 C 259.379681 7.475201 259.869264 7.600201 260.280722 7.844993 C 260.697389 8.094993 261.020306 8.459576 261.244264 8.949159 C 261.473431 9.433534 261.588014 10.027284 261.588014 10.730409 C 261.588014 11.449159 261.447389 12.058535 261.176556 12.568951 C 260.900514 13.079368 260.504681 13.469993 259.978639 13.735618 C 259.452597 14.006451 258.822389 14.141868 258.077597 14.141868 Z M 258.077597 14.141868 " stroke="#7ed957" stroke-width="1.024695" stroke-opacity="1" stroke-miterlimit="4"/><path stroke-linecap="butt" transform="matrix(0.75, 0, 0, 0.75, 11.73088, 42.944381)" fill="none" stroke-linejoin="miter" d="M 272.338015 5.600201 L 266.780723 5.600201 L 266.780723 4.313742 L 272.338015 4.313742 Z M 274.061974 2.897075 L 265.155723 2.897075 L 265.155723 7.006451 L 274.061974 7.006451 Z M 275.629682 9.329368 L 275.629682 7.865826 L 263.530723 7.865826 L 263.530723 9.329368 L 266.082806 9.329368 C 265.82239 10.214784 265.483848 11.147076 265.207806 11.813743 L 266.207806 11.813743 L 266.207806 11.829368 L 272.176557 11.829368 C 271.999473 12.813743 271.79114 13.329368 271.546348 13.537701 C 271.369265 13.647076 271.192182 13.657493 270.890098 13.657493 C 270.468223 13.657493 269.457807 13.647076 268.556765 13.563743 C 268.858848 14.001243 269.07239 14.641868 269.119265 15.10541 C 270.056765 15.162701 270.94739 15.147076 271.47864 15.121035 C 272.108848 15.079368 272.556765 14.985618 272.968224 14.600201 C 273.44739 14.152285 273.775515 13.126243 274.046349 11.037701 C 274.088015 10.818951 274.129682 10.350201 274.129682 10.350201 L 267.588015 10.350201 C 267.707806 10.011659 267.817181 9.673118 267.926556 9.329368 Z M 275.629682 9.329368 " stroke="#7ed957" stroke-width="1.024695" stroke-opacity="1" stroke-miterlimit="4"/><g fill="#ffffff" fill-opacity="1"><g transform="translate(48.64494, 53.44438)"><g><path d="M 7.417969 -0.746094 L 2.785156 -0.746094 L 2.785156 -2.757812 L 7.417969 -2.757812 Z M 9.785156 -5.746094 L 9.785156 -6.9375 L 5.789062 -6.9375 L 5.789062 -8.675781 L 4.457031 -8.675781 L 4.457031 -6.9375 L 0.472656 -6.9375 L 0.472656 -5.746094 L 4.457031 -5.746094 L 4.457031 -3.914062 L 1.507812 -3.914062 L 1.507812 0.890625 L 2.785156 0.890625 L 2.785156 0.410156 L 7.417969 0.410156 L 7.417969 0.851562 L 8.75 0.851562 L 8.75 -3.914062 L 5.789062 -3.914062 L 5.789062 -5.746094 Z M 9.785156 -5.746094 "/></g></g></g><g fill="#ffffff" fill-opacity="1"><g transform="translate(59.296924, 53.44438)"><g><path d="M 4.191406 -4.160156 L 3.246094 -3.894531 L 3.246094 -5.542969 L 4.097656 -5.542969 L 4.097656 -6.699219 L 3.246094 -6.699219 L 3.246094 -8.667969 L 2.132812 -8.667969 L 2.132812 -6.699219 L 1.648438 -6.699219 C 1.710938 -7.109375 1.761719 -7.507812 1.804688 -7.917969 L 0.789062 -8.09375 C 0.695312 -6.882812 0.523438 -5.605469 0.203125 -4.792969 C 0.429688 -4.660156 0.882812 -4.386719 1.066406 -4.230469 C 1.207031 -4.601562 1.332031 -5.039062 1.445312 -5.542969 L 2.132812 -5.542969 L 2.132812 -3.585938 C 1.433594 -3.390625 0.808594 -3.226562 0.296875 -3.113281 L 0.59375 -1.957031 C 1.066406 -2.078125 1.578125 -2.242188 2.132812 -2.40625 L 2.132812 0.902344 L 3.246094 0.902344 L 3.246094 -2.746094 C 3.625 -2.859375 3.984375 -2.980469 4.355469 -3.082031 Z M 6.015625 -7.089844 C 6.15625 -7.539062 6.289062 -8 6.394531 -8.472656 L 5.285156 -8.675781 C 4.980469 -7.171875 4.414062 -5.707031 3.605469 -4.816406 C 3.851562 -4.660156 4.332031 -4.324219 4.527344 -4.128906 C 4.929688 -4.621094 5.285156 -5.253906 5.582031 -5.960938 L 6.105469 -5.960938 C 5.65625 -4.476562 4.855469 -2.960938 3.84375 -2.160156 C 4.160156 -1.988281 4.546875 -1.710938 4.773438 -1.476562 C 5.808594 -2.457031 6.667969 -4.292969 7.121094 -5.960938 L 7.601562 -5.960938 C 7.089844 -3.566406 6.066406 -1.238281 4.425781 -0.0625 C 4.765625 0.113281 5.183594 0.410156 5.417969 0.644531 C 7.070312 -0.71875 8.125 -3.378906 8.625 -5.960938 L 8.675781 -5.960938 C 8.511719 -2.285156 8.328125 -0.890625 8.074219 -0.5625 C 7.949219 -0.410156 7.847656 -0.367188 7.695312 -0.367188 C 7.5 -0.367188 7.160156 -0.367188 6.78125 -0.410156 C 6.964844 -0.0703125 7.089844 0.429688 7.121094 0.777344 C 7.5625 0.800781 7.992188 0.800781 8.277344 0.746094 C 8.617188 0.675781 8.839844 0.5625 9.078125 0.214844 C 9.464844 -0.296875 9.652344 -1.96875 9.84375 -6.535156 C 9.855469 -6.679688 9.867188 -7.089844 9.867188 -7.089844 Z M 6.015625 -7.089844 "/></g></g></g><g fill="#ffffff" fill-opacity="1"><g transform="translate(69.948909, 53.44438)"><g><path d="M 3.679688 -5.429688 L 4.40625 -5.6875 C 4.292969 -5.941406 4.078125 -6.339844 3.894531 -6.667969 L 6.414062 -6.667969 C 6.289062 -6.289062 6.074219 -5.820312 5.871094 -5.429688 Z M 8.09375 -3.226562 C 7.664062 -3.574219 6.988281 -4.058594 6.445312 -4.445312 L 8.09375 -4.445312 Z M 3.542969 -2.867188 C 4.035156 -3.246094 4.539062 -3.667969 4.898438 -4.046875 L 4.085938 -4.445312 L 6.097656 -4.445312 L 5.554688 -3.894531 C 5.941406 -3.585938 6.453125 -3.21875 6.863281 -2.867188 Z M 6.105469 -1.207031 L 4.117188 -1.207031 L 4.117188 -2.027344 L 6.105469 -2.027344 Z M 9.691406 -7.695312 L 6.054688 -7.695312 C 5.921875 -8.023438 5.746094 -8.410156 5.582031 -8.730469 L 4.355469 -8.429688 C 4.457031 -8.207031 4.570312 -7.949219 4.660156 -7.695312 L 0.582031 -7.695312 L 0.582031 -6.667969 L 3.378906 -6.667969 L 2.695312 -6.453125 C 2.847656 -6.136719 3.042969 -5.738281 3.164062 -5.429688 L 1.066406 -5.429688 L 1.066406 0.859375 L 2.234375 0.859375 L 2.234375 -4.445312 L 4.058594 -4.445312 C 3.597656 -4.035156 2.847656 -3.597656 2.265625 -3.300781 C 2.40625 -3.0625 2.652344 -2.488281 2.714844 -2.304688 C 2.835938 -2.375 2.972656 -2.457031 3.105469 -2.550781 L 3.105469 0.0507812 L 4.117188 0.0507812 L 4.117188 -0.367188 L 7.078125 -0.367188 L 7.078125 -2.695312 C 7.242188 -2.5625 7.375 -2.4375 7.488281 -2.335938 L 8.09375 -2.992188 L 8.09375 -0.257812 C 8.09375 -0.101562 8.03125 -0.0507812 7.867188 -0.0507812 C 7.714844 -0.0390625 7.128906 -0.0390625 6.628906 -0.0625 C 6.773438 0.183594 6.914062 0.5625 6.964844 0.828125 C 7.785156 0.828125 8.339844 0.820312 8.707031 0.675781 C 9.085938 0.53125 9.21875 0.296875 9.21875 -0.246094 L 9.21875 -5.429688 L 7.101562 -5.429688 C 7.304688 -5.738281 7.53125 -6.097656 7.734375 -6.453125 L 6.679688 -6.667969 L 9.691406 -6.667969 Z M 9.691406 -7.695312 "/></g></g></g><g fill="#ffffff" fill-opacity="1"><g transform="translate(80.600893, 53.44438)"><g><path d="M 3.023438 -1.78125 L 3.023438 -0.605469 L 1.855469 -0.605469 L 1.855469 -1.78125 Z M 4.085938 -2.746094 L 0.800781 -2.746094 L 0.800781 0.757812 L 1.855469 0.757812 L 1.855469 0.347656 L 4.085938 0.347656 Z M 0.828125 -3.246094 L 4.117188 -3.246094 L 4.117188 -4.160156 L 0.828125 -4.160156 Z M 9.90625 -4.097656 L 7.796875 -4.097656 L 7.796875 -6.148438 L 9.679688 -6.148438 L 9.679688 -7.265625 L 6.351562 -7.265625 C 6.484375 -7.664062 6.609375 -8.0625 6.699219 -8.472656 L 5.472656 -8.71875 C 5.285156 -7.753906 4.949219 -6.800781 4.527344 -6.035156 L 4.527344 -6.988281 L 2.386719 -6.988281 L 3 -7.234375 C 2.949219 -7.632812 2.734375 -8.238281 2.46875 -8.667969 L 1.597656 -8.351562 C 1.8125 -7.917969 1.988281 -7.386719 2.050781 -6.988281 L 0.328125 -6.988281 L 0.328125 -6.023438 L 4.519531 -6.023438 C 4.394531 -5.796875 4.261719 -5.59375 4.117188 -5.410156 L 4.117188 -5.554688 L 0.828125 -5.554688 L 0.828125 -4.628906 L 4.117188 -4.628906 L 4.117188 -5.152344 C 4.425781 -5 4.835938 -4.722656 5.050781 -4.558594 C 5.367188 -4.988281 5.675781 -5.53125 5.941406 -6.148438 L 6.558594 -6.148438 L 6.558594 -4.097656 L 4.425781 -4.097656 L 4.425781 -2.941406 L 6.558594 -2.941406 L 6.558594 0.882812 L 7.796875 0.882812 L 7.796875 -2.941406 L 9.90625 -2.941406 Z M 9.90625 -4.097656 "/></g></g></g><g fill="#ffffff" fill-opacity="1"><g transform="translate(91.252878, 53.44438)"><g><path d="M 4.601562 -4.457031 L 4.601562 -2.816406 L 2.652344 -2.816406 L 2.652344 -4.457031 Z M 5.808594 -1.648438 L 5.808594 -5.613281 L 1.464844 -5.613281 L 1.464844 -0.871094 L 2.652344 -0.871094 L 2.652344 -1.648438 Z M 9.753906 -7.992188 L 0.523438 -7.992188 L 0.523438 -6.761719 L 7.292969 -6.761719 L 7.292969 -0.675781 C 7.292969 -0.460938 7.203125 -0.390625 6.964844 -0.390625 C 6.722656 -0.390625 5.828125 -0.378906 5.101562 -0.421875 C 5.285156 -0.09375 5.53125 0.511719 5.605469 0.871094 C 6.648438 0.871094 7.40625 0.851562 7.917969 0.644531 C 8.402344 0.441406 8.574219 0.0820312 8.574219 -0.65625 L 8.574219 -6.761719 L 9.753906 -6.761719 Z M 9.753906 -7.992188 "/></g></g></g><g fill="#ffffff" fill-opacity="1"><g transform="translate(101.904863, 53.44438)"><g><path d="M 4.140625 -7.128906 L 2.234375 -7.128906 L 2.859375 -7.417969 C 2.765625 -7.765625 2.5 -8.320312 2.242188 -8.71875 L 1.332031 -8.339844 C 1.546875 -7.960938 1.75 -7.488281 1.855469 -7.128906 L 0.328125 -7.128906 L 0.328125 -6.167969 L 4.140625 -6.167969 Z M 3.769531 -4.691406 L 3.769531 -5.613281 L 0.820312 -5.613281 L 0.820312 -4.691406 Z M 2.796875 -1.648438 L 2.796875 -0.472656 L 1.8125 -0.472656 L 1.8125 -1.648438 Z M 3.84375 -2.613281 L 0.789062 -2.613281 L 0.789062 0.890625 L 1.8125 0.890625 L 1.8125 0.492188 L 3.84375 0.492188 Z M 0.65625 -3.207031 L 3.851562 -3.207031 L 3.851562 -4.128906 L 0.65625 -4.128906 Z M 7.753906 -0.636719 L 7.753906 -3.503906 L 9.570312 -3.503906 L 9.570312 -4.652344 L 7.753906 -4.652344 L 7.753906 -7.039062 L 9.671875 -7.039062 L 9.671875 -8.195312 L 4.386719 -8.195312 L 4.386719 -7.039062 L 6.558594 -7.039062 L 6.558594 -0.636719 L 5.796875 -0.636719 L 5.796875 -5.625 L 4.660156 -5.625 L 4.660156 -0.636719 L 4.097656 -0.636719 L 4.097656 0.523438 L 9.925781 0.523438 L 9.925781 -0.636719 Z M 7.753906 -0.636719 "/></g></g></g><g fill="#ffffff" fill-opacity="1"><g transform="translate(112.556845, 53.44438)"><g><path d="M 1.40625 0.046875 C 1.226562 0.046875 1.070312 0.0078125 0.9375 -0.0625 C 0.800781 -0.132812 0.695312 -0.234375 0.625 -0.359375 C 0.5625 -0.484375 0.53125 -0.628906 0.53125 -0.796875 C 0.53125 -0.953125 0.5625 -1.09375 0.625 -1.21875 C 0.695312 -1.34375 0.800781 -1.441406 0.9375 -1.515625 C 1.070312 -1.585938 1.226562 -1.625 1.40625 -1.625 C 1.59375 -1.625 1.753906 -1.585938 1.890625 -1.515625 C 2.023438 -1.453125 2.125 -1.351562 2.1875 -1.21875 C 2.257812 -1.09375 2.296875 -0.953125 2.296875 -0.796875 C 2.296875 -0.554688 2.210938 -0.351562 2.046875 -0.1875 C 1.890625 -0.03125 1.675781 0.046875 1.40625 0.046875 Z M 1.40625 -3.890625 C 1.226562 -3.890625 1.070312 -3.925781 0.9375 -4 C 0.800781 -4.070312 0.695312 -4.171875 0.625 -4.296875 C 0.5625 -4.421875 0.53125 -4.566406 0.53125 -4.734375 C 0.53125 -4.890625 0.5625 -5.03125 0.625 -5.15625 C 0.695312 -5.28125 0.800781 -5.378906 0.9375 -5.453125 C 1.070312 -5.523438 1.226562 -5.5625 1.40625 -5.5625 C 1.59375 -5.5625 1.753906 -5.523438 1.890625 -5.453125 C 2.023438 -5.390625 2.125 -5.289062 2.1875 -5.15625 C 2.257812 -5.03125 2.296875 -4.890625 2.296875 -4.734375 C 2.296875 -4.492188 2.210938 -4.289062 2.046875 -4.125 C 1.890625 -3.96875 1.675781 -3.890625 1.40625 -3.890625 Z M 1.40625 -3.890625 "/></g></g></g><g fill="#ffffff" fill-opacity="1"><g transform="translate(115.792324, 53.44438)"><g/></g></g><g fill="#ffffff" fill-opacity="1"><g transform="translate(118.617716, 53.44438)"><g><path d="M 5.878906 -5.839844 C 6.15625 -6.167969 6.445312 -6.566406 6.679688 -7.019531 L 7.089844 -7.019531 C 7.375 -6.628906 7.683594 -6.167969 7.828125 -5.839844 Z M 7.652344 -4.25 L 5.613281 -4.25 L 5.613281 -4.835938 L 7.652344 -4.835938 Z M 4.414062 -2.644531 L 2.664062 -2.644531 C 2.695312 -2.835938 2.714844 -3.042969 2.746094 -3.246094 L 4.414062 -3.246094 Z M 2.695312 -7.007812 C 2.929688 -6.617188 3.136719 -6.15625 3.226562 -5.839844 L 1.484375 -5.839844 C 1.792969 -6.167969 2.101562 -6.558594 2.386719 -7.007812 Z M 9.84375 -7.898438 L 7.121094 -7.898438 C 7.203125 -8.09375 7.273438 -8.296875 7.324219 -8.484375 L 6.148438 -8.757812 C 5.890625 -7.859375 5.367188 -6.945312 4.753906 -6.394531 C 5.011719 -6.269531 5.449219 -6.023438 5.726562 -5.839844 L 3.289062 -5.839844 L 4.292969 -6.21875 C 4.222656 -6.433594 4.078125 -6.722656 3.925781 -7.007812 L 5.253906 -7.007812 L 5.253906 -7.886719 L 2.890625 -7.886719 C 2.980469 -8.082031 3.0625 -8.277344 3.144531 -8.460938 L 2.039062 -8.757812 C 1.699219 -7.835938 1.074219 -6.914062 0.390625 -6.332031 C 0.636719 -6.21875 1.054688 -5.992188 1.3125 -5.820312 L 1.3125 -4.835938 L 4.414062 -4.835938 L 4.414062 -4.25 L 1.679688 -4.25 C 1.609375 -3.390625 1.453125 -2.324219 1.300781 -1.628906 L 3.503906 -1.628906 C 2.703125 -0.984375 1.597656 -0.421875 0.53125 -0.101562 C 0.789062 0.121094 1.125 0.5625 1.300781 0.859375 C 2.417969 0.441406 3.554688 -0.257812 4.414062 -1.097656 L 4.414062 0.902344 L 5.613281 0.902344 L 5.613281 -1.628906 L 8.0625 -1.628906 C 8 -1.066406 7.917969 -0.789062 7.816406 -0.6875 C 7.726562 -0.605469 7.621094 -0.59375 7.46875 -0.59375 C 7.285156 -0.582031 6.855469 -0.59375 6.421875 -0.636719 C 6.617188 -0.339844 6.742188 0.113281 6.761719 0.472656 C 7.292969 0.492188 7.777344 0.480469 8.0625 0.449219 C 8.378906 0.421875 8.625 0.339844 8.839844 0.09375 C 9.109375 -0.175781 9.230469 -0.839844 9.332031 -2.203125 C 9.355469 -2.347656 9.363281 -2.644531 9.363281 -2.644531 L 5.613281 -2.644531 L 5.613281 -3.246094 L 8.863281 -3.246094 L 8.863281 -5.839844 L 7.847656 -5.839844 L 8.894531 -6.269531 C 8.789062 -6.476562 8.605469 -6.75 8.402344 -7.019531 L 9.84375 -7.019531 Z M 9.84375 -7.898438 "/></g></g></g><g fill="#ffffff" fill-opacity="1"><g transform="translate(129.269698, 53.44438)"><g><path d="M 2.984375 0.109375 C 2.203125 0.109375 1.578125 -0.0546875 1.109375 -0.390625 C 0.648438 -0.722656 0.359375 -1.191406 0.234375 -1.796875 L 1.34375 -2.3125 L 1.453125 -2.296875 C 1.578125 -1.890625 1.753906 -1.59375 1.984375 -1.40625 C 2.210938 -1.21875 2.53125 -1.125 2.9375 -1.125 C 3.332031 -1.125 3.628906 -1.21875 3.828125 -1.40625 C 4.035156 -1.59375 4.140625 -1.859375 4.140625 -2.203125 C 4.140625 -2.546875 4.035156 -2.804688 3.828125 -2.984375 C 3.628906 -3.171875 3.332031 -3.265625 2.9375 -3.265625 L 1.828125 -3.265625 L 1.828125 -4.40625 L 2.796875 -4.40625 C 3.117188 -4.40625 3.375 -4.484375 3.5625 -4.640625 C 3.757812 -4.804688 3.859375 -5.039062 3.859375 -5.34375 C 3.859375 -5.644531 3.765625 -5.867188 3.578125 -6.015625 C 3.398438 -6.171875 3.15625 -6.25 2.84375 -6.25 C 2.507812 -6.25 2.21875 -6.171875 1.96875 -6.015625 C 1.71875 -5.867188 1.515625 -5.664062 1.359375 -5.40625 L 1.25 -5.375 L 0.484375 -6.265625 C 0.742188 -6.609375 1.070312 -6.882812 1.46875 -7.09375 C 1.875 -7.3125 2.359375 -7.421875 2.921875 -7.421875 C 3.679688 -7.421875 4.265625 -7.257812 4.671875 -6.9375 C 5.078125 -6.625 5.28125 -6.175781 5.28125 -5.59375 C 5.28125 -5.238281 5.195312 -4.9375 5.03125 -4.6875 C 4.875 -4.4375 4.640625 -4.222656 4.328125 -4.046875 L 4.328125 -3.9375 C 5.171875 -3.644531 5.59375 -3.046875 5.59375 -2.140625 C 5.59375 -1.691406 5.492188 -1.296875 5.296875 -0.953125 C 5.109375 -0.617188 4.816406 -0.359375 4.421875 -0.171875 C 4.035156 0.015625 3.554688 0.109375 2.984375 0.109375 Z M 2.984375 0.109375 "/></g></g></g><g fill="#ffffff" fill-opacity="1"><g transform="translate(135.730866, 53.44438)"><g><path d="M 3.578125 0.109375 C 2.972656 0.109375 2.445312 -0.0195312 2 -0.28125 C 1.5625 -0.550781 1.21875 -0.96875 0.96875 -1.53125 C 0.726562 -2.09375 0.609375 -2.800781 0.609375 -3.65625 C 0.609375 -4.507812 0.726562 -5.21875 0.96875 -5.78125 C 1.21875 -6.34375 1.5625 -6.753906 2 -7.015625 C 2.445312 -7.285156 2.972656 -7.421875 3.578125 -7.421875 C 4.171875 -7.421875 4.6875 -7.285156 5.125 -7.015625 C 5.570312 -6.753906 5.914062 -6.34375 6.15625 -5.78125 C 6.40625 -5.21875 6.53125 -4.507812 6.53125 -3.65625 C 6.53125 -2.800781 6.40625 -2.09375 6.15625 -1.53125 C 5.914062 -0.96875 5.570312 -0.550781 5.125 -0.28125 C 4.6875 -0.0195312 4.171875 0.109375 3.578125 0.109375 Z M 3.578125 -1.125 C 3.898438 -1.125 4.171875 -1.203125 4.390625 -1.359375 C 4.609375 -1.515625 4.773438 -1.78125 4.890625 -2.15625 C 5.015625 -2.53125 5.078125 -3.03125 5.078125 -3.65625 C 5.078125 -4.28125 5.015625 -4.78125 4.890625 -5.15625 C 4.773438 -5.53125 4.609375 -5.796875 4.390625 -5.953125 C 4.171875 -6.117188 3.898438 -6.203125 3.578125 -6.203125 C 3.242188 -6.203125 2.96875 -6.117188 2.75 -5.953125 C 2.53125 -5.796875 2.359375 -5.53125 2.234375 -5.15625 C 2.117188 -4.78125 2.0625 -4.28125 2.0625 -3.65625 C 2.0625 -3.03125 2.117188 -2.53125 2.234375 -2.15625 C 2.359375 -1.78125 2.53125 -1.515625 2.75 -1.359375 C 2.96875 -1.203125 3.242188 -1.125 3.578125 -1.125 Z M 3.578125 -1.125 "/></g></g></g><g fill="#ffffff" fill-opacity="1"><g transform="translate(143.287268, 53.44438)"><g><path d="M 3.5 0.109375 C 2.945312 0.109375 2.453125 -0.015625 2.015625 -0.265625 C 1.585938 -0.523438 1.242188 -0.929688 0.984375 -1.484375 C 0.734375 -2.035156 0.609375 -2.738281 0.609375 -3.59375 C 0.609375 -4.457031 0.742188 -5.175781 1.015625 -5.75 C 1.285156 -6.320312 1.648438 -6.742188 2.109375 -7.015625 C 2.566406 -7.285156 3.097656 -7.421875 3.703125 -7.421875 C 4.191406 -7.421875 4.613281 -7.347656 4.96875 -7.203125 C 5.332031 -7.054688 5.617188 -6.847656 5.828125 -6.578125 L 5.109375 -5.65625 L 4.984375 -5.65625 C 4.679688 -6.019531 4.253906 -6.203125 3.703125 -6.203125 C 2.660156 -6.203125 2.128906 -5.441406 2.109375 -3.921875 L 2.203125 -3.890625 C 2.378906 -4.203125 2.601562 -4.4375 2.875 -4.59375 C 3.15625 -4.757812 3.507812 -4.84375 3.9375 -4.84375 C 4.382812 -4.84375 4.773438 -4.75 5.109375 -4.5625 C 5.441406 -4.375 5.695312 -4.097656 5.875 -3.734375 C 6.050781 -3.378906 6.140625 -2.957031 6.140625 -2.46875 C 6.140625 -1.9375 6.03125 -1.472656 5.8125 -1.078125 C 5.601562 -0.691406 5.300781 -0.394531 4.90625 -0.1875 C 4.507812 0.0078125 4.039062 0.109375 3.5 0.109375 Z M 3.46875 -1.125 C 3.84375 -1.125 4.132812 -1.234375 4.34375 -1.453125 C 4.5625 -1.679688 4.671875 -1.992188 4.671875 -2.390625 C 4.671875 -2.796875 4.5625 -3.109375 4.34375 -3.328125 C 4.132812 -3.546875 3.84375 -3.65625 3.46875 -3.65625 C 3.21875 -3.65625 3 -3.601562 2.8125 -3.5 C 2.632812 -3.40625 2.492188 -3.257812 2.390625 -3.0625 C 2.296875 -2.875 2.25 -2.648438 2.25 -2.390625 C 2.25 -2.003906 2.351562 -1.695312 2.5625 -1.46875 C 2.78125 -1.238281 3.082031 -1.125 3.46875 -1.125 Z M 3.46875 -1.125 "/></g></g></g><g fill="#ffffff" fill-opacity="1"><g transform="translate(150.338562, 53.44438)"><g><path d="M 3.5 0.109375 C 2.945312 0.109375 2.453125 -0.015625 2.015625 -0.265625 C 1.585938 -0.523438 1.242188 -0.929688 0.984375 -1.484375 C 0.734375 -2.035156 0.609375 -2.738281 0.609375 -3.59375 C 0.609375 -4.457031 0.742188 -5.175781 1.015625 -5.75 C 1.285156 -6.320312 1.648438 -6.742188 2.109375 -7.015625 C 2.566406 -7.285156 3.097656 -7.421875 3.703125 -7.421875 C 4.191406 -7.421875 4.613281 -7.347656 4.96875 -7.203125 C 5.332031 -7.054688 5.617188 -6.847656 5.828125 -6.578125 L 5.109375 -5.65625 L 4.984375 -5.65625 C 4.679688 -6.019531 4.253906 -6.203125 3.703125 -6.203125 C 2.660156 -6.203125 2.128906 -5.441406 2.109375 -3.921875 L 2.203125 -3.890625 C 2.378906 -4.203125 2.601562 -4.4375 2.875 -4.59375 C 3.15625 -4.757812 3.507812 -4.84375 3.9375 -4.84375 C 4.382812 -4.84375 4.773438 -4.75 5.109375 -4.5625 C 5.441406 -4.375 5.695312 -4.097656 5.875 -3.734375 C 6.050781 -3.378906 6.140625 -2.957031 6.140625 -2.46875 C 6.140625 -1.9375 6.03125 -1.472656 5.8125 -1.078125 C 5.601562 -0.691406 5.300781 -0.394531 4.90625 -0.1875 C 4.507812 0.0078125 4.039062 0.109375 3.5 0.109375 Z M 3.46875 -1.125 C 3.84375 -1.125 4.132812 -1.234375 4.34375 -1.453125 C 4.5625 -1.679688 4.671875 -1.992188 4.671875 -2.390625 C 4.671875 -2.796875 4.5625 -3.109375 4.34375 -3.328125 C 4.132812 -3.546875 3.84375 -3.65625 3.46875 -3.65625 C 3.21875 -3.65625 3 -3.601562 2.8125 -3.5 C 2.632812 -3.40625 2.492188 -3.257812 2.390625 -3.0625 C 2.296875 -2.875 2.25 -2.648438 2.25 -2.390625 C 2.25 -2.003906 2.351562 -1.695312 2.5625 -1.46875 C 2.78125 -1.238281 3.082031 -1.125 3.46875 -1.125 Z M 3.46875 -1.125 "/></g></g></g><g fill="#ffffff" fill-opacity="1"><g transform="translate(157.389861, 53.44438)"><g><path d="M 0.390625 0 L 0.390625 -1.203125 L 2.15625 -1.203125 L 2.15625 -5.75 L 2.03125 -5.78125 C 1.78125 -5.65625 1.535156 -5.554688 1.296875 -5.484375 C 1.054688 -5.421875 0.78125 -5.367188 0.46875 -5.328125 L 0.46875 -6.5625 C 1.28125 -6.738281 1.9375 -6.988281 2.4375 -7.3125 L 3.578125 -7.3125 L 3.578125 -1.203125 L 5.15625 -1.203125 L 5.15625 0 Z M 0.390625 0 "/></g></g></g><g fill="#ffffff" fill-opacity="1"><g transform="translate(163.195895, 53.44438)"><g><path d="M 0.359375 -0.578125 C 0.359375 -0.984375 0.398438 -1.320312 0.484375 -1.59375 C 0.578125 -1.875 0.722656 -2.128906 0.921875 -2.359375 C 1.117188 -2.585938 1.398438 -2.832031 1.765625 -3.09375 L 2.75 -3.796875 C 3.007812 -3.992188 3.210938 -4.160156 3.359375 -4.296875 C 3.515625 -4.441406 3.628906 -4.585938 3.703125 -4.734375 C 3.773438 -4.890625 3.8125 -5.066406 3.8125 -5.265625 C 3.8125 -5.554688 3.722656 -5.785156 3.546875 -5.953125 C 3.367188 -6.117188 3.097656 -6.203125 2.734375 -6.203125 C 2.390625 -6.203125 2.082031 -6.117188 1.8125 -5.953125 C 1.539062 -5.785156 1.316406 -5.554688 1.140625 -5.265625 L 1.046875 -5.25 L 0.25 -6.140625 C 0.507812 -6.523438 0.847656 -6.832031 1.265625 -7.0625 C 1.679688 -7.300781 2.191406 -7.421875 2.796875 -7.421875 C 3.335938 -7.421875 3.789062 -7.328125 4.15625 -7.140625 C 4.53125 -6.960938 4.804688 -6.71875 4.984375 -6.40625 C 5.160156 -6.101562 5.25 -5.75 5.25 -5.34375 C 5.25 -4.988281 5.175781 -4.664062 5.03125 -4.375 C 4.882812 -4.09375 4.679688 -3.832031 4.421875 -3.59375 C 4.171875 -3.351562 3.847656 -3.09375 3.453125 -2.8125 L 2.578125 -2.203125 C 2.316406 -2.015625 2.132812 -1.847656 2.03125 -1.703125 C 1.925781 -1.554688 1.875 -1.394531 1.875 -1.21875 L 5.1875 -1.21875 L 5.1875 0 L 0.359375 0 Z M 0.359375 -0.578125 "/></g></g></g><g fill="#ffffff" fill-opacity="1"><g transform="translate(169.311995, 53.44438)"><g><path d="M 2.984375 0.109375 C 2.203125 0.109375 1.578125 -0.0546875 1.109375 -0.390625 C 0.648438 -0.722656 0.359375 -1.191406 0.234375 -1.796875 L 1.34375 -2.3125 L 1.453125 -2.296875 C 1.578125 -1.890625 1.753906 -1.59375 1.984375 -1.40625 C 2.210938 -1.21875 2.53125 -1.125 2.9375 -1.125 C 3.332031 -1.125 3.628906 -1.21875 3.828125 -1.40625 C 4.035156 -1.59375 4.140625 -1.859375 4.140625 -2.203125 C 4.140625 -2.546875 4.035156 -2.804688 3.828125 -2.984375 C 3.628906 -3.171875 3.332031 -3.265625 2.9375 -3.265625 L 1.828125 -3.265625 L 1.828125 -4.40625 L 2.796875 -4.40625 C 3.117188 -4.40625 3.375 -4.484375 3.5625 -4.640625 C 3.757812 -4.804688 3.859375 -5.039062 3.859375 -5.34375 C 3.859375 -5.644531 3.765625 -5.867188 3.578125 -6.015625 C 3.398438 -6.171875 3.15625 -6.25 2.84375 -6.25 C 2.507812 -6.25 2.21875 -6.171875 1.96875 -6.015625 C 1.71875 -5.867188 1.515625 -5.664062 1.359375 -5.40625 L 1.25 -5.375 L 0.484375 -6.265625 C 0.742188 -6.609375 1.070312 -6.882812 1.46875 -7.09375 C 1.875 -7.3125 2.359375 -7.421875 2.921875 -7.421875 C 3.679688 -7.421875 4.265625 -7.257812 4.671875 -6.9375 C 5.078125 -6.625 5.28125 -6.175781 5.28125 -5.59375 C 5.28125 -5.238281 5.195312 -4.9375 5.03125 -4.6875 C 4.875 -4.4375 4.640625 -4.222656 4.328125 -4.046875 L 4.328125 -3.9375 C 5.171875 -3.644531 5.59375 -3.046875 5.59375 -2.140625 C 5.59375 -1.691406 5.492188 -1.296875 5.296875 -0.953125 C 5.109375 -0.617188 4.816406 -0.359375 4.421875 -0.171875 C 4.035156 0.015625 3.554688 0.109375 2.984375 0.109375 Z M 2.984375 0.109375 "/></g></g></g><g fill="#ffffff" fill-opacity="1"><g transform="translate(175.773168, 53.44438)"><g><path d="M 0.359375 -0.578125 C 0.359375 -0.984375 0.398438 -1.320312 0.484375 -1.59375 C 0.578125 -1.875 0.722656 -2.128906 0.921875 -2.359375 C 1.117188 -2.585938 1.398438 -2.832031 1.765625 -3.09375 L 2.75 -3.796875 C 3.007812 -3.992188 3.210938 -4.160156 3.359375 -4.296875 C 3.515625 -4.441406 3.628906 -4.585938 3.703125 -4.734375 C 3.773438 -4.890625 3.8125 -5.066406 3.8125 -5.265625 C 3.8125 -5.554688 3.722656 -5.785156 3.546875 -5.953125 C 3.367188 -6.117188 3.097656 -6.203125 2.734375 -6.203125 C 2.390625 -6.203125 2.082031 -6.117188 1.8125 -5.953125 C 1.539062 -5.785156 1.316406 -5.554688 1.140625 -5.265625 L 1.046875 -5.25 L 0.25 -6.140625 C 0.507812 -6.523438 0.847656 -6.832031 1.265625 -7.0625 C 1.679688 -7.300781 2.191406 -7.421875 2.796875 -7.421875 C 3.335938 -7.421875 3.789062 -7.328125 4.15625 -7.140625 C 4.53125 -6.960938 4.804688 -6.71875 4.984375 -6.40625 C 5.160156 -6.101562 5.25 -5.75 5.25 -5.34375 C 5.25 -4.988281 5.175781 -4.664062 5.03125 -4.375 C 4.882812 -4.09375 4.679688 -3.832031 4.421875 -3.59375 C 4.171875 -3.351562 3.847656 -3.09375 3.453125 -2.8125 L 2.578125 -2.203125 C 2.316406 -2.015625 2.132812 -1.847656 2.03125 -1.703125 C 1.925781 -1.554688 1.875 -1.394531 1.875 -1.21875 L 5.1875 -1.21875 L 5.1875 0 L 0.359375 0 Z M 0.359375 -0.578125 "/></g></g></g><g fill="#ffffff" fill-opacity="1"><g transform="translate(181.889268, 53.44438)"><g><path d="M 3.578125 0.109375 C 2.972656 0.109375 2.445312 -0.0195312 2 -0.28125 C 1.5625 -0.550781 1.21875 -0.96875 0.96875 -1.53125 C 0.726562 -2.09375 0.609375 -2.800781 0.609375 -3.65625 C 0.609375 -4.507812 0.726562 -5.21875 0.96875 -5.78125 C 1.21875 -6.34375 1.5625 -6.753906 2 -7.015625 C 2.445312 -7.285156 2.972656 -7.421875 3.578125 -7.421875 C 4.171875 -7.421875 4.6875 -7.285156 5.125 -7.015625 C 5.570312 -6.753906 5.914062 -6.34375 6.15625 -5.78125 C 6.40625 -5.21875 6.53125 -4.507812 6.53125 -3.65625 C 6.53125 -2.800781 6.40625 -2.09375 6.15625 -1.53125 C 5.914062 -0.96875 5.570312 -0.550781 5.125 -0.28125 C 4.6875 -0.0195312 4.171875 0.109375 3.578125 0.109375 Z M 3.578125 -1.125 C 3.898438 -1.125 4.171875 -1.203125 4.390625 -1.359375 C 4.609375 -1.515625 4.773438 -1.78125 4.890625 -2.15625 C 5.015625 -2.53125 5.078125 -3.03125 5.078125 -3.65625 C 5.078125 -4.28125 5.015625 -4.78125 4.890625 -5.15625 C 4.773438 -5.53125 4.609375 -5.796875 4.390625 -5.953125 C 4.171875 -6.117188 3.898438 -6.203125 3.578125 -6.203125 C 3.242188 -6.203125 2.96875 -6.117188 2.75 -5.953125 C 2.53125 -5.796875 2.359375 -5.53125 2.234375 -5.15625 C 2.117188 -4.78125 2.0625 -4.28125 2.0625 -3.65625 C 2.0625 -3.03125 2.117188 -2.53125 2.234375 -2.15625 C 2.359375 -1.78125 2.53125 -1.515625 2.75 -1.359375 C 2.96875 -1.203125 3.242188 -1.125 3.578125 -1.125 Z M 3.578125 -1.125 "/></g></g></g><g fill="#ffffff" fill-opacity="1"><g transform="translate(189.445675, 53.44438)"><g><path d="M 3.140625 0.109375 C 2.554688 0.109375 2.0625 0.0195312 1.65625 -0.15625 C 1.257812 -0.34375 0.957031 -0.601562 0.75 -0.9375 C 0.550781 -1.269531 0.453125 -1.664062 0.453125 -2.125 C 0.453125 -2.539062 0.554688 -2.90625 0.765625 -3.21875 C 0.972656 -3.53125 1.28125 -3.773438 1.6875 -3.953125 L 1.6875 -4.0625 C 1.394531 -4.238281 1.171875 -4.445312 1.015625 -4.6875 C 0.867188 -4.9375 0.796875 -5.222656 0.796875 -5.546875 C 0.796875 -5.910156 0.882812 -6.234375 1.0625 -6.515625 C 1.25 -6.804688 1.519531 -7.03125 1.875 -7.1875 C 2.226562 -7.34375 2.648438 -7.421875 3.140625 -7.421875 C 3.628906 -7.421875 4.046875 -7.34375 4.390625 -7.1875 C 4.742188 -7.03125 5.007812 -6.804688 5.1875 -6.515625 C 5.375 -6.234375 5.46875 -5.910156 5.46875 -5.546875 C 5.46875 -5.222656 5.390625 -4.9375 5.234375 -4.6875 C 5.085938 -4.445312 4.867188 -4.238281 4.578125 -4.0625 L 4.578125 -3.953125 C 5.003906 -3.785156 5.316406 -3.539062 5.515625 -3.21875 C 5.722656 -2.90625 5.828125 -2.539062 5.828125 -2.125 C 5.828125 -1.664062 5.722656 -1.269531 5.515625 -0.9375 C 5.304688 -0.601562 5.003906 -0.34375 4.609375 -0.15625 C 4.210938 0.0195312 3.722656 0.109375 3.140625 0.109375 Z M 3.140625 -4.46875 C 3.429688 -4.46875 3.660156 -4.546875 3.828125 -4.703125 C 4.003906 -4.867188 4.09375 -5.09375 4.09375 -5.375 C 4.09375 -5.664062 4.003906 -5.890625 3.828125 -6.046875 C 3.660156 -6.210938 3.429688 -6.296875 3.140625 -6.296875 C 2.835938 -6.296875 2.601562 -6.210938 2.4375 -6.046875 C 2.269531 -5.890625 2.1875 -5.664062 2.1875 -5.375 C 2.1875 -5.082031 2.269531 -4.859375 2.4375 -4.703125 C 2.601562 -4.546875 2.835938 -4.46875 3.140625 -4.46875 Z M 3.140625 -1.125 C 3.523438 -1.125 3.820312 -1.222656 4.03125 -1.421875 C 4.25 -1.617188 4.359375 -1.890625 4.359375 -2.234375 C 4.359375 -2.578125 4.25 -2.847656 4.03125 -3.046875 C 3.820312 -3.242188 3.523438 -3.34375 3.140625 -3.34375 C 2.742188 -3.34375 2.4375 -3.242188 2.21875 -3.046875 C 2.007812 -2.847656 1.90625 -2.578125 1.90625 -2.234375 C 1.90625 -1.890625 2.007812 -1.617188 2.21875 -1.421875 C 2.4375 -1.222656 2.742188 -1.125 3.140625 -1.125 Z M 3.140625 -1.125 "/></g></g></g><g fill="#ffffff" fill-opacity="1"><g transform="translate(196.126896, 53.44438)"><g><path d="M 0.359375 -0.578125 C 0.359375 -0.984375 0.398438 -1.320312 0.484375 -1.59375 C 0.578125 -1.875 0.722656 -2.128906 0.921875 -2.359375 C 1.117188 -2.585938 1.398438 -2.832031 1.765625 -3.09375 L 2.75 -3.796875 C 3.007812 -3.992188 3.210938 -4.160156 3.359375 -4.296875 C 3.515625 -4.441406 3.628906 -4.585938 3.703125 -4.734375 C 3.773438 -4.890625 3.8125 -5.066406 3.8125 -5.265625 C 3.8125 -5.554688 3.722656 -5.785156 3.546875 -5.953125 C 3.367188 -6.117188 3.097656 -6.203125 2.734375 -6.203125 C 2.390625 -6.203125 2.082031 -6.117188 1.8125 -5.953125 C 1.539062 -5.785156 1.316406 -5.554688 1.140625 -5.265625 L 1.046875 -5.25 L 0.25 -6.140625 C 0.507812 -6.523438 0.847656 -6.832031 1.265625 -7.0625 C 1.679688 -7.300781 2.191406 -7.421875 2.796875 -7.421875 C 3.335938 -7.421875 3.789062 -7.328125 4.15625 -7.140625 C 4.53125 -6.960938 4.804688 -6.71875 4.984375 -6.40625 C 5.160156 -6.101562 5.25 -5.75 5.25 -5.34375 C 5.25 -4.988281 5.175781 -4.664062 5.03125 -4.375 C 4.882812 -4.09375 4.679688 -3.832031 4.421875 -3.59375 C 4.171875 -3.351562 3.847656 -3.09375 3.453125 -2.8125 L 2.578125 -2.203125 C 2.316406 -2.015625 2.132812 -1.847656 2.03125 -1.703125 C 1.925781 -1.554688 1.875 -1.394531 1.875 -1.21875 L 5.1875 -1.21875 L 5.1875 0 L 0.359375 0 Z M 0.359375 -0.578125 "/></g></g></g><g fill="#ffffff" fill-opacity="1"><g transform="translate(202.242995, 53.44438)"><g><path d="M 3.046875 0.109375 C 2.316406 0.109375 1.738281 -0.0390625 1.3125 -0.34375 C 0.882812 -0.65625 0.601562 -1.085938 0.46875 -1.640625 L 1.5625 -2.125 L 1.6875 -2.109375 C 1.789062 -1.785156 1.945312 -1.539062 2.15625 -1.375 C 2.375 -1.207031 2.664062 -1.125 3.03125 -1.125 C 3.414062 -1.125 3.707031 -1.234375 3.90625 -1.453125 C 4.113281 -1.671875 4.21875 -1.992188 4.21875 -2.421875 C 4.21875 -2.847656 4.113281 -3.171875 3.90625 -3.390625 C 3.707031 -3.617188 3.429688 -3.734375 3.078125 -3.734375 C 2.804688 -3.734375 2.578125 -3.671875 2.390625 -3.546875 C 2.210938 -3.429688 2.0625 -3.257812 1.9375 -3.03125 L 0.734375 -3.125 L 0.890625 -7.3125 L 5.25 -7.3125 L 5.25 -6.09375 L 2.109375 -6.09375 L 2.03125 -4.234375 L 2.140625 -4.21875 C 2.304688 -4.4375 2.507812 -4.601562 2.75 -4.71875 C 2.988281 -4.832031 3.273438 -4.890625 3.609375 -4.890625 C 4.023438 -4.890625 4.390625 -4.796875 4.703125 -4.609375 C 5.015625 -4.429688 5.253906 -4.160156 5.421875 -3.796875 C 5.597656 -3.429688 5.6875 -2.984375 5.6875 -2.453125 C 5.6875 -1.910156 5.582031 -1.445312 5.375 -1.0625 C 5.164062 -0.6875 4.863281 -0.394531 4.46875 -0.1875 C 4.082031 0.0078125 3.609375 0.109375 3.046875 0.109375 Z M 3.046875 0.109375 "/></g></g></g><g fill="#ffffff" fill-opacity="1"><g transform="translate(208.814192, 53.44438)"><g><path d="M 7.171875 -6.300781 L 3 -6.300781 L 3 -7.265625 L 7.171875 -7.265625 Z M 8.460938 -8.328125 L 1.78125 -8.328125 L 1.78125 -5.246094 L 8.460938 -5.246094 Z M 9.640625 -3.503906 L 9.640625 -4.601562 L 0.5625 -4.601562 L 0.5625 -3.503906 L 2.480469 -3.503906 C 2.285156 -2.835938 2.027344 -2.140625 1.824219 -1.640625 L 2.570312 -1.640625 L 2.570312 -1.628906 L 7.046875 -1.628906 C 6.914062 -0.890625 6.761719 -0.503906 6.578125 -0.347656 C 6.445312 -0.265625 6.3125 -0.257812 6.085938 -0.257812 C 5.769531 -0.257812 5.011719 -0.265625 4.332031 -0.328125 C 4.558594 0 4.722656 0.480469 4.753906 0.828125 C 5.460938 0.871094 6.125 0.859375 6.527344 0.839844 C 6.996094 0.808594 7.335938 0.738281 7.644531 0.449219 C 8 0.113281 8.246094 -0.65625 8.453125 -2.222656 C 8.484375 -2.386719 8.511719 -2.734375 8.511719 -2.734375 L 3.605469 -2.734375 C 3.699219 -2.992188 3.78125 -3.246094 3.863281 -3.503906 Z M 9.640625 -3.503906 "/></g></g></g></svg>