<svg xmlns="http://www.w3.org/2000/svg" xmlns:xlink="http://www.w3.org/1999/xlink" width="500" zoomAndPan="magnify" viewBox="0 0 375 86.249997" height="115" preserveAspectRatio="xMidYMid meet" version="1.0"><defs><g/><clipPath id="f2c7a71ea3"><path d="M 11.738281 21.027344 L 67.503906 21.027344 L 67.503906 58.203125 L 11.738281 58.203125 Z M 11.738281 21.027344 " clip-rule="nonzero"/></clipPath></defs><g clip-path="url(#f2c7a71ea3)"><path fill="#ffbd59" d="M 11.757812 27.667969 C 11.757812 24 14.730469 21.027344 18.394531 21.027344 L 60.882812 21.027344 C 64.550781 21.027344 67.523438 24 67.523438 27.667969 L 67.523438 51.566406 C 67.523438 55.230469 64.550781 58.203125 60.882812 58.203125 L 18.394531 58.203125 C 14.730469 58.203125 11.757812 55.230469 11.757812 51.566406 Z M 18.394531 23.683594 C 16.195312 23.683594 14.414062 25.464844 14.414062 27.667969 L 14.414062 51.566406 C 14.414062 53.765625 16.195312 55.546875 18.394531 55.546875 L 60.882812 55.546875 C 63.082031 55.546875 64.867188 53.765625 64.867188 51.566406 L 64.867188 27.667969 C 64.867188 25.464844 63.082031 23.683594 60.882812 23.683594 Z M 18.394531 23.683594 " fill-opacity="1" fill-rule="evenodd"/></g><path fill="#ffbd59" d="M 27.691406 32.976562 C 24.757812 32.976562 22.378906 35.355469 22.378906 38.289062 C 22.378906 41.222656 24.757812 43.597656 27.691406 43.597656 C 30.621094 43.597656 33 41.222656 33 38.289062 C 33 35.355469 30.621094 32.976562 27.691406 32.976562 Z M 19.722656 38.289062 C 19.722656 33.886719 23.289062 30.320312 27.691406 30.320312 C 32.089844 30.320312 35.65625 33.886719 35.65625 38.289062 C 35.65625 42.6875 32.089844 46.253906 27.691406 46.253906 C 23.289062 46.253906 19.722656 42.6875 19.722656 38.289062 Z M 19.722656 38.289062 " fill-opacity="1" fill-rule="evenodd"/><path fill="#ffbd59" d="M 51.589844 32.976562 C 48.65625 32.976562 46.277344 35.355469 46.277344 38.289062 C 46.277344 41.222656 48.65625 43.597656 51.589844 43.597656 C 54.523438 43.597656 56.898438 41.222656 56.898438 38.289062 C 56.898438 35.355469 54.523438 32.976562 51.589844 32.976562 Z M 43.621094 38.289062 C 43.621094 33.886719 47.1875 30.320312 51.589844 30.320312 C 55.988281 30.320312 59.554688 33.886719 59.554688 38.289062 C 59.554688 42.6875 55.988281 46.253906 51.589844 46.253906 C 47.1875 46.253906 43.621094 42.6875 43.621094 38.289062 Z M 43.621094 38.289062 " fill-opacity="1" fill-rule="evenodd"/><path fill="#ffbd59" d="M 26.363281 44.925781 C 26.363281 44.195312 26.957031 43.597656 27.691406 43.597656 L 51.589844 43.597656 C 52.320312 43.597656 52.917969 44.195312 52.917969 44.925781 C 52.917969 45.660156 52.320312 46.253906 51.589844 46.253906 L 27.691406 46.253906 C 26.957031 46.253906 26.363281 45.660156 26.363281 44.925781 Z M 26.363281 44.925781 " fill-opacity="1" fill-rule="evenodd"/><path stroke-linecap="butt" transform="matrix(0.743534, 0, 0, 0.743534, 34.883858, 18.844016)" fill="none" stroke-linejoin="miter" d="M 60.410011 31.300732 C 58.69733 31.300732 57.210555 30.922471 55.944431 30.160695 C 54.678308 29.39892 53.690627 28.216854 52.986641 26.614499 C 52.287909 25.00689 51.935917 22.978992 51.935917 20.520296 C 51.935917 18.0616 52.287909 16.033701 52.986641 14.426093 C 53.690627 12.823737 54.678308 11.641672 55.944431 10.879897 C 57.210555 10.118121 58.69733 9.73986 60.410011 9.73986 C 62.127946 9.73986 63.619975 10.118121 64.886099 10.879897 C 66.152222 11.641672 67.139903 12.823737 67.838635 14.426093 C 68.542621 16.033701 68.894613 18.0616 68.894613 20.520296 C 68.894613 22.978992 68.542621 25.00689 67.838635 26.614499 C 67.139903 28.216854 66.152222 29.39892 64.886099 30.160695 C 63.619975 30.922471 62.127946 31.300732 60.410011 31.300732 Z M 60.410011 27.791311 C 61.345156 27.791311 62.127946 27.560152 62.758381 27.10834 C 63.388816 26.651275 63.872149 25.889499 64.213635 24.823014 C 64.55512 23.751274 64.723236 22.317035 64.723236 20.520296 C 64.723236 18.723557 64.55512 17.289317 64.213635 16.217578 C 63.872149 15.151093 63.388816 14.389317 62.758381 13.932252 C 62.127946 13.48044 61.345156 13.254535 60.410011 13.254535 C 59.469613 13.254535 58.686823 13.48044 58.056388 13.932252 C 57.425953 14.389317 56.94262 15.151093 56.601134 16.217578 C 56.259649 17.289317 56.091533 18.723557 56.091533 20.520296 C 56.091533 22.317035 56.259649 23.751274 56.601134 24.823014 C 56.94262 25.889499 57.425953 26.651275 58.056388 27.10834 C 58.686823 27.560152 59.469613 27.791311 60.410011 27.791311 Z M 78.797694 31.001275 L 74.568527 31.001275 L 81.797513 13.82718 L 81.708201 13.522469 L 72.404034 13.522469 L 72.404034 10.039317 L 85.995158 10.039317 L 85.995158 13.7116 Z M 98.110014 31.300732 C 96.397333 31.300732 94.910557 30.922471 93.644434 30.160695 C 92.378311 29.39892 91.39063 28.216854 90.691898 26.614499 C 89.987912 25.00689 89.635919 22.978992 89.635919 20.520296 C 89.635919 18.0616 89.987912 16.033701 90.691898 14.426093 C 91.39063 12.823737 92.378311 11.641672 93.644434 10.879897 C 94.910557 10.118121 96.397333 9.73986 98.110014 9.73986 C 99.827949 9.73986 101.319978 10.118121 102.586101 10.879897 C 103.857478 11.641672 104.839906 12.823737 105.543891 14.426093 C 106.242623 16.033701 106.594616 18.0616 106.594616 20.520296 C 106.594616 22.978992 106.242623 25.00689 105.543891 26.614499 C 104.839906 28.216854 103.857478 29.39892 102.586101 30.160695 C 101.319978 30.922471 99.827949 31.300732 98.110014 31.300732 Z M 98.110014 27.791311 C 99.045159 27.791311 99.827949 27.560152 100.458384 27.10834 C 101.088819 26.651275 101.577406 25.889499 101.913638 24.823014 C 102.255123 23.751274 102.423239 22.317035 102.423239 20.520296 C 102.423239 18.723557 102.255123 17.289317 101.913638 16.217578 C 101.577406 15.151093 101.088819 14.389317 100.458384 13.932252 C 99.827949 13.48044 99.045159 13.254535 98.110014 13.254535 C 97.169615 13.254535 96.386826 13.48044 95.756391 13.932252 C 95.125956 14.389317 94.642623 15.151093 94.301137 16.217578 C 93.964905 17.289317 93.791536 18.723557 93.791536 20.520296 C 93.791536 22.317035 93.964905 23.751274 94.301137 24.823014 C 94.642623 25.889499 95.125956 26.651275 95.756391 27.10834 C 96.386826 27.560152 97.169615 27.791311 98.110014 27.791311 Z M 119.565813 22.569209 L 110.781754 22.569209 L 110.781754 19.070296 L 119.565813 19.070296 Z M 136.251321 31.001275 L 132.284835 31.001275 L 132.284835 26.44113 L 122.733748 26.44113 L 122.733748 23.099825 L 130.950415 10.039317 L 136.251321 10.039317 L 136.251321 23.099825 L 139.477046 23.099825 L 139.477046 26.44113 L 136.251321 26.44113 Z M 126.978676 22.800369 L 127.110016 23.099825 L 132.284835 23.099825 L 132.284835 14.98823 L 131.953857 14.93044 Z M 148.423967 31.001275 L 144.1948 31.001275 L 151.418532 13.82718 L 151.334474 13.522469 L 142.030307 13.522469 L 142.030307 10.039317 L 155.621431 10.039317 L 155.621431 13.7116 Z M 166.254765 31.300732 C 164.279403 31.300732 162.719077 30.901456 161.584294 30.102905 C 160.444258 29.304355 159.687736 28.190586 159.304221 26.756347 L 162.456396 25.337869 L 162.787374 25.41142 C 163.333751 27.003267 164.479041 27.801818 166.228497 27.801818 C 167.594439 27.801818 168.634657 27.234427 169.343896 26.104898 C 170.058389 24.970115 170.415635 23.273195 170.415635 21.008883 L 170.126686 20.909064 C 169.648606 21.817941 169.023425 22.506166 168.256396 22.973738 C 167.489367 23.441311 166.491178 23.67247 165.267084 23.67247 C 164.016722 23.67247 162.913461 23.399282 161.962555 22.842398 C 161.011649 22.290767 160.270888 21.49747 159.745526 20.46776 C 159.220163 19.443303 158.957482 18.23497 158.957482 16.848013 C 158.957482 15.40852 159.267446 14.152904 159.876866 13.081165 C 160.486287 12.009426 161.358388 11.184607 162.487917 10.606708 C 163.612193 10.02881 164.925599 9.73986 166.428135 9.73986 C 169.018171 9.73986 171.040816 10.559426 172.501324 12.198556 C 173.956578 13.837687 174.686831 16.480259 174.686831 20.121021 C 174.686831 22.621745 174.350599 24.707434 173.672882 26.367579 C 173.000418 28.032978 172.033751 29.267579 170.778135 30.081891 C 169.522519 30.896203 168.014729 31.300732 166.254765 31.300732 Z M 166.543715 20.278629 C 167.615454 20.278629 168.461287 19.963412 169.086468 19.332977 C 169.71165 18.697289 170.026867 17.851455 170.026867 16.779716 C 170.026867 15.69747 169.716903 14.841129 169.102229 14.210694 C 168.487555 13.580259 167.631215 13.265042 166.543715 13.265042 C 165.471975 13.265042 164.636649 13.569752 164.032483 14.184426 C 163.43357 14.793846 163.128859 15.660694 163.128859 16.779716 C 163.128859 17.888231 163.43357 18.749825 164.032483 19.359245 C 164.636649 19.968665 165.471975 20.278629 166.543715 20.278629 Z M 184.589912 31.001275 L 180.360745 31.001275 L 187.584477 13.82718 L 187.500419 13.522469 L 178.196252 13.522469 L 178.196252 10.039317 L 191.787376 10.039317 L 191.787376 13.7116 Z M 203.697341 22.569209 L 194.913282 22.569209 L 194.913282 19.070296 L 203.697341 19.070296 Z M 215.139733 31.300732 C 213.474334 31.300732 212.066363 31.043304 210.915819 30.528449 C 209.765276 30.00834 208.898428 29.272833 208.315276 28.316673 C 207.732123 27.365767 207.437921 26.230985 207.437921 24.922833 C 207.437921 23.709245 207.742631 22.658521 208.341544 21.765405 C 208.94571 20.877542 209.823066 20.17881 210.978863 19.674463 L 210.978863 19.375006 C 210.159298 18.865405 209.528863 18.266491 209.092812 17.56776 C 208.662015 16.869028 208.441363 16.054716 208.441363 15.114317 C 208.441363 14.053085 208.704044 13.11794 209.224153 12.303629 C 209.744261 11.494571 210.51129 10.864136 211.519986 10.412324 C 212.528682 9.965766 213.731762 9.73986 215.139733 9.73986 C 216.54245 9.73986 217.74553 9.965766 218.748972 10.412324 C 219.752414 10.864136 220.519443 11.494571 221.044806 12.303629 C 221.570168 13.11794 221.832849 14.053085 221.832849 15.114317 C 221.832849 16.054716 221.612197 16.869028 221.170893 17.562506 C 220.734842 18.250731 220.099153 18.854897 219.269081 19.375006 L 219.269081 19.674463 C 220.487921 20.16305 221.386291 20.856528 221.96419 21.754898 C 222.536835 22.653267 222.82053 23.709245 222.82053 24.922833 C 222.82053 26.230985 222.531581 27.365767 221.948429 28.316673 C 221.365277 29.272833 220.498429 30.00834 219.353139 30.528449 C 218.207849 31.043304 216.799878 31.300732 215.139733 31.300732 Z M 215.139733 18.198194 C 215.969805 18.198194 216.631762 17.967035 217.125602 17.50997 C 217.614189 17.052904 217.86111 16.417216 217.86111 15.602904 C 217.86111 14.783339 217.614189 14.137143 217.125602 13.669571 C 216.631762 13.201998 215.969805 12.965585 215.139733 12.965585 C 214.288646 12.965585 213.616182 13.196745 213.132848 13.659064 C 212.644261 14.126636 212.397341 14.772832 212.397341 15.602904 C 212.397341 16.427723 212.644261 17.063412 213.132848 17.515223 C 213.616182 17.972289 214.288646 18.198194 215.139733 18.198194 Z M 215.139733 27.77555 C 216.258754 27.77555 217.120349 27.497108 217.735023 26.93497 C 218.344443 26.378086 218.649153 25.60055 218.649153 24.607615 C 218.649153 23.61468 218.344443 22.837144 217.735023 22.275006 C 217.120349 21.718122 216.258754 21.43968 215.139733 21.43968 C 214.010204 21.43968 213.138102 21.718122 212.528682 22.275006 C 211.919261 22.837144 211.609298 23.61468 211.609298 24.607615 C 211.609298 25.60055 211.919261 26.378086 212.528682 26.93497 C 213.138102 27.497108 214.010204 27.77555 215.139733 27.77555 Z M 235.534299 31.300732 C 233.826872 31.300732 232.334843 30.922471 231.068719 30.160695 C 229.802596 29.39892 228.820168 28.216854 228.116183 26.614499 C 227.417451 25.00689 227.065458 22.978992 227.065458 20.520296 C 227.065458 18.0616 227.417451 16.033701 228.116183 14.426093 C 228.820168 12.823737 229.802596 11.641672 231.068719 10.879897 C 232.334843 10.118121 233.826872 9.73986 235.534299 9.73986 C 237.257488 9.73986 238.749517 10.118121 240.01564 10.879897 C 241.281764 11.641672 242.269445 12.823737 242.968177 14.426093 C 243.672162 16.033701 244.024155 18.0616 244.024155 20.520296 C 244.024155 22.978992 243.672162 25.00689 242.968177 26.614499 C 242.269445 28.216854 241.281764 29.39892 240.01564 30.160695 C 238.749517 30.922471 237.257488 31.300732 235.534299 31.300732 Z M 235.534299 27.791311 C 236.474698 27.791311 237.257488 27.560152 237.887923 27.10834 C 238.518358 26.651275 239.001691 25.889499 239.343176 24.823014 C 239.684662 23.751274 239.852778 22.317035 239.852778 20.520296 C 239.852778 18.723557 239.684662 17.289317 239.343176 16.217578 C 239.001691 15.151093 238.518358 14.389317 237.887923 13.932252 C 237.257488 13.48044 236.474698 13.254535 235.534299 13.254535 C 234.599154 13.254535 233.816364 13.48044 233.18593 13.932252 C 232.555495 14.389317 232.072161 15.151093 231.730676 16.217578 C 231.38919 17.289317 231.221074 18.723557 231.221074 20.520296 C 231.221074 22.317035 231.38919 23.751274 231.730676 24.823014 C 232.072161 25.889499 232.555495 26.651275 233.18593 27.10834 C 233.816364 27.560152 234.599154 27.791311 235.534299 27.791311 Z M 255.718721 31.300732 C 253.743359 31.300732 252.183032 30.901456 251.04825 30.102905 C 249.908213 29.304355 249.151692 28.190586 248.768177 26.756347 L 251.920351 25.337869 L 252.25133 25.41142 C 252.797706 27.003267 253.942996 27.801818 255.692453 27.801818 C 257.058395 27.801818 258.098613 27.234427 258.807852 26.104898 C 259.522345 24.970115 259.879591 23.273195 259.879591 21.008883 L 259.590642 20.909064 C 259.112562 21.817941 258.487381 22.506166 257.720352 22.973738 C 256.948069 23.441311 255.955134 23.67247 254.73104 23.67247 C 253.480677 23.67247 252.377416 23.399282 251.426511 22.842398 C 250.475605 22.290767 249.734844 21.49747 249.209481 20.46776 C 248.684119 19.443303 248.421438 18.23497 248.421438 16.848013 C 248.421438 15.40852 248.731402 14.152904 249.340822 13.081165 C 249.950242 12.009426 250.822344 11.184607 251.951873 10.606708 C 253.076148 10.02881 254.389554 9.73986 255.892091 9.73986 C 258.482127 9.73986 260.504772 10.559426 261.96528 12.198556 C 263.420533 13.837687 264.150787 16.480259 264.150787 20.121021 C 264.150787 22.621745 263.814555 24.707434 263.136838 26.367579 C 262.464374 28.032978 261.497707 29.267579 260.242091 30.081891 C 258.986475 30.896203 257.478685 31.300732 255.718721 31.300732 Z M 256.00767 20.278629 C 257.07941 20.278629 257.925243 19.963412 258.550424 19.332977 C 259.175605 18.697289 259.490823 17.851455 259.490823 16.779716 C 259.490823 15.69747 259.180859 14.841129 258.566185 14.210694 C 257.951511 13.580259 257.09517 13.265042 256.00767 13.265042 C 254.935931 13.265042 254.100605 13.569752 253.496438 14.184426 C 252.897525 14.793846 252.592815 15.660694 252.592815 16.779716 C 252.592815 17.888231 252.897525 18.749825 253.496438 19.359245 C 254.100605 19.968665 254.935931 20.278629 256.00767 20.278629 Z M 275.845353 31.300732 C 273.869991 31.300732 272.309664 30.901456 271.174882 30.102905 C 270.034845 29.304355 269.278324 28.190586 268.894809 26.756347 L 272.046983 25.337869 L 272.377961 25.41142 C 272.924338 27.003267 274.069628 27.801818 275.819085 27.801818 C 277.185027 27.801818 278.225244 27.234427 278.934484 26.104898 C 279.648976 24.970115 280.006223 23.273195 280.006223 21.008883 L 279.717274 20.909064 C 279.239194 21.817941 278.614013 22.506166 277.846984 22.973738 C 277.074701 23.441311 276.081766 23.67247 274.857672 23.67247 C 273.607309 23.67247 272.504048 23.399282 271.553143 22.842398 C 270.602237 22.290767 269.861476 21.49747 269.336113 20.46776 C 268.810751 19.443303 268.54807 18.23497 268.54807 16.848013 C 268.54807 15.40852 268.85278 14.152904 269.467454 13.081165 C 270.076874 12.009426 270.948976 11.184607 272.078505 10.606708 C 273.20278 10.02881 274.516186 9.73986 276.018723 9.73986 C 278.608759 9.73986 280.631404 10.559426 282.091911 12.198556 C 283.547165 13.837687 284.277419 16.480259 284.277419 20.121021 C 284.277419 22.621745 283.941187 24.707434 283.263469 26.367579 C 282.591006 28.032978 281.624339 29.267579 280.368723 30.081891 C 279.113107 30.896203 277.605317 31.300732 275.845353 31.300732 Z M 276.134302 20.278629 C 277.206041 20.278629 278.051875 19.963412 278.677056 19.332977 C 279.302237 18.697289 279.617455 17.851455 279.617455 16.779716 C 279.617455 15.69747 279.307491 14.841129 278.692817 14.210694 C 278.078143 13.580259 277.221802 13.265042 276.134302 13.265042 C 275.062563 13.265042 274.227237 13.569752 273.62307 14.184426 C 273.024157 14.793846 272.719447 15.660694 272.719447 16.779716 C 272.719447 17.888231 273.024157 18.749825 273.62307 19.359245 C 274.227237 19.968665 275.062563 20.278629 276.134302 20.278629 Z M 276.134302 20.278629 " stroke="#c1ff72" stroke-width="2.202308" stroke-opacity="1" stroke-miterlimit="4"/><g fill="#ffffff" fill-opacity="1"><g transform="translate(72.188374, 41.893583)"><g><path d="M 7.609375 0.21875 C 6.335938 0.21875 5.226562 -0.0625 4.28125 -0.625 C 3.34375 -1.1875 2.613281 -2.0625 2.09375 -3.25 C 1.570312 -4.445312 1.3125 -5.960938 1.3125 -7.796875 C 1.3125 -9.617188 1.570312 -11.125 2.09375 -12.3125 C 2.613281 -13.507812 3.34375 -14.390625 4.28125 -14.953125 C 5.226562 -15.523438 6.335938 -15.8125 7.609375 -15.8125 C 8.890625 -15.8125 10 -15.523438 10.9375 -14.953125 C 11.882812 -14.390625 12.617188 -13.507812 13.140625 -12.3125 C 13.660156 -11.125 13.921875 -9.617188 13.921875 -7.796875 C 13.921875 -5.960938 13.660156 -4.445312 13.140625 -3.25 C 12.617188 -2.0625 11.882812 -1.1875 10.9375 -0.625 C 10 -0.0625 8.890625 0.21875 7.609375 0.21875 Z M 7.609375 -2.390625 C 8.304688 -2.390625 8.890625 -2.554688 9.359375 -2.890625 C 9.828125 -3.234375 10.1875 -3.800781 10.4375 -4.59375 C 10.6875 -5.382812 10.8125 -6.453125 10.8125 -7.796875 C 10.8125 -9.128906 10.6875 -10.191406 10.4375 -10.984375 C 10.1875 -11.785156 9.828125 -12.351562 9.359375 -12.6875 C 8.890625 -13.019531 8.304688 -13.1875 7.609375 -13.1875 C 6.910156 -13.1875 6.328125 -13.019531 5.859375 -12.6875 C 5.390625 -12.351562 5.03125 -11.785156 4.78125 -10.984375 C 4.53125 -10.191406 4.40625 -9.128906 4.40625 -7.796875 C 4.40625 -6.453125 4.53125 -5.382812 4.78125 -4.59375 C 5.03125 -3.800781 5.390625 -3.234375 5.859375 -2.890625 C 6.328125 -2.554688 6.910156 -2.390625 7.609375 -2.390625 Z M 7.609375 -2.390625 "/></g></g></g><g fill="#ffffff" fill-opacity="1"><g transform="translate(88.293472, 41.893583)"><g><path d="M 5.1875 0 L 2.03125 0 L 7.40625 -12.765625 L 7.34375 -13 L 0.421875 -13 L 0.421875 -15.578125 L 10.53125 -15.578125 L 10.53125 -12.859375 Z M 5.1875 0 "/></g></g></g><g fill="#ffffff" fill-opacity="1"><g transform="translate(100.220227, 41.893583)"><g><path d="M 7.609375 0.21875 C 6.335938 0.21875 5.226562 -0.0625 4.28125 -0.625 C 3.34375 -1.1875 2.613281 -2.0625 2.09375 -3.25 C 1.570312 -4.445312 1.3125 -5.960938 1.3125 -7.796875 C 1.3125 -9.617188 1.570312 -11.125 2.09375 -12.3125 C 2.613281 -13.507812 3.34375 -14.390625 4.28125 -14.953125 C 5.226562 -15.523438 6.335938 -15.8125 7.609375 -15.8125 C 8.890625 -15.8125 10 -15.523438 10.9375 -14.953125 C 11.882812 -14.390625 12.617188 -13.507812 13.140625 -12.3125 C 13.660156 -11.125 13.921875 -9.617188 13.921875 -7.796875 C 13.921875 -5.960938 13.660156 -4.445312 13.140625 -3.25 C 12.617188 -2.0625 11.882812 -1.1875 10.9375 -0.625 C 10 -0.0625 8.890625 0.21875 7.609375 0.21875 Z M 7.609375 -2.390625 C 8.304688 -2.390625 8.890625 -2.554688 9.359375 -2.890625 C 9.828125 -3.234375 10.1875 -3.800781 10.4375 -4.59375 C 10.6875 -5.382812 10.8125 -6.453125 10.8125 -7.796875 C 10.8125 -9.128906 10.6875 -10.191406 10.4375 -10.984375 C 10.1875 -11.785156 9.828125 -12.351562 9.359375 -12.6875 C 8.890625 -13.019531 8.304688 -13.1875 7.609375 -13.1875 C 6.910156 -13.1875 6.328125 -13.019531 5.859375 -12.6875 C 5.390625 -12.351562 5.03125 -11.785156 4.78125 -10.984375 C 4.53125 -10.191406 4.40625 -9.128906 4.40625 -7.796875 C 4.40625 -6.453125 4.53125 -5.382812 4.78125 -4.59375 C 5.03125 -3.800781 5.390625 -3.234375 5.859375 -2.890625 C 6.328125 -2.554688 6.910156 -2.390625 7.609375 -2.390625 Z M 7.609375 -2.390625 "/></g></g></g><g fill="#ffffff" fill-opacity="1"><g transform="translate(116.325325, 41.893583)"><g><path d="M 7.453125 -6.265625 L 0.921875 -6.265625 L 0.921875 -8.875 L 7.453125 -8.875 Z M 7.453125 -6.265625 "/></g></g></g><g fill="#ffffff" fill-opacity="1"><g transform="translate(125.608639, 41.893583)"><g><path d="M 10.578125 0 L 7.625 0 L 7.625 -3.390625 L 0.53125 -3.390625 L 0.53125 -5.875 L 6.640625 -15.578125 L 10.578125 -15.578125 L 10.578125 -5.875 L 12.984375 -5.875 L 12.984375 -3.390625 L 10.578125 -3.390625 Z M 3.6875 -6.09375 L 3.78125 -5.875 L 7.625 -5.875 L 7.625 -11.90625 L 7.390625 -11.953125 Z M 3.6875 -6.09375 "/></g></g></g><g fill="#ffffff" fill-opacity="1"><g transform="translate(140.061578, 41.893583)"><g><path d="M 5.1875 0 L 2.03125 0 L 7.40625 -12.765625 L 7.34375 -13 L 0.421875 -13 L 0.421875 -15.578125 L 10.53125 -15.578125 L 10.53125 -12.859375 Z M 5.1875 0 "/></g></g></g><g fill="#ffffff" fill-opacity="1"><g transform="translate(151.98833, 41.893583)"><g><path d="M 6.515625 0.21875 C 5.046875 0.21875 3.882812 -0.078125 3.03125 -0.671875 C 2.1875 -1.265625 1.625 -2.09375 1.34375 -3.15625 L 3.6875 -4.203125 L 3.9375 -4.15625 C 4.34375 -2.96875 5.191406 -2.375 6.484375 -2.375 C 7.503906 -2.375 8.28125 -2.796875 8.8125 -3.640625 C 9.34375 -4.484375 9.609375 -5.742188 9.609375 -7.421875 L 9.390625 -7.5 C 9.035156 -6.820312 8.570312 -6.3125 8 -5.96875 C 7.425781 -5.625 6.6875 -5.453125 5.78125 -5.453125 C 4.84375 -5.453125 4.019531 -5.65625 3.3125 -6.0625 C 2.613281 -6.476562 2.066406 -7.066406 1.671875 -7.828125 C 1.285156 -8.585938 1.09375 -9.484375 1.09375 -10.515625 C 1.09375 -11.585938 1.316406 -12.519531 1.765625 -13.3125 C 2.222656 -14.113281 2.867188 -14.726562 3.703125 -15.15625 C 4.546875 -15.59375 5.523438 -15.8125 6.640625 -15.8125 C 8.566406 -15.8125 10.070312 -15.203125 11.15625 -13.984375 C 12.238281 -12.765625 12.78125 -10.800781 12.78125 -8.09375 C 12.78125 -6.226562 12.53125 -4.675781 12.03125 -3.4375 C 11.53125 -2.207031 10.8125 -1.289062 9.875 -0.6875 C 8.9375 -0.0820312 7.816406 0.21875 6.515625 0.21875 Z M 6.71875 -7.96875 C 7.519531 -7.96875 8.148438 -8.203125 8.609375 -8.671875 C 9.078125 -9.140625 9.3125 -9.773438 9.3125 -10.578125 C 9.3125 -11.378906 9.082031 -12.015625 8.625 -12.484375 C 8.164062 -12.953125 7.53125 -13.1875 6.71875 -13.1875 C 5.925781 -13.1875 5.304688 -12.957031 4.859375 -12.5 C 4.410156 -12.039062 4.1875 -11.398438 4.1875 -10.578125 C 4.1875 -9.753906 4.410156 -9.113281 4.859375 -8.65625 C 5.304688 -8.195312 5.925781 -7.96875 6.71875 -7.96875 Z M 6.71875 -7.96875 "/></g></g></g><g fill="#ffffff" fill-opacity="1"><g transform="translate(166.952902, 41.893583)"><g><path d="M 5.1875 0 L 2.03125 0 L 7.40625 -12.765625 L 7.34375 -13 L 0.421875 -13 L 0.421875 -15.578125 L 10.53125 -15.578125 L 10.53125 -12.859375 Z M 5.1875 0 "/></g></g></g><g fill="#ffffff" fill-opacity="1"><g transform="translate(178.879654, 41.893583)"><g><path d="M 7.453125 -6.265625 L 0.921875 -6.265625 L 0.921875 -8.875 L 7.453125 -8.875 Z M 7.453125 -6.265625 "/></g></g></g><g fill="#ffffff" fill-opacity="1"><g transform="translate(188.162966, 41.893583)"><g><path d="M 6.6875 0.21875 C 5.445312 0.21875 4.398438 0.03125 3.546875 -0.34375 C 2.691406 -0.726562 2.046875 -1.273438 1.609375 -1.984375 C 1.171875 -2.703125 0.953125 -3.546875 0.953125 -4.515625 C 0.953125 -5.421875 1.175781 -6.203125 1.625 -6.859375 C 2.070312 -7.523438 2.726562 -8.046875 3.59375 -8.421875 L 3.59375 -8.640625 C 2.976562 -9.015625 2.507812 -9.460938 2.1875 -9.984375 C 1.863281 -10.503906 1.703125 -11.113281 1.703125 -11.8125 C 1.703125 -12.601562 1.894531 -13.296875 2.28125 -13.890625 C 2.664062 -14.492188 3.234375 -14.960938 3.984375 -15.296875 C 4.734375 -15.640625 5.632812 -15.8125 6.6875 -15.8125 C 7.726562 -15.8125 8.617188 -15.640625 9.359375 -15.296875 C 10.109375 -14.960938 10.675781 -14.492188 11.0625 -13.890625 C 11.457031 -13.296875 11.65625 -12.601562 11.65625 -11.8125 C 11.65625 -11.113281 11.488281 -10.503906 11.15625 -9.984375 C 10.832031 -9.472656 10.363281 -9.023438 9.75 -8.640625 L 9.75 -8.421875 C 10.65625 -8.054688 11.320312 -7.539062 11.75 -6.875 C 12.175781 -6.207031 12.390625 -5.421875 12.390625 -4.515625 C 12.390625 -3.546875 12.171875 -2.703125 11.734375 -1.984375 C 11.304688 -1.273438 10.664062 -0.726562 9.8125 -0.34375 C 8.957031 0.03125 7.914062 0.21875 6.6875 0.21875 Z M 6.6875 -9.515625 C 7.300781 -9.515625 7.789062 -9.6875 8.15625 -10.03125 C 8.519531 -10.375 8.703125 -10.847656 8.703125 -11.453125 C 8.703125 -12.054688 8.519531 -12.53125 8.15625 -12.875 C 7.789062 -13.226562 7.300781 -13.40625 6.6875 -13.40625 C 6.050781 -13.40625 5.550781 -13.234375 5.1875 -12.890625 C 4.820312 -12.546875 4.640625 -12.066406 4.640625 -11.453125 C 4.640625 -10.835938 4.820312 -10.359375 5.1875 -10.015625 C 5.550781 -9.679688 6.050781 -9.515625 6.6875 -9.515625 Z M 6.6875 -2.390625 C 7.519531 -2.390625 8.160156 -2.597656 8.609375 -3.015625 C 9.066406 -3.429688 9.296875 -4.007812 9.296875 -4.75 C 9.296875 -5.488281 9.066406 -6.066406 8.609375 -6.484375 C 8.160156 -6.898438 7.519531 -7.109375 6.6875 -7.109375 C 5.84375 -7.109375 5.191406 -6.898438 4.734375 -6.484375 C 4.285156 -6.066406 4.0625 -5.488281 4.0625 -4.75 C 4.0625 -4.007812 4.285156 -3.429688 4.734375 -3.015625 C 5.191406 -2.597656 5.84375 -2.390625 6.6875 -2.390625 Z M 6.6875 -2.390625 "/></g></g></g><g fill="#ffffff" fill-opacity="1"><g transform="translate(202.402723, 41.893583)"><g><path d="M 7.609375 0.21875 C 6.335938 0.21875 5.226562 -0.0625 4.28125 -0.625 C 3.34375 -1.1875 2.613281 -2.0625 2.09375 -3.25 C 1.570312 -4.445312 1.3125 -5.960938 1.3125 -7.796875 C 1.3125 -9.617188 1.570312 -11.125 2.09375 -12.3125 C 2.613281 -13.507812 3.34375 -14.390625 4.28125 -14.953125 C 5.226562 -15.523438 6.335938 -15.8125 7.609375 -15.8125 C 8.890625 -15.8125 10 -15.523438 10.9375 -14.953125 C 11.882812 -14.390625 12.617188 -13.507812 13.140625 -12.3125 C 13.660156 -11.125 13.921875 -9.617188 13.921875 -7.796875 C 13.921875 -5.960938 13.660156 -4.445312 13.140625 -3.25 C 12.617188 -2.0625 11.882812 -1.1875 10.9375 -0.625 C 10 -0.0625 8.890625 0.21875 7.609375 0.21875 Z M 7.609375 -2.390625 C 8.304688 -2.390625 8.890625 -2.554688 9.359375 -2.890625 C 9.828125 -3.234375 10.1875 -3.800781 10.4375 -4.59375 C 10.6875 -5.382812 10.8125 -6.453125 10.8125 -7.796875 C 10.8125 -9.128906 10.6875 -10.191406 10.4375 -10.984375 C 10.1875 -11.785156 9.828125 -12.351562 9.359375 -12.6875 C 8.890625 -13.019531 8.304688 -13.1875 7.609375 -13.1875 C 6.910156 -13.1875 6.328125 -13.019531 5.859375 -12.6875 C 5.390625 -12.351562 5.03125 -11.785156 4.78125 -10.984375 C 4.53125 -10.191406 4.40625 -9.128906 4.40625 -7.796875 C 4.40625 -6.453125 4.53125 -5.382812 4.78125 -4.59375 C 5.03125 -3.800781 5.390625 -3.234375 5.859375 -2.890625 C 6.328125 -2.554688 6.910156 -2.390625 7.609375 -2.390625 Z M 7.609375 -2.390625 "/></g></g></g><g fill="#ffffff" fill-opacity="1"><g transform="translate(218.507818, 41.893583)"><g><path d="M 6.515625 0.21875 C 5.046875 0.21875 3.882812 -0.078125 3.03125 -0.671875 C 2.1875 -1.265625 1.625 -2.09375 1.34375 -3.15625 L 3.6875 -4.203125 L 3.9375 -4.15625 C 4.34375 -2.96875 5.191406 -2.375 6.484375 -2.375 C 7.503906 -2.375 8.28125 -2.796875 8.8125 -3.640625 C 9.34375 -4.484375 9.609375 -5.742188 9.609375 -7.421875 L 9.390625 -7.5 C 9.035156 -6.820312 8.570312 -6.3125 8 -5.96875 C 7.425781 -5.625 6.6875 -5.453125 5.78125 -5.453125 C 4.84375 -5.453125 4.019531 -5.65625 3.3125 -6.0625 C 2.613281 -6.476562 2.066406 -7.066406 1.671875 -7.828125 C 1.285156 -8.585938 1.09375 -9.484375 1.09375 -10.515625 C 1.09375 -11.585938 1.316406 -12.519531 1.765625 -13.3125 C 2.222656 -14.113281 2.867188 -14.726562 3.703125 -15.15625 C 4.546875 -15.59375 5.523438 -15.8125 6.640625 -15.8125 C 8.566406 -15.8125 10.070312 -15.203125 11.15625 -13.984375 C 12.238281 -12.765625 12.78125 -10.800781 12.78125 -8.09375 C 12.78125 -6.226562 12.53125 -4.675781 12.03125 -3.4375 C 11.53125 -2.207031 10.8125 -1.289062 9.875 -0.6875 C 8.9375 -0.0820312 7.816406 0.21875 6.515625 0.21875 Z M 6.71875 -7.96875 C 7.519531 -7.96875 8.148438 -8.203125 8.609375 -8.671875 C 9.078125 -9.140625 9.3125 -9.773438 9.3125 -10.578125 C 9.3125 -11.378906 9.082031 -12.015625 8.625 -12.484375 C 8.164062 -12.953125 7.53125 -13.1875 6.71875 -13.1875 C 5.925781 -13.1875 5.304688 -12.957031 4.859375 -12.5 C 4.410156 -12.039062 4.1875 -11.398438 4.1875 -10.578125 C 4.1875 -9.753906 4.410156 -9.113281 4.859375 -8.65625 C 5.304688 -8.195312 5.925781 -7.96875 6.71875 -7.96875 Z M 6.71875 -7.96875 "/></g></g></g><g fill="#ffffff" fill-opacity="1"><g transform="translate(233.472389, 41.893583)"><g><path d="M 6.515625 0.21875 C 5.046875 0.21875 3.882812 -0.078125 3.03125 -0.671875 C 2.1875 -1.265625 1.625 -2.09375 1.34375 -3.15625 L 3.6875 -4.203125 L 3.9375 -4.15625 C 4.34375 -2.96875 5.191406 -2.375 6.484375 -2.375 C 7.503906 -2.375 8.28125 -2.796875 8.8125 -3.640625 C 9.34375 -4.484375 9.609375 -5.742188 9.609375 -7.421875 L 9.390625 -7.5 C 9.035156 -6.820312 8.570312 -6.3125 8 -5.96875 C 7.425781 -5.625 6.6875 -5.453125 5.78125 -5.453125 C 4.84375 -5.453125 4.019531 -5.65625 3.3125 -6.0625 C 2.613281 -6.476562 2.066406 -7.066406 1.671875 -7.828125 C 1.285156 -8.585938 1.09375 -9.484375 1.09375 -10.515625 C 1.09375 -11.585938 1.316406 -12.519531 1.765625 -13.3125 C 2.222656 -14.113281 2.867188 -14.726562 3.703125 -15.15625 C 4.546875 -15.59375 5.523438 -15.8125 6.640625 -15.8125 C 8.566406 -15.8125 10.070312 -15.203125 11.15625 -13.984375 C 12.238281 -12.765625 12.78125 -10.800781 12.78125 -8.09375 C 12.78125 -6.226562 12.53125 -4.675781 12.03125 -3.4375 C 11.53125 -2.207031 10.8125 -1.289062 9.875 -0.6875 C 8.9375 -0.0820312 7.816406 0.21875 6.515625 0.21875 Z M 6.71875 -7.96875 C 7.519531 -7.96875 8.148438 -8.203125 8.609375 -8.671875 C 9.078125 -9.140625 9.3125 -9.773438 9.3125 -10.578125 C 9.3125 -11.378906 9.082031 -12.015625 8.625 -12.484375 C 8.164062 -12.953125 7.53125 -13.1875 6.71875 -13.1875 C 5.925781 -13.1875 5.304688 -12.957031 4.859375 -12.5 C 4.410156 -12.039062 4.1875 -11.398438 4.1875 -10.578125 C 4.1875 -9.753906 4.410156 -9.113281 4.859375 -8.65625 C 5.304688 -8.195312 5.925781 -7.96875 6.71875 -7.96875 Z M 6.71875 -7.96875 "/></g></g></g><path stroke-linecap="butt" transform="matrix(0.614488, 0, 0, 0.614488, 54.856177, 47.272506)" fill="none" stroke-linejoin="miter" d="M 36.029831 11.126114 L 30.607385 11.126114 L 30.607385 8.774056 L 36.029831 8.774056 Z M 38.807803 5.26504 L 38.807803 3.872876 L 34.122758 3.872876 L 34.122758 1.838664 L 32.565314 1.838664 L 32.565314 3.872876 L 27.892983 3.872876 L 27.892983 5.26504 L 32.565314 5.26504 L 32.565314 7.413677 L 29.107153 7.413677 L 29.107153 13.045902 L 30.607385 13.045902 L 30.607385 12.480137 L 36.029831 12.480137 L 36.029831 12.995047 L 37.593632 12.995047 L 37.593632 7.413677 L 34.122758 7.413677 L 34.122758 5.26504 Z M 44.732446 7.127616 L 43.626343 7.439105 L 43.626343 5.506603 L 44.624378 5.506603 L 44.624378 4.152581 L 43.626343 4.152581 L 43.626343 1.851378 L 42.316819 1.851378 L 42.316819 4.152581 L 41.75741 4.152581 C 41.827336 3.669455 41.890905 3.205401 41.935404 2.722275 L 40.746661 2.518854 C 40.638594 3.936446 40.435172 5.436677 40.066471 6.383857 C 40.327105 6.536423 40.854729 6.866983 41.070864 7.044976 C 41.236143 6.612706 41.382352 6.097796 41.515848 5.506603 L 42.316819 5.506603 L 42.316819 7.801449 C 41.503134 8.030298 40.772089 8.221005 40.174539 8.3545 L 40.524169 9.708523 C 41.070864 9.562314 41.67477 9.371606 42.316819 9.180899 L 42.316819 13.052259 L 43.626343 13.052259 L 43.626343 8.780413 C 44.071327 8.653275 44.490883 8.507066 44.923153 8.386285 Z M 46.868368 3.694883 C 47.033648 3.167259 47.192571 2.626921 47.313352 2.080227 L 46.016542 1.838664 C 45.654198 3.599529 44.993079 5.315896 44.045899 6.35843 C 44.338317 6.536423 44.904082 6.936909 45.126574 7.165757 C 45.596986 6.587278 46.016542 5.84352 46.359815 5.017121 L 46.976436 5.017121 C 46.448812 6.758915 45.514346 8.532494 44.325603 9.46696 C 44.694304 9.670381 45.152002 9.994584 45.418992 10.274288 C 46.626806 9.11733 47.637555 6.97505 48.165179 5.017121 L 48.724587 5.017121 C 48.127037 7.826876 46.925581 10.547635 45.005793 11.927085 C 45.406278 12.130507 45.895761 12.480137 46.175465 12.753484 C 48.10161 11.157899 49.341208 8.036655 49.926044 5.017121 L 49.989613 5.017121 C 49.798905 9.327108 49.58277 10.954478 49.283995 11.342249 C 49.131429 11.520243 49.017005 11.571098 48.832655 11.571098 C 48.610163 11.571098 48.209677 11.571098 47.77105 11.520243 C 47.980828 11.914372 48.127037 12.505565 48.165179 12.912407 C 48.680089 12.931478 49.182285 12.931478 49.519201 12.874265 C 49.919687 12.791626 50.18032 12.65813 50.453667 12.251288 C 50.911365 11.653738 51.1275 9.695809 51.356349 4.343288 C 51.369063 4.171651 51.37542 3.694883 51.37542 3.694883 Z M 56.613516 5.640098 L 57.465343 5.341323 C 57.331847 5.036192 57.077571 4.572137 56.861436 4.190722 L 59.8174 4.190722 C 59.671191 4.629349 59.423272 5.182401 59.181709 5.640098 Z M 61.781687 8.221005 C 61.27949 7.807806 60.484876 7.248397 59.849185 6.7907 L 61.781687 6.7907 Z M 56.454593 8.640561 C 57.033072 8.195577 57.624265 7.706095 58.037465 7.261111 L 57.090285 6.7907 L 59.442343 6.7907 L 58.806651 7.439105 C 59.264349 7.801449 59.861899 8.233719 60.345024 8.640561 Z M 59.455056 10.585777 L 57.128426 10.585777 L 57.128426 9.625883 L 59.455056 9.625883 Z M 63.656976 2.989266 L 59.397844 2.989266 C 59.238921 2.601494 59.0355 2.150153 58.844793 1.775095 L 57.401773 2.124725 C 57.522555 2.385359 57.65605 2.690491 57.764117 2.989266 L 52.983719 2.989266 L 52.983719 4.190722 L 56.263886 4.190722 L 55.456558 4.438642 C 55.640909 4.8137 55.869757 5.277754 56.015966 5.640098 L 53.549484 5.640098 L 53.549484 13.007761 L 54.922577 13.007761 L 54.922577 6.7907 L 57.0585 6.7907 C 56.518163 7.273825 55.640909 7.788735 54.954362 8.138365 C 55.125999 8.411712 55.41206 9.085545 55.481986 9.30168 C 55.628195 9.21904 55.787118 9.11733 55.939683 9.009262 L 55.939683 12.060581 L 57.128426 12.060581 L 57.128426 11.571098 L 60.592944 11.571098 L 60.592944 8.843983 C 60.790008 9.002905 60.942574 9.142757 61.076069 9.263539 L 61.781687 8.494352 L 61.781687 11.698237 C 61.781687 11.882587 61.711761 11.939799 61.521053 11.939799 C 61.336703 11.952513 60.656513 11.952513 60.06532 11.927085 C 60.236957 12.219503 60.402236 12.65813 60.465806 12.969619 C 61.425699 12.969619 62.074105 12.963262 62.506375 12.791626 C 62.945002 12.626346 63.103925 12.346642 63.103925 11.71095 L 63.103925 5.640098 L 60.618371 5.640098 C 60.859934 5.277754 61.126925 4.858198 61.36213 4.438642 L 60.128889 4.190722 L 63.656976 4.190722 Z M 68.32295 9.911944 L 68.32295 11.291394 L 66.956214 11.291394 L 66.956214 9.911944 Z M 69.568905 8.780413 L 65.716616 8.780413 L 65.716616 12.886979 L 66.956214 12.886979 L 66.956214 12.410211 L 69.568905 12.410211 Z M 65.754757 8.195577 L 69.607047 8.195577 L 69.607047 7.127616 L 65.754757 7.127616 Z M 76.389873 7.203899 L 73.917034 7.203899 L 73.917034 4.800986 L 76.122883 4.800986 L 76.122883 3.491462 L 72.226095 3.491462 C 72.378661 3.02105 72.52487 2.556995 72.632937 2.080227 L 71.189918 1.787809 C 70.98014 2.912983 70.579654 4.031799 70.083815 4.928124 L 70.083815 3.815664 L 67.579191 3.815664 L 68.297523 3.529603 C 68.24031 3.059192 67.986034 2.353574 67.674545 1.851378 L 66.657439 2.220079 C 66.905359 2.722275 67.115137 3.35161 67.185063 3.815664 L 65.169921 3.815664 L 65.169921 4.947195 L 70.077458 4.947195 C 69.931249 5.207828 69.778683 5.449391 69.607047 5.665526 L 69.607047 5.493889 L 65.754757 5.493889 L 65.754757 6.574565 L 69.607047 6.574565 L 69.607047 5.964301 C 69.969391 6.142294 70.446159 6.466497 70.700436 6.657204 C 71.069137 6.155008 71.431481 5.519317 71.742969 4.800986 L 72.461301 4.800986 L 72.461301 7.203899 L 69.969391 7.203899 L 69.969391 8.551565 L 72.461301 8.551565 L 72.461301 13.033188 L 73.917034 13.033188 L 73.917034 8.551565 L 76.389873 8.551565 Z M 82.651432 6.777986 L 82.651432 8.70413 L 80.375658 8.70413 L 80.375658 6.777986 Z M 84.069024 10.070867 L 84.069024 5.423963 L 78.983494 5.423963 L 78.983494 10.979905 L 80.375658 10.979905 L 80.375658 10.070867 Z M 88.684143 2.639635 L 77.877391 2.639635 L 77.877391 4.082655 L 85.804461 4.082655 L 85.804461 11.208754 C 85.804461 11.463031 85.696394 11.545671 85.423047 11.545671 C 85.136985 11.545671 84.094452 11.552028 83.242625 11.507529 C 83.45876 11.888944 83.744821 12.600918 83.827461 13.020474 C 85.054346 13.020474 85.937957 12.995047 86.541863 12.753484 C 87.107629 12.518278 87.304693 12.098722 87.304693 11.234182 L 87.304693 4.082655 L 88.684143 4.082655 Z M 94.589715 3.650385 L 92.358439 3.650385 L 93.095841 3.313468 C 92.981416 2.900269 92.669928 2.258221 92.371153 1.787809 L 91.303191 2.232793 C 91.557468 2.677777 91.792674 3.230828 91.913455 3.650385 L 90.127162 3.650385 L 90.127162 4.775558 L 94.589715 4.775558 Z M 94.157445 6.504639 L 94.157445 5.423963 L 90.705641 5.423963 L 90.705641 6.504639 Z M 93.019558 10.070867 L 93.019558 11.450317 L 91.868956 11.450317 L 91.868956 10.070867 Z M 94.246442 8.939336 L 90.6675 8.939336 L 90.6675 13.045902 L 91.868956 13.045902 L 91.868956 12.575491 L 94.246442 12.575491 Z M 90.514934 8.246433 L 94.252799 8.246433 L 94.252799 7.165757 L 90.514934 7.165757 Z M 98.829776 11.253253 L 98.829776 7.896802 L 100.952985 7.896802 L 100.952985 6.549137 L 98.829776 6.549137 L 98.829776 3.758452 L 101.073767 3.758452 L 101.073767 2.398073 L 94.882133 2.398073 L 94.882133 3.758452 L 97.424899 3.758452 L 97.424899 11.253253 L 96.534931 11.253253 L 96.534931 5.411249 L 95.206336 5.411249 L 95.206336 11.253253 L 94.545217 11.253253 L 94.545217 12.613632 L 101.372542 12.613632 L 101.372542 11.253253 Z M 98.829776 11.253253 " stroke="#7ed957" stroke-width="0.9" stroke-opacity="1" stroke-miterlimit="4"/><path stroke-linecap="butt" transform="matrix(0.614488, 0, 0, 0.614488, 54.856177, 47.272506)" fill="none" stroke-linejoin="miter" d="M 103.877165 12.054224 C 103.667387 12.054224 103.489394 12.009725 103.330471 11.927085 C 103.171548 11.844446 103.050767 11.723664 102.968127 11.577455 C 102.87913 11.431246 102.840989 11.25961 102.840989 11.075259 C 102.840989 10.884552 102.87913 10.719272 102.968127 10.573063 C 103.050767 10.420497 103.171548 10.306073 103.330471 10.217076 C 103.489394 10.134436 103.667387 10.089938 103.877165 10.089938 C 104.086944 10.089938 104.271294 10.134436 104.430217 10.217076 C 104.58914 10.299716 104.709921 10.41414 104.792561 10.566706 C 104.875201 10.712915 104.919699 10.878195 104.919699 11.068902 C 104.919699 11.354963 104.824345 11.590169 104.633638 11.774519 C 104.442931 11.95887 104.195011 12.054224 103.877165 12.054224 Z M 103.877165 7.432748 C 103.667387 7.432748 103.489394 7.394606 103.330471 7.311966 C 103.171548 7.22297 103.050767 7.108545 102.968127 6.962336 C 102.87913 6.80977 102.840989 6.644491 102.840989 6.46014 C 102.840989 6.269433 102.87913 6.104153 102.968127 5.951587 C 103.050767 5.805378 103.171548 5.684597 103.330471 5.601957 C 103.489394 5.51296 103.667387 5.474819 103.877165 5.474819 C 104.086944 5.474819 104.271294 5.51296 104.430217 5.5956 C 104.58914 5.684597 104.709921 5.799021 104.792561 5.94523 C 104.875201 6.097796 104.919699 6.263076 104.919699 6.453783 C 104.919699 6.733487 104.824345 6.968693 104.633638 7.159401 C 104.442931 7.343751 104.195011 7.432748 103.877165 7.432748 Z M 103.877165 7.432748 " stroke="#7ed957" stroke-width="0.9" stroke-opacity="1" stroke-miterlimit="4"/><path stroke-linecap="butt" transform="matrix(0.614488, 0, 0, 0.614488, 54.856177, 47.272506)" fill="none" stroke-linejoin="miter" d="M 116.209577 5.156973 C 116.540136 4.775558 116.870696 4.305147 117.1504 3.777523 L 117.627168 3.777523 C 117.964085 4.235221 118.326429 4.775558 118.491709 5.156973 Z M 118.288287 7.019548 L 115.904445 7.019548 L 115.904445 6.339359 L 118.288287 6.339359 Z M 114.49321 8.901195 L 112.446284 8.901195 C 112.478069 8.672346 112.503497 8.43714 112.541638 8.195577 L 114.49321 8.195577 Z M 112.478069 3.790237 C 112.757773 4.247934 112.992979 4.788272 113.107403 5.156973 L 111.066834 5.156973 C 111.422821 4.775558 111.785165 4.324217 112.122082 3.790237 Z M 120.85648 2.747703 L 117.66531 2.747703 C 117.760664 2.518854 117.843304 2.277291 117.906873 2.067513 L 116.527423 1.743311 C 116.222291 2.792201 115.612027 3.86652 114.893696 4.508568 C 115.192471 4.654777 115.707381 4.947195 116.031583 5.156973 L 113.177329 5.156973 L 114.353358 4.718346 C 114.270718 4.464069 114.099082 4.127153 113.921088 3.790237 L 115.478532 3.790237 L 115.478532 2.760417 L 112.706918 2.760417 C 112.814985 2.531568 112.916696 2.302719 113.005693 2.086584 L 111.715239 1.743311 C 111.314754 2.823986 110.583709 3.898304 109.782738 4.584851 C 110.068799 4.718346 110.558281 4.978979 110.857056 5.182401 L 110.857056 6.339359 L 114.49321 6.339359 L 114.49321 7.019548 L 111.295683 7.019548 C 111.206686 8.030298 111.028693 9.276253 110.850699 10.089938 L 113.431606 10.089938 C 112.490783 10.84641 111.193972 11.507529 109.948017 11.882587 C 110.246792 12.14322 110.647278 12.65813 110.850699 13.007761 C 112.160223 12.518278 113.488818 11.698237 114.49321 10.719272 L 114.49321 13.052259 L 115.904445 13.052259 L 115.904445 10.089938 L 118.771413 10.089938 C 118.69513 10.751056 118.599776 11.075259 118.478995 11.19604 C 118.370927 11.291394 118.250146 11.304108 118.072152 11.304108 C 117.856017 11.316822 117.353821 11.304108 116.845268 11.253253 C 117.074117 11.602883 117.220326 12.130507 117.245754 12.550063 C 117.868731 12.575491 118.434496 12.562777 118.771413 12.524635 C 119.140114 12.492851 119.432532 12.397497 119.680451 12.111436 C 119.99194 11.79359 120.138149 11.018047 120.252574 9.416105 C 120.284358 9.250825 120.290715 8.901195 120.290715 8.901195 L 115.904445 8.901195 L 115.904445 8.195577 L 119.705879 8.195577 L 119.705879 5.156973 L 118.517136 5.156973 L 119.737664 4.654777 C 119.616882 4.413214 119.407104 4.095368 119.165541 3.777523 L 120.85648 3.777523 Z M 120.85648 2.747703 " stroke="#7ed957" stroke-width="0.9" stroke-opacity="1" stroke-miterlimit="4"/><path stroke-linecap="butt" transform="matrix(0.614488, 0, 0, 0.614488, 54.856177, 47.272506)" fill="none" stroke-linejoin="miter" d="M 125.299963 12.12415 C 124.37821 12.12415 123.653522 11.927085 123.113185 11.539314 C 122.572847 11.151542 122.229574 10.598491 122.083365 9.892873 L 123.367461 9.295323 L 123.507313 9.314394 C 123.647165 9.791163 123.856943 10.134436 124.123934 10.350571 C 124.390924 10.566706 124.759625 10.674774 125.236394 10.674774 C 125.700448 10.674774 126.050078 10.566706 126.291641 10.350571 C 126.533204 10.140793 126.653985 9.829304 126.653985 9.416105 C 126.653985 9.015619 126.539561 8.70413 126.297998 8.487995 C 126.056435 8.278217 125.700448 8.17015 125.236394 8.17015 L 123.952297 8.17015 L 123.952297 6.847912 L 125.077471 6.847912 C 125.458885 6.847912 125.764017 6.752558 125.986509 6.561851 C 126.215358 6.371143 126.329783 6.097796 126.329783 5.741809 C 126.329783 5.392179 126.221715 5.125188 126.011937 4.947195 C 125.795802 4.769201 125.503384 4.680204 125.128326 4.680204 C 124.746911 4.680204 124.403638 4.769201 124.11122 4.953552 C 123.818802 5.131545 123.577239 5.373108 123.399246 5.67824 L 123.26575 5.703667 L 122.375783 4.661134 C 122.674558 4.260648 123.062329 3.930089 123.532741 3.682169 C 124.003152 3.434249 124.568918 3.313468 125.22368 3.313468 C 126.120004 3.313468 126.806551 3.497819 127.276963 3.872876 C 127.747374 4.247934 127.988937 4.775558 127.988937 5.455748 C 127.988937 5.86259 127.893583 6.218577 127.696519 6.504639 C 127.505812 6.797057 127.232464 7.051333 126.876477 7.261111 L 126.876477 7.381893 C 127.861799 7.731523 128.357638 8.430783 128.357638 9.492388 C 128.357638 10.026368 128.243213 10.484066 128.014365 10.878195 C 127.791873 11.272323 127.448599 11.583812 126.990902 11.799947 C 126.533204 12.016082 125.967439 12.12415 125.299963 12.12415 Z M 133.557593 12.12415 C 132.858332 12.12415 132.248069 11.965227 131.733159 11.660095 C 131.218249 11.348606 130.811406 10.865481 130.525345 10.204362 C 130.239284 9.5496 130.093075 8.723201 130.093075 7.718809 C 130.093075 6.714417 130.239284 5.881661 130.525345 5.226899 C 130.811406 4.572137 131.218249 4.089012 131.733159 3.777523 C 132.248069 3.466034 132.858332 3.313468 133.557593 3.313468 C 134.26321 3.313468 134.873474 3.466034 135.388384 3.777523 C 135.909651 4.089012 136.310136 4.572137 136.596197 5.226899 C 136.882258 5.881661 137.028467 6.714417 137.028467 7.718809 C 137.028467 8.723201 136.882258 9.5496 136.596197 10.204362 C 136.310136 10.865481 135.909651 11.348606 135.388384 11.660095 C 134.873474 11.965227 134.26321 12.12415 133.557593 12.12415 Z M 133.557593 10.687487 C 133.939008 10.687487 134.26321 10.592134 134.517487 10.407783 C 134.77812 10.223433 134.975184 9.911944 135.115037 9.473317 C 135.254889 9.03469 135.324815 8.449854 135.324815 7.718809 C 135.324815 6.981407 135.254889 6.396571 135.115037 5.957944 C 134.975184 5.519317 134.77812 5.207828 134.517487 5.023478 C 134.26321 4.839127 133.939008 4.743774 133.557593 4.743774 C 133.176178 4.743774 132.858332 4.839127 132.597699 5.023478 C 132.337065 5.207828 132.140001 5.519317 132.000149 5.957944 C 131.866654 6.396571 131.796728 6.981407 131.796728 7.718809 C 131.796728 8.449854 131.866654 9.03469 132.000149 9.473317 C 132.140001 9.911944 132.337065 10.223433 132.597699 10.407783 C 132.858332 10.592134 133.176178 10.687487 133.557593 10.687487 Z M 142.323776 12.12415 C 141.681728 12.12415 141.103249 11.971584 140.601053 11.679166 C 140.0925 11.380391 139.692014 10.909979 139.393239 10.261574 C 139.094464 9.613169 138.948255 8.793127 138.948255 7.801449 C 138.948255 6.784343 139.107178 5.938873 139.418667 5.271397 C 139.730155 4.597565 140.156069 4.108082 140.696406 3.790237 C 141.236744 3.472391 141.859721 3.313468 142.558982 3.313468 C 143.137461 3.313468 143.639657 3.396108 144.059213 3.561388 C 144.47877 3.733024 144.809329 3.980944 145.044535 4.305147 L 144.211779 5.373108 L 144.06557 5.373108 C 143.709583 4.947195 143.207387 4.737417 142.558982 4.737417 C 141.338454 4.737417 140.715477 5.627384 140.690049 7.413677 L 140.810831 7.451819 C 141.014252 7.083118 141.274885 6.803413 141.599088 6.612706 C 141.92329 6.421999 142.33649 6.320288 142.832329 6.320288 C 143.36631 6.320288 143.824008 6.434712 144.211779 6.657204 C 144.599551 6.886053 144.891969 7.203899 145.101747 7.623455 C 145.305168 8.043011 145.413236 8.538851 145.413236 9.110973 C 145.413236 9.73395 145.286098 10.274288 145.038178 10.725629 C 144.790258 11.183327 144.434271 11.5266 143.970217 11.768163 C 143.506162 12.003368 142.959467 12.12415 142.323776 12.12415 Z M 142.285635 10.674774 C 142.730618 10.674774 143.073892 10.547635 143.328168 10.287002 C 143.576088 10.026368 143.703226 9.664024 143.703226 9.193613 C 143.703226 8.723201 143.576088 8.360857 143.328168 8.100224 C 143.073892 7.83959 142.730618 7.712452 142.285635 7.712452 C 141.999573 7.712452 141.745297 7.769664 141.529162 7.890446 C 141.313027 8.011227 141.147747 8.182864 141.026966 8.405356 C 140.912541 8.627847 140.855329 8.894838 140.855329 9.193613 C 140.855329 9.651311 140.982467 10.013655 141.236744 10.274288 C 141.49102 10.541278 141.840651 10.674774 142.285635 10.674774 Z M 150.587763 12.12415 C 149.939358 12.12415 149.367236 11.971584 148.858683 11.679166 C 148.356487 11.380391 147.949644 10.909979 147.657226 10.261574 C 147.358451 9.613169 147.212242 8.793127 147.212242 7.801449 C 147.212242 6.784343 147.364808 5.938873 147.676297 5.271397 C 147.994143 4.597565 148.420056 4.108082 148.960393 3.790237 C 149.500731 3.472391 150.117352 3.313468 150.816612 3.313468 C 151.401448 3.313468 151.903644 3.396108 152.3232 3.561388 C 152.742757 3.733024 153.066959 3.980944 153.302165 4.305147 L 152.469409 5.373108 L 152.3232 5.373108 C 151.967213 4.947195 151.465017 4.737417 150.816612 4.737417 C 149.602442 4.737417 148.979464 5.627384 148.94768 7.413677 L 149.074818 7.451819 C 149.271882 7.083118 149.532516 6.803413 149.863075 6.612706 C 150.187278 6.421999 150.600477 6.320288 151.096316 6.320288 C 151.62394 6.320288 152.087995 6.434712 152.469409 6.657204 C 152.857181 6.886053 153.155956 7.203899 153.359377 7.623455 C 153.569155 8.043011 153.670866 8.538851 153.670866 9.110973 C 153.670866 9.73395 153.550085 10.274288 153.302165 10.725629 C 153.054245 11.183327 152.698258 11.5266 152.234204 11.768163 C 151.763792 12.003368 151.217098 12.12415 150.587763 12.12415 Z M 150.549622 10.674774 C 150.988249 10.674774 151.337879 10.547635 151.585798 10.287002 C 151.833718 10.026368 151.960856 9.664024 151.960856 9.193613 C 151.960856 8.723201 151.833718 8.360857 151.585798 8.100224 C 151.337879 7.83959 150.988249 7.712452 150.549622 7.712452 C 150.263561 7.712452 150.009284 7.769664 149.793149 7.890446 C 149.577014 8.011227 149.405377 8.182864 149.290953 8.405356 C 149.170171 8.627847 149.112959 8.894838 149.112959 9.193613 C 149.112959 9.651311 149.240098 10.013655 149.500731 10.274288 C 149.755007 10.541278 150.104638 10.674774 150.549622 10.674774 Z M 155.202882 11.997011 L 155.202882 10.598491 L 157.268879 10.598491 L 157.268879 5.26504 L 157.135384 5.233256 C 156.842966 5.373108 156.556905 5.487532 156.270843 5.563815 C 155.984782 5.646455 155.666937 5.710024 155.298236 5.76088 L 155.298236 4.311503 C 156.251773 4.114439 157.020959 3.822021 157.605795 3.434249 L 158.947104 3.434249 L 158.947104 10.598491 L 160.790609 10.598491 L 160.790609 11.997011 Z M 161.966638 11.323179 C 161.966638 10.84641 162.017493 10.452282 162.12556 10.128079 C 162.227271 9.803876 162.398908 9.505102 162.627757 9.238111 C 162.862962 8.971121 163.199879 8.678703 163.625792 8.373571 L 164.770036 7.547172 C 165.081525 7.32468 165.323088 7.133973 165.501081 6.968693 C 165.672718 6.803413 165.806213 6.631777 165.888853 6.453783 C 165.97785 6.269433 166.022348 6.066012 166.022348 5.837163 C 166.022348 5.487532 165.920638 5.220542 165.704503 5.029835 C 165.494724 4.839127 165.176879 4.743774 164.757322 4.743774 C 164.35048 4.743774 163.988136 4.845484 163.676647 5.036192 C 163.358802 5.226899 163.098168 5.493889 162.88839 5.830806 L 162.780322 5.856233 L 161.845856 4.8137 C 162.150988 4.362359 162.545117 4.000015 163.040956 3.726667 C 163.530438 3.446963 164.121631 3.313468 164.820892 3.313468 C 165.46294 3.313468 165.996921 3.415179 166.429191 3.624957 C 166.861461 3.834735 167.185663 4.127153 167.389085 4.489497 C 167.598863 4.858198 167.70693 5.277754 167.70693 5.748166 C 167.70693 6.155008 167.617933 6.523709 167.452654 6.860626 C 167.281017 7.197542 167.045811 7.509031 166.747036 7.795092 C 166.441904 8.081153 166.06049 8.386285 165.590078 8.710487 L 164.572972 9.422462 C 164.274197 9.638597 164.058062 9.835661 163.937281 10.007298 C 163.816499 10.172577 163.75293 10.369642 163.75293 10.57942 L 167.62429 10.57942 L 167.62429 11.997011 L 161.966638 11.997011 Z M 172.207625 12.12415 C 171.292229 12.12415 170.561184 11.927085 170.027203 11.539314 C 169.486866 11.151542 169.143593 10.598491 168.997384 9.892873 L 170.28148 9.295323 L 170.414975 9.314394 C 170.561184 9.791163 170.770962 10.134436 171.037953 10.350571 C 171.304943 10.566706 171.673644 10.674774 172.150412 10.674774 C 172.614467 10.674774 172.964097 10.566706 173.20566 10.350571 C 173.447223 10.140793 173.568004 9.829304 173.568004 9.416105 C 173.568004 9.015619 173.447223 8.70413 173.212017 8.487995 C 172.970454 8.278217 172.614467 8.17015 172.150412 8.17015 L 170.859959 8.17015 L 170.859959 6.847912 L 171.985133 6.847912 C 172.372904 6.847912 172.678036 6.752558 172.900528 6.561851 C 173.129377 6.371143 173.243802 6.097796 173.243802 5.741809 C 173.243802 5.392179 173.135734 5.125188 172.919599 4.947195 C 172.709821 4.769201 172.417403 4.680204 172.042345 4.680204 C 171.654573 4.680204 171.317657 4.769201 171.025239 4.953552 C 170.726464 5.131545 170.491258 5.373108 170.313265 5.67824 L 170.179769 5.703667 L 169.283445 4.661134 C 169.588576 4.260648 169.976348 3.930089 170.44676 3.682169 C 170.917171 3.434249 171.482937 3.313468 172.131342 3.313468 C 173.034023 3.313468 173.72057 3.497819 174.190982 3.872876 C 174.661393 4.247934 174.902956 4.775558 174.902956 5.455748 C 174.902956 5.86259 174.801245 6.218577 174.610538 6.504639 C 174.41983 6.797057 174.146483 7.051333 173.784139 7.261111 L 173.784139 7.381893 C 174.775818 7.731523 175.271657 8.430783 175.271657 9.492388 C 175.271657 10.026368 175.157232 10.484066 174.928384 10.878195 C 174.699535 11.272323 174.362618 11.583812 173.90492 11.799947 C 173.447223 12.016082 172.881457 12.12415 172.207625 12.12415 Z M 176.701962 11.323179 C 176.701962 10.84641 176.752818 10.452282 176.860885 10.128079 C 176.962596 9.803876 177.134232 9.505102 177.363081 9.238111 C 177.598287 8.971121 177.935203 8.678703 178.361117 8.373571 L 179.505361 7.547172 C 179.81685 7.32468 180.058412 7.133973 180.236406 6.968693 C 180.408043 6.803413 180.541538 6.631777 180.624178 6.453783 C 180.713174 6.269433 180.757673 6.066012 180.757673 5.837163 C 180.757673 5.487532 180.655962 5.220542 180.439827 5.029835 C 180.230049 4.839127 179.912203 4.743774 179.492647 4.743774 C 179.085805 4.743774 178.723461 4.845484 178.411972 5.036192 C 178.094126 5.226899 177.833493 5.493889 177.623715 5.830806 L 177.515647 5.856233 L 176.581181 4.8137 C 176.886313 4.362359 177.280441 4.000015 177.776281 3.726667 C 178.265763 3.446963 178.856956 3.313468 179.556216 3.313468 C 180.198264 3.313468 180.732245 3.415179 181.164515 3.624957 C 181.596785 3.834735 181.920988 4.127153 182.124409 4.489497 C 182.334187 4.858198 182.442255 5.277754 182.442255 5.748166 C 182.442255 6.155008 182.353258 6.523709 182.187978 6.860626 C 182.016342 7.197542 181.781136 7.509031 181.482361 7.795092 C 181.177229 8.081153 180.795814 8.386285 180.325403 8.710487 L 179.314654 9.422462 C 179.009522 9.638597 178.793387 9.835661 178.672605 10.007298 C 178.551824 10.172577 178.488255 10.369642 178.488255 10.57942 L 182.359615 10.57942 L 182.359615 11.997011 L 176.701962 11.997011 Z M 187.635853 12.12415 C 186.936592 12.12415 186.332686 11.965227 185.811419 11.660095 C 185.296509 11.348606 184.889666 10.865481 184.603605 10.204362 C 184.317544 9.5496 184.171335 8.723201 184.171335 7.718809 C 184.171335 6.714417 184.317544 5.881661 184.603605 5.226899 C 184.889666 4.572137 185.296509 4.089012 185.811419 3.777523 C 186.332686 3.466034 186.936592 3.313468 187.635853 3.313468 C 188.34147 3.313468 188.951734 3.466034 189.466644 3.777523 C 189.987911 4.089012 190.388396 4.572137 190.674457 5.226899 C 190.960518 5.881661 191.106727 6.714417 191.106727 7.718809 C 191.106727 8.723201 190.960518 9.5496 190.674457 10.204362 C 190.388396 10.865481 189.987911 11.348606 189.466644 11.660095 C 188.951734 11.965227 188.34147 12.12415 187.635853 12.12415 Z M 187.635853 10.687487 C 188.017268 10.687487 188.34147 10.592134 188.595747 10.407783 C 188.85638 10.223433 189.053444 9.911944 189.193297 9.473317 C 189.333149 9.03469 189.403075 8.449854 189.403075 7.718809 C 189.403075 6.981407 189.333149 6.396571 189.193297 5.957944 C 189.053444 5.519317 188.85638 5.207828 188.595747 5.023478 C 188.34147 4.839127 188.017268 4.743774 187.635853 4.743774 C 187.254438 4.743774 186.936592 4.839127 186.675959 5.023478 C 186.415326 5.207828 186.218261 5.519317 186.078409 5.957944 C 185.944914 6.396571 185.874988 6.981407 185.874988 7.718809 C 185.874988 8.449854 185.944914 9.03469 186.078409 9.473317 C 186.218261 9.911944 186.415326 10.223433 186.675959 10.407783 C 186.936592 10.592134 187.254438 10.687487 187.635853 10.687487 Z M 195.98248 12.12415 C 195.30229 12.12415 194.723811 12.016082 194.253399 11.806304 C 193.782988 11.596526 193.427001 11.297751 193.191795 10.903622 C 192.950232 10.515851 192.835808 10.051796 192.835808 9.517815 C 192.835808 9.021976 192.956589 8.589706 193.204509 8.227362 C 193.446071 7.865018 193.808416 7.578957 194.278827 7.369179 L 194.278827 7.248397 C 193.948268 7.038619 193.687634 6.797057 193.509641 6.510995 C 193.331647 6.224934 193.24265 5.888018 193.24265 5.506603 C 193.24265 5.074333 193.350718 4.692918 193.560496 4.362359 C 193.776631 4.025442 194.08812 3.771166 194.501319 3.586815 C 194.914518 3.402465 195.404001 3.313468 195.98248 3.313468 C 196.554602 3.313468 197.044084 3.402465 197.457284 3.586815 C 197.864126 3.771166 198.181972 4.025442 198.39175 4.362359 C 198.607885 4.692918 198.715952 5.074333 198.715952 5.506603 C 198.715952 5.888018 198.626956 6.224934 198.448962 6.504639 C 198.264612 6.7907 198.010335 7.038619 197.667062 7.248397 L 197.667062 7.369179 C 198.169258 7.5726 198.537959 7.852304 198.766808 8.221005 C 199.002014 8.589706 199.122795 9.021976 199.122795 9.517815 C 199.122795 10.051796 199.002014 10.515851 198.766808 10.903622 C 198.525245 11.297751 198.169258 11.596526 197.705203 11.806304 C 197.234792 12.016082 196.66267 12.12415 195.98248 12.12415 Z M 195.98248 6.765272 C 196.319396 6.765272 196.592743 6.676275 196.789808 6.485568 C 196.993229 6.301217 197.09494 6.040584 197.09494 5.710024 C 197.09494 5.373108 196.993229 5.106118 196.789808 4.91541 C 196.592743 4.724703 196.319396 4.629349 195.98248 4.629349 C 195.63285 4.629349 195.359502 4.724703 195.162438 4.91541 C 194.959017 5.099761 194.863663 5.366751 194.863663 5.710024 C 194.863663 6.040584 194.959017 6.301217 195.162438 6.491925 C 195.359502 6.676275 195.63285 6.765272 195.98248 6.765272 Z M 195.98248 10.68113 C 196.440178 10.68113 196.789808 10.566706 197.044084 10.337857 C 197.292004 10.109008 197.419142 9.791163 197.419142 9.38432 C 197.419142 8.977478 197.292004 8.665989 197.044084 8.43714 C 196.789808 8.208291 196.440178 8.093867 195.98248 8.093867 C 195.518425 8.093867 195.162438 8.208291 194.914518 8.43714 C 194.666599 8.665989 194.539461 8.977478 194.539461 9.38432 C 194.539461 9.791163 194.666599 10.109008 194.914518 10.337857 C 195.162438 10.566706 195.518425 10.68113 195.98248 10.68113 Z M 200.5531 11.323179 C 200.5531 10.84641 200.603956 10.452282 200.705666 10.128079 C 200.807377 9.803876 200.979014 9.505102 201.214219 9.238111 C 201.449425 8.971121 201.779985 8.678703 202.205898 8.373571 L 203.350142 7.547172 C 203.661631 7.32468 203.90955 7.133973 204.081187 6.968693 C 204.252824 6.803413 204.386319 6.631777 204.475316 6.453783 C 204.557956 6.269433 204.602454 6.066012 204.602454 5.837163 C 204.602454 5.487532 204.500743 5.220542 204.290965 5.029835 C 204.07483 4.839127 203.763341 4.743774 203.337428 4.743774 C 202.930586 4.743774 202.574599 4.845484 202.256753 5.036192 C 201.938907 5.226899 201.678274 5.493889 201.468496 5.830806 L 201.360428 5.856233 L 200.425962 4.8137 C 200.731094 4.362359 201.131579 4.000015 201.621062 3.726667 C 202.110544 3.446963 202.701737 3.313468 203.400997 3.313468 C 204.043046 3.313468 204.583383 3.415179 205.009296 3.624957 C 205.441567 3.834735 205.765769 4.127153 205.975547 4.489497 C 206.178968 4.858198 206.287036 5.277754 206.287036 5.748166 C 206.287036 6.155008 206.204396 6.523709 206.032759 6.860626 C 205.861123 7.197542 205.625917 7.509031 205.327142 7.795092 C 205.02201 8.081153 204.640595 8.386285 204.170184 8.710487 L 203.159435 9.422462 C 202.854303 9.638597 202.638168 9.835661 202.517387 10.007298 C 202.396605 10.172577 202.339393 10.369642 202.339393 10.57942 L 206.204396 10.57942 L 206.204396 11.997011 L 200.5531 11.997011 Z M 210.87037 12.12415 C 210.012187 12.12415 209.331997 11.946156 208.829801 11.583812 C 208.327605 11.221468 208.003403 10.725629 207.850837 10.077224 L 209.134933 9.511458 L 209.268428 9.530529 C 209.395567 9.911944 209.579917 10.198005 209.827837 10.388712 C 210.075756 10.57942 210.41903 10.674774 210.8513 10.674774 C 211.296284 10.674774 211.639557 10.547635 211.88112 10.293359 C 212.122682 10.039082 212.243464 9.664024 212.243464 9.155471 C 212.243464 8.659632 212.122682 8.278217 211.887476 8.023941 C 211.645914 7.763307 211.315354 7.636169 210.902155 7.636169 C 210.584309 7.636169 210.323676 7.706095 210.107541 7.83959 C 209.891406 7.979442 209.713412 8.182864 209.567203 8.449854 L 208.168682 8.348143 L 208.340319 3.434249 L 213.438563 3.434249 L 213.438563 4.858198 L 209.764267 4.858198 L 209.681628 7.044976 L 209.808766 7.064047 C 210.00583 6.803413 210.247393 6.606349 210.52074 6.472854 C 210.800444 6.339359 211.131004 6.269433 211.525132 6.269433 C 212.014615 6.269433 212.440528 6.3775 212.802872 6.593635 C 213.171573 6.80977 213.451277 7.133973 213.648341 7.559886 C 213.851763 7.992156 213.947116 8.513423 213.947116 9.130044 C 213.947116 9.759378 213.832692 10.293359 213.591129 10.7447 C 213.349566 11.189683 212.999936 11.532957 212.535882 11.768163 C 212.078184 12.003368 211.518776 12.12415 210.87037 12.12415 Z M 210.87037 12.12415 " stroke="#7ed957" stroke-width="0.9" stroke-opacity="1" stroke-miterlimit="4"/><path stroke-linecap="butt" transform="matrix(0.614488, 0, 0, 0.614488, 54.856177, 47.272506)" fill="none" stroke-linejoin="miter" d="M 223.399846 4.622992 L 218.51138 4.622992 L 218.51138 3.491462 L 223.399846 3.491462 Z M 224.912791 2.245507 L 217.087431 2.245507 L 217.087431 5.856233 L 224.912791 5.856233 Z M 226.292242 7.896802 L 226.292242 6.612706 L 215.657126 6.612706 L 215.657126 7.896802 L 217.901116 7.896802 C 217.672267 8.672346 217.373493 9.492388 217.13193 10.083581 L 218.009184 10.083581 L 218.009184 10.089938 L 223.253637 10.089938 C 223.101071 10.954478 222.916721 11.412175 222.700586 11.590169 C 222.54802 11.69188 222.389097 11.698237 222.128464 11.698237 C 221.753406 11.698237 220.869795 11.69188 220.075181 11.615597 C 220.342171 11.997011 220.532878 12.562777 220.57102 12.969619 C 221.391062 13.020474 222.172962 13.007761 222.643373 12.982333 C 223.196425 12.950548 223.590554 12.861552 223.952898 12.524635 C 224.372454 12.130507 224.658515 11.234182 224.900078 9.397034 C 224.931862 9.206327 224.970004 8.793127 224.970004 8.793127 L 219.223354 8.793127 C 219.331422 8.494352 219.426775 8.195577 219.522129 7.896802 Z M 226.292242 7.896802 " stroke="#7ed957" stroke-width="0.9" stroke-opacity="1" stroke-miterlimit="4"/><g fill="#ffffff" fill-opacity="1"><g transform="translate(71.658597, 54.646368)"><g><path d="M 5.339844 -0.539062 L 2.003906 -0.539062 L 2.003906 -1.984375 L 5.339844 -1.984375 Z M 7.042969 -4.136719 L 7.042969 -4.992188 L 4.167969 -4.992188 L 4.167969 -6.246094 L 3.207031 -6.246094 L 3.207031 -4.992188 L 0.339844 -4.992188 L 0.339844 -4.136719 L 3.207031 -4.136719 L 3.207031 -2.816406 L 1.082031 -2.816406 L 1.082031 0.640625 L 2.003906 0.640625 L 2.003906 0.296875 L 5.339844 0.296875 L 5.339844 0.613281 L 6.296875 0.613281 L 6.296875 -2.816406 L 4.167969 -2.816406 L 4.167969 -4.136719 Z M 7.042969 -4.136719 "/></g></g></g><g fill="#ffffff" fill-opacity="1"><g transform="translate(79.327469, 54.646368)"><g><path d="M 3.015625 -2.992188 L 2.335938 -2.800781 L 2.335938 -3.988281 L 2.949219 -3.988281 L 2.949219 -4.824219 L 2.335938 -4.824219 L 2.335938 -6.238281 L 1.535156 -6.238281 L 1.535156 -4.824219 L 1.1875 -4.824219 C 1.230469 -5.117188 1.269531 -5.40625 1.296875 -5.699219 L 0.566406 -5.824219 C 0.5 -4.957031 0.375 -4.035156 0.148438 -3.449219 C 0.308594 -3.355469 0.632812 -3.15625 0.765625 -3.046875 C 0.871094 -3.3125 0.957031 -3.628906 1.039062 -3.988281 L 1.535156 -3.988281 L 1.535156 -2.582031 C 1.03125 -2.441406 0.582031 -2.324219 0.214844 -2.242188 L 0.425781 -1.410156 C 0.765625 -1.496094 1.136719 -1.613281 1.535156 -1.734375 L 1.535156 0.648438 L 2.335938 0.648438 L 2.335938 -1.976562 C 2.609375 -2.058594 2.867188 -2.144531 3.132812 -2.21875 Z M 4.328125 -5.101562 C 4.433594 -5.425781 4.527344 -5.757812 4.601562 -6.097656 L 3.804688 -6.246094 C 3.582031 -5.160156 3.179688 -4.105469 2.59375 -3.464844 C 2.773438 -3.355469 3.121094 -3.113281 3.257812 -2.972656 C 3.546875 -3.324219 3.804688 -3.78125 4.019531 -4.292969 L 4.394531 -4.292969 C 4.070312 -3.222656 3.496094 -2.132812 2.765625 -1.554688 C 2.992188 -1.429688 3.273438 -1.230469 3.4375 -1.0625 C 4.179688 -1.769531 4.800781 -3.089844 5.125 -4.292969 L 5.472656 -4.292969 C 5.101562 -2.566406 4.367188 -0.890625 3.183594 -0.0429688 C 3.429688 0.0820312 3.730469 0.296875 3.902344 0.464844 C 5.089844 -0.515625 5.847656 -2.433594 6.207031 -4.292969 L 6.246094 -4.292969 C 6.128906 -1.644531 5.996094 -0.640625 5.8125 -0.40625 C 5.722656 -0.296875 5.648438 -0.265625 5.539062 -0.265625 C 5.398438 -0.265625 5.15625 -0.265625 4.882812 -0.296875 C 5.015625 -0.0507812 5.101562 0.308594 5.125 0.558594 C 5.441406 0.574219 5.75 0.574219 5.957031 0.539062 C 6.203125 0.488281 6.363281 0.40625 6.535156 0.15625 C 6.8125 -0.214844 6.945312 -1.414062 7.085938 -4.703125 C 7.09375 -4.808594 7.101562 -5.101562 7.101562 -5.101562 Z M 4.328125 -5.101562 "/></g></g></g><g fill="#ffffff" fill-opacity="1"><g transform="translate(86.996341, 54.646368)"><g><path d="M 2.648438 -3.90625 L 3.171875 -4.09375 C 3.089844 -4.277344 2.933594 -4.5625 2.800781 -4.800781 L 4.617188 -4.800781 C 4.527344 -4.527344 4.371094 -4.1875 4.226562 -3.90625 Z M 5.824219 -2.324219 C 5.515625 -2.574219 5.027344 -2.921875 4.636719 -3.199219 L 5.824219 -3.199219 Z M 2.550781 -2.066406 C 2.90625 -2.335938 3.265625 -2.640625 3.523438 -2.914062 L 2.941406 -3.199219 L 4.386719 -3.199219 L 3.996094 -2.800781 C 4.277344 -2.582031 4.644531 -2.316406 4.941406 -2.066406 Z M 4.394531 -0.871094 L 2.964844 -0.871094 L 2.964844 -1.460938 L 4.394531 -1.460938 Z M 6.976562 -5.539062 L 4.359375 -5.539062 C 4.261719 -5.773438 4.136719 -6.054688 4.019531 -6.28125 L 3.132812 -6.070312 C 3.207031 -5.90625 3.289062 -5.722656 3.355469 -5.539062 L 0.421875 -5.539062 L 0.421875 -4.800781 L 2.433594 -4.800781 L 1.9375 -4.644531 C 2.050781 -4.417969 2.191406 -4.128906 2.277344 -3.90625 L 0.765625 -3.90625 L 0.765625 0.621094 L 1.609375 0.621094 L 1.609375 -3.199219 L 2.921875 -3.199219 C 2.589844 -2.90625 2.050781 -2.589844 1.628906 -2.375 C 1.734375 -2.203125 1.910156 -1.792969 1.953125 -1.660156 C 2.042969 -1.710938 2.136719 -1.769531 2.234375 -1.835938 L 2.234375 0.0351562 L 2.964844 0.0351562 L 2.964844 -0.265625 L 5.09375 -0.265625 L 5.09375 -1.9375 C 5.214844 -1.84375 5.308594 -1.753906 5.390625 -1.679688 L 5.824219 -2.152344 L 5.824219 -0.183594 C 5.824219 -0.0742188 5.78125 -0.0351562 5.664062 -0.0351562 C 5.550781 -0.03125 5.132812 -0.03125 4.769531 -0.0429688 C 4.875 0.132812 4.976562 0.40625 5.015625 0.597656 C 5.605469 0.597656 6.003906 0.589844 6.269531 0.488281 C 6.539062 0.382812 6.636719 0.214844 6.636719 -0.175781 L 6.636719 -3.90625 L 5.109375 -3.90625 C 5.257812 -4.128906 5.417969 -4.386719 5.566406 -4.644531 L 4.808594 -4.800781 L 6.976562 -4.800781 Z M 6.976562 -5.539062 "/></g></g></g><g fill="#ffffff" fill-opacity="1"><g transform="translate(94.665214, 54.646368)"><g><path d="M 2.175781 -1.28125 L 2.175781 -0.433594 L 1.335938 -0.433594 L 1.335938 -1.28125 Z M 2.941406 -1.976562 L 0.574219 -1.976562 L 0.574219 0.546875 L 1.335938 0.546875 L 1.335938 0.25 L 2.941406 0.25 Z M 0.597656 -2.335938 L 2.964844 -2.335938 L 2.964844 -2.992188 L 0.597656 -2.992188 Z M 7.128906 -2.949219 L 5.613281 -2.949219 L 5.613281 -4.425781 L 6.96875 -4.425781 L 6.96875 -5.226562 L 4.570312 -5.226562 C 4.667969 -5.515625 4.757812 -5.804688 4.824219 -6.097656 L 3.9375 -6.273438 C 3.804688 -5.582031 3.5625 -4.894531 3.257812 -4.34375 L 3.257812 -5.027344 L 1.71875 -5.027344 L 2.160156 -5.207031 C 2.125 -5.492188 1.96875 -5.929688 1.777344 -6.238281 L 1.148438 -6.007812 C 1.304688 -5.699219 1.429688 -5.316406 1.476562 -5.027344 L 0.234375 -5.027344 L 0.234375 -4.335938 L 3.25 -4.335938 C 3.164062 -4.171875 3.066406 -4.027344 2.964844 -3.894531 L 2.964844 -3.996094 L 0.597656 -3.996094 L 0.597656 -3.332031 L 2.964844 -3.332031 L 2.964844 -3.710938 C 3.183594 -3.597656 3.480469 -3.398438 3.636719 -3.28125 C 3.863281 -3.589844 4.085938 -3.980469 4.277344 -4.425781 L 4.71875 -4.425781 L 4.71875 -2.949219 L 3.183594 -2.949219 L 3.183594 -2.117188 L 4.71875 -2.117188 L 4.71875 0.632812 L 5.613281 0.632812 L 5.613281 -2.117188 L 7.128906 -2.117188 Z M 7.128906 -2.949219 "/></g></g></g><g fill="#ffffff" fill-opacity="1"><g transform="translate(102.334086, 54.646368)"><g><path d="M 3.3125 -3.207031 L 3.3125 -2.027344 L 1.910156 -2.027344 L 1.910156 -3.207031 Z M 4.179688 -1.1875 L 4.179688 -4.039062 L 1.054688 -4.039062 L 1.054688 -0.625 L 1.910156 -0.625 L 1.910156 -1.1875 Z M 7.019531 -5.75 L 0.375 -5.75 L 0.375 -4.867188 L 5.25 -4.867188 L 5.25 -0.488281 C 5.25 -0.332031 5.183594 -0.28125 5.015625 -0.28125 C 4.835938 -0.28125 4.195312 -0.273438 3.671875 -0.300781 C 3.804688 -0.0664062 3.980469 0.367188 4.035156 0.625 C 4.785156 0.625 5.332031 0.613281 5.699219 0.464844 C 6.046875 0.316406 6.171875 0.0585938 6.171875 -0.472656 L 6.171875 -4.867188 L 7.019531 -4.867188 Z M 7.019531 -5.75 "/></g></g></g><g fill="#ffffff" fill-opacity="1"><g transform="translate(110.002959, 54.646368)"><g><path d="M 2.980469 -5.132812 L 1.609375 -5.132812 L 2.058594 -5.339844 C 1.992188 -5.589844 1.800781 -5.988281 1.613281 -6.273438 L 0.957031 -6.003906 C 1.113281 -5.730469 1.261719 -5.390625 1.335938 -5.132812 L 0.234375 -5.132812 L 0.234375 -4.4375 L 2.980469 -4.4375 Z M 2.714844 -3.378906 L 2.714844 -4.039062 L 0.589844 -4.039062 L 0.589844 -3.378906 Z M 2.011719 -1.1875 L 2.011719 -0.339844 L 1.304688 -0.339844 L 1.304688 -1.1875 Z M 2.765625 -1.878906 L 0.566406 -1.878906 L 0.566406 0.640625 L 1.304688 0.640625 L 1.304688 0.355469 L 2.765625 0.355469 Z M 0.472656 -2.308594 L 2.773438 -2.308594 L 2.773438 -2.972656 L 0.472656 -2.972656 Z M 5.582031 -0.457031 L 5.582031 -2.523438 L 6.886719 -2.523438 L 6.886719 -3.347656 L 5.582031 -3.347656 L 5.582031 -5.066406 L 6.960938 -5.066406 L 6.960938 -5.898438 L 3.15625 -5.898438 L 3.15625 -5.066406 L 4.71875 -5.066406 L 4.71875 -0.457031 L 4.171875 -0.457031 L 4.171875 -4.046875 L 3.355469 -4.046875 L 3.355469 -0.457031 L 2.949219 -0.457031 L 2.949219 0.375 L 7.144531 0.375 L 7.144531 -0.457031 Z M 5.582031 -0.457031 "/></g></g></g><g fill="#ffffff" fill-opacity="1"><g transform="translate(117.671831, 54.646368)"><g><path d="M 1.015625 0.03125 C 0.890625 0.03125 0.773438 0.00390625 0.671875 -0.046875 C 0.578125 -0.0976562 0.503906 -0.164062 0.453125 -0.25 C 0.398438 -0.34375 0.375 -0.445312 0.375 -0.5625 C 0.375 -0.675781 0.398438 -0.78125 0.453125 -0.875 C 0.503906 -0.96875 0.578125 -1.039062 0.671875 -1.09375 C 0.773438 -1.144531 0.890625 -1.171875 1.015625 -1.171875 C 1.140625 -1.171875 1.25 -1.144531 1.34375 -1.09375 C 1.445312 -1.039062 1.523438 -0.96875 1.578125 -0.875 C 1.628906 -0.789062 1.65625 -0.691406 1.65625 -0.578125 C 1.65625 -0.398438 1.597656 -0.253906 1.484375 -0.140625 C 1.367188 -0.0234375 1.210938 0.03125 1.015625 0.03125 Z M 1.015625 -2.8125 C 0.890625 -2.8125 0.773438 -2.835938 0.671875 -2.890625 C 0.578125 -2.941406 0.503906 -3.007812 0.453125 -3.09375 C 0.398438 -3.1875 0.375 -3.289062 0.375 -3.40625 C 0.375 -3.519531 0.398438 -3.625 0.453125 -3.71875 C 0.503906 -3.8125 0.578125 -3.882812 0.671875 -3.9375 C 0.773438 -3.988281 0.890625 -4.015625 1.015625 -4.015625 C 1.140625 -4.015625 1.25 -3.988281 1.34375 -3.9375 C 1.445312 -3.882812 1.523438 -3.8125 1.578125 -3.71875 C 1.628906 -3.632812 1.65625 -3.535156 1.65625 -3.421875 C 1.65625 -3.242188 1.597656 -3.097656 1.484375 -2.984375 C 1.367188 -2.867188 1.210938 -2.8125 1.015625 -2.8125 Z M 1.015625 -2.8125 "/></g></g></g><g fill="#ffffff" fill-opacity="1"><g transform="translate(122.035087, 54.646368)"><g><path d="M 4.234375 -4.203125 C 4.433594 -4.4375 4.636719 -4.726562 4.808594 -5.050781 L 5.101562 -5.050781 C 5.308594 -4.769531 5.53125 -4.4375 5.632812 -4.203125 Z M 5.507812 -3.058594 L 4.039062 -3.058594 L 4.039062 -3.480469 L 5.507812 -3.480469 Z M 3.179688 -1.902344 L 1.917969 -1.902344 C 1.9375 -2.042969 1.953125 -2.191406 1.976562 -2.335938 L 3.179688 -2.335938 Z M 1.9375 -5.042969 C 2.109375 -4.761719 2.257812 -4.433594 2.324219 -4.203125 L 1.070312 -4.203125 C 1.289062 -4.4375 1.511719 -4.71875 1.71875 -5.042969 Z M 7.085938 -5.683594 L 5.125 -5.683594 C 5.183594 -5.824219 5.234375 -5.972656 5.273438 -6.105469 L 4.425781 -6.304688 C 4.238281 -5.65625 3.863281 -5 3.421875 -4.601562 C 3.605469 -4.511719 3.921875 -4.335938 4.121094 -4.203125 L 2.367188 -4.203125 L 3.089844 -4.476562 C 3.039062 -4.628906 2.933594 -4.835938 2.824219 -5.042969 L 3.78125 -5.042969 L 3.78125 -5.679688 L 2.078125 -5.679688 C 2.144531 -5.816406 2.203125 -5.957031 2.265625 -6.089844 L 1.46875 -6.304688 C 1.222656 -5.640625 0.773438 -4.976562 0.28125 -4.558594 C 0.457031 -4.476562 0.757812 -4.3125 0.945312 -4.1875 L 0.945312 -3.480469 L 3.179688 -3.480469 L 3.179688 -3.058594 L 1.210938 -3.058594 C 1.15625 -2.441406 1.046875 -1.675781 0.9375 -1.171875 L 2.523438 -1.171875 C 1.945312 -0.707031 1.148438 -0.300781 0.382812 -0.0742188 C 0.566406 0.0898438 0.8125 0.40625 0.9375 0.621094 C 1.738281 0.316406 2.558594 -0.183594 3.179688 -0.789062 L 3.179688 0.648438 L 4.039062 0.648438 L 4.039062 -1.171875 L 5.804688 -1.171875 C 5.757812 -0.765625 5.699219 -0.566406 5.625 -0.492188 C 5.558594 -0.433594 5.484375 -0.425781 5.375 -0.425781 C 5.242188 -0.421875 4.933594 -0.425781 4.625 -0.457031 C 4.761719 -0.242188 4.851562 0.0820312 4.867188 0.339844 C 5.25 0.355469 5.597656 0.347656 5.804688 0.324219 C 6.03125 0.300781 6.207031 0.242188 6.363281 0.0664062 C 6.554688 -0.125 6.644531 -0.605469 6.71875 -1.585938 C 6.730469 -1.6875 6.738281 -1.902344 6.738281 -1.902344 L 4.039062 -1.902344 L 4.039062 -2.335938 L 6.378906 -2.335938 L 6.378906 -4.203125 L 5.648438 -4.203125 L 6.402344 -4.511719 C 6.328125 -4.660156 6.195312 -4.859375 6.046875 -5.050781 L 7.085938 -5.050781 Z M 7.085938 -5.683594 "/></g></g></g><g fill="#ffffff" fill-opacity="1"><g transform="translate(129.703962, 54.646368)"><g><path d="M 2.140625 0.078125 C 1.578125 0.078125 1.128906 -0.0390625 0.796875 -0.28125 C 0.472656 -0.519531 0.265625 -0.859375 0.171875 -1.296875 L 0.96875 -1.65625 L 1.046875 -1.65625 C 1.128906 -1.363281 1.253906 -1.148438 1.421875 -1.015625 C 1.585938 -0.878906 1.816406 -0.8125 2.109375 -0.8125 C 2.390625 -0.8125 2.601562 -0.875 2.75 -1 C 2.90625 -1.132812 2.984375 -1.332031 2.984375 -1.59375 C 2.984375 -1.832031 2.90625 -2.019531 2.75 -2.15625 C 2.601562 -2.289062 2.390625 -2.359375 2.109375 -2.359375 L 1.3125 -2.359375 L 1.3125 -3.171875 L 2.015625 -3.171875 C 2.242188 -3.171875 2.425781 -3.226562 2.5625 -3.34375 C 2.707031 -3.457031 2.78125 -3.625 2.78125 -3.84375 C 2.78125 -4.0625 2.710938 -4.222656 2.578125 -4.328125 C 2.453125 -4.441406 2.273438 -4.5 2.046875 -4.5 C 1.804688 -4.5 1.59375 -4.441406 1.40625 -4.328125 C 1.226562 -4.222656 1.085938 -4.078125 0.984375 -3.890625 L 0.890625 -3.875 L 0.34375 -4.515625 C 0.53125 -4.765625 0.769531 -4.960938 1.0625 -5.109375 C 1.351562 -5.265625 1.695312 -5.34375 2.09375 -5.34375 C 2.644531 -5.34375 3.066406 -5.226562 3.359375 -5 C 3.648438 -4.769531 3.796875 -4.441406 3.796875 -4.015625 C 3.796875 -3.765625 3.738281 -3.550781 3.625 -3.375 C 3.507812 -3.195312 3.335938 -3.039062 3.109375 -2.90625 L 3.109375 -2.84375 C 3.722656 -2.625 4.03125 -2.191406 4.03125 -1.546875 C 4.03125 -1.210938 3.957031 -0.925781 3.8125 -0.6875 C 3.675781 -0.445312 3.46875 -0.257812 3.1875 -0.125 C 2.90625 0.0078125 2.554688 0.078125 2.140625 0.078125 Z M 2.140625 0.078125 "/></g></g></g><g fill="#ffffff" fill-opacity="1"><g transform="translate(134.355546, 54.646368)"><g><path d="M 2.578125 0.078125 C 2.140625 0.078125 1.757812 -0.015625 1.4375 -0.203125 C 1.125 -0.398438 0.878906 -0.695312 0.703125 -1.09375 C 0.523438 -1.5 0.4375 -2.007812 0.4375 -2.625 C 0.4375 -3.25 0.523438 -3.757812 0.703125 -4.15625 C 0.878906 -4.5625 1.125 -4.859375 1.4375 -5.046875 C 1.757812 -5.242188 2.140625 -5.34375 2.578125 -5.34375 C 3.003906 -5.34375 3.375 -5.242188 3.6875 -5.046875 C 4.007812 -4.859375 4.257812 -4.5625 4.4375 -4.15625 C 4.613281 -3.757812 4.703125 -3.25 4.703125 -2.625 C 4.703125 -2.007812 4.613281 -1.5 4.4375 -1.09375 C 4.257812 -0.695312 4.007812 -0.398438 3.6875 -0.203125 C 3.375 -0.015625 3.003906 0.078125 2.578125 0.078125 Z M 2.578125 -0.8125 C 2.804688 -0.8125 3 -0.867188 3.15625 -0.984375 C 3.320312 -1.097656 3.445312 -1.285156 3.53125 -1.546875 C 3.613281 -1.816406 3.65625 -2.175781 3.65625 -2.625 C 3.65625 -3.082031 3.613281 -3.441406 3.53125 -3.703125 C 3.445312 -3.972656 3.320312 -4.164062 3.15625 -4.28125 C 3 -4.394531 2.804688 -4.453125 2.578125 -4.453125 C 2.335938 -4.453125 2.140625 -4.394531 1.984375 -4.28125 C 1.828125 -4.164062 1.703125 -3.972656 1.609375 -3.703125 C 1.523438 -3.441406 1.484375 -3.082031 1.484375 -2.625 C 1.484375 -2.175781 1.523438 -1.816406 1.609375 -1.546875 C 1.703125 -1.285156 1.828125 -1.097656 1.984375 -0.984375 C 2.140625 -0.867188 2.335938 -0.8125 2.578125 -0.8125 Z M 2.578125 -0.8125 "/></g></g></g><g fill="#ffffff" fill-opacity="1"><g transform="translate(139.795644, 54.646368)"><g><path d="M 2.515625 0.078125 C 2.117188 0.078125 1.765625 -0.0078125 1.453125 -0.1875 C 1.140625 -0.375 0.890625 -0.664062 0.703125 -1.0625 C 0.523438 -1.457031 0.4375 -1.960938 0.4375 -2.578125 C 0.4375 -3.203125 0.53125 -3.71875 0.71875 -4.125 C 0.914062 -4.539062 1.179688 -4.847656 1.515625 -5.046875 C 1.847656 -5.242188 2.226562 -5.34375 2.65625 -5.34375 C 3.019531 -5.34375 3.328125 -5.289062 3.578125 -5.1875 C 3.835938 -5.082031 4.039062 -4.929688 4.1875 -4.734375 L 3.671875 -4.078125 L 3.59375 -4.078125 C 3.375 -4.335938 3.0625 -4.46875 2.65625 -4.46875 C 1.90625 -4.46875 1.523438 -3.914062 1.515625 -2.8125 L 1.59375 -2.796875 C 1.707031 -3.023438 1.863281 -3.195312 2.0625 -3.3125 C 2.269531 -3.425781 2.523438 -3.484375 2.828125 -3.484375 C 3.148438 -3.484375 3.429688 -3.414062 3.671875 -3.28125 C 3.910156 -3.144531 4.09375 -2.945312 4.21875 -2.6875 C 4.351562 -2.4375 4.421875 -2.132812 4.421875 -1.78125 C 4.421875 -1.394531 4.34375 -1.0625 4.1875 -0.78125 C 4.03125 -0.5 3.804688 -0.285156 3.515625 -0.140625 C 3.234375 0.00390625 2.898438 0.078125 2.515625 0.078125 Z M 2.5 -0.8125 C 2.769531 -0.8125 2.976562 -0.890625 3.125 -1.046875 C 3.28125 -1.210938 3.359375 -1.4375 3.359375 -1.71875 C 3.359375 -2.007812 3.28125 -2.234375 3.125 -2.390625 C 2.976562 -2.554688 2.769531 -2.640625 2.5 -2.640625 C 2.320312 -2.640625 2.164062 -2.597656 2.03125 -2.515625 C 1.894531 -2.441406 1.789062 -2.335938 1.71875 -2.203125 C 1.644531 -2.066406 1.609375 -1.90625 1.609375 -1.71875 C 1.609375 -1.4375 1.6875 -1.210938 1.84375 -1.046875 C 2 -0.890625 2.21875 -0.8125 2.5 -0.8125 Z M 2.5 -0.8125 "/></g></g></g><g fill="#ffffff" fill-opacity="1"><g transform="translate(144.872084, 54.646368)"><g><path d="M 2.515625 0.078125 C 2.117188 0.078125 1.765625 -0.0078125 1.453125 -0.1875 C 1.140625 -0.375 0.890625 -0.664062 0.703125 -1.0625 C 0.523438 -1.457031 0.4375 -1.960938 0.4375 -2.578125 C 0.4375 -3.203125 0.53125 -3.71875 0.71875 -4.125 C 0.914062 -4.539062 1.179688 -4.847656 1.515625 -5.046875 C 1.847656 -5.242188 2.226562 -5.34375 2.65625 -5.34375 C 3.019531 -5.34375 3.328125 -5.289062 3.578125 -5.1875 C 3.835938 -5.082031 4.039062 -4.929688 4.1875 -4.734375 L 3.671875 -4.078125 L 3.59375 -4.078125 C 3.375 -4.335938 3.0625 -4.46875 2.65625 -4.46875 C 1.90625 -4.46875 1.523438 -3.914062 1.515625 -2.8125 L 1.59375 -2.796875 C 1.707031 -3.023438 1.863281 -3.195312 2.0625 -3.3125 C 2.269531 -3.425781 2.523438 -3.484375 2.828125 -3.484375 C 3.148438 -3.484375 3.429688 -3.414062 3.671875 -3.28125 C 3.910156 -3.144531 4.09375 -2.945312 4.21875 -2.6875 C 4.351562 -2.4375 4.421875 -2.132812 4.421875 -1.78125 C 4.421875 -1.394531 4.34375 -1.0625 4.1875 -0.78125 C 4.03125 -0.5 3.804688 -0.285156 3.515625 -0.140625 C 3.234375 0.00390625 2.898438 0.078125 2.515625 0.078125 Z M 2.5 -0.8125 C 2.769531 -0.8125 2.976562 -0.890625 3.125 -1.046875 C 3.28125 -1.210938 3.359375 -1.4375 3.359375 -1.71875 C 3.359375 -2.007812 3.28125 -2.234375 3.125 -2.390625 C 2.976562 -2.554688 2.769531 -2.640625 2.5 -2.640625 C 2.320312 -2.640625 2.164062 -2.597656 2.03125 -2.515625 C 1.894531 -2.441406 1.789062 -2.335938 1.71875 -2.203125 C 1.644531 -2.066406 1.609375 -1.90625 1.609375 -1.71875 C 1.609375 -1.4375 1.6875 -1.210938 1.84375 -1.046875 C 2 -0.890625 2.21875 -0.8125 2.5 -0.8125 Z M 2.5 -0.8125 "/></g></g></g><g fill="#ffffff" fill-opacity="1"><g transform="translate(149.948525, 54.646368)"><g><path d="M 0.28125 0 L 0.28125 -0.859375 L 1.546875 -0.859375 L 1.546875 -4.140625 L 1.46875 -4.15625 C 1.289062 -4.070312 1.113281 -4.003906 0.9375 -3.953125 C 0.757812 -3.898438 0.5625 -3.859375 0.34375 -3.828125 L 0.34375 -4.71875 C 0.925781 -4.84375 1.394531 -5.023438 1.75 -5.265625 L 2.578125 -5.265625 L 2.578125 -0.859375 L 3.71875 -0.859375 L 3.71875 0 Z M 0.28125 0 "/></g></g></g><g fill="#ffffff" fill-opacity="1"><g transform="translate(154.128436, 54.646368)"><g><path d="M 0.25 -0.421875 C 0.25 -0.710938 0.28125 -0.957031 0.34375 -1.15625 C 0.414062 -1.351562 0.519531 -1.53125 0.65625 -1.6875 C 0.800781 -1.851562 1.007812 -2.035156 1.28125 -2.234375 L 1.984375 -2.734375 C 2.171875 -2.867188 2.316406 -2.988281 2.421875 -3.09375 C 2.523438 -3.195312 2.601562 -3.300781 2.65625 -3.40625 C 2.71875 -3.519531 2.75 -3.644531 2.75 -3.78125 C 2.75 -4 2.679688 -4.164062 2.546875 -4.28125 C 2.421875 -4.394531 2.226562 -4.453125 1.96875 -4.453125 C 1.71875 -4.453125 1.492188 -4.394531 1.296875 -4.28125 C 1.109375 -4.164062 0.953125 -4.003906 0.828125 -3.796875 L 0.75 -3.78125 L 0.1875 -4.421875 C 0.375 -4.691406 0.613281 -4.910156 0.90625 -5.078125 C 1.207031 -5.253906 1.578125 -5.34375 2.015625 -5.34375 C 2.398438 -5.34375 2.722656 -5.273438 2.984375 -5.140625 C 3.253906 -5.015625 3.453125 -4.835938 3.578125 -4.609375 C 3.710938 -4.390625 3.78125 -4.132812 3.78125 -3.84375 C 3.78125 -3.59375 3.726562 -3.363281 3.625 -3.15625 C 3.519531 -2.945312 3.375 -2.753906 3.1875 -2.578125 C 3 -2.410156 2.765625 -2.222656 2.484375 -2.015625 L 1.859375 -1.578125 C 1.671875 -1.453125 1.539062 -1.332031 1.46875 -1.21875 C 1.394531 -1.113281 1.359375 -1 1.359375 -0.875 L 3.734375 -0.875 L 3.734375 0 L 0.25 0 Z M 0.25 -0.421875 "/></g></g></g><g fill="#ffffff" fill-opacity="1"><g transform="translate(158.53158, 54.646368)"><g><path d="M 2.140625 0.078125 C 1.578125 0.078125 1.128906 -0.0390625 0.796875 -0.28125 C 0.472656 -0.519531 0.265625 -0.859375 0.171875 -1.296875 L 0.96875 -1.65625 L 1.046875 -1.65625 C 1.128906 -1.363281 1.253906 -1.148438 1.421875 -1.015625 C 1.585938 -0.878906 1.816406 -0.8125 2.109375 -0.8125 C 2.390625 -0.8125 2.601562 -0.875 2.75 -1 C 2.90625 -1.132812 2.984375 -1.332031 2.984375 -1.59375 C 2.984375 -1.832031 2.90625 -2.019531 2.75 -2.15625 C 2.601562 -2.289062 2.390625 -2.359375 2.109375 -2.359375 L 1.3125 -2.359375 L 1.3125 -3.171875 L 2.015625 -3.171875 C 2.242188 -3.171875 2.425781 -3.226562 2.5625 -3.34375 C 2.707031 -3.457031 2.78125 -3.625 2.78125 -3.84375 C 2.78125 -4.0625 2.710938 -4.222656 2.578125 -4.328125 C 2.453125 -4.441406 2.273438 -4.5 2.046875 -4.5 C 1.804688 -4.5 1.59375 -4.441406 1.40625 -4.328125 C 1.226562 -4.222656 1.085938 -4.078125 0.984375 -3.890625 L 0.890625 -3.875 L 0.34375 -4.515625 C 0.53125 -4.765625 0.769531 -4.960938 1.0625 -5.109375 C 1.351562 -5.265625 1.695312 -5.34375 2.09375 -5.34375 C 2.644531 -5.34375 3.066406 -5.226562 3.359375 -5 C 3.648438 -4.769531 3.796875 -4.441406 3.796875 -4.015625 C 3.796875 -3.765625 3.738281 -3.550781 3.625 -3.375 C 3.507812 -3.195312 3.335938 -3.039062 3.109375 -2.90625 L 3.109375 -2.84375 C 3.722656 -2.625 4.03125 -2.191406 4.03125 -1.546875 C 4.03125 -1.210938 3.957031 -0.925781 3.8125 -0.6875 C 3.675781 -0.445312 3.46875 -0.257812 3.1875 -0.125 C 2.90625 0.0078125 2.554688 0.078125 2.140625 0.078125 Z M 2.140625 0.078125 "/></g></g></g><g fill="#ffffff" fill-opacity="1"><g transform="translate(163.183159, 54.646368)"><g><path d="M 0.25 -0.421875 C 0.25 -0.710938 0.28125 -0.957031 0.34375 -1.15625 C 0.414062 -1.351562 0.519531 -1.53125 0.65625 -1.6875 C 0.800781 -1.851562 1.007812 -2.035156 1.28125 -2.234375 L 1.984375 -2.734375 C 2.171875 -2.867188 2.316406 -2.988281 2.421875 -3.09375 C 2.523438 -3.195312 2.601562 -3.300781 2.65625 -3.40625 C 2.71875 -3.519531 2.75 -3.644531 2.75 -3.78125 C 2.75 -4 2.679688 -4.164062 2.546875 -4.28125 C 2.421875 -4.394531 2.226562 -4.453125 1.96875 -4.453125 C 1.71875 -4.453125 1.492188 -4.394531 1.296875 -4.28125 C 1.109375 -4.164062 0.953125 -4.003906 0.828125 -3.796875 L 0.75 -3.78125 L 0.1875 -4.421875 C 0.375 -4.691406 0.613281 -4.910156 0.90625 -5.078125 C 1.207031 -5.253906 1.578125 -5.34375 2.015625 -5.34375 C 2.398438 -5.34375 2.722656 -5.273438 2.984375 -5.140625 C 3.253906 -5.015625 3.453125 -4.835938 3.578125 -4.609375 C 3.710938 -4.390625 3.78125 -4.132812 3.78125 -3.84375 C 3.78125 -3.59375 3.726562 -3.363281 3.625 -3.15625 C 3.519531 -2.945312 3.375 -2.753906 3.1875 -2.578125 C 3 -2.410156 2.765625 -2.222656 2.484375 -2.015625 L 1.859375 -1.578125 C 1.671875 -1.453125 1.539062 -1.332031 1.46875 -1.21875 C 1.394531 -1.113281 1.359375 -1 1.359375 -0.875 L 3.734375 -0.875 L 3.734375 0 L 0.25 0 Z M 0.25 -0.421875 "/></g></g></g><g fill="#ffffff" fill-opacity="1"><g transform="translate(167.586302, 54.646368)"><g><path d="M 2.578125 0.078125 C 2.140625 0.078125 1.757812 -0.015625 1.4375 -0.203125 C 1.125 -0.398438 0.878906 -0.695312 0.703125 -1.09375 C 0.523438 -1.5 0.4375 -2.007812 0.4375 -2.625 C 0.4375 -3.25 0.523438 -3.757812 0.703125 -4.15625 C 0.878906 -4.5625 1.125 -4.859375 1.4375 -5.046875 C 1.757812 -5.242188 2.140625 -5.34375 2.578125 -5.34375 C 3.003906 -5.34375 3.375 -5.242188 3.6875 -5.046875 C 4.007812 -4.859375 4.257812 -4.5625 4.4375 -4.15625 C 4.613281 -3.757812 4.703125 -3.25 4.703125 -2.625 C 4.703125 -2.007812 4.613281 -1.5 4.4375 -1.09375 C 4.257812 -0.695312 4.007812 -0.398438 3.6875 -0.203125 C 3.375 -0.015625 3.003906 0.078125 2.578125 0.078125 Z M 2.578125 -0.8125 C 2.804688 -0.8125 3 -0.867188 3.15625 -0.984375 C 3.320312 -1.097656 3.445312 -1.285156 3.53125 -1.546875 C 3.613281 -1.816406 3.65625 -2.175781 3.65625 -2.625 C 3.65625 -3.082031 3.613281 -3.441406 3.53125 -3.703125 C 3.445312 -3.972656 3.320312 -4.164062 3.15625 -4.28125 C 3 -4.394531 2.804688 -4.453125 2.578125 -4.453125 C 2.335938 -4.453125 2.140625 -4.394531 1.984375 -4.28125 C 1.828125 -4.164062 1.703125 -3.972656 1.609375 -3.703125 C 1.523438 -3.441406 1.484375 -3.082031 1.484375 -2.625 C 1.484375 -2.175781 1.523438 -1.816406 1.609375 -1.546875 C 1.703125 -1.285156 1.828125 -1.097656 1.984375 -0.984375 C 2.140625 -0.867188 2.335938 -0.8125 2.578125 -0.8125 Z M 2.578125 -0.8125 "/></g></g></g><g fill="#ffffff" fill-opacity="1"><g transform="translate(173.026395, 54.646368)"><g><path d="M 2.265625 0.078125 C 1.835938 0.078125 1.476562 0.015625 1.1875 -0.109375 C 0.90625 -0.242188 0.691406 -0.429688 0.546875 -0.671875 C 0.398438 -0.910156 0.328125 -1.195312 0.328125 -1.53125 C 0.328125 -1.832031 0.398438 -2.09375 0.546875 -2.3125 C 0.703125 -2.539062 0.925781 -2.71875 1.21875 -2.84375 L 1.21875 -2.921875 C 1.007812 -3.046875 0.847656 -3.195312 0.734375 -3.375 C 0.628906 -3.550781 0.578125 -3.753906 0.578125 -3.984375 C 0.578125 -4.253906 0.640625 -4.488281 0.765625 -4.6875 C 0.898438 -4.894531 1.09375 -5.054688 1.34375 -5.171875 C 1.601562 -5.285156 1.910156 -5.34375 2.265625 -5.34375 C 2.609375 -5.34375 2.90625 -5.285156 3.15625 -5.171875 C 3.414062 -5.054688 3.609375 -4.894531 3.734375 -4.6875 C 3.867188 -4.488281 3.9375 -4.253906 3.9375 -3.984375 C 3.9375 -3.753906 3.878906 -3.550781 3.765625 -3.375 C 3.660156 -3.195312 3.503906 -3.046875 3.296875 -2.921875 L 3.296875 -2.84375 C 3.597656 -2.71875 3.820312 -2.539062 3.96875 -2.3125 C 4.113281 -2.09375 4.1875 -1.832031 4.1875 -1.53125 C 4.1875 -1.195312 4.113281 -0.910156 3.96875 -0.671875 C 3.820312 -0.429688 3.601562 -0.242188 3.3125 -0.109375 C 3.03125 0.015625 2.679688 0.078125 2.265625 0.078125 Z M 2.265625 -3.21875 C 2.472656 -3.21875 2.632812 -3.273438 2.75 -3.390625 C 2.875 -3.503906 2.9375 -3.664062 2.9375 -3.875 C 2.9375 -4.070312 2.875 -4.226562 2.75 -4.34375 C 2.632812 -4.46875 2.472656 -4.53125 2.265625 -4.53125 C 2.046875 -4.53125 1.875 -4.472656 1.75 -4.359375 C 1.625 -4.242188 1.5625 -4.082031 1.5625 -3.875 C 1.5625 -3.664062 1.625 -3.503906 1.75 -3.390625 C 1.875 -3.273438 2.046875 -3.21875 2.265625 -3.21875 Z M 2.265625 -0.8125 C 2.535156 -0.8125 2.75 -0.878906 2.90625 -1.015625 C 3.0625 -1.160156 3.140625 -1.359375 3.140625 -1.609375 C 3.140625 -1.859375 3.0625 -2.050781 2.90625 -2.1875 C 2.75 -2.332031 2.535156 -2.40625 2.265625 -2.40625 C 1.972656 -2.40625 1.75 -2.332031 1.59375 -2.1875 C 1.445312 -2.050781 1.375 -1.859375 1.375 -1.609375 C 1.375 -1.359375 1.445312 -1.160156 1.59375 -1.015625 C 1.75 -0.878906 1.972656 -0.8125 2.265625 -0.8125 Z M 2.265625 -0.8125 "/></g></g></g><g fill="#ffffff" fill-opacity="1"><g transform="translate(177.836397, 54.646368)"><g><path d="M 0.25 -0.421875 C 0.25 -0.710938 0.28125 -0.957031 0.34375 -1.15625 C 0.414062 -1.351562 0.519531 -1.53125 0.65625 -1.6875 C 0.800781 -1.851562 1.007812 -2.035156 1.28125 -2.234375 L 1.984375 -2.734375 C 2.171875 -2.867188 2.316406 -2.988281 2.421875 -3.09375 C 2.523438 -3.195312 2.601562 -3.300781 2.65625 -3.40625 C 2.71875 -3.519531 2.75 -3.644531 2.75 -3.78125 C 2.75 -4 2.679688 -4.164062 2.546875 -4.28125 C 2.421875 -4.394531 2.226562 -4.453125 1.96875 -4.453125 C 1.71875 -4.453125 1.492188 -4.394531 1.296875 -4.28125 C 1.109375 -4.164062 0.953125 -4.003906 0.828125 -3.796875 L 0.75 -3.78125 L 0.1875 -4.421875 C 0.375 -4.691406 0.613281 -4.910156 0.90625 -5.078125 C 1.207031 -5.253906 1.578125 -5.34375 2.015625 -5.34375 C 2.398438 -5.34375 2.722656 -5.273438 2.984375 -5.140625 C 3.253906 -5.015625 3.453125 -4.835938 3.578125 -4.609375 C 3.710938 -4.390625 3.78125 -4.132812 3.78125 -3.84375 C 3.78125 -3.59375 3.726562 -3.363281 3.625 -3.15625 C 3.519531 -2.945312 3.375 -2.753906 3.1875 -2.578125 C 3 -2.410156 2.765625 -2.222656 2.484375 -2.015625 L 1.859375 -1.578125 C 1.671875 -1.453125 1.539062 -1.332031 1.46875 -1.21875 C 1.394531 -1.113281 1.359375 -1 1.359375 -0.875 L 3.734375 -0.875 L 3.734375 0 L 0.25 0 Z M 0.25 -0.421875 "/></g></g></g><g fill="#ffffff" fill-opacity="1"><g transform="translate(182.239541, 54.646368)"><g><path d="M 2.1875 0.078125 C 1.664062 0.078125 1.25 -0.03125 0.9375 -0.25 C 0.632812 -0.476562 0.4375 -0.789062 0.34375 -1.1875 L 1.125 -1.53125 L 1.203125 -1.515625 C 1.285156 -1.285156 1.398438 -1.109375 1.546875 -0.984375 C 1.703125 -0.867188 1.914062 -0.8125 2.1875 -0.8125 C 2.457031 -0.8125 2.664062 -0.890625 2.8125 -1.046875 C 2.96875 -1.203125 3.046875 -1.4375 3.046875 -1.75 C 3.046875 -2.050781 2.96875 -2.28125 2.8125 -2.4375 C 2.664062 -2.601562 2.46875 -2.6875 2.21875 -2.6875 C 2.019531 -2.6875 1.851562 -2.644531 1.71875 -2.5625 C 1.59375 -2.476562 1.484375 -2.351562 1.390625 -2.1875 L 0.53125 -2.25 L 0.640625 -5.265625 L 3.78125 -5.265625 L 3.78125 -4.390625 L 1.515625 -4.390625 L 1.46875 -3.046875 L 1.546875 -3.03125 C 1.660156 -3.1875 1.800781 -3.304688 1.96875 -3.390625 C 2.144531 -3.472656 2.351562 -3.515625 2.59375 -3.515625 C 2.894531 -3.515625 3.15625 -3.445312 3.375 -3.3125 C 3.601562 -3.1875 3.78125 -2.988281 3.90625 -2.71875 C 4.03125 -2.457031 4.09375 -2.140625 4.09375 -1.765625 C 4.09375 -1.378906 4.015625 -1.046875 3.859375 -0.765625 C 3.710938 -0.492188 3.5 -0.285156 3.21875 -0.140625 C 2.9375 0.00390625 2.59375 0.078125 2.1875 0.078125 Z M 2.1875 0.078125 "/></g></g></g><g fill="#ffffff" fill-opacity="1"><g transform="translate(186.970331, 54.646368)"><g><path d="M 5.160156 -4.535156 L 2.160156 -4.535156 L 2.160156 -5.226562 L 5.160156 -5.226562 Z M 6.089844 -5.996094 L 1.28125 -5.996094 L 1.28125 -3.777344 L 6.089844 -3.777344 Z M 6.9375 -2.523438 L 6.9375 -3.3125 L 0.40625 -3.3125 L 0.40625 -2.523438 L 1.785156 -2.523438 C 1.644531 -2.042969 1.460938 -1.542969 1.3125 -1.179688 L 1.851562 -1.179688 L 1.851562 -1.171875 L 5.074219 -1.171875 C 4.976562 -0.640625 4.867188 -0.359375 4.734375 -0.25 C 4.636719 -0.191406 4.542969 -0.183594 4.378906 -0.183594 C 4.152344 -0.183594 3.605469 -0.191406 3.121094 -0.234375 C 3.28125 0 3.398438 0.347656 3.421875 0.597656 C 3.929688 0.625 4.410156 0.621094 4.695312 0.605469 C 5.035156 0.582031 5.28125 0.53125 5.5 0.324219 C 5.757812 0.0820312 5.9375 -0.472656 6.082031 -1.601562 C 6.105469 -1.71875 6.128906 -1.96875 6.128906 -1.96875 L 2.59375 -1.96875 C 2.660156 -2.152344 2.722656 -2.335938 2.78125 -2.523438 Z M 6.9375 -2.523438 "/></g></g></g></svg>