<svg xmlns="http://www.w3.org/2000/svg" xmlns:xlink="http://www.w3.org/1999/xlink" width="500" zoomAndPan="magnify" viewBox="0 0 375 86.249997" height="115" preserveAspectRatio="xMidYMid meet" version="1.0"><defs><g/><clipPath id="e6773bc985"><path d="M 7.035156 21.027344 L 72.464844 21.027344 L 72.464844 64.152344 L 7.035156 64.152344 Z M 7.035156 21.027344 " clip-rule="nonzero"/></clipPath></defs><g clip-path="url(#e6773bc985)"><path fill="#ffbd59" d="M 7.054688 28.785156 C 7.054688 24.5 10.527344 21.027344 14.8125 21.027344 L 64.46875 21.027344 C 68.753906 21.027344 72.226562 24.5 72.226562 28.785156 L 72.226562 56.71875 C 72.226562 61.003906 68.753906 64.476562 64.46875 64.476562 L 14.8125 64.476562 C 10.527344 64.476562 7.054688 61.003906 7.054688 56.71875 Z M 14.8125 24.132812 C 12.242188 24.132812 10.15625 26.214844 10.15625 28.785156 L 10.15625 56.71875 C 10.15625 59.289062 12.242188 61.375 14.8125 61.375 L 64.46875 61.375 C 67.039062 61.375 69.125 59.289062 69.125 56.71875 L 69.125 28.785156 C 69.125 26.214844 67.039062 24.132812 64.46875 24.132812 Z M 14.8125 24.132812 " fill-opacity="1" fill-rule="evenodd"/></g><path fill="#ffbd59" d="M 25.675781 34.992188 C 22.246094 34.992188 19.46875 37.773438 19.46875 41.199219 C 19.46875 44.628906 22.246094 47.40625 25.675781 47.40625 C 29.101562 47.40625 31.882812 44.628906 31.882812 41.199219 C 31.882812 37.773438 29.101562 34.992188 25.675781 34.992188 Z M 16.363281 41.199219 C 16.363281 36.058594 20.53125 31.890625 25.675781 31.890625 C 30.816406 31.890625 34.984375 36.058594 34.984375 41.199219 C 34.984375 46.34375 30.816406 50.511719 25.675781 50.511719 C 20.53125 50.511719 16.363281 46.34375 16.363281 41.199219 Z M 16.363281 41.199219 " fill-opacity="1" fill-rule="evenodd"/><path fill="#ffbd59" d="M 53.605469 34.992188 C 50.179688 34.992188 47.398438 37.773438 47.398438 41.199219 C 47.398438 44.628906 50.179688 47.40625 53.605469 47.40625 C 57.035156 47.40625 59.8125 44.628906 59.8125 41.199219 C 59.8125 37.773438 57.035156 34.992188 53.605469 34.992188 Z M 44.296875 41.199219 C 44.296875 36.058594 48.464844 31.890625 53.605469 31.890625 C 58.75 31.890625 62.917969 36.058594 62.917969 41.199219 C 62.917969 46.34375 58.75 50.511719 53.605469 50.511719 C 48.464844 50.511719 44.296875 46.34375 44.296875 41.199219 Z M 44.296875 41.199219 " fill-opacity="1" fill-rule="evenodd"/><path fill="#ffbd59" d="M 24.121094 48.960938 C 24.121094 48.101562 24.816406 47.40625 25.675781 47.40625 L 53.605469 47.40625 C 54.464844 47.40625 55.160156 48.101562 55.160156 48.960938 C 55.160156 49.816406 54.464844 50.511719 53.605469 50.511719 L 25.675781 50.511719 C 24.816406 50.511719 24.121094 49.816406 24.121094 48.960938 Z M 24.121094 48.960938 " fill-opacity="1" fill-rule="evenodd"/><path stroke-linecap="butt" transform="matrix(0.743534, 0, 0, 0.743534, 53.073743, 18.447474)" fill="none" stroke-linejoin="miter" d="M 40.747745 36.357422 C 38.730353 36.357422 36.970389 35.90561 35.473107 35.00724 C 33.975824 34.108871 32.814773 32.711407 31.984701 30.814849 C 31.154628 28.918291 30.739592 26.522638 30.739592 23.617385 C 30.739592 20.717384 31.154628 18.316478 31.984701 16.41992 C 32.814773 14.523362 33.975824 13.125898 35.473107 12.227529 C 36.970389 11.329159 38.730353 10.882601 40.747745 10.882601 C 42.780897 10.882601 44.546114 11.329159 46.043397 12.227529 C 47.54068 13.125898 48.701731 14.523362 49.531803 16.41992 C 50.361876 18.316478 50.776912 20.717384 50.776912 23.617385 C 50.776912 26.522638 50.361876 28.918291 49.531803 30.814849 C 48.701731 32.711407 47.54068 34.108871 46.043397 35.00724 C 44.546114 35.90561 42.780897 36.357422 40.747745 36.357422 Z M 40.747745 32.207059 C 41.856259 32.207059 42.780897 31.939124 43.526911 31.403255 C 44.272926 30.867385 44.845571 29.963762 45.2501 28.697639 C 45.649375 27.436769 45.849013 25.739849 45.849013 23.617385 C 45.849013 21.494921 45.649375 19.803254 45.2501 18.537131 C 44.845571 17.271007 44.272926 16.372638 43.526911 15.836768 C 42.780897 15.300898 41.856259 15.02771 40.747745 15.02771 C 39.644484 15.02771 38.719846 15.300898 37.973831 15.836768 C 37.227817 16.372638 36.655172 17.271007 36.250643 18.537131 C 35.851367 19.803254 35.65173 21.494921 35.65173 23.617385 C 35.65173 25.739849 35.851367 27.436769 36.250643 28.697639 C 36.655172 29.963762 37.227817 30.867385 37.973831 31.403255 C 38.719846 31.939124 39.644484 32.207059 40.747745 32.207059 Z M 62.481985 36.000175 L 57.480536 36.000175 L 66.017674 15.705427 L 65.917855 15.353435 L 54.927275 15.353435 L 54.927275 11.234594 L 70.982348 11.234594 L 70.982348 15.574087 Z M 85.293219 36.357422 C 83.270574 36.357422 81.515863 35.90561 80.018581 35.00724 C 78.521298 34.108871 77.360247 32.711407 76.530175 30.814849 C 75.700102 28.918291 75.285066 26.522638 75.285066 23.617385 C 75.285066 20.717384 75.700102 18.316478 76.530175 16.41992 C 77.360247 14.523362 78.521298 13.125898 80.018581 12.227529 C 81.515863 11.329159 83.270574 10.882601 85.293219 10.882601 C 87.326371 10.882601 89.091589 11.329159 90.588871 12.227529 C 92.0809 13.125898 93.247205 14.523362 94.077277 16.41992 C 94.90735 18.316478 95.322386 20.717384 95.322386 23.617385 C 95.322386 26.522638 94.90735 28.918291 94.077277 30.814849 C 93.247205 32.711407 92.0809 34.108871 90.588871 35.00724 C 89.091589 35.90561 87.326371 36.357422 85.293219 36.357422 Z M 85.293219 32.207059 C 86.401733 32.207059 87.326371 31.939124 88.072386 31.403255 C 88.8184 30.867385 89.391045 29.963762 89.790321 28.697639 C 90.189596 27.436769 90.394487 25.739849 90.394487 23.617385 C 90.394487 21.494921 90.189596 19.803254 89.790321 18.537131 C 89.391045 17.271007 88.8184 16.372638 88.072386 15.836768 C 87.326371 15.300898 86.401733 15.02771 85.293219 15.02771 C 84.184704 15.02771 83.260067 15.300898 82.514052 15.836768 C 81.768037 16.372638 81.195392 17.271007 80.796117 18.537131 C 80.396842 19.803254 80.197204 21.494921 80.197204 23.617385 C 80.197204 25.739849 80.396842 27.436769 80.796117 28.697639 C 81.195392 29.963762 81.768037 30.867385 82.514052 31.403255 C 83.260067 31.939124 84.184704 32.207059 85.293219 32.207059 Z M 110.647206 26.039305 L 100.266046 26.039305 L 100.266046 21.904703 L 110.647206 21.904703 Z M 130.364055 36.000175 L 125.667316 36.000175 L 125.667316 30.615211 L 114.387786 30.615211 L 114.387786 26.664486 L 124.096482 11.234594 L 130.364055 11.234594 L 130.364055 26.664486 L 134.172932 26.664486 L 134.172932 30.615211 L 130.364055 30.615211 Z M 119.404997 26.312493 L 119.557352 26.664486 L 125.667316 26.664486 L 125.667316 17.081877 L 125.278548 17.01358 Z M 144.737969 36.000175 L 139.741773 36.000175 L 148.278912 15.705427 L 148.179093 15.353435 L 137.183259 15.353435 L 137.183259 11.234594 L 153.243586 11.234594 L 153.243586 15.574087 Z M 165.810254 36.357422 C 163.472391 36.357422 161.628369 35.884596 160.288695 34.938943 C 158.943768 33.998545 158.045398 32.679885 157.593586 30.988218 L 161.318405 29.307059 L 161.712427 29.396371 C 162.353369 31.282421 163.708804 32.22282 165.773478 32.22282 C 167.391594 32.22282 168.615689 31.55561 169.461522 30.215936 C 170.302102 28.876262 170.722392 26.869378 170.722392 24.195283 L 170.380906 24.07445 C 169.818768 25.146189 169.083261 25.960501 168.174384 26.512131 C 167.265507 27.069015 166.083442 27.342204 164.638696 27.342204 C 163.162427 27.342204 161.859529 27.016479 160.735253 26.359776 C 159.610978 25.708327 158.738876 24.773182 158.118949 23.559595 C 157.499021 22.346008 157.189057 20.917022 157.189057 19.283145 C 157.189057 17.575717 157.546304 16.094196 158.271304 14.828072 C 158.996304 13.561949 160.02076 12.590029 161.355181 11.907058 C 162.684348 11.224087 164.23942 10.882601 166.009891 10.882601 C 169.072754 10.882601 171.463153 11.849268 173.186341 13.782601 C 174.90953 15.721188 175.771124 18.841841 175.771124 23.144558 C 175.771124 26.102349 175.371848 28.566298 174.573298 30.531153 C 173.780001 32.496008 172.639964 33.956516 171.153189 34.917929 C 169.666413 35.874088 167.885435 36.357422 165.810254 36.357422 Z M 166.146486 23.328435 C 167.412609 23.328435 168.416051 22.955428 169.156812 22.214667 C 169.892319 21.468653 170.265326 20.459957 170.265326 19.199087 C 170.265326 17.922457 169.897573 16.908507 169.172573 16.162493 C 168.442319 15.421732 167.433623 15.048725 166.146486 15.048725 C 164.885616 15.048725 163.892681 15.405971 163.183442 16.130971 C 162.474203 16.855971 162.116956 17.875174 162.116956 19.199087 C 162.116956 20.507239 162.474203 21.521189 163.183442 22.246189 C 163.892681 22.971189 164.885616 23.328435 166.146486 23.328435 Z M 187.470944 36.000175 L 182.474748 36.000175 L 191.011886 15.705427 L 190.906813 15.353435 L 179.916233 15.353435 L 179.916233 11.234594 L 195.971306 11.234594 L 195.971306 15.574087 Z M 210.045764 26.039305 L 199.664604 26.039305 L 199.664604 21.904703 L 210.045764 21.904703 Z M 223.563337 36.357422 C 221.598482 36.357422 219.933084 36.052712 218.572395 35.443291 C 217.211707 34.833871 216.18725 33.961769 215.499025 32.83224 C 214.810801 31.702711 214.464061 30.363037 214.464061 28.818472 C 214.464061 27.384233 214.821308 26.144378 215.535801 25.093653 C 216.24504 24.042928 217.285257 23.218109 218.651199 22.619196 L 218.651199 22.26195 C 217.679279 21.663037 216.938518 20.953797 216.423663 20.128979 C 215.908808 19.30416 215.65138 18.337493 215.65138 17.234232 C 215.65138 15.978616 215.961344 14.870101 216.576018 13.913942 C 217.190692 12.952529 218.094315 12.206514 219.286888 11.675898 C 220.474207 11.145282 221.903192 10.882601 223.563337 10.882601 C 225.223483 10.882601 226.647214 11.145282 227.82928 11.675898 C 229.016599 12.206514 229.920222 12.952529 230.54015 13.913942 C 231.160077 14.870101 231.470041 15.978616 231.470041 17.234232 C 231.470041 18.337493 231.212613 19.298906 230.692505 20.118471 C 230.172396 20.938037 229.421128 21.652529 228.4387 22.26195 L 228.4387 22.619196 C 229.883447 23.197095 230.949932 24.011406 231.622396 25.072638 C 232.300113 26.13387 232.641599 27.384233 232.641599 28.818472 C 232.641599 30.363037 232.29486 31.702711 231.606635 32.83224 C 230.91841 33.961769 229.899207 34.833871 228.543773 35.443291 C 227.188338 36.052712 225.528193 36.357422 223.563337 36.357422 Z M 223.563337 20.874993 C 224.545765 20.874993 225.328555 20.601805 225.906454 20.060681 C 226.489606 19.519558 226.778555 18.76829 226.778555 17.806877 C 226.778555 16.834957 226.489606 16.073181 225.906454 15.521551 C 225.328555 14.96992 224.545765 14.691478 223.563337 14.691478 C 222.559895 14.691478 221.766598 14.964667 221.1887 15.511043 C 220.616055 16.062674 220.327105 16.824449 220.327105 17.806877 C 220.327105 18.778797 220.616055 19.535319 221.1887 20.071189 C 221.766598 20.607058 222.559895 20.874993 223.563337 20.874993 Z M 223.563337 32.191298 C 224.881997 32.191298 225.906454 31.86032 226.6262 31.198363 C 227.3512 30.536407 227.7137 29.622276 227.7137 28.445465 C 227.7137 27.268653 227.3512 26.354522 226.6262 25.692566 C 225.906454 25.030609 224.881997 24.699631 223.563337 24.699631 C 222.228917 24.699631 221.20446 25.030609 220.47946 25.692566 C 219.75446 26.354522 219.397214 27.268653 219.397214 28.445465 C 219.397214 29.622276 219.75446 30.536407 220.47946 31.198363 C 221.20446 31.86032 222.228917 32.191298 223.563337 32.191298 Z M 247.661709 36.357422 C 245.644317 36.357422 243.884353 35.90561 242.387071 35.00724 C 240.889788 34.108871 239.728737 32.711407 238.898665 30.814849 C 238.068592 28.918291 237.653556 26.522638 237.653556 23.617385 C 237.653556 20.717384 238.068592 18.316478 238.898665 16.41992 C 239.728737 14.523362 240.889788 13.125898 242.387071 12.227529 C 243.884353 11.329159 245.644317 10.882601 247.661709 10.882601 C 249.694861 10.882601 251.460079 11.329159 252.957361 12.227529 C 254.454644 13.125898 255.615695 14.523362 256.445767 16.41992 C 257.27584 18.316478 257.690876 20.717384 257.690876 23.617385 C 257.690876 26.522638 257.27584 28.918291 256.445767 30.814849 C 255.615695 32.711407 254.454644 34.108871 252.957361 35.00724 C 251.460079 35.90561 249.694861 36.357422 247.661709 36.357422 Z M 247.661709 32.207059 C 248.770223 32.207059 249.694861 31.939124 250.440876 31.403255 C 251.18689 30.867385 251.759535 29.963762 252.158811 28.697639 C 252.56334 27.436769 252.762977 25.739849 252.762977 23.617385 C 252.762977 21.494921 252.56334 19.803254 252.158811 18.537131 C 251.759535 17.271007 251.18689 16.372638 250.440876 15.836768 C 249.694861 15.300898 248.770223 15.02771 247.661709 15.02771 C 246.558448 15.02771 245.628556 15.300898 244.887796 15.836768 C 244.141781 16.372638 243.569136 17.271007 243.164607 18.537131 C 242.765332 19.803254 242.565694 21.494921 242.565694 23.617385 C 242.565694 25.739849 242.765332 27.436769 243.164607 28.697639 C 243.569136 29.963762 244.141781 30.867385 244.887796 31.403255 C 245.628556 31.939124 246.558448 32.207059 247.661709 32.207059 Z M 271.507906 36.357422 C 269.170044 36.357422 267.331275 35.884596 265.986348 34.938943 C 264.64142 33.998545 263.748304 32.679885 263.296492 30.988218 L 267.021312 29.307059 L 267.41008 29.396371 C 268.056275 31.282421 269.41171 32.22282 271.476384 32.22282 C 273.089247 32.22282 274.318595 31.55561 275.159175 30.215936 C 275.999754 28.876262 276.420044 26.869378 276.420044 24.195283 L 276.083812 24.07445 C 275.516421 25.146189 274.780914 25.960501 273.872037 26.512131 C 272.96316 27.069015 271.786348 27.342204 270.341602 27.342204 C 268.86008 27.342204 267.562435 27.016479 266.438159 26.359776 C 265.313884 25.708327 264.441782 24.773182 263.821855 23.559595 C 263.196674 22.346008 262.88671 20.917022 262.88671 19.283145 C 262.88671 17.575717 263.24921 16.094196 263.97421 14.828072 C 264.693956 13.561949 265.723667 12.590029 267.052833 11.907058 C 268.387254 11.224087 269.942326 10.882601 271.712797 10.882601 C 274.77566 10.882601 277.166059 11.849268 278.883994 13.782601 C 280.607182 15.721188 281.468776 18.841841 281.468776 23.144558 C 281.468776 26.102349 281.069501 28.566298 280.276204 30.531153 C 279.477653 32.496008 278.337617 33.956516 276.856095 34.917929 C 275.369319 35.874088 273.588341 36.357422 271.507906 36.357422 Z M 271.849392 23.328435 C 273.115515 23.328435 274.113703 22.955428 274.854464 22.214667 C 275.595225 21.468653 275.962979 20.459957 275.962979 19.199087 C 275.962979 17.922457 275.600479 16.908507 274.870225 16.162493 C 274.145225 15.421732 273.136529 15.048725 271.849392 15.048725 C 270.583268 15.048725 269.595587 15.405971 268.886348 16.130971 C 268.171855 16.855971 267.814609 17.875174 267.814609 19.199087 C 267.814609 20.507239 268.171855 21.521189 268.886348 22.246189 C 269.595587 22.971189 270.583268 23.328435 271.849392 23.328435 Z M 295.29106 36.357422 C 292.953198 36.357422 291.109176 35.884596 289.764248 34.938943 C 288.424574 33.998545 287.526204 32.679885 287.074393 30.988218 L 290.799212 29.307059 L 291.18798 29.396371 C 291.834176 31.282421 293.189611 32.22282 295.254285 32.22282 C 296.867147 32.22282 298.096495 31.55561 298.937075 30.215936 C 299.777655 28.876262 300.203198 26.869378 300.203198 24.195283 L 299.861713 24.07445 C 299.299575 25.146189 298.558814 25.960501 297.649937 26.512131 C 296.74106 27.069015 295.564248 27.342204 294.119502 27.342204 C 292.63798 27.342204 291.340335 27.016479 290.21606 26.359776 C 289.091784 25.708327 288.219683 24.773182 287.599755 23.559595 C 286.979828 22.346008 286.66461 20.917022 286.66461 19.283145 C 286.66461 17.575717 287.02711 16.094196 287.75211 14.828072 C 288.471857 13.561949 289.501567 12.590029 290.835987 11.907058 C 292.165154 11.224087 293.720227 10.882601 295.490698 10.882601 C 298.55356 10.882601 300.943959 11.849268 302.667147 13.782601 C 304.385082 15.721188 305.246677 18.841841 305.246677 23.144558 C 305.246677 26.102349 304.852655 28.566298 304.054104 30.531153 C 303.260807 32.496008 302.115517 33.956516 300.633995 34.917929 C 299.14722 35.874088 297.366241 36.357422 295.29106 36.357422 Z M 295.627292 23.328435 C 296.893415 23.328435 297.896857 22.955428 298.632365 22.214667 C 299.373126 21.468653 299.740879 20.459957 299.740879 19.199087 C 299.740879 17.922457 299.378379 16.908507 298.653379 16.162493 C 297.923125 15.421732 296.91443 15.048725 295.627292 15.048725 C 294.361169 15.048725 293.373487 15.405971 292.664248 16.130971 C 291.949755 16.855971 291.597763 17.875174 291.597763 19.199087 C 291.597763 20.507239 291.949755 21.521189 292.664248 22.246189 C 293.373487 22.971189 294.361169 23.328435 295.627292 23.328435 Z M 295.627292 23.328435 " stroke="#c1ff72" stroke-width="2.602298" stroke-opacity="1" stroke-miterlimit="4"/><g fill="#ffffff" fill-opacity="1"><g transform="translate(74.380651, 45.214713)"><g><path d="M 9 0.265625 C 7.488281 0.265625 6.175781 -0.0664062 5.0625 -0.734375 C 3.957031 -1.398438 3.09375 -2.4375 2.46875 -3.84375 C 1.851562 -5.257812 1.546875 -7.046875 1.546875 -9.203125 C 1.546875 -11.359375 1.851562 -13.140625 2.46875 -14.546875 C 3.09375 -15.960938 3.957031 -17.003906 5.0625 -17.671875 C 6.175781 -18.347656 7.488281 -18.6875 9 -18.6875 C 10.507812 -18.6875 11.816406 -18.347656 12.921875 -17.671875 C 14.035156 -17.003906 14.898438 -15.960938 15.515625 -14.546875 C 16.140625 -13.140625 16.453125 -11.359375 16.453125 -9.203125 C 16.453125 -7.046875 16.140625 -5.257812 15.515625 -3.84375 C 14.898438 -2.4375 14.035156 -1.398438 12.921875 -0.734375 C 11.816406 -0.0664062 10.507812 0.265625 9 0.265625 Z M 9 -2.828125 C 9.820312 -2.828125 10.507812 -3.023438 11.0625 -3.421875 C 11.613281 -3.816406 12.035156 -4.484375 12.328125 -5.421875 C 12.628906 -6.367188 12.78125 -7.628906 12.78125 -9.203125 C 12.78125 -10.785156 12.628906 -12.046875 12.328125 -12.984375 C 12.035156 -13.921875 11.613281 -14.585938 11.0625 -14.984375 C 10.507812 -15.390625 9.820312 -15.59375 9 -15.59375 C 8.175781 -15.59375 7.484375 -15.390625 6.921875 -14.984375 C 6.367188 -14.585938 5.941406 -13.921875 5.640625 -12.984375 C 5.347656 -12.046875 5.203125 -10.785156 5.203125 -9.203125 C 5.203125 -7.628906 5.347656 -6.367188 5.640625 -5.421875 C 5.941406 -4.484375 6.367188 -3.816406 6.921875 -3.421875 C 7.484375 -3.023438 8.175781 -2.828125 9 -2.828125 Z M 9 -2.828125 "/></g></g></g><g fill="#ffffff" fill-opacity="1"><g transform="translate(93.408612, 45.214713)"><g><path d="M 6.125 0 L 2.40625 0 L 8.75 -15.09375 L 8.671875 -15.359375 L 0.5 -15.359375 L 0.5 -18.421875 L 12.4375 -18.421875 L 12.4375 -15.1875 Z M 6.125 0 "/></g></g></g><g fill="#ffffff" fill-opacity="1"><g transform="translate(107.499947, 45.214713)"><g><path d="M 9 0.265625 C 7.488281 0.265625 6.175781 -0.0664062 5.0625 -0.734375 C 3.957031 -1.398438 3.09375 -2.4375 2.46875 -3.84375 C 1.851562 -5.257812 1.546875 -7.046875 1.546875 -9.203125 C 1.546875 -11.359375 1.851562 -13.140625 2.46875 -14.546875 C 3.09375 -15.960938 3.957031 -17.003906 5.0625 -17.671875 C 6.175781 -18.347656 7.488281 -18.6875 9 -18.6875 C 10.507812 -18.6875 11.816406 -18.347656 12.921875 -17.671875 C 14.035156 -17.003906 14.898438 -15.960938 15.515625 -14.546875 C 16.140625 -13.140625 16.453125 -11.359375 16.453125 -9.203125 C 16.453125 -7.046875 16.140625 -5.257812 15.515625 -3.84375 C 14.898438 -2.4375 14.035156 -1.398438 12.921875 -0.734375 C 11.816406 -0.0664062 10.507812 0.265625 9 0.265625 Z M 9 -2.828125 C 9.820312 -2.828125 10.507812 -3.023438 11.0625 -3.421875 C 11.613281 -3.816406 12.035156 -4.484375 12.328125 -5.421875 C 12.628906 -6.367188 12.78125 -7.628906 12.78125 -9.203125 C 12.78125 -10.785156 12.628906 -12.046875 12.328125 -12.984375 C 12.035156 -13.921875 11.613281 -14.585938 11.0625 -14.984375 C 10.507812 -15.390625 9.820312 -15.59375 9 -15.59375 C 8.175781 -15.59375 7.484375 -15.390625 6.921875 -14.984375 C 6.367188 -14.585938 5.941406 -13.921875 5.640625 -12.984375 C 5.347656 -12.046875 5.203125 -10.785156 5.203125 -9.203125 C 5.203125 -7.628906 5.347656 -6.367188 5.640625 -5.421875 C 5.941406 -4.484375 6.367188 -3.816406 6.921875 -3.421875 C 7.484375 -3.023438 8.175781 -2.828125 9 -2.828125 Z M 9 -2.828125 "/></g></g></g><g fill="#ffffff" fill-opacity="1"><g transform="translate(126.527906, 45.214713)"><g><path d="M 8.8125 -7.40625 L 1.09375 -7.40625 L 1.09375 -10.484375 L 8.8125 -10.484375 Z M 8.8125 -7.40625 "/></g></g></g><g fill="#ffffff" fill-opacity="1"><g transform="translate(137.496071, 45.214713)"><g><path d="M 12.515625 0 L 9.015625 0 L 9.015625 -4 L 0.625 -4 L 0.625 -6.9375 L 7.84375 -18.421875 L 12.515625 -18.421875 L 12.515625 -6.9375 L 15.34375 -6.9375 L 15.34375 -4 L 12.515625 -4 Z M 4.359375 -7.203125 L 4.46875 -6.9375 L 9.015625 -6.9375 L 9.015625 -14.0625 L 8.734375 -14.125 Z M 4.359375 -7.203125 "/></g></g></g><g fill="#ffffff" fill-opacity="1"><g transform="translate(154.572052, 45.214713)"><g><path d="M 6.125 0 L 2.40625 0 L 8.75 -15.09375 L 8.671875 -15.359375 L 0.5 -15.359375 L 0.5 -18.421875 L 12.4375 -18.421875 L 12.4375 -15.1875 Z M 6.125 0 "/></g></g></g><g fill="#ffffff" fill-opacity="1"><g transform="translate(168.663388, 45.214713)"><g><path d="M 7.703125 0.265625 C 5.960938 0.265625 4.59375 -0.0820312 3.59375 -0.78125 C 2.59375 -1.488281 1.925781 -2.472656 1.59375 -3.734375 L 4.359375 -4.96875 L 4.640625 -4.90625 C 5.117188 -3.507812 6.128906 -2.8125 7.671875 -2.8125 C 8.867188 -2.8125 9.78125 -3.304688 10.40625 -4.296875 C 11.03125 -5.296875 11.34375 -6.789062 11.34375 -8.78125 L 11.09375 -8.875 C 10.675781 -8.070312 10.128906 -7.460938 9.453125 -7.046875 C 8.773438 -6.640625 7.898438 -6.4375 6.828125 -6.4375 C 5.722656 -6.4375 4.753906 -6.675781 3.921875 -7.15625 C 3.085938 -7.644531 2.4375 -8.34375 1.96875 -9.25 C 1.507812 -10.15625 1.28125 -11.21875 1.28125 -12.4375 C 1.28125 -13.695312 1.546875 -14.796875 2.078125 -15.734375 C 2.617188 -16.679688 3.382812 -17.410156 4.375 -17.921875 C 5.375 -18.429688 6.53125 -18.6875 7.84375 -18.6875 C 10.125 -18.6875 11.90625 -17.960938 13.1875 -16.515625 C 14.46875 -15.078125 15.109375 -12.757812 15.109375 -9.5625 C 15.109375 -7.363281 14.8125 -5.53125 14.21875 -4.0625 C 13.625 -2.601562 12.773438 -1.515625 11.671875 -0.796875 C 10.566406 -0.0859375 9.242188 0.265625 7.703125 0.265625 Z M 7.953125 -9.421875 C 8.890625 -9.421875 9.632812 -9.695312 10.1875 -10.25 C 10.738281 -10.800781 11.015625 -11.550781 11.015625 -12.5 C 11.015625 -13.445312 10.742188 -14.195312 10.203125 -14.75 C 9.660156 -15.300781 8.910156 -15.578125 7.953125 -15.578125 C 7.003906 -15.578125 6.265625 -15.304688 5.734375 -14.765625 C 5.210938 -14.234375 4.953125 -13.476562 4.953125 -12.5 C 4.953125 -11.519531 5.210938 -10.757812 5.734375 -10.21875 C 6.265625 -9.6875 7.003906 -9.421875 7.953125 -9.421875 Z M 7.953125 -9.421875 "/></g></g></g><g fill="#ffffff" fill-opacity="1"><g transform="translate(186.343847, 45.214713)"><g><path d="M 6.125 0 L 2.40625 0 L 8.75 -15.09375 L 8.671875 -15.359375 L 0.5 -15.359375 L 0.5 -18.421875 L 12.4375 -18.421875 L 12.4375 -15.1875 Z M 6.125 0 "/></g></g></g><g fill="#ffffff" fill-opacity="1"><g transform="translate(200.435184, 45.214713)"><g><path d="M 8.8125 -7.40625 L 1.09375 -7.40625 L 1.09375 -10.484375 L 8.8125 -10.484375 Z M 8.8125 -7.40625 "/></g></g></g><g fill="#ffffff" fill-opacity="1"><g transform="translate(211.403349, 45.214713)"><g><path d="M 7.890625 0.265625 C 6.429688 0.265625 5.195312 0.0390625 4.1875 -0.40625 C 3.175781 -0.863281 2.414062 -1.507812 1.90625 -2.34375 C 1.394531 -3.1875 1.140625 -4.1875 1.140625 -5.34375 C 1.140625 -6.40625 1.398438 -7.328125 1.921875 -8.109375 C 2.453125 -8.890625 3.226562 -9.503906 4.25 -9.953125 L 4.25 -10.21875 C 3.519531 -10.664062 2.960938 -11.191406 2.578125 -11.796875 C 2.203125 -12.410156 2.015625 -13.128906 2.015625 -13.953125 C 2.015625 -14.890625 2.242188 -15.710938 2.703125 -16.421875 C 3.160156 -17.140625 3.832031 -17.695312 4.71875 -18.09375 C 5.601562 -18.488281 6.660156 -18.6875 7.890625 -18.6875 C 9.128906 -18.6875 10.1875 -18.488281 11.0625 -18.09375 C 11.945312 -17.695312 12.617188 -17.140625 13.078125 -16.421875 C 13.546875 -15.710938 13.78125 -14.890625 13.78125 -13.953125 C 13.78125 -13.128906 13.585938 -12.410156 13.203125 -11.796875 C 12.816406 -11.191406 12.257812 -10.664062 11.53125 -10.21875 L 11.53125 -9.953125 C 12.601562 -9.523438 13.390625 -8.914062 13.890625 -8.125 C 14.398438 -7.332031 14.65625 -6.40625 14.65625 -5.34375 C 14.65625 -4.1875 14.394531 -3.1875 13.875 -2.34375 C 13.363281 -1.507812 12.601562 -0.863281 11.59375 -0.40625 C 10.59375 0.0390625 9.359375 0.265625 7.890625 0.265625 Z M 7.890625 -11.25 C 8.628906 -11.25 9.210938 -11.445312 9.640625 -11.84375 C 10.078125 -12.25 10.296875 -12.8125 10.296875 -13.53125 C 10.296875 -14.25 10.078125 -14.8125 9.640625 -15.21875 C 9.210938 -15.632812 8.628906 -15.84375 7.890625 -15.84375 C 7.148438 -15.84375 6.5625 -15.640625 6.125 -15.234375 C 5.695312 -14.828125 5.484375 -14.257812 5.484375 -13.53125 C 5.484375 -12.800781 5.695312 -12.238281 6.125 -11.84375 C 6.5625 -11.445312 7.148438 -11.25 7.890625 -11.25 Z M 7.890625 -2.828125 C 8.878906 -2.828125 9.640625 -3.070312 10.171875 -3.5625 C 10.710938 -4.0625 10.984375 -4.75 10.984375 -5.625 C 10.984375 -6.488281 10.710938 -7.164062 10.171875 -7.65625 C 9.640625 -8.15625 8.878906 -8.40625 7.890625 -8.40625 C 6.898438 -8.40625 6.132812 -8.15625 5.59375 -7.65625 C 5.0625 -7.164062 4.796875 -6.488281 4.796875 -5.625 C 4.796875 -4.75 5.0625 -4.0625 5.59375 -3.5625 C 6.132812 -3.070312 6.898438 -2.828125 7.890625 -2.828125 Z M 7.890625 -2.828125 "/></g></g></g><g fill="#ffffff" fill-opacity="1"><g transform="translate(228.227461, 45.214713)"><g><path d="M 9 0.265625 C 7.488281 0.265625 6.175781 -0.0664062 5.0625 -0.734375 C 3.957031 -1.398438 3.09375 -2.4375 2.46875 -3.84375 C 1.851562 -5.257812 1.546875 -7.046875 1.546875 -9.203125 C 1.546875 -11.359375 1.851562 -13.140625 2.46875 -14.546875 C 3.09375 -15.960938 3.957031 -17.003906 5.0625 -17.671875 C 6.175781 -18.347656 7.488281 -18.6875 9 -18.6875 C 10.507812 -18.6875 11.816406 -18.347656 12.921875 -17.671875 C 14.035156 -17.003906 14.898438 -15.960938 15.515625 -14.546875 C 16.140625 -13.140625 16.453125 -11.359375 16.453125 -9.203125 C 16.453125 -7.046875 16.140625 -5.257812 15.515625 -3.84375 C 14.898438 -2.4375 14.035156 -1.398438 12.921875 -0.734375 C 11.816406 -0.0664062 10.507812 0.265625 9 0.265625 Z M 9 -2.828125 C 9.820312 -2.828125 10.507812 -3.023438 11.0625 -3.421875 C 11.613281 -3.816406 12.035156 -4.484375 12.328125 -5.421875 C 12.628906 -6.367188 12.78125 -7.628906 12.78125 -9.203125 C 12.78125 -10.785156 12.628906 -12.046875 12.328125 -12.984375 C 12.035156 -13.921875 11.613281 -14.585938 11.0625 -14.984375 C 10.507812 -15.390625 9.820312 -15.59375 9 -15.59375 C 8.175781 -15.59375 7.484375 -15.390625 6.921875 -14.984375 C 6.367188 -14.585938 5.941406 -13.921875 5.640625 -12.984375 C 5.347656 -12.046875 5.203125 -10.785156 5.203125 -9.203125 C 5.203125 -7.628906 5.347656 -6.367188 5.640625 -5.421875 C 5.941406 -4.484375 6.367188 -3.816406 6.921875 -3.421875 C 7.484375 -3.023438 8.175781 -2.828125 9 -2.828125 Z M 9 -2.828125 "/></g></g></g><g fill="#ffffff" fill-opacity="1"><g transform="translate(247.255423, 45.214713)"><g><path d="M 7.703125 0.265625 C 5.960938 0.265625 4.59375 -0.0820312 3.59375 -0.78125 C 2.59375 -1.488281 1.925781 -2.472656 1.59375 -3.734375 L 4.359375 -4.96875 L 4.640625 -4.90625 C 5.117188 -3.507812 6.128906 -2.8125 7.671875 -2.8125 C 8.867188 -2.8125 9.78125 -3.304688 10.40625 -4.296875 C 11.03125 -5.296875 11.34375 -6.789062 11.34375 -8.78125 L 11.09375 -8.875 C 10.675781 -8.070312 10.128906 -7.460938 9.453125 -7.046875 C 8.773438 -6.640625 7.898438 -6.4375 6.828125 -6.4375 C 5.722656 -6.4375 4.753906 -6.675781 3.921875 -7.15625 C 3.085938 -7.644531 2.4375 -8.34375 1.96875 -9.25 C 1.507812 -10.15625 1.28125 -11.21875 1.28125 -12.4375 C 1.28125 -13.695312 1.546875 -14.796875 2.078125 -15.734375 C 2.617188 -16.679688 3.382812 -17.410156 4.375 -17.921875 C 5.375 -18.429688 6.53125 -18.6875 7.84375 -18.6875 C 10.125 -18.6875 11.90625 -17.960938 13.1875 -16.515625 C 14.46875 -15.078125 15.109375 -12.757812 15.109375 -9.5625 C 15.109375 -7.363281 14.8125 -5.53125 14.21875 -4.0625 C 13.625 -2.601562 12.773438 -1.515625 11.671875 -0.796875 C 10.566406 -0.0859375 9.242188 0.265625 7.703125 0.265625 Z M 7.953125 -9.421875 C 8.890625 -9.421875 9.632812 -9.695312 10.1875 -10.25 C 10.738281 -10.800781 11.015625 -11.550781 11.015625 -12.5 C 11.015625 -13.445312 10.742188 -14.195312 10.203125 -14.75 C 9.660156 -15.300781 8.910156 -15.578125 7.953125 -15.578125 C 7.003906 -15.578125 6.265625 -15.304688 5.734375 -14.765625 C 5.210938 -14.234375 4.953125 -13.476562 4.953125 -12.5 C 4.953125 -11.519531 5.210938 -10.757812 5.734375 -10.21875 C 6.265625 -9.6875 7.003906 -9.421875 7.953125 -9.421875 Z M 7.953125 -9.421875 "/></g></g></g><g fill="#ffffff" fill-opacity="1"><g transform="translate(264.935877, 45.214713)"><g><path d="M 7.703125 0.265625 C 5.960938 0.265625 4.59375 -0.0820312 3.59375 -0.78125 C 2.59375 -1.488281 1.925781 -2.472656 1.59375 -3.734375 L 4.359375 -4.96875 L 4.640625 -4.90625 C 5.117188 -3.507812 6.128906 -2.8125 7.671875 -2.8125 C 8.867188 -2.8125 9.78125 -3.304688 10.40625 -4.296875 C 11.03125 -5.296875 11.34375 -6.789062 11.34375 -8.78125 L 11.09375 -8.875 C 10.675781 -8.070312 10.128906 -7.460938 9.453125 -7.046875 C 8.773438 -6.640625 7.898438 -6.4375 6.828125 -6.4375 C 5.722656 -6.4375 4.753906 -6.675781 3.921875 -7.15625 C 3.085938 -7.644531 2.4375 -8.34375 1.96875 -9.25 C 1.507812 -10.15625 1.28125 -11.21875 1.28125 -12.4375 C 1.28125 -13.695312 1.546875 -14.796875 2.078125 -15.734375 C 2.617188 -16.679688 3.382812 -17.410156 4.375 -17.921875 C 5.375 -18.429688 6.53125 -18.6875 7.84375 -18.6875 C 10.125 -18.6875 11.90625 -17.960938 13.1875 -16.515625 C 14.46875 -15.078125 15.109375 -12.757812 15.109375 -9.5625 C 15.109375 -7.363281 14.8125 -5.53125 14.21875 -4.0625 C 13.625 -2.601562 12.773438 -1.515625 11.671875 -0.796875 C 10.566406 -0.0859375 9.242188 0.265625 7.703125 0.265625 Z M 7.953125 -9.421875 C 8.890625 -9.421875 9.632812 -9.695312 10.1875 -10.25 C 10.738281 -10.800781 11.015625 -11.550781 11.015625 -12.5 C 11.015625 -13.445312 10.742188 -14.195312 10.203125 -14.75 C 9.660156 -15.300781 8.910156 -15.578125 7.953125 -15.578125 C 7.003906 -15.578125 6.265625 -15.304688 5.734375 -14.765625 C 5.210938 -14.234375 4.953125 -13.476562 4.953125 -12.5 C 4.953125 -11.519531 5.210938 -10.757812 5.734375 -10.21875 C 6.265625 -9.6875 7.003906 -9.421875 7.953125 -9.421875 Z M 7.953125 -9.421875 "/></g></g></g><path stroke-linecap="butt" transform="matrix(0.614488, 0, 0, 0.614488, 60.053806, 51.684163)" fill="none" stroke-linejoin="miter" d="M 36.032418 11.123671 L 30.609971 11.123671 L 30.609971 8.771614 L 36.032418 8.771614 Z M 38.804032 5.268954 L 38.804032 3.87679 L 34.125344 3.87679 L 34.125344 1.836221 L 32.561544 1.836221 L 32.561544 3.87679 L 27.895569 3.87679 L 27.895569 5.268954 L 32.561544 5.268954 L 32.561544 7.417591 L 29.10974 7.417591 L 29.10974 13.043459 L 30.609971 13.043459 L 30.609971 12.477694 L 36.032418 12.477694 L 36.032418 12.998961 L 37.589862 12.998961 L 37.589862 7.417591 L 34.125344 7.417591 L 34.125344 5.268954 Z M 44.728675 7.125173 L 43.628929 7.443019 L 43.628929 5.510517 L 44.620608 5.510517 L 44.620608 4.150138 L 43.628929 4.150138 L 43.628929 1.848935 L 42.319405 1.848935 L 42.319405 4.150138 L 41.75364 4.150138 C 41.829923 3.673369 41.887135 3.202958 41.93799 2.726189 L 40.749248 2.516411 C 40.64118 3.934003 40.437759 5.434234 40.062701 6.381414 C 40.329691 6.540337 40.857315 6.86454 41.07345 7.042533 C 41.23873 6.610263 41.384939 6.095353 41.518434 5.510517 L 42.319405 5.510517 L 42.319405 7.799006 C 41.50572 8.027855 40.774675 8.218562 40.170769 8.352057 L 40.520399 9.70608 C 41.07345 9.566228 41.671 9.369163 42.319405 9.178456 L 42.319405 13.056173 L 43.628929 13.056173 L 43.628929 8.784327 C 44.073913 8.650832 44.49347 8.51098 44.92574 8.390199 Z M 46.864598 3.698797 C 47.036235 3.164816 47.195158 2.630835 47.309582 2.077784 L 46.019129 1.836221 C 45.656785 3.603443 44.995666 5.31981 44.048486 6.362343 C 44.334547 6.540337 44.900312 6.934466 45.129161 7.163314 C 45.593216 6.591192 46.019129 5.847433 46.362402 5.014678 L 46.972666 5.014678 C 46.445042 6.756472 45.510576 8.530051 44.321833 9.470874 C 44.696891 9.667938 45.154589 9.998498 45.415222 10.271845 C 46.629392 9.121244 47.633785 6.972607 48.167765 5.014678 L 48.727174 5.014678 C 48.129624 7.824433 46.928167 10.545192 45.00838 11.924642 C 45.402508 12.134421 45.898347 12.477694 46.171695 12.757398 C 48.104196 11.161813 49.337437 8.040568 49.92863 5.014678 L 49.985843 5.014678 C 49.795135 9.324665 49.579 10.958392 49.280225 11.339806 C 49.134016 11.5178 49.019592 11.568655 48.835241 11.568655 C 48.606392 11.568655 48.212264 11.568655 47.76728 11.5178 C 47.983415 11.911929 48.129624 12.503122 48.167765 12.909964 C 48.682675 12.935392 49.184871 12.935392 49.521788 12.878179 C 49.915916 12.789183 50.182907 12.662044 50.456254 12.248845 C 50.913952 11.651295 51.12373 9.699723 51.352579 4.347202 C 51.365293 4.175565 51.378007 3.698797 51.378007 3.698797 Z M 56.609746 5.637655 L 57.461572 5.33888 C 57.334434 5.040105 57.080158 4.576051 56.864023 4.188279 L 59.81363 4.188279 C 59.673778 4.633263 59.419502 5.179958 59.177939 5.637655 Z M 61.784273 8.218562 C 61.282077 7.81172 60.487463 7.245954 59.851772 6.788257 L 61.784273 6.788257 Z M 56.45718 8.638118 C 57.029302 8.199491 57.620495 7.703652 58.040051 7.258668 L 57.092871 6.788257 L 59.444929 6.788257 L 58.809238 7.443019 C 59.266936 7.799006 59.864486 8.231276 60.341254 8.638118 Z M 59.457643 10.583334 L 57.131013 10.583334 L 57.131013 9.62344 L 59.457643 9.62344 Z M 63.659563 2.986823 L 59.394074 2.986823 C 59.241508 2.605408 59.038087 2.14771 58.841023 1.772652 L 57.40436 2.122282 C 57.525142 2.389273 57.658637 2.688048 57.766704 2.986823 L 52.986306 2.986823 L 52.986306 4.188279 L 56.266473 4.188279 L 55.459145 4.442556 C 55.643495 4.811257 55.872344 5.281668 56.012196 5.637655 L 53.552071 5.637655 L 53.552071 13.005318 L 54.918807 13.005318 L 54.918807 6.788257 L 57.05473 6.788257 C 56.514392 7.271382 55.643495 7.786292 54.956949 8.135922 C 55.122228 8.409269 55.414646 9.083102 55.484572 9.299237 C 55.630781 9.216597 55.783347 9.121244 55.94227 9.013176 L 55.94227 12.058138 L 57.131013 12.058138 L 57.131013 11.568655 L 60.595531 11.568655 L 60.595531 8.847896 C 60.786238 9.000462 60.945161 9.146671 61.072299 9.261096 L 61.784273 8.498266 L 61.784273 11.70215 C 61.784273 11.880144 61.70799 11.943713 61.52364 11.943713 C 61.339289 11.95007 60.6591 11.95007 60.067907 11.924642 C 60.233186 12.21706 60.404823 12.662044 60.462035 12.973533 C 61.421929 12.973533 62.070334 12.960819 62.502604 12.789183 C 62.947588 12.623903 63.100154 12.350556 63.100154 11.714864 L 63.100154 5.637655 L 60.620958 5.637655 C 60.856164 5.281668 61.123154 4.862112 61.364717 4.442556 L 60.131476 4.188279 L 63.659563 4.188279 Z M 68.325537 9.909501 L 68.325537 11.288951 L 66.952444 11.288951 L 66.952444 9.909501 Z M 69.571492 8.784327 L 65.719203 8.784327 L 65.719203 12.884536 L 66.952444 12.884536 L 66.952444 12.407768 L 69.571492 12.407768 Z M 65.757344 8.199491 L 69.609633 8.199491 L 69.609633 7.125173 L 65.757344 7.125173 Z M 76.386103 7.201456 L 73.913264 7.201456 L 73.913264 4.798543 L 76.125469 4.798543 L 76.125469 3.489019 L 72.222325 3.489019 C 72.381248 3.024964 72.5211 2.554552 72.635524 2.077784 L 71.192505 1.785366 C 70.97637 2.916897 70.575884 4.029356 70.086402 4.932038 L 70.086402 3.819578 L 67.581778 3.819578 L 68.300109 3.52716 C 68.242897 3.056749 67.988621 2.351131 67.677132 1.848935 L 66.653669 2.217636 C 66.907945 2.726189 67.111367 3.349167 67.181293 3.819578 L 65.166151 3.819578 L 65.166151 4.944752 L 70.073688 4.944752 C 69.933836 5.211742 69.774913 5.446948 69.609633 5.663083 L 69.609633 5.497803 L 65.757344 5.497803 L 65.757344 6.578478 L 69.609633 6.578478 L 69.609633 5.961858 C 69.965621 6.146208 70.448746 6.470411 70.696666 6.661118 C 71.071723 6.152565 71.434067 5.516874 71.745556 4.798543 L 72.463887 4.798543 L 72.463887 7.201456 L 69.965621 7.201456 L 69.965621 8.555478 L 72.463887 8.555478 L 72.463887 13.030745 L 73.913264 13.030745 L 73.913264 8.555478 L 76.386103 8.555478 Z M 82.654019 6.7819 L 82.654019 8.701687 L 80.371887 8.701687 L 80.371887 6.7819 Z M 84.065254 10.068424 L 84.065254 5.42152 L 78.979723 5.42152 L 78.979723 10.977462 L 80.371887 10.977462 L 80.371887 10.068424 Z M 88.68673 2.637192 L 77.87362 2.637192 L 77.87362 4.080212 L 85.807048 4.080212 L 85.807048 11.206311 C 85.807048 11.460588 85.698981 11.543228 85.425633 11.543228 C 85.133215 11.543228 84.090681 11.555941 83.238855 11.505086 C 83.45499 11.892858 83.747408 12.598475 83.830048 13.018031 C 85.050575 13.018031 85.940543 12.998961 86.538093 12.757398 C 87.103858 12.515835 87.30728 12.096279 87.30728 11.231739 L 87.30728 4.080212 L 88.68673 4.080212 Z M 94.592302 3.647942 L 92.361025 3.647942 L 93.09207 3.311025 C 92.984003 2.904183 92.672514 2.255778 92.373739 1.785366 L 91.305778 2.23035 C 91.553698 2.675334 91.79526 3.228385 91.916042 3.647942 L 90.129749 3.647942 L 90.129749 4.773115 L 94.592302 4.773115 Z M 94.160032 6.502196 L 94.160032 5.42152 L 90.708228 5.42152 L 90.708228 6.502196 Z M 93.022144 10.068424 L 93.022144 11.447874 L 91.865186 11.447874 L 91.865186 10.068424 Z M 94.242672 8.94325 L 90.670087 8.94325 L 90.670087 13.043459 L 91.865186 13.043459 L 91.865186 12.579404 L 94.242672 12.579404 Z M 90.511164 8.24399 L 94.255386 8.24399 L 94.255386 7.163314 L 90.511164 7.163314 Z M 98.826006 11.257167 L 98.826006 7.894359 L 100.955572 7.894359 L 100.955572 6.553051 L 98.826006 6.553051 L 98.826006 3.756009 L 101.076353 3.756009 L 101.076353 2.401987 L 94.878363 2.401987 L 94.878363 3.756009 L 97.421128 3.756009 L 97.421128 11.257167 L 96.537517 11.257167 L 96.537517 5.408806 L 95.202566 5.408806 L 95.202566 11.257167 L 94.541447 11.257167 L 94.541447 12.611189 L 101.375128 12.611189 L 101.375128 11.257167 Z M 98.826006 11.257167 " stroke="#7ed957" stroke-width="0.9" stroke-opacity="1" stroke-miterlimit="4"/><path stroke-linecap="butt" transform="matrix(0.614488, 0, 0, 0.614488, 60.053806, 51.684163)" fill="none" stroke-linejoin="miter" d="M 103.879752 12.051781 C 103.669974 12.051781 103.485623 12.013639 103.326701 11.924642 C 103.167778 11.842003 103.046996 11.727578 102.964357 11.575012 C 102.881717 11.428803 102.837218 11.263523 102.837218 11.072816 C 102.837218 10.888466 102.881717 10.716829 102.964357 10.57062 C 103.046996 10.424411 103.167778 10.30363 103.326701 10.22099 C 103.485623 10.131993 103.669974 10.087495 103.879752 10.087495 C 104.08953 10.087495 104.273881 10.131993 104.432804 10.214633 C 104.591726 10.297273 104.712508 10.418054 104.795148 10.564263 C 104.877787 10.710472 104.922286 10.882109 104.922286 11.066459 C 104.922286 11.35252 104.826932 11.587726 104.636225 11.772077 C 104.445517 11.962784 104.191241 12.051781 103.879752 12.051781 Z M 103.879752 7.436662 C 103.669974 7.436662 103.485623 7.392163 103.326701 7.309523 C 103.167778 7.226884 103.046996 7.112459 102.964357 6.959893 C 102.881717 6.813684 102.837218 6.642048 102.837218 6.457697 C 102.837218 6.26699 102.881717 6.10171 102.964357 5.955501 C 103.046996 5.802935 103.167778 5.688511 103.326701 5.599514 C 103.485623 5.516874 103.669974 5.472376 103.879752 5.472376 C 104.08953 5.472376 104.273881 5.516874 104.432804 5.599514 C 104.591726 5.682154 104.712508 5.796578 104.795148 5.949144 C 104.877787 6.095353 104.922286 6.260633 104.922286 6.45134 C 104.922286 6.737401 104.826932 6.972607 104.636225 7.156958 C 104.445517 7.341308 104.191241 7.436662 103.879752 7.436662 Z M 103.879752 7.436662 " stroke="#7ed957" stroke-width="0.9" stroke-opacity="1" stroke-miterlimit="4"/><path stroke-linecap="butt" transform="matrix(0.614488, 0, 0, 0.614488, 60.053806, 51.684163)" fill="none" stroke-linejoin="miter" d="M 116.212164 5.160887 C 116.536366 4.773115 116.873283 4.30906 117.152987 3.781437 L 117.629755 3.781437 C 117.966672 4.239134 118.322659 4.773115 118.494295 5.160887 Z M 118.290874 7.017105 L 115.900675 7.017105 L 115.900675 6.336916 L 118.290874 6.336916 Z M 114.495797 8.905109 L 112.442514 8.905109 C 112.480656 8.67626 112.506083 8.434697 112.544225 8.199491 L 114.495797 8.199491 Z M 112.480656 3.794151 C 112.754003 4.245491 112.995566 4.785829 113.103633 5.160887 L 111.063064 5.160887 C 111.425408 4.773115 111.787752 4.321774 112.118312 3.794151 Z M 120.859067 2.74526 L 117.667897 2.74526 C 117.756893 2.516411 117.84589 2.281205 117.903102 2.06507 L 116.523652 1.740868 C 116.224877 2.796115 115.614614 3.864077 114.896283 4.512482 C 115.195057 4.652334 115.709967 4.944752 116.03417 5.160887 L 113.179916 5.160887 L 114.349588 4.715903 C 114.273305 4.467983 114.101668 4.131067 113.923675 3.794151 L 115.481119 3.794151 L 115.481119 2.757974 L 112.709504 2.757974 C 112.817572 2.529125 112.912926 2.300276 113.008279 2.090498 L 111.711469 1.740868 C 111.31734 2.821543 110.586295 3.902218 109.778967 4.582408 C 110.071385 4.715903 110.560868 4.982893 110.859643 5.179958 L 110.859643 6.336916 L 114.495797 6.336916 L 114.495797 7.017105 L 111.291913 7.017105 C 111.209273 8.027855 111.031279 9.27381 110.846929 10.093851 L 113.427836 10.093851 C 112.493369 10.850324 111.196559 11.505086 109.950604 11.880144 C 110.249379 12.140777 110.643508 12.662044 110.846929 13.005318 C 112.156453 12.515835 113.485048 11.70215 114.495797 10.716829 L 114.495797 13.056173 L 115.900675 13.056173 L 115.900675 10.093851 L 118.767643 10.093851 C 118.697717 10.75497 118.602363 11.079173 118.481582 11.199954 C 118.373514 11.288951 118.252733 11.301665 118.074739 11.301665 C 117.858604 11.314379 117.350051 11.301665 116.847855 11.257167 C 117.076704 11.606797 117.222913 12.134421 117.241984 12.54762 C 117.864961 12.579404 118.430726 12.566691 118.767643 12.528549 C 119.142701 12.490408 119.428762 12.395054 119.683038 12.108993 C 119.994527 11.797504 120.134379 11.015604 120.25516 9.420019 C 120.280588 9.254739 120.293302 8.905109 120.293302 8.905109 L 115.900675 8.905109 L 115.900675 8.199491 L 119.702109 8.199491 L 119.702109 5.160887 L 118.519723 5.160887 L 119.74025 4.652334 C 119.619469 4.417128 119.403334 4.092925 119.168128 3.781437 L 120.859067 3.781437 Z M 120.859067 2.74526 " stroke="#7ed957" stroke-width="0.9" stroke-opacity="1" stroke-miterlimit="4"/><path stroke-linecap="butt" transform="matrix(0.614488, 0, 0, 0.614488, 60.053806, 51.684163)" fill="none" stroke-linejoin="miter" d="M 125.296192 12.121707 C 124.380797 12.121707 123.649752 11.930999 123.109414 11.536871 C 122.575434 11.149099 122.23216 10.602404 122.085951 9.89043 L 123.370048 9.29288 L 123.503543 9.318308 C 123.649752 9.78872 123.853173 10.131993 124.120164 10.348128 C 124.387154 10.564263 124.762212 10.678687 125.23898 10.678687 C 125.696678 10.678687 126.052665 10.57062 126.294228 10.354485 C 126.535791 10.13835 126.656572 9.826861 126.656572 9.413662 C 126.656572 9.013176 126.535791 8.708044 126.294228 8.491909 C 126.059022 8.275774 125.703035 8.167707 125.23898 8.167707 L 123.948527 8.167707 L 123.948527 6.851826 L 125.0737 6.851826 C 125.455115 6.851826 125.760247 6.756472 125.989096 6.559408 C 126.217945 6.3687 126.326012 6.095353 126.326012 5.739366 C 126.326012 5.389736 126.224302 5.129102 126.008167 4.951109 C 125.798389 4.773115 125.499614 4.684118 125.124556 4.684118 C 124.743141 4.684118 124.406225 4.773115 124.113807 4.951109 C 123.815032 5.129102 123.579826 5.370665 123.401832 5.675797 L 123.26198 5.701224 L 122.372012 4.665048 C 122.677144 4.258205 123.058559 3.927646 123.535328 3.679726 C 124.005739 3.431806 124.571504 3.311025 125.219909 3.311025 C 126.122591 3.311025 126.802781 3.495376 127.279549 3.870433 C 127.749961 4.245491 127.985167 4.773115 127.985167 5.453305 C 127.985167 5.866504 127.889813 6.216134 127.699106 6.508552 C 127.508398 6.80097 127.235051 7.04889 126.872707 7.258668 L 126.872707 7.385806 C 127.864385 7.72908 128.353868 8.434697 128.353868 9.489945 C 128.353868 10.023925 128.239443 10.48798 128.016951 10.882109 C 127.788102 11.276237 127.444829 11.581369 126.993488 11.797504 C 126.535791 12.013639 125.970025 12.121707 125.296192 12.121707 Z M 133.56018 12.121707 C 132.860919 12.121707 132.250655 11.969141 131.735745 11.657652 C 131.214479 11.346163 130.813993 10.863038 130.527932 10.208276 C 130.241871 9.553514 130.095662 8.720758 130.095662 7.716366 C 130.095662 6.711974 130.241871 5.885575 130.527932 5.224456 C 130.813993 4.569694 131.214479 4.086569 131.735745 3.77508 C 132.250655 3.463591 132.860919 3.311025 133.56018 3.311025 C 134.25944 3.311025 134.869704 3.463591 135.390971 3.77508 C 135.90588 4.086569 136.306366 4.569694 136.598784 5.224456 C 136.884845 5.885575 137.024697 6.711974 137.024697 7.716366 C 137.024697 8.720758 136.884845 9.553514 136.598784 10.208276 C 136.306366 10.863038 135.90588 11.346163 135.390971 11.657652 C 134.869704 11.969141 134.25944 12.121707 133.56018 12.121707 Z M 133.56018 10.685044 C 133.941594 10.685044 134.25944 10.596048 134.520073 10.411697 C 134.77435 10.22099 134.977771 9.909501 135.111266 9.477231 C 135.251118 9.038604 135.321044 8.453768 135.321044 7.716366 C 135.321044 6.985321 135.251118 6.394128 135.111266 5.961858 C 134.977771 5.523231 134.77435 5.211742 134.520073 5.027392 C 134.25944 4.836684 133.941594 4.747687 133.56018 4.747687 C 133.178765 4.747687 132.854562 4.836684 132.600286 5.027392 C 132.339652 5.211742 132.142588 5.523231 132.002736 5.961858 C 131.862884 6.394128 131.792958 6.985321 131.792958 7.716366 C 131.792958 8.453768 131.862884 9.038604 132.002736 9.477231 C 132.142588 9.909501 132.339652 10.22099 132.600286 10.411697 C 132.854562 10.596048 133.178765 10.685044 133.56018 10.685044 Z M 142.326363 12.121707 C 141.677958 12.121707 141.105835 11.975498 140.597282 11.676723 C 140.095086 11.377948 139.688244 10.907536 139.395826 10.265488 C 139.097051 9.617083 138.950842 8.797041 138.950842 7.799006 C 138.950842 6.7819 139.103408 5.942787 139.414897 5.268954 C 139.732742 4.601478 140.158655 4.105639 140.698993 3.787794 C 141.239331 3.469948 141.855951 3.311025 142.555212 3.311025 C 143.140048 3.311025 143.642244 3.393665 144.0618 3.565302 C 144.481356 3.730581 144.805559 3.978501 145.040765 4.30906 L 144.208009 5.370665 L 144.0618 5.370665 C 143.705813 4.944752 143.203617 4.734974 142.555212 4.734974 C 141.341041 4.734974 140.718064 5.624941 140.686279 7.411234 L 140.813417 7.455732 C 141.010482 7.087032 141.271115 6.807327 141.601675 6.610263 C 141.925877 6.419556 142.339077 6.324202 142.834916 6.324202 C 143.36254 6.324202 143.826594 6.432269 144.208009 6.661118 C 144.595781 6.88361 144.894556 7.207813 145.097977 7.621012 C 145.307755 8.040568 145.409466 8.536408 145.409466 9.10853 C 145.409466 9.737864 145.288684 10.278202 145.040765 10.729543 C 144.792845 11.180884 144.436858 11.530514 143.972803 11.76572 C 143.502392 12.000925 142.955697 12.121707 142.326363 12.121707 Z M 142.288221 10.678687 C 142.726848 10.678687 143.076478 10.545192 143.324398 10.284559 C 143.578675 10.023925 143.699456 9.661581 143.699456 9.19117 C 143.699456 8.727115 143.578675 8.358414 143.324398 8.097781 C 143.076478 7.843504 142.726848 7.710009 142.288221 7.710009 C 142.00216 7.710009 141.747884 7.773578 141.531749 7.894359 C 141.315614 8.015141 141.143977 8.186777 141.029552 8.409269 C 140.908771 8.631761 140.851559 8.892395 140.851559 9.19117 C 140.851559 9.648868 140.978697 10.011212 141.239331 10.278202 C 141.493607 10.545192 141.843237 10.678687 142.288221 10.678687 Z M 150.583993 12.121707 C 149.941945 12.121707 149.363466 11.975498 148.861269 11.676723 C 148.352716 11.377948 147.952231 10.907536 147.653456 10.265488 C 147.361038 9.617083 147.208472 8.797041 147.208472 7.799006 C 147.208472 6.7819 147.367395 5.942787 147.678884 5.268954 C 147.990372 4.601478 148.416286 4.105639 148.956623 3.787794 C 149.496961 3.469948 150.119938 3.311025 150.819199 3.311025 C 151.404035 3.311025 151.899874 3.393665 152.31943 3.565302 C 152.738986 3.730581 153.069546 3.978501 153.304752 4.30906 L 152.471996 5.370665 L 152.325787 5.370665 C 151.9698 4.944752 151.467604 4.734974 150.819199 4.734974 C 149.598671 4.734974 148.975694 5.624941 148.950266 7.411234 L 149.071048 7.455732 C 149.274469 7.087032 149.535102 6.807327 149.859305 6.610263 C 150.189864 6.419556 150.596707 6.324202 151.092546 6.324202 C 151.626527 6.324202 152.084224 6.432269 152.471996 6.661118 C 152.859768 6.88361 153.152186 7.207813 153.361964 7.621012 C 153.571742 8.040568 153.673453 8.536408 153.673453 9.10853 C 153.673453 9.737864 153.546314 10.278202 153.298395 10.729543 C 153.050475 11.180884 152.694488 11.530514 152.230433 11.76572 C 151.766379 12.000925 151.219684 12.121707 150.583993 12.121707 Z M 150.552208 10.678687 C 150.990835 10.678687 151.334109 10.545192 151.588385 10.284559 C 151.836305 10.023925 151.963443 9.661581 151.963443 9.19117 C 151.963443 8.727115 151.836305 8.358414 151.588385 8.097781 C 151.334109 7.843504 150.990835 7.710009 150.552208 7.710009 C 150.25979 7.710009 150.005514 7.773578 149.789379 7.894359 C 149.573244 8.015141 149.407964 8.186777 149.287183 8.409269 C 149.172758 8.631761 149.115546 8.892395 149.115546 9.19117 C 149.115546 9.648868 149.242684 10.011212 149.496961 10.278202 C 149.751237 10.545192 150.107224 10.678687 150.552208 10.678687 Z M 155.199112 12.000925 L 155.199112 10.602404 L 157.271466 10.602404 L 157.271466 5.268954 L 157.13797 5.230813 C 156.839195 5.370665 156.553134 5.485089 156.27343 5.567729 C 155.987369 5.650369 155.663166 5.713938 155.300822 5.758437 L 155.300822 4.315417 C 156.248003 4.111996 157.017189 3.819578 157.602025 3.431806 L 158.943334 3.431806 L 158.943334 10.602404 L 160.793195 10.602404 L 160.793195 12.000925 Z M 161.969224 11.320736 C 161.969224 10.850324 162.02008 10.449839 162.12179 10.125636 C 162.229858 9.801433 162.395138 9.502659 162.630343 9.235668 C 162.865549 8.968678 163.196109 8.682617 163.628379 8.371128 L 164.772623 7.544729 C 165.084112 7.322237 165.325674 7.13153 165.497311 6.96625 C 165.675305 6.80097 165.802443 6.629334 165.89144 6.45134 C 165.980437 6.273347 166.024935 6.063569 166.024935 5.83472 C 166.024935 5.491446 165.916867 5.218099 165.707089 5.027392 C 165.497311 4.843041 165.179465 4.747687 164.759909 4.747687 C 164.353067 4.747687 163.990723 4.843041 163.672877 5.033749 C 163.355031 5.230813 163.094398 5.491446 162.890977 5.828363 L 162.776552 5.860147 L 161.848443 4.817614 C 162.147218 4.366273 162.547703 3.997572 163.037186 3.724224 C 163.526668 3.450877 164.124218 3.311025 164.823478 3.311025 C 165.465527 3.311025 165.999507 3.419093 166.431777 3.628871 C 166.864047 3.838649 167.181893 4.12471 167.391671 4.493411 C 167.601449 4.855755 167.70316 5.275311 167.70316 5.745723 C 167.70316 6.152565 167.62052 6.527623 167.448883 6.858183 C 167.277247 7.195099 167.042041 7.506588 166.743266 7.792649 C 166.444491 8.07871 166.056719 8.383842 165.592665 8.714401 L 164.575559 9.420019 C 164.270427 9.642511 164.060649 9.833218 163.939867 10.004855 C 163.819086 10.176491 163.755517 10.367199 163.755517 10.583334 L 167.62052 10.583334 L 167.62052 12.000925 L 161.969224 12.000925 Z M 172.210211 12.121707 C 171.294816 12.121707 170.563771 11.930999 170.023433 11.536871 C 169.483096 11.149099 169.146179 10.602404 168.99997 9.89043 L 170.284067 9.29288 L 170.417562 9.318308 C 170.563771 9.78872 170.767192 10.131993 171.034182 10.348128 C 171.301173 10.564263 171.676231 10.678687 172.152999 10.678687 C 172.610697 10.678687 172.966684 10.57062 173.208247 10.354485 C 173.449809 10.13835 173.570591 9.826861 173.570591 9.413662 C 173.570591 9.013176 173.449809 8.708044 173.208247 8.491909 C 172.966684 8.275774 172.617054 8.167707 172.152999 8.167707 L 170.862546 8.167707 L 170.862546 6.851826 L 171.987719 6.851826 C 172.369134 6.851826 172.674266 6.756472 172.903115 6.559408 C 173.125607 6.3687 173.240031 6.095353 173.240031 5.739366 C 173.240031 5.389736 173.138321 5.129102 172.922186 4.951109 C 172.712408 4.773115 172.413633 4.684118 172.038575 4.684118 C 171.65716 4.684118 171.320244 4.773115 171.021469 4.951109 C 170.729051 5.129102 170.493845 5.370665 170.309494 5.675797 L 170.175999 5.701224 L 169.286031 4.665048 C 169.584806 4.258205 169.972578 3.927646 170.449346 3.679726 C 170.919758 3.431806 171.479166 3.311025 172.133928 3.311025 C 173.030253 3.311025 173.7168 3.495376 174.193568 3.870433 C 174.66398 4.245491 174.899186 4.773115 174.899186 5.453305 C 174.899186 5.866504 174.803832 6.216134 174.613125 6.508552 C 174.422417 6.80097 174.14907 7.04889 173.786726 7.258668 L 173.786726 7.385806 C 174.772047 7.72908 175.267887 8.434697 175.267887 9.489945 C 175.267887 10.023925 175.153462 10.48798 174.93097 10.882109 C 174.702121 11.276237 174.358848 11.581369 173.90115 11.797504 C 173.449809 12.013639 172.884044 12.121707 172.210211 12.121707 Z M 176.704549 11.320736 C 176.704549 10.850324 176.755404 10.449839 176.857115 10.125636 C 176.965182 9.801433 177.130462 9.502659 177.365668 9.235668 C 177.600874 8.968678 177.931433 8.682617 178.363703 8.371128 L 179.507948 7.544729 C 179.819436 7.322237 180.060999 7.13153 180.232636 6.96625 C 180.410629 6.80097 180.537768 6.629334 180.626764 6.45134 C 180.715761 6.273347 180.76026 6.063569 180.76026 5.83472 C 180.76026 5.491446 180.652192 5.218099 180.442414 5.027392 C 180.232636 4.843041 179.91479 4.747687 179.495234 4.747687 C 179.088391 4.747687 178.726047 4.843041 178.408202 5.033749 C 178.090356 5.230813 177.829723 5.491446 177.626301 5.828363 L 177.511877 5.860147 L 176.583768 4.817614 C 176.882543 4.366273 177.283028 3.997572 177.77251 3.724224 C 178.261993 3.450877 178.859543 3.311025 179.558803 3.311025 C 180.200851 3.311025 180.734832 3.419093 181.167102 3.628871 C 181.599372 3.838649 181.917218 4.12471 182.126996 4.493411 C 182.336774 4.855755 182.438485 5.275311 182.438485 5.745723 C 182.438485 6.152565 182.355845 6.527623 182.184208 6.858183 C 182.012571 7.195099 181.777366 7.506588 181.478591 7.792649 C 181.179816 8.07871 180.792044 8.383842 180.327989 8.714401 L 179.310883 9.420019 C 179.005752 9.642511 178.795973 9.833218 178.675192 10.004855 C 178.554411 10.176491 178.490842 10.367199 178.490842 10.583334 L 182.355845 10.583334 L 182.355845 12.000925 L 176.704549 12.000925 Z M 187.63844 12.121707 C 186.939179 12.121707 186.328915 11.969141 185.814005 11.657652 C 185.292739 11.346163 184.892253 10.863038 184.606192 10.208276 C 184.320131 9.553514 184.173922 8.720758 184.173922 7.716366 C 184.173922 6.711974 184.320131 5.885575 184.606192 5.224456 C 184.892253 4.569694 185.292739 4.086569 185.814005 3.77508 C 186.328915 3.463591 186.939179 3.311025 187.63844 3.311025 C 188.3377 3.311025 188.947964 3.463591 189.469231 3.77508 C 189.984141 4.086569 190.390983 4.569694 190.677044 5.224456 C 190.963105 5.885575 191.102957 6.711974 191.102957 7.716366 C 191.102957 8.720758 190.963105 9.553514 190.677044 10.208276 C 190.390983 10.863038 189.984141 11.346163 189.469231 11.657652 C 188.947964 11.969141 188.3377 12.121707 187.63844 12.121707 Z M 187.63844 10.685044 C 188.019854 10.685044 188.3377 10.596048 188.598333 10.411697 C 188.858967 10.22099 189.056031 9.909501 189.195883 9.477231 C 189.329378 9.038604 189.399305 8.453768 189.399305 7.716366 C 189.399305 6.985321 189.329378 6.394128 189.195883 5.961858 C 189.056031 5.523231 188.858967 5.211742 188.598333 5.027392 C 188.3377 4.836684 188.019854 4.747687 187.63844 4.747687 C 187.257025 4.747687 186.932822 4.836684 186.678546 5.027392 C 186.417912 5.211742 186.220848 5.523231 186.080996 5.961858 C 185.941144 6.394128 185.871218 6.985321 185.871218 7.716366 C 185.871218 8.453768 185.941144 9.038604 186.080996 9.477231 C 186.220848 9.909501 186.417912 10.22099 186.678546 10.411697 C 186.932822 10.596048 187.257025 10.685044 187.63844 10.685044 Z M 195.97871 12.121707 C 195.29852 12.121707 194.726398 12.019996 194.255986 11.803861 C 193.785575 11.594083 193.429587 11.295308 193.194382 10.901179 C 192.952819 10.513408 192.832038 10.049353 192.832038 9.515372 C 192.832038 9.019533 192.959176 8.587263 193.200739 8.224919 C 193.448658 7.862575 193.811002 7.576514 194.281414 7.373093 L 194.281414 7.245954 C 193.944497 7.042533 193.690221 6.794614 193.512227 6.508552 C 193.334234 6.222491 193.245237 5.891932 193.245237 5.510517 C 193.245237 5.07189 193.353304 4.690475 193.563083 4.359916 C 193.779218 4.029356 194.090706 3.768723 194.503906 3.584372 C 194.910748 3.400022 195.406587 3.311025 195.97871 3.311025 C 196.557189 3.311025 197.046671 3.400022 197.45987 3.584372 C 197.866713 3.768723 198.178202 4.029356 198.394337 4.359916 C 198.610472 4.690475 198.718539 5.07189 198.718539 5.510517 C 198.718539 5.891932 198.629542 6.222491 198.445192 6.508552 C 198.267198 6.788257 198.006565 7.036176 197.669648 7.245954 L 197.669648 7.373093 C 198.165488 7.570157 198.534189 7.856218 198.769394 8.218562 C 199.0046 8.587263 199.119025 9.019533 199.119025 9.515372 C 199.119025 10.049353 199.0046 10.513408 198.763038 10.901179 C 198.527832 11.295308 198.171845 11.594083 197.701433 11.803861 C 197.237378 12.019996 196.658899 12.121707 195.97871 12.121707 Z M 195.97871 6.769186 C 196.321983 6.769186 196.588973 6.673832 196.792394 6.489482 C 196.995816 6.298774 197.091169 6.038141 197.091169 5.707581 C 197.091169 5.370665 196.995816 5.110032 196.792394 4.912967 C 196.588973 4.72226 196.321983 4.626906 195.97871 4.626906 C 195.635436 4.626906 195.362089 4.72226 195.158668 4.912967 C 194.961604 5.103675 194.859893 5.364308 194.859893 5.707581 C 194.859893 6.044498 194.961604 6.305131 195.158668 6.489482 C 195.362089 6.673832 195.635436 6.769186 195.97871 6.769186 Z M 195.97871 10.678687 C 196.436407 10.678687 196.792394 10.564263 197.040314 10.341771 C 197.288234 10.112922 197.415372 9.795077 197.415372 9.388234 C 197.415372 8.981392 197.288234 8.663546 197.040314 8.434697 C 196.792394 8.205848 196.436407 8.091424 195.97871 8.091424 C 195.521012 8.091424 195.165025 8.205848 194.917105 8.434697 C 194.662829 8.663546 194.542047 8.981392 194.542047 9.388234 C 194.542047 9.795077 194.662829 10.112922 194.917105 10.341771 C 195.165025 10.564263 195.521012 10.678687 195.97871 10.678687 Z M 200.54933 11.320736 C 200.54933 10.850324 200.600185 10.449839 200.708253 10.125636 C 200.809964 9.801433 200.975243 9.502659 201.210449 9.235668 C 201.445655 8.968678 201.776214 8.682617 202.208484 8.371128 L 203.352729 7.544729 C 203.664218 7.322237 203.90578 7.13153 204.077417 6.96625 C 204.255411 6.80097 204.382549 6.629334 204.471546 6.45134 C 204.560542 6.273347 204.605041 6.063569 204.605041 5.83472 C 204.605041 5.491446 204.496973 5.218099 204.287195 5.027392 C 204.077417 4.843041 203.759571 4.747687 203.340015 4.747687 C 202.933173 4.747687 202.570829 4.843041 202.252983 5.033749 C 201.941494 5.230813 201.674504 5.491446 201.471083 5.828363 L 201.356658 5.860147 L 200.428549 4.817614 C 200.733681 4.366273 201.127809 3.997572 201.617292 3.724224 C 202.106774 3.450877 202.704324 3.311025 203.403584 3.311025 C 204.045632 3.311025 204.579613 3.419093 205.011883 3.628871 C 205.444153 3.838649 205.761999 4.12471 205.971777 4.493411 C 206.181555 4.855755 206.289623 5.275311 206.289623 5.745723 C 206.289623 6.152565 206.200626 6.527623 206.028989 6.858183 C 205.86371 7.195099 205.628504 7.506588 205.323372 7.792649 C 205.024597 8.07871 204.643182 8.383842 204.172771 8.714401 L 203.155665 9.420019 C 202.850533 9.642511 202.640755 9.833218 202.519973 10.004855 C 202.399192 10.176491 202.335623 10.367199 202.335623 10.583334 L 206.206983 10.583334 L 206.206983 12.000925 L 200.54933 12.000925 Z M 210.8666 12.121707 C 210.014774 12.121707 209.334584 11.943713 208.832388 11.581369 C 208.330192 11.225382 208.005989 10.723186 207.853423 10.081138 L 209.131163 9.509015 L 209.271015 9.534443 C 209.391796 9.909501 209.582504 10.195562 209.830423 10.386269 C 210.078343 10.576977 210.415259 10.678687 210.847529 10.678687 C 211.29887 10.678687 211.642144 10.551549 211.883706 10.297273 C 212.125269 10.042996 212.24605 9.661581 212.24605 9.159385 C 212.24605 8.657189 212.125269 8.282131 211.883706 8.021498 C 211.642144 7.760864 211.317941 7.633726 210.904742 7.633726 C 210.586896 7.633726 210.319906 7.703652 210.103771 7.837147 C 209.893992 7.976999 209.709642 8.180421 209.56979 8.447411 L 208.164912 8.352057 L 208.342906 3.431806 L 213.44115 3.431806 L 213.44115 4.855755 L 209.766854 4.855755 L 209.684214 7.042533 L 209.804996 7.067961 C 210.008417 6.807327 210.243623 6.603906 210.523327 6.470411 C 210.796674 6.336916 211.133591 6.26699 211.521362 6.26699 C 212.010845 6.26699 212.436758 6.375057 212.805459 6.597549 C 213.167803 6.813684 213.453864 7.13153 213.650928 7.5638 C 213.847992 7.989713 213.949703 8.51098 213.949703 9.127601 C 213.949703 9.756935 213.828922 10.297273 213.587359 10.742257 C 213.352153 11.193597 212.996166 11.530514 212.538468 11.76572 C 212.074414 12.007282 211.521362 12.121707 210.8666 12.121707 Z M 210.8666 12.121707 " stroke="#7ed957" stroke-width="0.9" stroke-opacity="1" stroke-miterlimit="4"/><path stroke-linecap="butt" transform="matrix(0.614488, 0, 0, 0.614488, 60.053806, 51.684163)" fill="none" stroke-linejoin="miter" d="M 223.396076 4.620549 L 218.513967 4.620549 L 218.513967 3.489019 L 223.396076 3.489019 Z M 224.909021 2.243064 L 217.090018 2.243064 L 217.090018 5.85379 L 224.909021 5.85379 Z M 226.288471 7.894359 L 226.288471 6.610263 L 215.659713 6.610263 L 215.659713 7.894359 L 217.903703 7.894359 C 217.674854 8.67626 217.376079 9.489945 217.134517 10.081138 L 218.011771 10.081138 L 218.011771 10.093851 L 223.256224 10.093851 C 223.097301 10.958392 222.919307 11.409732 222.703172 11.594083 C 222.54425 11.689437 222.391684 11.70215 222.124693 11.70215 C 221.755992 11.70215 220.866025 11.689437 220.077767 11.613154 C 220.338401 12.000925 220.529108 12.566691 220.56725 12.973533 C 221.393648 13.018031 222.175549 13.005318 222.639603 12.986247 C 223.199012 12.948105 223.59314 12.865466 223.949127 12.528549 C 224.368684 12.134421 224.654745 11.231739 224.896307 9.394591 C 224.934449 9.203884 224.97259 8.797041 224.97259 8.797041 L 219.225941 8.797041 C 219.334008 8.498266 219.423005 8.199491 219.524716 7.894359 Z M 226.288471 7.894359 " stroke="#7ed957" stroke-width="0.9" stroke-opacity="1" stroke-miterlimit="4"/><g fill="#ffffff" fill-opacity="1"><g transform="translate(76.856226, 59.058025)"><g><path d="M 5.339844 -0.539062 L 2.003906 -0.539062 L 2.003906 -1.984375 L 5.339844 -1.984375 Z M 7.042969 -4.136719 L 7.042969 -4.992188 L 4.167969 -4.992188 L 4.167969 -6.246094 L 3.207031 -6.246094 L 3.207031 -4.992188 L 0.339844 -4.992188 L 0.339844 -4.136719 L 3.207031 -4.136719 L 3.207031 -2.816406 L 1.082031 -2.816406 L 1.082031 0.640625 L 2.003906 0.640625 L 2.003906 0.296875 L 5.339844 0.296875 L 5.339844 0.613281 L 6.296875 0.613281 L 6.296875 -2.816406 L 4.167969 -2.816406 L 4.167969 -4.136719 Z M 7.042969 -4.136719 "/></g></g></g><g fill="#ffffff" fill-opacity="1"><g transform="translate(84.525098, 59.058025)"><g><path d="M 3.015625 -2.992188 L 2.335938 -2.800781 L 2.335938 -3.988281 L 2.949219 -3.988281 L 2.949219 -4.824219 L 2.335938 -4.824219 L 2.335938 -6.238281 L 1.535156 -6.238281 L 1.535156 -4.824219 L 1.1875 -4.824219 C 1.230469 -5.117188 1.269531 -5.40625 1.296875 -5.699219 L 0.566406 -5.824219 C 0.5 -4.957031 0.375 -4.035156 0.148438 -3.449219 C 0.308594 -3.355469 0.632812 -3.15625 0.765625 -3.046875 C 0.871094 -3.3125 0.957031 -3.628906 1.039062 -3.988281 L 1.535156 -3.988281 L 1.535156 -2.582031 C 1.03125 -2.441406 0.582031 -2.324219 0.214844 -2.242188 L 0.425781 -1.410156 C 0.765625 -1.496094 1.136719 -1.613281 1.535156 -1.734375 L 1.535156 0.648438 L 2.335938 0.648438 L 2.335938 -1.976562 C 2.609375 -2.058594 2.867188 -2.144531 3.132812 -2.21875 Z M 4.328125 -5.101562 C 4.433594 -5.425781 4.527344 -5.757812 4.601562 -6.097656 L 3.804688 -6.246094 C 3.582031 -5.160156 3.179688 -4.105469 2.59375 -3.464844 C 2.773438 -3.355469 3.121094 -3.113281 3.257812 -2.972656 C 3.546875 -3.324219 3.804688 -3.78125 4.019531 -4.292969 L 4.394531 -4.292969 C 4.070312 -3.222656 3.496094 -2.132812 2.765625 -1.554688 C 2.992188 -1.429688 3.273438 -1.230469 3.4375 -1.0625 C 4.179688 -1.769531 4.800781 -3.089844 5.125 -4.292969 L 5.472656 -4.292969 C 5.101562 -2.566406 4.367188 -0.890625 3.183594 -0.0429688 C 3.429688 0.0820312 3.730469 0.296875 3.902344 0.464844 C 5.089844 -0.515625 5.847656 -2.433594 6.207031 -4.292969 L 6.246094 -4.292969 C 6.128906 -1.644531 5.996094 -0.640625 5.8125 -0.40625 C 5.722656 -0.296875 5.648438 -0.265625 5.539062 -0.265625 C 5.398438 -0.265625 5.15625 -0.265625 4.882812 -0.296875 C 5.015625 -0.0507812 5.101562 0.308594 5.125 0.558594 C 5.441406 0.574219 5.75 0.574219 5.957031 0.539062 C 6.203125 0.488281 6.363281 0.40625 6.535156 0.15625 C 6.8125 -0.214844 6.945312 -1.414062 7.085938 -4.703125 C 7.09375 -4.808594 7.101562 -5.101562 7.101562 -5.101562 Z M 4.328125 -5.101562 "/></g></g></g><g fill="#ffffff" fill-opacity="1"><g transform="translate(92.193971, 59.058025)"><g><path d="M 2.648438 -3.90625 L 3.171875 -4.09375 C 3.089844 -4.277344 2.933594 -4.5625 2.800781 -4.800781 L 4.617188 -4.800781 C 4.527344 -4.527344 4.371094 -4.1875 4.226562 -3.90625 Z M 5.824219 -2.324219 C 5.515625 -2.574219 5.027344 -2.921875 4.636719 -3.199219 L 5.824219 -3.199219 Z M 2.550781 -2.066406 C 2.90625 -2.335938 3.265625 -2.640625 3.523438 -2.914062 L 2.941406 -3.199219 L 4.386719 -3.199219 L 3.996094 -2.800781 C 4.277344 -2.582031 4.644531 -2.316406 4.941406 -2.066406 Z M 4.394531 -0.871094 L 2.964844 -0.871094 L 2.964844 -1.460938 L 4.394531 -1.460938 Z M 6.976562 -5.539062 L 4.359375 -5.539062 C 4.261719 -5.773438 4.136719 -6.054688 4.019531 -6.28125 L 3.132812 -6.070312 C 3.207031 -5.90625 3.289062 -5.722656 3.355469 -5.539062 L 0.421875 -5.539062 L 0.421875 -4.800781 L 2.433594 -4.800781 L 1.9375 -4.644531 C 2.050781 -4.417969 2.191406 -4.128906 2.277344 -3.90625 L 0.765625 -3.90625 L 0.765625 0.621094 L 1.609375 0.621094 L 1.609375 -3.199219 L 2.921875 -3.199219 C 2.589844 -2.90625 2.050781 -2.589844 1.628906 -2.375 C 1.734375 -2.203125 1.910156 -1.792969 1.953125 -1.660156 C 2.042969 -1.710938 2.136719 -1.769531 2.234375 -1.835938 L 2.234375 0.0351562 L 2.964844 0.0351562 L 2.964844 -0.265625 L 5.09375 -0.265625 L 5.09375 -1.9375 C 5.214844 -1.84375 5.308594 -1.753906 5.390625 -1.679688 L 5.824219 -2.152344 L 5.824219 -0.183594 C 5.824219 -0.0742188 5.78125 -0.0351562 5.664062 -0.0351562 C 5.550781 -0.03125 5.132812 -0.03125 4.769531 -0.0429688 C 4.875 0.132812 4.976562 0.40625 5.015625 0.597656 C 5.605469 0.597656 6.003906 0.589844 6.269531 0.488281 C 6.539062 0.382812 6.636719 0.214844 6.636719 -0.175781 L 6.636719 -3.90625 L 5.109375 -3.90625 C 5.257812 -4.128906 5.417969 -4.386719 5.566406 -4.644531 L 4.808594 -4.800781 L 6.976562 -4.800781 Z M 6.976562 -5.539062 "/></g></g></g><g fill="#ffffff" fill-opacity="1"><g transform="translate(99.862843, 59.058025)"><g><path d="M 2.175781 -1.28125 L 2.175781 -0.433594 L 1.335938 -0.433594 L 1.335938 -1.28125 Z M 2.941406 -1.976562 L 0.574219 -1.976562 L 0.574219 0.546875 L 1.335938 0.546875 L 1.335938 0.25 L 2.941406 0.25 Z M 0.597656 -2.335938 L 2.964844 -2.335938 L 2.964844 -2.992188 L 0.597656 -2.992188 Z M 7.128906 -2.949219 L 5.613281 -2.949219 L 5.613281 -4.425781 L 6.96875 -4.425781 L 6.96875 -5.226562 L 4.570312 -5.226562 C 4.667969 -5.515625 4.757812 -5.804688 4.824219 -6.097656 L 3.9375 -6.273438 C 3.804688 -5.582031 3.5625 -4.894531 3.257812 -4.34375 L 3.257812 -5.027344 L 1.71875 -5.027344 L 2.160156 -5.207031 C 2.125 -5.492188 1.96875 -5.929688 1.777344 -6.238281 L 1.148438 -6.007812 C 1.304688 -5.699219 1.429688 -5.316406 1.476562 -5.027344 L 0.234375 -5.027344 L 0.234375 -4.335938 L 3.25 -4.335938 C 3.164062 -4.171875 3.066406 -4.027344 2.964844 -3.894531 L 2.964844 -3.996094 L 0.597656 -3.996094 L 0.597656 -3.332031 L 2.964844 -3.332031 L 2.964844 -3.710938 C 3.183594 -3.597656 3.480469 -3.398438 3.636719 -3.28125 C 3.863281 -3.589844 4.085938 -3.980469 4.277344 -4.425781 L 4.71875 -4.425781 L 4.71875 -2.949219 L 3.183594 -2.949219 L 3.183594 -2.117188 L 4.71875 -2.117188 L 4.71875 0.632812 L 5.613281 0.632812 L 5.613281 -2.117188 L 7.128906 -2.117188 Z M 7.128906 -2.949219 "/></g></g></g><g fill="#ffffff" fill-opacity="1"><g transform="translate(107.531716, 59.058025)"><g><path d="M 3.3125 -3.207031 L 3.3125 -2.027344 L 1.910156 -2.027344 L 1.910156 -3.207031 Z M 4.179688 -1.1875 L 4.179688 -4.039062 L 1.054688 -4.039062 L 1.054688 -0.625 L 1.910156 -0.625 L 1.910156 -1.1875 Z M 7.019531 -5.75 L 0.375 -5.75 L 0.375 -4.867188 L 5.25 -4.867188 L 5.25 -0.488281 C 5.25 -0.332031 5.183594 -0.28125 5.015625 -0.28125 C 4.835938 -0.28125 4.195312 -0.273438 3.671875 -0.300781 C 3.804688 -0.0664062 3.980469 0.367188 4.035156 0.625 C 4.785156 0.625 5.332031 0.613281 5.699219 0.464844 C 6.046875 0.316406 6.171875 0.0585938 6.171875 -0.472656 L 6.171875 -4.867188 L 7.019531 -4.867188 Z M 7.019531 -5.75 "/></g></g></g><g fill="#ffffff" fill-opacity="1"><g transform="translate(115.200588, 59.058025)"><g><path d="M 2.980469 -5.132812 L 1.609375 -5.132812 L 2.058594 -5.339844 C 1.992188 -5.589844 1.800781 -5.988281 1.613281 -6.273438 L 0.957031 -6.003906 C 1.113281 -5.730469 1.261719 -5.390625 1.335938 -5.132812 L 0.234375 -5.132812 L 0.234375 -4.4375 L 2.980469 -4.4375 Z M 2.714844 -3.378906 L 2.714844 -4.039062 L 0.589844 -4.039062 L 0.589844 -3.378906 Z M 2.011719 -1.1875 L 2.011719 -0.339844 L 1.304688 -0.339844 L 1.304688 -1.1875 Z M 2.765625 -1.878906 L 0.566406 -1.878906 L 0.566406 0.640625 L 1.304688 0.640625 L 1.304688 0.355469 L 2.765625 0.355469 Z M 0.472656 -2.308594 L 2.773438 -2.308594 L 2.773438 -2.972656 L 0.472656 -2.972656 Z M 5.582031 -0.457031 L 5.582031 -2.523438 L 6.886719 -2.523438 L 6.886719 -3.347656 L 5.582031 -3.347656 L 5.582031 -5.066406 L 6.960938 -5.066406 L 6.960938 -5.898438 L 3.15625 -5.898438 L 3.15625 -5.066406 L 4.71875 -5.066406 L 4.71875 -0.457031 L 4.171875 -0.457031 L 4.171875 -4.046875 L 3.355469 -4.046875 L 3.355469 -0.457031 L 2.949219 -0.457031 L 2.949219 0.375 L 7.144531 0.375 L 7.144531 -0.457031 Z M 5.582031 -0.457031 "/></g></g></g><g fill="#ffffff" fill-opacity="1"><g transform="translate(122.869461, 59.058025)"><g><path d="M 1.015625 0.03125 C 0.890625 0.03125 0.773438 0.00390625 0.671875 -0.046875 C 0.578125 -0.0976562 0.503906 -0.164062 0.453125 -0.25 C 0.398438 -0.34375 0.375 -0.445312 0.375 -0.5625 C 0.375 -0.675781 0.398438 -0.78125 0.453125 -0.875 C 0.503906 -0.96875 0.578125 -1.039062 0.671875 -1.09375 C 0.773438 -1.144531 0.890625 -1.171875 1.015625 -1.171875 C 1.140625 -1.171875 1.25 -1.144531 1.34375 -1.09375 C 1.445312 -1.039062 1.523438 -0.96875 1.578125 -0.875 C 1.628906 -0.789062 1.65625 -0.691406 1.65625 -0.578125 C 1.65625 -0.398438 1.597656 -0.253906 1.484375 -0.140625 C 1.367188 -0.0234375 1.210938 0.03125 1.015625 0.03125 Z M 1.015625 -2.8125 C 0.890625 -2.8125 0.773438 -2.835938 0.671875 -2.890625 C 0.578125 -2.941406 0.503906 -3.007812 0.453125 -3.09375 C 0.398438 -3.1875 0.375 -3.289062 0.375 -3.40625 C 0.375 -3.519531 0.398438 -3.625 0.453125 -3.71875 C 0.503906 -3.8125 0.578125 -3.882812 0.671875 -3.9375 C 0.773438 -3.988281 0.890625 -4.015625 1.015625 -4.015625 C 1.140625 -4.015625 1.25 -3.988281 1.34375 -3.9375 C 1.445312 -3.882812 1.523438 -3.8125 1.578125 -3.71875 C 1.628906 -3.632812 1.65625 -3.535156 1.65625 -3.421875 C 1.65625 -3.242188 1.597656 -3.097656 1.484375 -2.984375 C 1.367188 -2.867188 1.210938 -2.8125 1.015625 -2.8125 Z M 1.015625 -2.8125 "/></g></g></g><g fill="#ffffff" fill-opacity="1"><g transform="translate(125.19871, 59.058025)"><g/></g></g><g fill="#ffffff" fill-opacity="1"><g transform="translate(127.232717, 59.058025)"><g><path d="M 4.234375 -4.203125 C 4.433594 -4.4375 4.636719 -4.726562 4.808594 -5.050781 L 5.101562 -5.050781 C 5.308594 -4.769531 5.53125 -4.4375 5.632812 -4.203125 Z M 5.507812 -3.058594 L 4.039062 -3.058594 L 4.039062 -3.480469 L 5.507812 -3.480469 Z M 3.179688 -1.902344 L 1.917969 -1.902344 C 1.9375 -2.042969 1.953125 -2.191406 1.976562 -2.335938 L 3.179688 -2.335938 Z M 1.9375 -5.042969 C 2.109375 -4.761719 2.257812 -4.433594 2.324219 -4.203125 L 1.070312 -4.203125 C 1.289062 -4.4375 1.511719 -4.71875 1.71875 -5.042969 Z M 7.085938 -5.683594 L 5.125 -5.683594 C 5.183594 -5.824219 5.234375 -5.972656 5.273438 -6.105469 L 4.425781 -6.304688 C 4.238281 -5.65625 3.863281 -5 3.421875 -4.601562 C 3.605469 -4.511719 3.921875 -4.335938 4.121094 -4.203125 L 2.367188 -4.203125 L 3.089844 -4.476562 C 3.039062 -4.628906 2.933594 -4.835938 2.824219 -5.042969 L 3.78125 -5.042969 L 3.78125 -5.679688 L 2.078125 -5.679688 C 2.144531 -5.816406 2.203125 -5.957031 2.265625 -6.089844 L 1.46875 -6.304688 C 1.222656 -5.640625 0.773438 -4.976562 0.28125 -4.558594 C 0.457031 -4.476562 0.757812 -4.3125 0.945312 -4.1875 L 0.945312 -3.480469 L 3.179688 -3.480469 L 3.179688 -3.058594 L 1.210938 -3.058594 C 1.15625 -2.441406 1.046875 -1.675781 0.9375 -1.171875 L 2.523438 -1.171875 C 1.945312 -0.707031 1.148438 -0.300781 0.382812 -0.0742188 C 0.566406 0.0898438 0.8125 0.40625 0.9375 0.621094 C 1.738281 0.316406 2.558594 -0.183594 3.179688 -0.789062 L 3.179688 0.648438 L 4.039062 0.648438 L 4.039062 -1.171875 L 5.804688 -1.171875 C 5.757812 -0.765625 5.699219 -0.566406 5.625 -0.492188 C 5.558594 -0.433594 5.484375 -0.425781 5.375 -0.425781 C 5.242188 -0.421875 4.933594 -0.425781 4.625 -0.457031 C 4.761719 -0.242188 4.851562 0.0820312 4.867188 0.339844 C 5.25 0.355469 5.597656 0.347656 5.804688 0.324219 C 6.03125 0.300781 6.207031 0.242188 6.363281 0.0664062 C 6.554688 -0.125 6.644531 -0.605469 6.71875 -1.585938 C 6.730469 -1.6875 6.738281 -1.902344 6.738281 -1.902344 L 4.039062 -1.902344 L 4.039062 -2.335938 L 6.378906 -2.335938 L 6.378906 -4.203125 L 5.648438 -4.203125 L 6.402344 -4.511719 C 6.328125 -4.660156 6.195312 -4.859375 6.046875 -5.050781 L 7.085938 -5.050781 Z M 7.085938 -5.683594 "/></g></g></g><g fill="#ffffff" fill-opacity="1"><g transform="translate(134.901592, 59.058025)"><g><path d="M 2.140625 0.078125 C 1.578125 0.078125 1.128906 -0.0390625 0.796875 -0.28125 C 0.472656 -0.519531 0.265625 -0.859375 0.171875 -1.296875 L 0.96875 -1.65625 L 1.046875 -1.65625 C 1.128906 -1.363281 1.253906 -1.148438 1.421875 -1.015625 C 1.585938 -0.878906 1.816406 -0.8125 2.109375 -0.8125 C 2.390625 -0.8125 2.601562 -0.875 2.75 -1 C 2.90625 -1.132812 2.984375 -1.332031 2.984375 -1.59375 C 2.984375 -1.832031 2.90625 -2.019531 2.75 -2.15625 C 2.601562 -2.289062 2.390625 -2.359375 2.109375 -2.359375 L 1.3125 -2.359375 L 1.3125 -3.171875 L 2.015625 -3.171875 C 2.242188 -3.171875 2.425781 -3.226562 2.5625 -3.34375 C 2.707031 -3.457031 2.78125 -3.625 2.78125 -3.84375 C 2.78125 -4.0625 2.710938 -4.222656 2.578125 -4.328125 C 2.453125 -4.441406 2.273438 -4.5 2.046875 -4.5 C 1.804688 -4.5 1.59375 -4.441406 1.40625 -4.328125 C 1.226562 -4.222656 1.085938 -4.078125 0.984375 -3.890625 L 0.890625 -3.875 L 0.34375 -4.515625 C 0.53125 -4.765625 0.769531 -4.960938 1.0625 -5.109375 C 1.351562 -5.265625 1.695312 -5.34375 2.09375 -5.34375 C 2.644531 -5.34375 3.066406 -5.226562 3.359375 -5 C 3.648438 -4.769531 3.796875 -4.441406 3.796875 -4.015625 C 3.796875 -3.765625 3.738281 -3.550781 3.625 -3.375 C 3.507812 -3.195312 3.335938 -3.039062 3.109375 -2.90625 L 3.109375 -2.84375 C 3.722656 -2.625 4.03125 -2.191406 4.03125 -1.546875 C 4.03125 -1.210938 3.957031 -0.925781 3.8125 -0.6875 C 3.675781 -0.445312 3.46875 -0.257812 3.1875 -0.125 C 2.90625 0.0078125 2.554688 0.078125 2.140625 0.078125 Z M 2.140625 0.078125 "/></g></g></g><g fill="#ffffff" fill-opacity="1"><g transform="translate(139.553176, 59.058025)"><g><path d="M 2.578125 0.078125 C 2.140625 0.078125 1.757812 -0.015625 1.4375 -0.203125 C 1.125 -0.398438 0.878906 -0.695312 0.703125 -1.09375 C 0.523438 -1.5 0.4375 -2.007812 0.4375 -2.625 C 0.4375 -3.25 0.523438 -3.757812 0.703125 -4.15625 C 0.878906 -4.5625 1.125 -4.859375 1.4375 -5.046875 C 1.757812 -5.242188 2.140625 -5.34375 2.578125 -5.34375 C 3.003906 -5.34375 3.375 -5.242188 3.6875 -5.046875 C 4.007812 -4.859375 4.257812 -4.5625 4.4375 -4.15625 C 4.613281 -3.757812 4.703125 -3.25 4.703125 -2.625 C 4.703125 -2.007812 4.613281 -1.5 4.4375 -1.09375 C 4.257812 -0.695312 4.007812 -0.398438 3.6875 -0.203125 C 3.375 -0.015625 3.003906 0.078125 2.578125 0.078125 Z M 2.578125 -0.8125 C 2.804688 -0.8125 3 -0.867188 3.15625 -0.984375 C 3.320312 -1.097656 3.445312 -1.285156 3.53125 -1.546875 C 3.613281 -1.816406 3.65625 -2.175781 3.65625 -2.625 C 3.65625 -3.082031 3.613281 -3.441406 3.53125 -3.703125 C 3.445312 -3.972656 3.320312 -4.164062 3.15625 -4.28125 C 3 -4.394531 2.804688 -4.453125 2.578125 -4.453125 C 2.335938 -4.453125 2.140625 -4.394531 1.984375 -4.28125 C 1.828125 -4.164062 1.703125 -3.972656 1.609375 -3.703125 C 1.523438 -3.441406 1.484375 -3.082031 1.484375 -2.625 C 1.484375 -2.175781 1.523438 -1.816406 1.609375 -1.546875 C 1.703125 -1.285156 1.828125 -1.097656 1.984375 -0.984375 C 2.140625 -0.867188 2.335938 -0.8125 2.578125 -0.8125 Z M 2.578125 -0.8125 "/></g></g></g><g fill="#ffffff" fill-opacity="1"><g transform="translate(144.993273, 59.058025)"><g><path d="M 2.515625 0.078125 C 2.117188 0.078125 1.765625 -0.0078125 1.453125 -0.1875 C 1.140625 -0.375 0.890625 -0.664062 0.703125 -1.0625 C 0.523438 -1.457031 0.4375 -1.960938 0.4375 -2.578125 C 0.4375 -3.203125 0.53125 -3.71875 0.71875 -4.125 C 0.914062 -4.539062 1.179688 -4.847656 1.515625 -5.046875 C 1.847656 -5.242188 2.226562 -5.34375 2.65625 -5.34375 C 3.019531 -5.34375 3.328125 -5.289062 3.578125 -5.1875 C 3.835938 -5.082031 4.039062 -4.929688 4.1875 -4.734375 L 3.671875 -4.078125 L 3.59375 -4.078125 C 3.375 -4.335938 3.0625 -4.46875 2.65625 -4.46875 C 1.90625 -4.46875 1.523438 -3.914062 1.515625 -2.8125 L 1.59375 -2.796875 C 1.707031 -3.023438 1.863281 -3.195312 2.0625 -3.3125 C 2.269531 -3.425781 2.523438 -3.484375 2.828125 -3.484375 C 3.148438 -3.484375 3.429688 -3.414062 3.671875 -3.28125 C 3.910156 -3.144531 4.09375 -2.945312 4.21875 -2.6875 C 4.351562 -2.4375 4.421875 -2.132812 4.421875 -1.78125 C 4.421875 -1.394531 4.34375 -1.0625 4.1875 -0.78125 C 4.03125 -0.5 3.804688 -0.285156 3.515625 -0.140625 C 3.234375 0.00390625 2.898438 0.078125 2.515625 0.078125 Z M 2.5 -0.8125 C 2.769531 -0.8125 2.976562 -0.890625 3.125 -1.046875 C 3.28125 -1.210938 3.359375 -1.4375 3.359375 -1.71875 C 3.359375 -2.007812 3.28125 -2.234375 3.125 -2.390625 C 2.976562 -2.554688 2.769531 -2.640625 2.5 -2.640625 C 2.320312 -2.640625 2.164062 -2.597656 2.03125 -2.515625 C 1.894531 -2.441406 1.789062 -2.335938 1.71875 -2.203125 C 1.644531 -2.066406 1.609375 -1.90625 1.609375 -1.71875 C 1.609375 -1.4375 1.6875 -1.210938 1.84375 -1.046875 C 2 -0.890625 2.21875 -0.8125 2.5 -0.8125 Z M 2.5 -0.8125 "/></g></g></g><g fill="#ffffff" fill-opacity="1"><g transform="translate(150.069713, 59.058025)"><g><path d="M 2.515625 0.078125 C 2.117188 0.078125 1.765625 -0.0078125 1.453125 -0.1875 C 1.140625 -0.375 0.890625 -0.664062 0.703125 -1.0625 C 0.523438 -1.457031 0.4375 -1.960938 0.4375 -2.578125 C 0.4375 -3.203125 0.53125 -3.71875 0.71875 -4.125 C 0.914062 -4.539062 1.179688 -4.847656 1.515625 -5.046875 C 1.847656 -5.242188 2.226562 -5.34375 2.65625 -5.34375 C 3.019531 -5.34375 3.328125 -5.289062 3.578125 -5.1875 C 3.835938 -5.082031 4.039062 -4.929688 4.1875 -4.734375 L 3.671875 -4.078125 L 3.59375 -4.078125 C 3.375 -4.335938 3.0625 -4.46875 2.65625 -4.46875 C 1.90625 -4.46875 1.523438 -3.914062 1.515625 -2.8125 L 1.59375 -2.796875 C 1.707031 -3.023438 1.863281 -3.195312 2.0625 -3.3125 C 2.269531 -3.425781 2.523438 -3.484375 2.828125 -3.484375 C 3.148438 -3.484375 3.429688 -3.414062 3.671875 -3.28125 C 3.910156 -3.144531 4.09375 -2.945312 4.21875 -2.6875 C 4.351562 -2.4375 4.421875 -2.132812 4.421875 -1.78125 C 4.421875 -1.394531 4.34375 -1.0625 4.1875 -0.78125 C 4.03125 -0.5 3.804688 -0.285156 3.515625 -0.140625 C 3.234375 0.00390625 2.898438 0.078125 2.515625 0.078125 Z M 2.5 -0.8125 C 2.769531 -0.8125 2.976562 -0.890625 3.125 -1.046875 C 3.28125 -1.210938 3.359375 -1.4375 3.359375 -1.71875 C 3.359375 -2.007812 3.28125 -2.234375 3.125 -2.390625 C 2.976562 -2.554688 2.769531 -2.640625 2.5 -2.640625 C 2.320312 -2.640625 2.164062 -2.597656 2.03125 -2.515625 C 1.894531 -2.441406 1.789062 -2.335938 1.71875 -2.203125 C 1.644531 -2.066406 1.609375 -1.90625 1.609375 -1.71875 C 1.609375 -1.4375 1.6875 -1.210938 1.84375 -1.046875 C 2 -0.890625 2.21875 -0.8125 2.5 -0.8125 Z M 2.5 -0.8125 "/></g></g></g><g fill="#ffffff" fill-opacity="1"><g transform="translate(155.146154, 59.058025)"><g><path d="M 0.28125 0 L 0.28125 -0.859375 L 1.546875 -0.859375 L 1.546875 -4.140625 L 1.46875 -4.15625 C 1.289062 -4.070312 1.113281 -4.003906 0.9375 -3.953125 C 0.757812 -3.898438 0.5625 -3.859375 0.34375 -3.828125 L 0.34375 -4.71875 C 0.925781 -4.84375 1.394531 -5.023438 1.75 -5.265625 L 2.578125 -5.265625 L 2.578125 -0.859375 L 3.71875 -0.859375 L 3.71875 0 Z M 0.28125 0 "/></g></g></g><g fill="#ffffff" fill-opacity="1"><g transform="translate(159.326065, 59.058025)"><g><path d="M 0.25 -0.421875 C 0.25 -0.710938 0.28125 -0.957031 0.34375 -1.15625 C 0.414062 -1.351562 0.519531 -1.53125 0.65625 -1.6875 C 0.800781 -1.851562 1.007812 -2.035156 1.28125 -2.234375 L 1.984375 -2.734375 C 2.171875 -2.867188 2.316406 -2.988281 2.421875 -3.09375 C 2.523438 -3.195312 2.601562 -3.300781 2.65625 -3.40625 C 2.71875 -3.519531 2.75 -3.644531 2.75 -3.78125 C 2.75 -4 2.679688 -4.164062 2.546875 -4.28125 C 2.421875 -4.394531 2.226562 -4.453125 1.96875 -4.453125 C 1.71875 -4.453125 1.492188 -4.394531 1.296875 -4.28125 C 1.109375 -4.164062 0.953125 -4.003906 0.828125 -3.796875 L 0.75 -3.78125 L 0.1875 -4.421875 C 0.375 -4.691406 0.613281 -4.910156 0.90625 -5.078125 C 1.207031 -5.253906 1.578125 -5.34375 2.015625 -5.34375 C 2.398438 -5.34375 2.722656 -5.273438 2.984375 -5.140625 C 3.253906 -5.015625 3.453125 -4.835938 3.578125 -4.609375 C 3.710938 -4.390625 3.78125 -4.132812 3.78125 -3.84375 C 3.78125 -3.59375 3.726562 -3.363281 3.625 -3.15625 C 3.519531 -2.945312 3.375 -2.753906 3.1875 -2.578125 C 3 -2.410156 2.765625 -2.222656 2.484375 -2.015625 L 1.859375 -1.578125 C 1.671875 -1.453125 1.539062 -1.332031 1.46875 -1.21875 C 1.394531 -1.113281 1.359375 -1 1.359375 -0.875 L 3.734375 -0.875 L 3.734375 0 L 0.25 0 Z M 0.25 -0.421875 "/></g></g></g><g fill="#ffffff" fill-opacity="1"><g transform="translate(163.729209, 59.058025)"><g><path d="M 2.140625 0.078125 C 1.578125 0.078125 1.128906 -0.0390625 0.796875 -0.28125 C 0.472656 -0.519531 0.265625 -0.859375 0.171875 -1.296875 L 0.96875 -1.65625 L 1.046875 -1.65625 C 1.128906 -1.363281 1.253906 -1.148438 1.421875 -1.015625 C 1.585938 -0.878906 1.816406 -0.8125 2.109375 -0.8125 C 2.390625 -0.8125 2.601562 -0.875 2.75 -1 C 2.90625 -1.132812 2.984375 -1.332031 2.984375 -1.59375 C 2.984375 -1.832031 2.90625 -2.019531 2.75 -2.15625 C 2.601562 -2.289062 2.390625 -2.359375 2.109375 -2.359375 L 1.3125 -2.359375 L 1.3125 -3.171875 L 2.015625 -3.171875 C 2.242188 -3.171875 2.425781 -3.226562 2.5625 -3.34375 C 2.707031 -3.457031 2.78125 -3.625 2.78125 -3.84375 C 2.78125 -4.0625 2.710938 -4.222656 2.578125 -4.328125 C 2.453125 -4.441406 2.273438 -4.5 2.046875 -4.5 C 1.804688 -4.5 1.59375 -4.441406 1.40625 -4.328125 C 1.226562 -4.222656 1.085938 -4.078125 0.984375 -3.890625 L 0.890625 -3.875 L 0.34375 -4.515625 C 0.53125 -4.765625 0.769531 -4.960938 1.0625 -5.109375 C 1.351562 -5.265625 1.695312 -5.34375 2.09375 -5.34375 C 2.644531 -5.34375 3.066406 -5.226562 3.359375 -5 C 3.648438 -4.769531 3.796875 -4.441406 3.796875 -4.015625 C 3.796875 -3.765625 3.738281 -3.550781 3.625 -3.375 C 3.507812 -3.195312 3.335938 -3.039062 3.109375 -2.90625 L 3.109375 -2.84375 C 3.722656 -2.625 4.03125 -2.191406 4.03125 -1.546875 C 4.03125 -1.210938 3.957031 -0.925781 3.8125 -0.6875 C 3.675781 -0.445312 3.46875 -0.257812 3.1875 -0.125 C 2.90625 0.0078125 2.554688 0.078125 2.140625 0.078125 Z M 2.140625 0.078125 "/></g></g></g><g fill="#ffffff" fill-opacity="1"><g transform="translate(168.380788, 59.058025)"><g><path d="M 0.25 -0.421875 C 0.25 -0.710938 0.28125 -0.957031 0.34375 -1.15625 C 0.414062 -1.351562 0.519531 -1.53125 0.65625 -1.6875 C 0.800781 -1.851562 1.007812 -2.035156 1.28125 -2.234375 L 1.984375 -2.734375 C 2.171875 -2.867188 2.316406 -2.988281 2.421875 -3.09375 C 2.523438 -3.195312 2.601562 -3.300781 2.65625 -3.40625 C 2.71875 -3.519531 2.75 -3.644531 2.75 -3.78125 C 2.75 -4 2.679688 -4.164062 2.546875 -4.28125 C 2.421875 -4.394531 2.226562 -4.453125 1.96875 -4.453125 C 1.71875 -4.453125 1.492188 -4.394531 1.296875 -4.28125 C 1.109375 -4.164062 0.953125 -4.003906 0.828125 -3.796875 L 0.75 -3.78125 L 0.1875 -4.421875 C 0.375 -4.691406 0.613281 -4.910156 0.90625 -5.078125 C 1.207031 -5.253906 1.578125 -5.34375 2.015625 -5.34375 C 2.398438 -5.34375 2.722656 -5.273438 2.984375 -5.140625 C 3.253906 -5.015625 3.453125 -4.835938 3.578125 -4.609375 C 3.710938 -4.390625 3.78125 -4.132812 3.78125 -3.84375 C 3.78125 -3.59375 3.726562 -3.363281 3.625 -3.15625 C 3.519531 -2.945312 3.375 -2.753906 3.1875 -2.578125 C 3 -2.410156 2.765625 -2.222656 2.484375 -2.015625 L 1.859375 -1.578125 C 1.671875 -1.453125 1.539062 -1.332031 1.46875 -1.21875 C 1.394531 -1.113281 1.359375 -1 1.359375 -0.875 L 3.734375 -0.875 L 3.734375 0 L 0.25 0 Z M 0.25 -0.421875 "/></g></g></g><g fill="#ffffff" fill-opacity="1"><g transform="translate(172.783932, 59.058025)"><g><path d="M 2.578125 0.078125 C 2.140625 0.078125 1.757812 -0.015625 1.4375 -0.203125 C 1.125 -0.398438 0.878906 -0.695312 0.703125 -1.09375 C 0.523438 -1.5 0.4375 -2.007812 0.4375 -2.625 C 0.4375 -3.25 0.523438 -3.757812 0.703125 -4.15625 C 0.878906 -4.5625 1.125 -4.859375 1.4375 -5.046875 C 1.757812 -5.242188 2.140625 -5.34375 2.578125 -5.34375 C 3.003906 -5.34375 3.375 -5.242188 3.6875 -5.046875 C 4.007812 -4.859375 4.257812 -4.5625 4.4375 -4.15625 C 4.613281 -3.757812 4.703125 -3.25 4.703125 -2.625 C 4.703125 -2.007812 4.613281 -1.5 4.4375 -1.09375 C 4.257812 -0.695312 4.007812 -0.398438 3.6875 -0.203125 C 3.375 -0.015625 3.003906 0.078125 2.578125 0.078125 Z M 2.578125 -0.8125 C 2.804688 -0.8125 3 -0.867188 3.15625 -0.984375 C 3.320312 -1.097656 3.445312 -1.285156 3.53125 -1.546875 C 3.613281 -1.816406 3.65625 -2.175781 3.65625 -2.625 C 3.65625 -3.082031 3.613281 -3.441406 3.53125 -3.703125 C 3.445312 -3.972656 3.320312 -4.164062 3.15625 -4.28125 C 3 -4.394531 2.804688 -4.453125 2.578125 -4.453125 C 2.335938 -4.453125 2.140625 -4.394531 1.984375 -4.28125 C 1.828125 -4.164062 1.703125 -3.972656 1.609375 -3.703125 C 1.523438 -3.441406 1.484375 -3.082031 1.484375 -2.625 C 1.484375 -2.175781 1.523438 -1.816406 1.609375 -1.546875 C 1.703125 -1.285156 1.828125 -1.097656 1.984375 -0.984375 C 2.140625 -0.867188 2.335938 -0.8125 2.578125 -0.8125 Z M 2.578125 -0.8125 "/></g></g></g><g fill="#ffffff" fill-opacity="1"><g transform="translate(178.224024, 59.058025)"><g><path d="M 2.265625 0.078125 C 1.835938 0.078125 1.476562 0.015625 1.1875 -0.109375 C 0.90625 -0.242188 0.691406 -0.429688 0.546875 -0.671875 C 0.398438 -0.910156 0.328125 -1.195312 0.328125 -1.53125 C 0.328125 -1.832031 0.398438 -2.09375 0.546875 -2.3125 C 0.703125 -2.539062 0.925781 -2.71875 1.21875 -2.84375 L 1.21875 -2.921875 C 1.007812 -3.046875 0.847656 -3.195312 0.734375 -3.375 C 0.628906 -3.550781 0.578125 -3.753906 0.578125 -3.984375 C 0.578125 -4.253906 0.640625 -4.488281 0.765625 -4.6875 C 0.898438 -4.894531 1.09375 -5.054688 1.34375 -5.171875 C 1.601562 -5.285156 1.910156 -5.34375 2.265625 -5.34375 C 2.609375 -5.34375 2.90625 -5.285156 3.15625 -5.171875 C 3.414062 -5.054688 3.609375 -4.894531 3.734375 -4.6875 C 3.867188 -4.488281 3.9375 -4.253906 3.9375 -3.984375 C 3.9375 -3.753906 3.878906 -3.550781 3.765625 -3.375 C 3.660156 -3.195312 3.503906 -3.046875 3.296875 -2.921875 L 3.296875 -2.84375 C 3.597656 -2.71875 3.820312 -2.539062 3.96875 -2.3125 C 4.113281 -2.09375 4.1875 -1.832031 4.1875 -1.53125 C 4.1875 -1.195312 4.113281 -0.910156 3.96875 -0.671875 C 3.820312 -0.429688 3.601562 -0.242188 3.3125 -0.109375 C 3.03125 0.015625 2.679688 0.078125 2.265625 0.078125 Z M 2.265625 -3.21875 C 2.472656 -3.21875 2.632812 -3.273438 2.75 -3.390625 C 2.875 -3.503906 2.9375 -3.664062 2.9375 -3.875 C 2.9375 -4.070312 2.875 -4.226562 2.75 -4.34375 C 2.632812 -4.46875 2.472656 -4.53125 2.265625 -4.53125 C 2.046875 -4.53125 1.875 -4.472656 1.75 -4.359375 C 1.625 -4.242188 1.5625 -4.082031 1.5625 -3.875 C 1.5625 -3.664062 1.625 -3.503906 1.75 -3.390625 C 1.875 -3.273438 2.046875 -3.21875 2.265625 -3.21875 Z M 2.265625 -0.8125 C 2.535156 -0.8125 2.75 -0.878906 2.90625 -1.015625 C 3.0625 -1.160156 3.140625 -1.359375 3.140625 -1.609375 C 3.140625 -1.859375 3.0625 -2.050781 2.90625 -2.1875 C 2.75 -2.332031 2.535156 -2.40625 2.265625 -2.40625 C 1.972656 -2.40625 1.75 -2.332031 1.59375 -2.1875 C 1.445312 -2.050781 1.375 -1.859375 1.375 -1.609375 C 1.375 -1.359375 1.445312 -1.160156 1.59375 -1.015625 C 1.75 -0.878906 1.972656 -0.8125 2.265625 -0.8125 Z M 2.265625 -0.8125 "/></g></g></g><g fill="#ffffff" fill-opacity="1"><g transform="translate(183.034027, 59.058025)"><g><path d="M 0.25 -0.421875 C 0.25 -0.710938 0.28125 -0.957031 0.34375 -1.15625 C 0.414062 -1.351562 0.519531 -1.53125 0.65625 -1.6875 C 0.800781 -1.851562 1.007812 -2.035156 1.28125 -2.234375 L 1.984375 -2.734375 C 2.171875 -2.867188 2.316406 -2.988281 2.421875 -3.09375 C 2.523438 -3.195312 2.601562 -3.300781 2.65625 -3.40625 C 2.71875 -3.519531 2.75 -3.644531 2.75 -3.78125 C 2.75 -4 2.679688 -4.164062 2.546875 -4.28125 C 2.421875 -4.394531 2.226562 -4.453125 1.96875 -4.453125 C 1.71875 -4.453125 1.492188 -4.394531 1.296875 -4.28125 C 1.109375 -4.164062 0.953125 -4.003906 0.828125 -3.796875 L 0.75 -3.78125 L 0.1875 -4.421875 C 0.375 -4.691406 0.613281 -4.910156 0.90625 -5.078125 C 1.207031 -5.253906 1.578125 -5.34375 2.015625 -5.34375 C 2.398438 -5.34375 2.722656 -5.273438 2.984375 -5.140625 C 3.253906 -5.015625 3.453125 -4.835938 3.578125 -4.609375 C 3.710938 -4.390625 3.78125 -4.132812 3.78125 -3.84375 C 3.78125 -3.59375 3.726562 -3.363281 3.625 -3.15625 C 3.519531 -2.945312 3.375 -2.753906 3.1875 -2.578125 C 3 -2.410156 2.765625 -2.222656 2.484375 -2.015625 L 1.859375 -1.578125 C 1.671875 -1.453125 1.539062 -1.332031 1.46875 -1.21875 C 1.394531 -1.113281 1.359375 -1 1.359375 -0.875 L 3.734375 -0.875 L 3.734375 0 L 0.25 0 Z M 0.25 -0.421875 "/></g></g></g><g fill="#ffffff" fill-opacity="1"><g transform="translate(187.43717, 59.058025)"><g><path d="M 2.1875 0.078125 C 1.664062 0.078125 1.25 -0.03125 0.9375 -0.25 C 0.632812 -0.476562 0.4375 -0.789062 0.34375 -1.1875 L 1.125 -1.53125 L 1.203125 -1.515625 C 1.285156 -1.285156 1.398438 -1.109375 1.546875 -0.984375 C 1.703125 -0.867188 1.914062 -0.8125 2.1875 -0.8125 C 2.457031 -0.8125 2.664062 -0.890625 2.8125 -1.046875 C 2.96875 -1.203125 3.046875 -1.4375 3.046875 -1.75 C 3.046875 -2.050781 2.96875 -2.28125 2.8125 -2.4375 C 2.664062 -2.601562 2.46875 -2.6875 2.21875 -2.6875 C 2.019531 -2.6875 1.851562 -2.644531 1.71875 -2.5625 C 1.59375 -2.476562 1.484375 -2.351562 1.390625 -2.1875 L 0.53125 -2.25 L 0.640625 -5.265625 L 3.78125 -5.265625 L 3.78125 -4.390625 L 1.515625 -4.390625 L 1.46875 -3.046875 L 1.546875 -3.03125 C 1.660156 -3.1875 1.800781 -3.304688 1.96875 -3.390625 C 2.144531 -3.472656 2.351562 -3.515625 2.59375 -3.515625 C 2.894531 -3.515625 3.15625 -3.445312 3.375 -3.3125 C 3.601562 -3.1875 3.78125 -2.988281 3.90625 -2.71875 C 4.03125 -2.457031 4.09375 -2.140625 4.09375 -1.765625 C 4.09375 -1.378906 4.015625 -1.046875 3.859375 -0.765625 C 3.710938 -0.492188 3.5 -0.285156 3.21875 -0.140625 C 2.9375 0.00390625 2.59375 0.078125 2.1875 0.078125 Z M 2.1875 0.078125 "/></g></g></g><g fill="#ffffff" fill-opacity="1"><g transform="translate(192.16796, 59.058025)"><g><path d="M 5.160156 -4.535156 L 2.160156 -4.535156 L 2.160156 -5.226562 L 5.160156 -5.226562 Z M 6.089844 -5.996094 L 1.28125 -5.996094 L 1.28125 -3.777344 L 6.089844 -3.777344 Z M 6.9375 -2.523438 L 6.9375 -3.3125 L 0.40625 -3.3125 L 0.40625 -2.523438 L 1.785156 -2.523438 C 1.644531 -2.042969 1.460938 -1.542969 1.3125 -1.179688 L 1.851562 -1.179688 L 1.851562 -1.171875 L 5.074219 -1.171875 C 4.976562 -0.640625 4.867188 -0.359375 4.734375 -0.25 C 4.636719 -0.191406 4.542969 -0.183594 4.378906 -0.183594 C 4.152344 -0.183594 3.605469 -0.191406 3.121094 -0.234375 C 3.28125 0 3.398438 0.347656 3.421875 0.597656 C 3.929688 0.625 4.410156 0.621094 4.695312 0.605469 C 5.035156 0.582031 5.28125 0.53125 5.5 0.324219 C 5.757812 0.0820312 5.9375 -0.472656 6.082031 -1.601562 C 6.105469 -1.71875 6.128906 -1.96875 6.128906 -1.96875 L 2.59375 -1.96875 C 2.660156 -2.152344 2.722656 -2.335938 2.78125 -2.523438 Z M 6.9375 -2.523438 "/></g></g></g></svg>