<svg xmlns="http://www.w3.org/2000/svg" xmlns:xlink="http://www.w3.org/1999/xlink" width="531" zoomAndPan="magnify" viewBox="0 0 398.25 87.749997" height="117" preserveAspectRatio="xMidYMid meet" version="1.0"><defs><g/><clipPath id="39c3f1f4b8"><path d="M 57.464844 1.019531 L 322.953125 1.019531 L 322.953125 87.5 L 57.464844 87.5 Z M 57.464844 1.019531 " clip-rule="nonzero"/></clipPath><clipPath id="74ea3835ee"><path d="M 64.195312 1.019531 L 316.222656 1.019531 C 318.007812 1.019531 319.71875 1.726562 320.980469 2.988281 C 322.242188 4.253906 322.953125 5.964844 322.953125 7.75 L 322.953125 80.769531 C 322.953125 82.554688 322.242188 84.265625 320.980469 85.527344 C 319.71875 86.792969 318.007812 87.5 316.222656 87.5 L 64.195312 87.5 C 62.410156 87.5 60.699219 86.792969 59.4375 85.527344 C 58.175781 84.265625 57.464844 82.554688 57.464844 80.769531 L 57.464844 7.75 C 57.464844 5.964844 58.175781 4.253906 59.4375 2.988281 C 60.699219 1.726562 62.410156 1.019531 64.195312 1.019531 Z M 64.195312 1.019531 " clip-rule="nonzero"/></clipPath><clipPath id="861d218692"><path d="M 57.464844 1.019531 L 319.230469 1.019531 L 319.230469 84.484375 L 57.464844 84.484375 Z M 57.464844 1.019531 " clip-rule="nonzero"/></clipPath><clipPath id="63f38843f1"><path d="M 64.195312 1.019531 L 312.5 1.019531 C 314.285156 1.019531 315.996094 1.726562 317.257812 2.988281 C 318.519531 4.253906 319.230469 5.964844 319.230469 7.75 L 319.230469 77.753906 C 319.230469 79.539062 318.519531 81.25 317.257812 82.515625 C 315.996094 83.777344 314.285156 84.484375 312.5 84.484375 L 64.195312 84.484375 C 62.410156 84.484375 60.699219 83.777344 59.4375 82.515625 C 58.175781 81.25 57.464844 79.539062 57.464844 77.753906 L 57.464844 7.75 C 57.464844 5.964844 58.175781 4.253906 59.4375 2.988281 C 60.699219 1.726562 62.410156 1.019531 64.195312 1.019531 Z M 64.195312 1.019531 " clip-rule="nonzero"/></clipPath><clipPath id="d80a7e1b6d"><path d="M 57.464844 0 L 315.222656 0 L 315.222656 82.128906 L 57.464844 82.128906 Z M 57.464844 0 " clip-rule="nonzero"/></clipPath><clipPath id="a6b8ffb5f4"><path d="M 64.195312 0 L 308.492188 0 C 310.277344 0 311.988281 0.710938 313.25 1.972656 C 314.511719 3.234375 315.222656 4.945312 315.222656 6.730469 L 315.222656 75.398438 C 315.222656 77.183594 314.511719 78.894531 313.25 80.15625 C 311.988281 81.417969 310.277344 82.128906 308.492188 82.128906 L 64.195312 82.128906 C 62.410156 82.128906 60.699219 81.417969 59.4375 80.15625 C 58.175781 78.894531 57.464844 77.183594 57.464844 75.398438 L 57.464844 6.730469 C 57.464844 4.945312 58.175781 3.234375 59.4375 1.972656 C 60.699219 0.710938 62.410156 0 64.195312 0 Z M 64.195312 0 " clip-rule="nonzero"/></clipPath><clipPath id="6eb297521e"><path d="M 87 15.4375 L 112 15.4375 L 112 49 L 87 49 Z M 87 15.4375 " clip-rule="nonzero"/></clipPath><clipPath id="50c232b2cd"><path d="M 87 15.4375 L 112 15.4375 L 112 26 L 87 26 Z M 87 15.4375 " clip-rule="nonzero"/></clipPath><clipPath id="190b496248"><path d="M 100 58 L 108 58 L 108 64.050781 L 100 64.050781 Z M 100 58 " clip-rule="nonzero"/></clipPath><clipPath id="686193b1cd"><path d="M 106 58 L 114 58 L 114 64.050781 L 106 64.050781 Z M 106 58 " clip-rule="nonzero"/></clipPath><clipPath id="58d80946cd"><path d="M 77.898438 28 L 86 28 L 86 37 L 77.898438 37 Z M 77.898438 28 " clip-rule="nonzero"/></clipPath><clipPath id="7061a80ce8"><path d="M 113 15.4375 L 120 15.4375 L 120 22 L 113 22 Z M 113 15.4375 " clip-rule="nonzero"/></clipPath><clipPath id="9cf98bef82"><path d="M 115 24 L 127.257812 24 L 127.257812 33 L 115 33 Z M 115 24 " clip-rule="nonzero"/></clipPath></defs><g clip-path="url(#39c3f1f4b8)"><g clip-path="url(#74ea3835ee)"><path fill="#abd94f" d="M 57.464844 1.019531 L 322.953125 1.019531 L 322.953125 87.5 L 57.464844 87.5 Z M 57.464844 1.019531 " fill-opacity="1" fill-rule="nonzero"/></g></g><g clip-path="url(#861d218692)"><g clip-path="url(#63f38843f1)"><path fill="#ffffff" d="M 57.464844 1.019531 L 319.230469 1.019531 L 319.230469 84.484375 L 57.464844 84.484375 Z M 57.464844 1.019531 " fill-opacity="1" fill-rule="nonzero"/></g></g><g clip-path="url(#d80a7e1b6d)"><g clip-path="url(#a6b8ffb5f4)"><path fill="#ffad1e" d="M 57.464844 0 L 315.222656 0 L 315.222656 82.128906 L 57.464844 82.128906 Z M 57.464844 0 " fill-opacity="1" fill-rule="nonzero"/></g></g><path stroke-linecap="butt" transform="matrix(0.573852, 0, 0, 0.573852, 128.436169, 10.783309)" fill="none" stroke-linejoin="miter" d="M 42.526097 21.091528 L 39.714776 21.091528 L 39.714776 16.387841 L 42.526097 16.387841 Z M 42.526097 29.729702 L 39.714776 29.729702 L 39.714776 25.019208 L 42.526097 25.019208 Z M 26.958324 25.019208 L 29.59266 25.019208 L 29.59266 29.729702 L 26.958324 29.729702 Z M 36.038957 25.019208 L 36.038957 29.729702 L 33.295707 29.729702 L 33.295707 25.019208 Z M 33.295707 21.091528 L 33.295707 16.387841 L 36.038957 16.387841 L 36.038957 21.091528 Z M 26.958324 16.387841 L 29.59266 16.387841 L 29.59266 21.091528 L 26.958324 21.091528 Z M 23.071486 21.091528 L 19.245911 21.091528 L 19.245911 25.019208 L 23.071486 25.019208 L 23.071486 29.729702 L 18.211236 29.729702 L 18.211236 33.66419 L 51.279991 33.66419 L 51.279991 29.729702 L 46.569498 29.729702 L 46.569498 25.019208 L 50.129596 25.019208 L 50.129596 21.091528 L 46.569498 21.091528 L 46.569498 16.387841 L 50.238509 16.387841 L 50.238509 12.494196 L 27.809208 12.494196 C 28.326545 11.643312 28.816654 10.751586 29.259114 9.900702 L 24.957044 8.607358 C 23.330154 12.051737 20.396306 15.421237 17.285474 17.504201 C 18.279307 18.164487 20.06276 19.573551 20.879608 20.349557 C 21.580737 19.798184 22.322708 19.131091 23.071486 18.423156 Z M 21.92109 43.255354 C 23.690929 41.294917 25.256556 38.299806 26.148282 35.508906 L 21.846213 34.481038 C 20.988522 37.115375 19.320789 40.001574 17.653056 41.553586 Z M 28.483108 35.740347 C 28.884725 38.03433 29.184236 41.043056 29.184236 42.853737 L 33.520341 42.227486 C 33.486305 40.444033 33.077881 37.516992 32.601386 35.29108 Z M 35.821131 35.808417 C 36.672015 38.109208 37.522899 41.077091 37.747532 42.853737 L 42.158515 42.036888 C 41.818161 40.178557 40.899207 37.292359 39.973445 35.141324 Z M 43.159155 35.631433 C 44.826887 38.000294 46.753288 41.260882 47.570137 43.221319 L 52.090033 41.744184 C 51.130236 39.668027 49.088114 36.550388 47.386346 34.29044 Z M 83.85183 15.087691 C 82.6674 13.719469 80.033063 11.827103 77.963713 10.60183 L 75.846714 13.576521 C 77.888835 14.937935 80.441487 16.939214 81.591882 18.38912 Z M 74.144946 22.915823 C 76.289173 24.168324 78.991581 26.169604 80.223661 27.510597 L 82.442766 23.991341 C 81.115387 22.684383 78.372137 20.866895 76.214295 19.716499 Z M 70.802673 10.642673 C 70.394249 13.236167 69.543365 16.97325 68.767359 19.308075 L 71.544644 20.090888 C 72.477213 17.946661 73.545923 14.420598 74.512527 11.452714 Z M 63.621213 19.308075 C 63.430614 17.014092 62.688644 13.494836 61.728847 10.819657 L 58.65205 11.643312 C 59.502934 14.304877 60.244905 17.905818 60.312976 20.172573 Z M 73.736521 31.513155 C 72.960515 30.471673 69.434452 26.326166 68.358935 25.250649 L 68.358935 24.985173 L 73.845434 24.985173 L 73.845434 20.866895 L 68.358935 20.866895 L 68.358935 8.750307 L 64.281498 8.750307 L 64.281498 20.866895 L 58.686085 20.866895 L 58.686085 24.985173 L 62.913277 24.985173 C 61.762882 28.361481 59.870516 32.323197 58.018992 34.589951 C 58.686085 35.808417 59.645883 37.809696 60.013464 39.15069 C 61.606319 36.924777 63.090261 33.473592 64.281498 30.029213 L 64.281498 43.112405 L 68.358935 43.112405 L 68.358935 30.097284 C 69.434452 31.812666 70.469127 33.739067 71.027307 34.923498 Z M 93.347695 32.364039 L 92.680602 28.252568 L 88.89587 28.946889 L 88.89587 8.566516 L 84.743556 8.566516 L 84.743556 29.68886 L 73.736521 31.656103 L 74.403614 35.774382 L 84.743556 33.916051 L 84.743556 43.187283 L 88.89587 43.187283 L 88.89587 33.17408 Z M 109.017575 25.359562 L 124.51047 25.359562 L 124.51047 27.653545 L 109.017575 27.653545 Z M 109.017575 19.464638 L 124.51047 19.464638 L 124.51047 21.765428 L 109.017575 21.765428 Z M 109.017575 13.610556 L 124.51047 13.610556 L 124.51047 15.911346 L 109.017575 15.911346 Z M 124.585348 38.742265 C 123.183091 38.742265 122.958458 38.585703 122.958458 37.401272 L 122.958458 31.513155 L 129.003138 31.513155 L 129.003138 9.750946 L 104.756348 9.750946 L 104.756348 31.513155 L 109.28305 31.513155 C 108.649993 35.549749 107.057138 38.03433 99.453639 39.450201 C 100.304523 40.369155 101.488953 42.193451 101.904185 43.377881 C 111.052889 41.294917 113.244766 37.401272 114.027579 31.513155 L 118.51344 31.513155 L 118.51344 37.442115 C 118.51344 41.594428 119.548115 42.935422 123.959097 42.935422 L 128.846575 42.935422 C 132.522394 42.935422 133.672789 41.410637 134.149284 35.549749 C 133.005696 35.257044 131.038452 34.515074 130.11269 33.807138 C 129.928899 38.109208 129.697459 38.742265 128.438151 38.742265 Z M 154.720255 28.626956 C 154.087197 27.844143 151.418825 25.094086 150.227588 23.991341 L 150.227588 22.793296 L 153.903406 22.793296 L 153.903406 20.792017 L 174.882802 20.792017 L 174.882802 18.055574 L 166.469261 18.055574 L 166.469261 16.796266 L 173.289947 16.796266 L 173.289947 14.236807 L 166.469261 14.236807 L 166.469261 12.977498 L 174.140831 12.977498 L 174.140831 10.309126 L 166.469261 10.309126 L 166.469261 8.641394 L 162.058278 8.641394 L 162.058278 10.309126 L 154.829168 10.309126 L 154.829168 12.977498 L 162.058278 12.977498 L 162.058278 14.236807 L 155.496261 14.236807 L 155.496261 16.796266 L 162.058278 16.796266 L 162.058278 18.055574 L 153.678773 18.055574 L 153.678773 18.688632 L 150.227588 18.688632 L 150.227588 13.678627 C 151.786407 13.311045 153.270349 12.868585 154.611342 12.344441 L 151.677494 8.97494 C 148.900209 10.159371 144.530068 11.16001 140.554738 11.71819 C 141.010812 12.643952 141.562185 14.161929 141.739169 15.087691 C 143.080162 14.937935 144.489226 14.760951 145.932325 14.529511 L 145.932325 18.688632 L 141.010812 18.688632 L 141.010812 22.793296 L 145.639621 22.793296 C 144.264593 26.469115 142.147593 30.587393 140.037401 33.031132 C 140.745336 34.147492 141.671098 35.96498 142.079523 37.224288 C 143.454551 35.440835 144.78193 32.997097 145.932325 30.321917 L 145.932325 43.187283 L 150.227588 43.187283 L 150.227588 28.729063 C 151.010401 29.954336 151.786407 31.213644 152.201638 32.064528 Z M 159.907244 32.956254 L 168.919807 32.956254 L 168.919807 34.515074 L 159.907244 34.515074 Z M 159.907244 28.837976 L 168.919807 28.837976 L 168.919807 30.430831 L 159.907244 30.430831 Z M 159.907244 24.767347 L 168.919807 24.767347 L 168.919807 26.326166 L 159.907244 26.326166 Z M 173.112963 37.258324 L 173.112963 22.064939 L 155.979563 22.064939 L 155.979563 37.258324 L 159.206115 37.258324 C 157.354592 38.517632 154.420744 39.89266 151.902127 40.634631 C 152.718976 41.410637 153.944249 42.595068 154.611342 43.377881 C 157.572418 42.40447 161.24143 40.634631 163.508185 38.885214 L 161.016796 37.258324 L 167.769412 37.258324 L 165.468621 38.926056 C 167.660498 40.301085 170.21315 42.111766 171.588179 43.255354 L 175.447789 41.186004 C 173.95704 40.144522 171.397581 38.585703 169.137633 37.258324 Z M 204.500371 24.842225 C 206.869232 27.102172 208.271489 29.47784 208.271489 31.955615 C 208.271489 34.998376 205.460168 37.333201 200.348057 37.333201 C 196.719888 37.333201 194.861558 35.665469 194.861558 32.66355 C 194.861558 31.98965 194.936435 31.070695 195.004506 29.988371 C 195.487808 29.988371 196.011953 29.988371 196.488448 29.988371 C 198.755203 29.988371 200.89943 29.845422 202.982394 29.654824 L 203.091307 25.284684 C 200.681604 25.543353 197.972389 25.727144 195.712442 25.727144 L 195.453773 25.727144 C 195.637564 24.100254 195.85539 22.350836 196.08683 20.723946 C 199.054714 20.723946 201.055993 20.615033 203.234256 20.3904 L 203.390819 16.013452 C 201.641401 16.278928 199.27254 16.421877 196.638203 16.462719 C 196.828801 15.271482 196.937714 14.304877 197.046628 13.678627 C 197.196383 12.712023 197.380174 11.752225 197.679685 10.411232 L 192.526732 10.125335 C 192.60161 11.343801 192.526732 12.378476 192.445047 13.385923 C 192.370169 14.195964 192.302099 15.203411 192.15915 16.312964 C 189.483971 16.08833 186.747528 15.64587 184.623722 14.937935 L 184.37186 19.199162 C 186.516087 19.798184 189.116389 20.240644 191.669041 20.50612 C 191.451215 22.173852 191.260617 23.87562 191.04279 25.502511 C 188.673929 25.284684 186.182541 24.87626 183.81368 24.059411 L 183.548204 28.504429 C 185.522255 29.069416 187.931958 29.47784 190.600331 29.729702 C 190.443768 31.247679 190.334855 32.554637 190.334855 33.439556 C 190.334855 39.559114 194.419098 42.070923 200.205109 42.070923 C 208.237454 42.070923 213.206616 38.075172 213.206616 32.554637 C 213.206616 29.436998 212.097063 26.843504 209.653325 23.725865 Z M 229.740994 10.125335 C 229.700151 11.16001 229.632081 12.643952 229.441483 13.978138 C 228.89011 17.756063 228.400001 22.316801 228.400001 25.727144 C 228.400001 28.170883 228.658669 30.430831 228.84246 31.846701 L 233.403198 31.54719 C 233.185372 29.845422 233.185372 28.660992 233.219407 27.653545 C 233.403198 22.840945 237.18793 16.312964 241.524035 16.312964 C 244.559989 16.312964 246.452355 19.464638 246.452355 25.141736 C 246.452355 34.038579 240.741222 36.693337 232.58635 37.966259 L 235.370442 42.227486 C 245.084134 40.444033 251.455553 35.474871 251.455553 25.094086 C 251.455553 17.014092 247.493837 12.017701 242.381726 12.017701 C 238.229412 12.017701 235.043703 15.128533 233.294285 17.946661 C 233.518919 15.911346 234.260889 12.16065 234.778227 10.343162 Z M 291.671733 12.977498 C 290.671094 13.236167 289.486663 13.277009 288.744692 13.277009 L 271.6181 13.277009 C 270.399634 13.277009 268.275827 13.086411 267.166275 12.977498 L 267.166275 18.20533 C 268.132879 18.123645 269.916332 18.055574 271.584064 18.055574 L 288.860413 18.055574 C 288.370303 21.200441 286.968047 25.427633 284.517501 28.504429 C 281.522389 32.255126 277.329233 35.474871 269.991209 37.183446 L 274.027803 41.628464 C 280.623856 39.518271 285.558983 35.84926 288.928483 31.404242 C 292.012087 27.285963 293.638977 21.540795 294.489861 17.905818 C 294.680459 17.095777 294.966356 16.054295 295.299903 15.312324 Z M 291.671733 12.977498 " stroke="#000000" stroke-width="2.780932" stroke-opacity="1" stroke-miterlimit="4"/><path stroke-linecap="butt" transform="matrix(0.573852, 0, 0, 0.573852, 128.436169, 10.783309)" fill="none" stroke-linejoin="miter" d="M 41.00812 73.281348 L 40.967277 71.014593 C 40.967277 70.02076 41.00812 68.83633 41.12384 67.937796 L 36.338469 67.937796 C 36.488224 68.945243 36.597137 70.129674 36.63798 71.014593 C 36.672015 71.722528 36.70605 72.464499 36.70605 73.281348 L 26.624777 73.281348 C 25.66498 73.281348 24.147003 73.172435 23.248469 73.063521 L 23.248469 77.617453 C 24.323987 77.542575 25.66498 77.467697 26.73369 77.467697 L 34.670736 77.467697 C 32.070435 80.918882 26.924288 85.037161 21.68965 87.440057 L 24.923009 91.143104 C 29.293149 88.849121 34.296347 84.703614 36.896648 81.395377 C 36.930684 84.213505 36.971526 86.915913 36.971526 88.740208 C 36.971526 89.482179 36.70605 89.883796 35.998115 89.883796 C 35.045125 89.883796 33.261672 89.774883 31.736888 89.550249 L 32.036399 93.777441 C 33.704132 93.886354 35.998115 93.968039 37.781568 93.968039 C 39.93941 93.968039 41.409737 92.627046 41.375702 90.700645 C 41.341666 86.915913 41.232753 81.878679 41.12384 77.467697 L 45.568858 77.467697 C 46.3789 77.467697 47.529295 77.508539 48.380179 77.542575 L 48.380179 73.063521 C 47.760735 73.131592 46.344864 73.281348 45.385067 73.281348 Z M 60.612487 79.659574 C 61.980708 79.543854 64.472096 79.468976 66.575482 79.468976 L 86.486167 79.468976 C 88.044986 79.468976 89.937352 79.625539 90.822272 79.659574 L 90.822272 73.839528 C 89.862474 73.914405 88.187935 74.057354 86.486167 74.057354 L 66.575482 74.057354 C 64.64908 74.057354 61.946673 73.948441 60.612487 73.839528 Z M 133.557069 90.448783 C 131.855301 86.296469 128.070569 79.026516 125.436232 75.023958 L 120.800616 76.916324 C 122.032696 78.550021 123.400917 81.027796 124.701068 83.696168 C 120.957179 84.138627 115.688505 84.73765 111.175416 85.180109 C 113.020133 80.210947 116.022052 70.796767 117.213289 67.16179 C 117.771469 65.5349 118.288806 64.166679 118.806144 63.050319 L 112.91122 61.865888 C 112.768271 63.091161 112.536831 64.241556 112.0263 66.127115 C 110.943976 69.986725 107.758266 80.142876 105.607232 85.622569 L 104.613399 85.663411 C 103.381319 85.697447 101.788464 85.697447 100.529156 85.697447 L 101.38004 91.109069 C 102.56447 90.96612 103.939499 90.775522 104.865261 90.666609 C 109.534912 90.183307 120.766581 88.998877 126.81126 88.290941 C 127.48516 89.883796 128.070569 91.40858 128.560678 92.667888 Z M 144.747895 62.049679 C 144.747895 63.200074 144.564104 64.609138 144.414348 65.643813 C 143.965081 68.461941 142.889564 75.398347 142.889564 80.952918 C 142.889564 85.92208 143.5975 90.115236 144.33947 92.667888 L 148.491784 92.375184 C 148.457749 91.85104 148.457749 91.224789 148.457749 90.857207 C 148.423713 90.448783 148.52582 89.672777 148.634733 89.141825 C 149.043157 87.147353 150.227588 83.396657 151.26907 80.401545 L 149.009122 78.584057 C 148.457749 79.802523 147.858727 81.027796 147.382231 82.327946 C 147.273318 81.585975 147.232476 80.694249 147.232476 79.952278 C 147.232476 76.283266 148.423713 68.203272 148.975086 65.759533 C 149.124842 65.085633 149.567302 63.23411 149.860006 62.492139 Z M 163.283551 84.846563 C 163.283551 86.997598 162.500738 88.182028 160.24079 88.182028 C 158.314389 88.182028 156.837254 87.514935 156.837254 86.030993 C 156.837254 84.662772 158.239511 83.805081 160.322475 83.805081 C 161.316308 83.805081 162.323754 83.961643 163.283551 84.213505 Z M 174.882802 86.330504 C 173.181034 84.73765 170.880243 82.845284 167.803447 81.585975 C 167.660498 79.101394 167.4699 76.174353 167.40183 72.607448 C 169.396302 72.464499 171.32951 72.239866 173.112963 71.988004 L 173.112963 67.427266 C 171.363546 67.794848 169.437144 68.060324 167.435865 68.271343 C 167.435865 66.644453 167.510743 65.269424 167.544778 64.452576 C 167.578814 63.676569 167.660498 62.79165 167.769412 62.083715 L 162.500738 62.083715 C 162.609651 62.825685 162.732178 63.942045 162.732178 64.493418 C 162.766214 65.269424 162.766214 66.753366 162.800249 68.570854 C 161.949365 68.611696 161.057639 68.611696 160.206755 68.611696 C 158.021685 68.611696 155.904685 68.502783 153.794493 68.271343 L 153.794493 72.64829 C 155.979563 72.798046 158.05572 72.872923 160.206755 72.872923 C 161.057639 72.872923 161.949365 72.872923 162.834285 72.838888 C 162.875127 75.432382 162.98404 78.100755 163.09976 80.353895 C 162.35779 80.244982 161.540941 80.210947 160.68325 80.210947 C 155.686859 80.210947 152.528378 82.770406 152.528378 86.514295 C 152.528378 90.367098 155.720894 92.518133 160.764935 92.518133 C 165.734097 92.518133 167.735376 89.992709 167.953203 86.514295 C 169.396302 87.514935 170.880243 88.740208 172.405028 90.183307 Z M 188.442489 69.020121 C 191.451215 69.244754 194.636924 69.421738 198.489727 69.421738 C 201.974948 69.421738 206.535686 69.163069 209.095145 68.979278 L 209.095145 64.050958 C 206.277017 64.343662 202.083861 64.575103 198.455691 64.575103 C 194.602889 64.575103 191.185739 64.41854 188.442489 64.119029 Z M 186.747528 79.25115 C 186.448017 80.619371 185.99875 82.402824 185.99875 84.547052 C 185.99875 89.591092 190.225942 92.40922 198.64629 92.40922 C 203.792436 92.40922 208.203418 91.925918 211.395935 91.143104 L 211.355093 85.996958 C 208.094505 86.881877 203.424854 87.440057 198.455691 87.440057 C 193.152983 87.440057 190.933877 85.731482 190.933877 83.396657 C 190.933877 82.178191 191.226581 81.027796 191.560128 79.693609 Z M 250.604669 64.684016 C 246.193686 65.643813 241.231331 66.201993 237.044982 66.419819 L 237.256001 65.30346 C 237.521477 64.084994 237.705268 62.859721 238.106885 61.566377 L 232.926703 61.341744 C 232.960739 62.567017 232.926703 63.458743 232.742912 65.051598 C 232.695263 65.494058 232.58635 65.97736 232.518279 66.53554 C 230.292366 66.501504 227.508274 66.201993 225.323204 65.834411 L 225.323204 70.395149 C 227.174728 70.572133 229.332569 70.715082 231.667395 70.762731 C 230.693984 74.799325 229.210042 79.693609 227.474239 83.06311 L 231.810344 84.621929 C 232.184732 83.995679 232.443401 83.512377 232.851826 83.029075 C 235.043703 80.210947 238.780785 78.69297 243.007977 78.69297 C 246.561268 78.69297 248.48767 80.544493 248.48767 82.736371 C 248.48767 88.147993 240.37364 89.10779 232.334488 87.814446 L 233.627832 92.558975 C 245.492558 93.811476 253.422797 90.857207 253.422797 82.586615 C 253.422797 77.910157 249.495116 74.724447 243.566157 74.724447 C 240.189849 74.724447 237.412564 75.398347 234.44468 77.025237 C 235.043703 75.241784 235.629111 72.906959 236.112413 70.681046 C 241.040733 70.429185 246.860779 69.721249 250.679547 69.122227 Z M 273.619379 65.725498 C 276.478349 66.453855 284.667256 68.169237 288.370303 68.645732 L 289.486663 64.119029 C 286.260111 63.751447 278.28903 62.34919 274.803809 61.266866 Z M 275.028443 68.645732 L 270.05928 67.978639 C 269.834647 72.539377 268.949727 79.693609 268.241792 83.287743 L 272.503019 84.363261 C 272.80253 83.62129 273.210954 83.029075 273.878047 82.212226 C 276.178838 79.434941 279.847849 77.910157 284.000163 77.910157 C 287.219908 77.910157 289.486663 79.659574 289.486663 82.028435 C 289.486663 86.698086 283.666617 89.407301 272.659582 87.848482 L 274.061838 92.667888 C 289.336908 94.002074 294.639617 88.849121 294.639617 82.137348 C 294.639617 77.699137 290.895727 73.723807 284.442623 73.723807 C 280.623856 73.723807 276.995686 74.799325 273.653414 77.209028 C 273.91889 75.098836 274.551948 70.681046 275.028443 68.645732 Z M 275.028443 68.645732 " stroke="#000000" stroke-width="2.780932" stroke-opacity="1" stroke-miterlimit="4"/><g fill="#ffffff" fill-opacity="1"><g transform="translate(137.716428, 33.737378)"><g><path d="M 15.125 -10.847656 L 13.507812 -10.847656 L 13.507812 -13.550781 L 15.125 -13.550781 Z M 15.125 -5.890625 L 13.507812 -5.890625 L 13.507812 -8.59375 L 15.125 -8.59375 Z M 6.191406 -8.59375 L 7.699219 -8.59375 L 7.699219 -5.890625 L 6.191406 -5.890625 Z M 11.402344 -8.59375 L 11.402344 -5.890625 L 9.828125 -5.890625 L 9.828125 -8.59375 Z M 9.828125 -10.847656 L 9.828125 -13.550781 L 11.402344 -13.550781 L 11.402344 -10.847656 Z M 6.191406 -13.550781 L 7.699219 -13.550781 L 7.699219 -10.847656 L 6.191406 -10.847656 Z M 3.957031 -10.847656 L 1.765625 -10.847656 L 1.765625 -8.59375 L 3.957031 -8.59375 L 3.957031 -5.890625 L 1.171875 -5.890625 L 1.171875 -3.636719 L 20.144531 -3.636719 L 20.144531 -5.890625 L 17.445312 -5.890625 L 17.445312 -8.59375 L 19.484375 -8.59375 L 19.484375 -10.847656 L 17.445312 -10.847656 L 17.445312 -13.550781 L 19.550781 -13.550781 L 19.550781 -15.785156 L 6.679688 -15.785156 C 6.976562 -16.273438 7.253906 -16.785156 7.507812 -17.273438 L 5.042969 -18.019531 C 4.105469 -16.039062 2.425781 -14.105469 0.636719 -12.914062 C 1.210938 -12.53125 2.234375 -11.722656 2.703125 -11.273438 C 3.105469 -11.59375 3.53125 -11.976562 3.957031 -12.378906 Z M 3.296875 1.871094 C 4.316406 0.746094 5.210938 -0.980469 5.722656 -2.574219 L 3.253906 -3.167969 C 2.765625 -1.660156 1.808594 0 0.851562 0.894531 Z M 7.0625 -2.445312 C 7.296875 -1.128906 7.464844 0.59375 7.464844 1.636719 L 9.957031 1.277344 C 9.933594 0.253906 9.699219 -1.425781 9.421875 -2.703125 Z M 11.273438 -2.402344 C 11.765625 -1.085938 12.253906 0.617188 12.378906 1.636719 L 14.914062 1.171875 C 14.71875 0.105469 14.1875 -1.554688 13.65625 -2.785156 Z M 15.488281 -2.511719 C 16.445312 -1.148438 17.550781 0.722656 18.019531 1.851562 L 20.613281 1 C 20.058594 -0.191406 18.890625 -1.976562 17.910156 -3.277344 Z M 15.488281 -2.511719 "/></g></g></g><g fill="#ffffff" fill-opacity="1"><g transform="translate(161.261492, 33.737378)"><g><path d="M 15.296875 -14.296875 C 14.613281 -15.082031 13.105469 -16.167969 11.914062 -16.871094 L 10.699219 -15.167969 C 11.871094 -14.378906 13.339844 -13.230469 13.996094 -12.402344 Z M 9.722656 -9.808594 C 10.957031 -9.082031 12.507812 -7.933594 13.210938 -7.167969 L 14.488281 -9.191406 C 13.722656 -9.933594 12.148438 -10.976562 10.914062 -11.636719 Z M 7.808594 -16.847656 C 7.574219 -15.359375 7.082031 -13.210938 6.636719 -11.871094 L 8.234375 -11.421875 C 8.765625 -12.65625 9.382812 -14.679688 9.933594 -16.378906 Z M 3.679688 -11.871094 C 3.574219 -13.1875 3.148438 -15.210938 2.59375 -16.742188 L 0.828125 -16.273438 C 1.320312 -14.742188 1.746094 -12.679688 1.785156 -11.382812 Z M 9.488281 -4.871094 C 9.039062 -5.46875 7.019531 -7.851562 6.402344 -8.464844 L 6.402344 -8.617188 L 9.550781 -8.617188 L 9.550781 -10.976562 L 6.402344 -10.976562 L 6.402344 -17.933594 L 4.0625 -17.933594 L 4.0625 -10.976562 L 0.851562 -10.976562 L 0.851562 -8.617188 L 3.277344 -8.617188 C 2.617188 -6.679688 1.53125 -4.402344 0.46875 -3.105469 C 0.851562 -2.402344 1.402344 -1.253906 1.617188 -0.488281 C 2.53125 -1.765625 3.382812 -3.742188 4.0625 -5.722656 L 4.0625 1.785156 L 6.402344 1.785156 L 6.402344 -5.679688 C 7.019531 -4.703125 7.617188 -3.59375 7.933594 -2.914062 Z M 20.742188 -4.382812 L 20.359375 -6.742188 L 18.1875 -6.339844 L 18.1875 -18.039062 L 15.804688 -18.039062 L 15.804688 -5.914062 L 9.488281 -4.785156 L 9.871094 -2.425781 L 15.804688 -3.488281 L 15.804688 1.828125 L 18.1875 1.828125 L 18.1875 -3.914062 Z M 20.742188 -4.382812 "/></g></g></g><g fill="#ffffff" fill-opacity="1"><g transform="translate(184.806556, 33.737378)"><g><path d="M 6.191406 -8.402344 L 15.082031 -8.402344 L 15.082031 -7.082031 L 6.191406 -7.082031 Z M 6.191406 -11.785156 L 15.082031 -11.785156 L 15.082031 -10.464844 L 6.191406 -10.464844 Z M 6.191406 -15.144531 L 15.082031 -15.144531 L 15.082031 -13.828125 L 6.191406 -13.828125 Z M 15.125 -0.722656 C 14.316406 -0.722656 14.1875 -0.808594 14.1875 -1.488281 L 14.1875 -4.871094 L 17.65625 -4.871094 L 17.65625 -17.359375 L 3.742188 -17.359375 L 3.742188 -4.871094 L 6.339844 -4.871094 C 5.976562 -2.550781 5.0625 -1.128906 0.703125 -0.320312 C 1.191406 0.210938 1.871094 1.253906 2.105469 1.9375 C 7.359375 0.746094 8.617188 -1.488281 9.0625 -4.871094 L 11.636719 -4.871094 L 11.636719 -1.46875 C 11.636719 0.914062 12.230469 1.679688 14.761719 1.679688 L 17.570312 1.679688 C 19.675781 1.679688 20.335938 0.808594 20.613281 -2.550781 C 19.953125 -2.722656 18.828125 -3.148438 18.292969 -3.550781 C 18.1875 -1.085938 18.058594 -0.722656 17.335938 -0.722656 Z M 15.125 -0.722656 "/></g></g></g><g fill="#ffffff" fill-opacity="1"><g transform="translate(208.351617, 33.737378)"><g><path d="M 8.871094 -6.53125 C 8.507812 -6.976562 6.976562 -8.550781 6.296875 -9.191406 L 6.296875 -9.871094 L 8.402344 -9.871094 L 8.402344 -11.019531 L 20.441406 -11.019531 L 20.441406 -12.59375 L 15.613281 -12.59375 L 15.613281 -13.316406 L 19.527344 -13.316406 L 19.527344 -14.785156 L 15.613281 -14.785156 L 15.613281 -15.507812 L 20.019531 -15.507812 L 20.019531 -17.039062 L 15.613281 -17.039062 L 15.613281 -17.996094 L 13.082031 -17.996094 L 13.082031 -17.039062 L 8.933594 -17.039062 L 8.933594 -15.507812 L 13.082031 -15.507812 L 13.082031 -14.785156 L 9.316406 -14.785156 L 9.316406 -13.316406 L 13.082031 -13.316406 L 13.082031 -12.59375 L 8.273438 -12.59375 L 8.273438 -12.230469 L 6.296875 -12.230469 L 6.296875 -15.105469 C 7.191406 -15.316406 8.042969 -15.570312 8.808594 -15.871094 L 7.125 -17.804688 C 5.53125 -17.125 3.019531 -16.550781 0.746094 -16.230469 C 1 -15.699219 1.320312 -14.828125 1.425781 -14.296875 C 2.191406 -14.378906 3 -14.488281 3.828125 -14.613281 L 3.828125 -12.230469 L 1 -12.230469 L 1 -9.871094 L 3.660156 -9.871094 C 2.871094 -7.765625 1.660156 -5.402344 0.445312 -4 C 0.851562 -3.359375 1.382812 -2.320312 1.617188 -1.59375 C 2.402344 -2.617188 3.167969 -4.019531 3.828125 -5.550781 L 3.828125 1.828125 L 6.296875 1.828125 L 6.296875 -6.46875 C 6.742188 -5.765625 7.191406 -5.042969 7.425781 -4.550781 Z M 11.847656 -4.042969 L 17.019531 -4.042969 L 17.019531 -3.148438 L 11.847656 -3.148438 Z M 11.847656 -6.402344 L 17.019531 -6.402344 L 17.019531 -5.488281 L 11.847656 -5.488281 Z M 11.847656 -8.742188 L 17.019531 -8.742188 L 17.019531 -7.851562 L 11.847656 -7.851562 Z M 19.421875 -1.574219 L 19.421875 -10.296875 L 9.59375 -10.296875 L 9.59375 -1.574219 L 11.445312 -1.574219 C 10.382812 -0.851562 8.699219 -0.0625 7.253906 0.363281 C 7.722656 0.808594 8.425781 1.488281 8.808594 1.9375 C 10.507812 1.382812 12.613281 0.363281 13.914062 -0.636719 L 12.488281 -1.574219 L 16.359375 -1.574219 L 15.039062 -0.617188 C 16.292969 0.171875 17.761719 1.210938 18.550781 1.871094 L 20.761719 0.679688 C 19.910156 0.0859375 18.445312 -0.808594 17.144531 -1.574219 Z M 19.421875 -1.574219 "/></g></g></g><g fill="#ffffff" fill-opacity="1"><g transform="translate(231.896683, 33.737378)"><g><path d="M 13.890625 -8.699219 C 15.253906 -7.402344 16.0625 -6.042969 16.0625 -4.617188 C 16.0625 -2.871094 14.445312 -1.53125 11.507812 -1.53125 C 9.421875 -1.53125 8.359375 -2.488281 8.359375 -4.210938 C 8.359375 -4.59375 8.402344 -5.125 8.445312 -5.742188 C 8.722656 -5.742188 9.019531 -5.742188 9.296875 -5.742188 C 10.59375 -5.742188 11.828125 -5.828125 13.019531 -5.933594 L 13.082031 -8.445312 C 11.699219 -8.296875 10.148438 -8.191406 8.847656 -8.191406 L 8.699219 -8.191406 C 8.808594 -9.125 8.933594 -10.125 9.0625 -11.0625 C 10.765625 -11.0625 11.914062 -11.125 13.167969 -11.253906 L 13.253906 -13.761719 C 12.253906 -13.613281 10.890625 -13.53125 9.382812 -13.507812 C 9.488281 -14.1875 9.550781 -14.742188 9.617188 -15.105469 C 9.699219 -15.65625 9.808594 -16.210938 9.976562 -16.976562 L 7.019531 -17.144531 C 7.0625 -16.445312 7.019531 -15.847656 6.976562 -15.273438 C 6.933594 -14.804688 6.890625 -14.230469 6.808594 -13.59375 C 5.277344 -13.722656 3.703125 -13.976562 2.488281 -14.378906 L 2.339844 -11.933594 C 3.574219 -11.59375 5.0625 -11.339844 6.53125 -11.1875 C 6.402344 -10.230469 6.296875 -9.253906 6.167969 -8.316406 C 4.808594 -8.445312 3.382812 -8.679688 2.019531 -9.148438 L 1.871094 -6.59375 C 3 -6.277344 4.382812 -6.042969 5.914062 -5.890625 C 5.828125 -5.019531 5.765625 -4.277344 5.765625 -3.765625 C 5.765625 -0.253906 8.105469 1.191406 11.421875 1.191406 C 16.039062 1.191406 18.890625 -1.105469 18.890625 -4.277344 C 18.890625 -6.0625 18.253906 -7.550781 16.847656 -9.339844 Z M 13.890625 -8.699219 "/></g></g></g><g fill="#ffffff" fill-opacity="1"><g transform="translate(255.44175, 33.737378)"><g><path d="M 4.828125 -17.144531 C 4.808594 -16.550781 4.765625 -15.699219 4.660156 -14.933594 C 4.339844 -12.761719 4.0625 -10.148438 4.0625 -8.191406 C 4.0625 -6.785156 4.210938 -5.488281 4.316406 -4.679688 L 6.933594 -4.851562 C 6.808594 -5.828125 6.808594 -6.507812 6.828125 -7.082031 C 6.933594 -9.847656 9.105469 -13.59375 11.59375 -13.59375 C 13.339844 -13.59375 14.421875 -11.785156 14.421875 -8.53125 C 14.421875 -3.425781 11.148438 -1.894531 6.46875 -1.171875 L 8.0625 1.277344 C 13.636719 0.253906 17.292969 -2.59375 17.292969 -8.550781 C 17.292969 -13.1875 15.019531 -16.0625 12.082031 -16.0625 C 9.699219 -16.0625 7.871094 -14.273438 6.871094 -12.65625 C 7 -13.828125 7.425781 -15.976562 7.722656 -17.019531 Z M 4.828125 -17.144531 "/></g></g></g><g fill="#ffffff" fill-opacity="1"><g transform="translate(278.986816, 33.737378)"><g><path d="M 16.828125 -15.507812 C 16.253906 -15.359375 15.570312 -15.335938 15.144531 -15.335938 L 5.316406 -15.335938 C 4.617188 -15.335938 3.402344 -15.445312 2.765625 -15.507812 L 2.765625 -12.507812 C 3.320312 -12.550781 4.339844 -12.59375 5.296875 -12.59375 L 15.210938 -12.59375 C 14.933594 -10.785156 14.125 -8.359375 12.722656 -6.59375 C 10.996094 -4.445312 8.59375 -2.59375 4.382812 -1.617188 L 6.699219 0.9375 C 10.488281 -0.277344 13.316406 -2.382812 15.253906 -4.933594 C 17.019531 -7.296875 17.953125 -10.59375 18.445312 -12.679688 C 18.550781 -13.148438 18.71875 -13.742188 18.910156 -14.167969 Z M 16.828125 -15.507812 "/></g></g></g><g fill="#ffffff" fill-opacity="1"><g transform="translate(137.716428, 63.003817)"><g><path d="M 14.253906 -10.167969 L 14.230469 -11.464844 C 14.230469 -12.039062 14.253906 -12.722656 14.316406 -13.230469 L 11.574219 -13.230469 C 11.65625 -12.65625 11.722656 -11.976562 11.742188 -11.464844 C 11.765625 -11.0625 11.785156 -10.636719 11.785156 -10.167969 L 6 -10.167969 C 5.445312 -10.167969 4.574219 -10.230469 4.0625 -10.296875 L 4.0625 -7.679688 C 4.679688 -7.722656 5.445312 -7.765625 6.0625 -7.765625 L 10.613281 -7.765625 C 9.125 -5.785156 6.167969 -3.425781 3.167969 -2.042969 L 5.019531 0.0859375 C 7.53125 -1.234375 10.402344 -3.617188 11.890625 -5.507812 C 11.914062 -3.894531 11.933594 -2.339844 11.933594 -1.296875 C 11.933594 -0.871094 11.785156 -0.636719 11.382812 -0.636719 C 10.828125 -0.636719 9.808594 -0.703125 8.933594 -0.828125 L 9.105469 1.59375 C 10.0625 1.660156 11.382812 1.703125 12.402344 1.703125 C 13.636719 1.703125 14.488281 0.9375 14.464844 -0.171875 C 14.445312 -2.339844 14.378906 -5.234375 14.316406 -7.765625 L 16.871094 -7.765625 C 17.335938 -7.765625 17.996094 -7.742188 18.484375 -7.722656 L 18.484375 -10.296875 C 18.125 -10.253906 17.316406 -10.167969 16.761719 -10.167969 Z M 14.253906 -10.167969 "/></g></g></g><g fill="#ffffff" fill-opacity="1"><g transform="translate(161.261492, 63.003817)"><g><path d="M 1.957031 -6.507812 C 2.746094 -6.574219 4.167969 -6.617188 5.382812 -6.617188 L 16.804688 -6.617188 C 17.699219 -6.617188 18.785156 -6.53125 19.292969 -6.507812 L 19.292969 -9.847656 C 18.742188 -9.808594 17.785156 -9.722656 16.804688 -9.722656 L 5.382812 -9.722656 C 4.277344 -9.722656 2.722656 -9.785156 1.957031 -9.847656 Z M 1.957031 -6.507812 "/></g></g></g><g fill="#ffffff" fill-opacity="1"><g transform="translate(184.806556, 63.003817)"><g><path d="M 20.273438 -0.320312 C 19.292969 -2.703125 17.125 -6.871094 15.613281 -9.167969 L 12.953125 -8.082031 C 13.65625 -7.148438 14.445312 -5.722656 15.1875 -4.191406 C 13.039062 -3.933594 10.019531 -3.59375 7.425781 -3.339844 C 8.488281 -6.191406 10.210938 -11.59375 10.890625 -13.679688 C 11.210938 -14.613281 11.507812 -15.402344 11.804688 -16.039062 L 8.425781 -16.71875 C 8.339844 -16.019531 8.210938 -15.359375 7.914062 -14.273438 C 7.296875 -12.0625 5.46875 -6.234375 4.234375 -3.085938 L 3.660156 -3.0625 C 2.957031 -3.042969 2.042969 -3.042969 1.320312 -3.042969 L 1.808594 0.0625 C 2.488281 -0.0195312 3.277344 -0.128906 3.808594 -0.191406 C 6.488281 -0.46875 12.933594 -1.148438 16.402344 -1.554688 C 16.785156 -0.636719 17.125 0.234375 17.402344 0.957031 Z M 20.273438 -0.320312 "/></g></g></g><g fill="#ffffff" fill-opacity="1"><g transform="translate(208.351617, 63.003817)"><g><path d="M 3.148438 -16.613281 C 3.148438 -15.953125 3.042969 -15.144531 2.957031 -14.550781 C 2.703125 -12.933594 2.085938 -8.957031 2.085938 -5.765625 C 2.085938 -2.914062 2.488281 -0.511719 2.914062 0.957031 L 5.296875 0.785156 C 5.277344 0.488281 5.277344 0.128906 5.277344 -0.0859375 C 5.253906 -0.320312 5.316406 -0.765625 5.382812 -1.0625 C 5.617188 -2.210938 6.296875 -4.359375 6.890625 -6.085938 L 5.59375 -7.125 C 5.277344 -6.425781 4.933594 -5.722656 4.660156 -4.976562 C 4.59375 -5.402344 4.574219 -5.914062 4.574219 -6.339844 C 4.574219 -8.445312 5.253906 -13.082031 5.574219 -14.488281 C 5.660156 -14.871094 5.914062 -15.933594 6.085938 -16.359375 Z M 13.785156 -3.53125 C 13.785156 -2.296875 13.339844 -1.617188 12.039062 -1.617188 C 10.933594 -1.617188 10.082031 -2 10.082031 -2.851562 C 10.082031 -3.636719 10.890625 -4.125 12.082031 -4.125 C 12.65625 -4.125 13.230469 -4.042969 13.785156 -3.894531 Z M 20.441406 -2.679688 C 19.464844 -3.59375 18.144531 -4.679688 16.378906 -5.402344 C 16.292969 -6.828125 16.1875 -8.507812 16.144531 -10.550781 C 17.292969 -10.636719 18.402344 -10.765625 19.421875 -10.914062 L 19.421875 -13.53125 C 18.421875 -13.316406 17.316406 -13.167969 16.167969 -13.039062 C 16.167969 -13.976562 16.210938 -14.761719 16.230469 -15.230469 C 16.253906 -15.679688 16.292969 -16.1875 16.359375 -16.59375 L 13.339844 -16.59375 C 13.402344 -16.167969 13.464844 -15.527344 13.464844 -15.210938 C 13.488281 -14.761719 13.488281 -13.914062 13.507812 -12.871094 C 13.019531 -12.847656 12.507812 -12.847656 12.019531 -12.847656 C 10.765625 -12.847656 9.550781 -12.914062 8.339844 -13.039062 L 8.339844 -10.53125 C 9.59375 -10.445312 10.785156 -10.402344 12.019531 -10.402344 C 12.507812 -10.402344 13.019531 -10.402344 13.53125 -10.421875 C 13.550781 -8.933594 13.613281 -7.402344 13.679688 -6.105469 C 13.253906 -6.167969 12.785156 -6.191406 12.296875 -6.191406 C 9.421875 -6.191406 7.617188 -4.722656 7.617188 -2.574219 C 7.617188 -0.363281 9.445312 0.871094 12.339844 0.871094 C 15.1875 0.871094 16.335938 -0.574219 16.464844 -2.574219 C 17.292969 -2 18.144531 -1.296875 19.019531 -0.46875 Z M 20.441406 -2.679688 "/></g></g></g><g fill="#ffffff" fill-opacity="1"><g transform="translate(231.896683, 63.003817)"><g><path d="M 4.679688 -12.613281 C 6.402344 -12.488281 8.234375 -12.378906 10.445312 -12.378906 C 12.445312 -12.378906 15.0625 -12.53125 16.527344 -12.636719 L 16.527344 -15.464844 C 14.914062 -15.296875 12.507812 -15.167969 10.421875 -15.167969 C 8.210938 -15.167969 6.253906 -15.253906 4.679688 -15.421875 Z M 3.703125 -6.742188 C 3.53125 -5.957031 3.277344 -4.933594 3.277344 -3.703125 C 3.277344 -0.808594 5.699219 0.808594 10.53125 0.808594 C 13.488281 0.808594 16.019531 0.53125 17.847656 0.0859375 L 17.828125 -2.871094 C 15.953125 -2.359375 13.273438 -2.042969 10.421875 -2.042969 C 7.382812 -2.042969 6.105469 -3.019531 6.105469 -4.359375 C 6.105469 -5.0625 6.277344 -5.722656 6.46875 -6.488281 Z M 3.703125 -6.742188 "/></g></g></g><g fill="#ffffff" fill-opacity="1"><g transform="translate(255.44175, 63.003817)"><g><path d="M 16.804688 -15.105469 C 14.273438 -14.550781 11.421875 -14.230469 9.019531 -14.105469 L 9.148438 -14.742188 C 9.296875 -15.445312 9.402344 -16.144531 9.636719 -16.890625 L 6.660156 -17.019531 C 6.679688 -16.316406 6.660156 -15.804688 6.550781 -14.890625 C 6.53125 -14.636719 6.46875 -14.359375 6.425781 -14.039062 C 5.148438 -14.0625 3.550781 -14.230469 2.296875 -14.445312 L 2.296875 -11.828125 C 3.359375 -11.722656 4.59375 -11.636719 5.933594 -11.613281 C 5.382812 -9.296875 4.53125 -6.488281 3.53125 -4.550781 L 6.019531 -3.660156 C 6.234375 -4.019531 6.382812 -4.296875 6.617188 -4.574219 C 7.871094 -6.191406 10.019531 -7.0625 12.445312 -7.0625 C 14.488281 -7.0625 15.59375 -6 15.59375 -4.742188 C 15.59375 -1.636719 10.933594 -1.085938 6.316406 -1.828125 L 7.0625 0.894531 C 13.871094 1.617188 18.421875 -0.0859375 18.421875 -4.828125 C 18.421875 -7.507812 16.167969 -9.339844 12.761719 -9.339844 C 10.828125 -9.339844 9.230469 -8.957031 7.53125 -8.019531 C 7.871094 -9.039062 8.210938 -10.382812 8.488281 -11.65625 C 11.316406 -11.804688 14.65625 -12.210938 16.847656 -12.550781 Z M 16.804688 -15.105469 "/></g></g></g><g fill="#ffffff" fill-opacity="1"><g transform="translate(278.986816, 63.003817)"><g><path d="M 6.46875 -14.507812 C 8.105469 -14.082031 12.804688 -13.105469 14.933594 -12.828125 L 15.570312 -15.421875 C 13.722656 -15.636719 9.148438 -16.445312 7.148438 -17.0625 Z M 7.273438 -12.828125 L 4.425781 -13.210938 C 4.296875 -10.59375 3.785156 -6.488281 3.382812 -4.425781 L 5.828125 -3.808594 C 6 -4.234375 6.234375 -4.574219 6.617188 -5.042969 C 7.933594 -6.636719 10.039062 -7.507812 12.421875 -7.507812 C 14.273438 -7.507812 15.570312 -6.507812 15.570312 -5.148438 C 15.570312 -2.46875 12.230469 -0.914062 5.914062 -1.808594 L 6.722656 0.957031 C 15.488281 1.722656 18.527344 -1.234375 18.527344 -5.085938 C 18.527344 -7.636719 16.378906 -9.914062 12.679688 -9.914062 C 10.488281 -9.914062 8.402344 -9.296875 6.488281 -7.914062 C 6.636719 -9.125 7 -11.65625 7.273438 -12.828125 Z M 7.273438 -12.828125 "/></g></g></g><g clip-path="url(#6eb297521e)"><path fill="#4c5f7c" d="M 111.578125 48.5 L 87.914062 48.5 L 87.914062 15.496094 L 111.578125 15.496094 L 111.578125 48.5 " fill-opacity="1" fill-rule="nonzero"/></g><g clip-path="url(#50c232b2cd)"><path fill="#2d3f5d" d="M 111.578125 25.867188 L 87.914062 25.867188 L 87.914062 15.496094 L 111.578125 15.496094 L 111.578125 25.867188 " fill-opacity="1" fill-rule="nonzero"/></g><path fill="#c8dde4" d="M 110.160156 23.511719 L 89.332031 23.511719 L 89.332031 17.851562 L 110.160156 17.851562 L 110.160156 23.511719 " fill-opacity="1" fill-rule="nonzero"/><path fill="#ffffff" d="M 94.066406 46.378906 L 91.226562 46.378906 L 91.226562 44.019531 L 94.066406 44.019531 L 94.066406 46.378906 " fill-opacity="1" fill-rule="nonzero"/><path fill="#ffffff" d="M 98.796875 46.378906 L 95.960938 46.378906 L 95.960938 44.019531 L 98.796875 44.019531 L 98.796875 46.378906 " fill-opacity="1" fill-rule="nonzero"/><path fill="#ffffff" d="M 103.53125 46.378906 L 100.691406 46.378906 L 100.691406 44.019531 L 103.53125 44.019531 L 103.53125 46.378906 " fill-opacity="1" fill-rule="nonzero"/><path fill="#ffffff" d="M 94.066406 42.605469 L 91.226562 42.605469 L 91.226562 40.246094 L 94.066406 40.246094 L 94.066406 42.605469 " fill-opacity="1" fill-rule="nonzero"/><path fill="#ffffff" d="M 98.796875 42.605469 L 95.960938 42.605469 L 95.960938 40.246094 L 98.796875 40.246094 L 98.796875 42.605469 " fill-opacity="1" fill-rule="nonzero"/><path fill="#ffffff" d="M 103.53125 42.605469 L 100.691406 42.605469 L 100.691406 40.246094 L 103.53125 40.246094 L 103.53125 42.605469 " fill-opacity="1" fill-rule="nonzero"/><path fill="#2d3f5d" d="M 108.265625 46.378906 L 105.425781 46.378906 L 105.425781 40.246094 L 108.265625 40.246094 L 108.265625 46.378906 " fill-opacity="1" fill-rule="nonzero"/><path fill="#ffffff" d="M 94.066406 38.832031 L 91.226562 38.832031 L 91.226562 36.476562 L 94.066406 36.476562 L 94.066406 38.832031 " fill-opacity="1" fill-rule="nonzero"/><path fill="#ffffff" d="M 98.796875 38.832031 L 95.960938 38.832031 L 95.960938 36.476562 L 98.796875 36.476562 L 98.796875 38.832031 " fill-opacity="1" fill-rule="nonzero"/><path fill="#ffffff" d="M 103.53125 38.832031 L 100.691406 38.832031 L 100.691406 36.476562 L 103.53125 36.476562 L 103.53125 38.832031 " fill-opacity="1" fill-rule="nonzero"/><path fill="#ffffff" d="M 108.265625 38.832031 L 105.425781 38.832031 L 105.425781 36.476562 L 108.265625 36.476562 L 108.265625 38.832031 " fill-opacity="1" fill-rule="nonzero"/><path fill="#ffffff" d="M 94.066406 35.0625 L 91.226562 35.0625 L 91.226562 32.703125 L 94.066406 32.703125 L 94.066406 35.0625 " fill-opacity="1" fill-rule="nonzero"/><path fill="#ffffff" d="M 98.796875 35.0625 L 95.960938 35.0625 L 95.960938 32.703125 L 98.796875 32.703125 L 98.796875 35.0625 " fill-opacity="1" fill-rule="nonzero"/><path fill="#ffffff" d="M 103.53125 35.0625 L 100.691406 35.0625 L 100.691406 32.703125 L 103.53125 32.703125 L 103.53125 35.0625 " fill-opacity="1" fill-rule="nonzero"/><path fill="#ffffff" d="M 108.265625 35.0625 L 105.425781 35.0625 L 105.425781 32.703125 L 108.265625 32.703125 L 108.265625 35.0625 " fill-opacity="1" fill-rule="nonzero"/><path fill="#f5be12" d="M 98.796875 31.289062 L 91.226562 31.289062 L 91.226562 28.933594 L 98.796875 28.933594 L 98.796875 31.289062 " fill-opacity="1" fill-rule="nonzero"/><path fill="#f4704f" d="M 108.265625 31.289062 L 100.691406 31.289062 L 100.691406 28.933594 L 108.265625 28.933594 L 108.265625 31.289062 " fill-opacity="1" fill-rule="nonzero"/><path fill="#100f0d" d="M 102.753906 22.664062 L 102.222656 22.664062 L 102.222656 19.5625 L 101.574219 19.5625 L 101.574219 19.039062 L 102.753906 19.039062 L 102.753906 22.664062 " fill-opacity="1" fill-rule="nonzero"/><path fill="#100f0d" d="M 106.167969 19.828125 C 106.167969 19.890625 106.167969 19.992188 106.167969 20.132812 C 106.164062 20.265625 106.164062 20.367188 106.164062 20.433594 C 106.164062 20.640625 106.085938 20.820312 105.933594 20.972656 C 105.804688 21.105469 105.582031 21.167969 105.269531 21.167969 C 105.222656 21.167969 105.152344 21.167969 105.0625 21.167969 C 104.976562 21.167969 104.910156 21.167969 104.867188 21.167969 C 104.695312 21.167969 104.570312 21.191406 104.492188 21.234375 C 104.390625 21.289062 104.339844 21.390625 104.339844 21.542969 L 104.339844 22.140625 L 106.167969 22.140625 L 106.167969 22.664062 L 103.8125 22.664062 L 103.8125 21.414062 C 103.8125 21.175781 103.882812 20.984375 104.027344 20.84375 C 104.175781 20.703125 104.367188 20.632812 104.609375 20.632812 L 105.171875 20.632812 C 105.492188 20.632812 105.648438 20.503906 105.648438 20.253906 L 105.648438 19.941406 C 105.648438 19.6875 105.5 19.5625 105.199219 19.5625 L 103.8125 19.5625 L 103.8125 19.039062 L 105.328125 19.039062 C 105.585938 19.039062 105.789062 19.105469 105.9375 19.234375 C 106.089844 19.375 106.167969 19.574219 106.167969 19.828125 " fill-opacity="1" fill-rule="nonzero"/><path fill="#100f0d" d="M 109.300781 21.917969 C 109.300781 22.140625 109.222656 22.320312 109.074219 22.457031 C 108.980469 22.542969 108.886719 22.601562 108.796875 22.632812 C 108.722656 22.652344 108.613281 22.664062 108.46875 22.664062 L 106.941406 22.664062 L 106.941406 22.140625 L 108.355469 22.140625 C 108.570312 22.140625 108.703125 22.074219 108.753906 21.941406 C 108.773438 21.886719 108.78125 21.722656 108.78125 21.449219 C 108.78125 21.214844 108.644531 21.097656 108.375 21.097656 L 107.722656 21.097656 L 107.722656 20.578125 L 108.375 20.578125 C 108.644531 20.578125 108.78125 20.457031 108.78125 20.222656 L 108.78125 19.914062 C 108.78125 19.765625 108.742188 19.667969 108.664062 19.621094 C 108.605469 19.582031 108.503906 19.5625 108.355469 19.5625 L 106.941406 19.5625 L 106.941406 19.039062 L 108.46875 19.039062 C 108.738281 19.039062 108.941406 19.097656 109.074219 19.210938 C 109.222656 19.339844 109.300781 19.519531 109.300781 19.75 L 109.300781 20.238281 C 109.300781 20.503906 109.167969 20.703125 108.90625 20.832031 C 108.949219 20.855469 109.011719 20.890625 109.089844 20.945312 C 109.230469 21.058594 109.300781 21.21875 109.300781 21.425781 L 109.300781 21.917969 " fill-opacity="1" fill-rule="nonzero"/><path fill="#face98" d="M 107.085938 49.570312 L 107.082031 49.570312 C 107.082031 49.535156 107.089844 49.5 107.089844 49.464844 Z M 114.316406 46.546875 L 114.355469 44.9375 C 114.359375 44.503906 114.203125 43.109375 113.953125 42.796875 C 113.632812 42.398438 113.144531 41.921875 112.59375 41.878906 C 111.507812 41.796875 111.183594 42.554688 111.183594 42.570312 L 111.148438 42.550781 C 111.167969 41.566406 110.269531 40.558594 109.28125 40.542969 C 108.289062 40.527344 107.332031 41.0625 107.316406 42.050781 L 107.328125 41.4375 C 107.347656 40.453125 106.445312 39.945312 105.457031 39.929688 C 104.472656 39.910156 103.652344 40.996094 103.632812 41.984375 L 103.644531 33.441406 C 103.660156 32.457031 103.125 31.949219 102.136719 31.933594 C 101.148438 31.914062 100.609375 32.699219 100.589844 33.683594 L 100.5625 43.382812 L 100.535156 44.972656 L 99.699219 45.304688 L 98.027344 47.121094 C 97.714844 47.464844 97.617188 48.089844 97.8125 48.507812 L 100.957031 53.738281 C 100.964844 53.753906 100.972656 53.765625 100.980469 53.78125 L 102.242188 56.535156 L 102.472656 57.769531 L 112.539062 57.9375 L 112.558594 56.707031 C 112.558594 56.707031 113.984375 52.871094 114.183594 51.597656 C 114.589844 49.03125 114.460938 47.699219 114.460938 47.699219 L 114.316406 46.546875 " fill-opacity="1" fill-rule="nonzero"/><path fill="#ffffff" d="M 107.097656 58.488281 L 101.039062 58.488281 L 101.039062 57.21875 L 107.097656 57.21875 L 107.097656 58.488281 " fill-opacity="1" fill-rule="nonzero"/><path fill="#dce0e3" d="M 112.9375 58.488281 L 106.878906 58.488281 L 106.878906 57.21875 L 112.9375 57.21875 L 112.9375 58.488281 " fill-opacity="1" fill-rule="nonzero"/><g clip-path="url(#190b496248)"><path fill="#475f80" d="M 107.097656 58.382812 L 100.734375 58.382812 L 100.734375 64.039062 L 107.113281 64.039062 L 107.097656 58.382812 " fill-opacity="1" fill-rule="nonzero"/></g><g clip-path="url(#686193b1cd)"><path fill="#2a3951" d="M 111.703125 62.074219 C 111.355469 62.070312 111.078125 61.785156 111.082031 61.4375 C 111.089844 61.09375 111.375 60.816406 111.722656 60.824219 C 112.070312 60.828125 112.347656 61.113281 112.339844 61.460938 C 112.335938 61.804688 112.046875 62.082031 111.703125 62.074219 Z M 106.917969 58.382812 L 106.917969 64.039062 L 113.292969 64.039062 L 113.292969 58.382812 L 106.917969 58.382812 " fill-opacity="1" fill-rule="nonzero"/></g><path fill="#ffffff" d="M 111.722656 60.824219 C 111.375 60.816406 111.089844 61.09375 111.082031 61.4375 C 111.078125 61.785156 111.355469 62.070312 111.703125 62.074219 C 112.046875 62.082031 112.335938 61.804688 112.339844 61.460938 C 112.347656 61.113281 112.070312 60.828125 111.722656 60.824219 " fill-opacity="1" fill-rule="nonzero"/><path fill="#f8f0e1" d="M 103.175781 34.207031 L 101.023438 34.207031 C 100.855469 33.890625 100.863281 33.730469 100.910156 33.441406 C 100.953125 33.160156 101.070312 32.910156 101.253906 32.722656 C 101.519531 32.449219 101.90625 32.316406 102.332031 32.351562 C 102.980469 32.40625 103.375 32.898438 103.390625 33.675781 C 103.394531 33.859375 103.390625 34.027344 103.175781 34.207031 " fill-opacity="1" fill-rule="nonzero"/><g clip-path="url(#58d80946cd)"><path fill="#edf5f9" d="M 83.132812 36.574219 L 80.542969 36.574219 L 80.542969 33.992188 L 77.953125 33.992188 L 77.953125 31.414062 L 80.542969 31.414062 L 80.542969 28.832031 L 83.132812 28.832031 L 83.132812 31.414062 L 85.722656 31.414062 L 85.722656 33.992188 L 83.132812 33.992188 L 83.132812 36.574219 " fill-opacity="1" fill-rule="nonzero"/></g><path fill="#416e8d" d="M 83.84375 49.011719 L 82.011719 47.183594 L 80.179688 49.011719 L 78.347656 47.183594 L 80.179688 45.359375 L 78.347656 43.535156 L 80.179688 41.710938 L 82.011719 43.535156 L 83.84375 41.710938 L 85.675781 43.535156 L 83.84375 45.359375 L 85.675781 47.183594 L 83.84375 49.011719 " fill-opacity="1" fill-rule="nonzero"/><g clip-path="url(#7061a80ce8)"><path fill="#416e8d" d="M 117.492188 21.027344 L 115.617188 21.027344 L 115.617188 19.164062 L 113.746094 19.164062 L 113.746094 17.296875 L 115.617188 17.296875 L 115.617188 15.429688 L 117.492188 15.429688 L 117.492188 17.296875 L 119.363281 17.296875 L 119.363281 19.164062 L 117.492188 19.164062 L 117.492188 21.027344 " fill-opacity="1" fill-rule="nonzero"/></g><path fill="#edf5f9" d="M 114.0625 39.15625 L 122.507812 39.15625 L 122.507812 36.359375 L 114.0625 36.359375 Z M 114.0625 39.15625 " fill-opacity="1" fill-rule="nonzero"/><path fill="#416e8d" d="M 78.257812 23.109375 L 86.703125 23.109375 L 86.703125 20.308594 L 78.257812 20.308594 Z M 78.257812 23.109375 " fill-opacity="1" fill-rule="nonzero"/><path fill="#edf5f9" d="M 123.175781 58.320312 L 115.835938 58.320312 L 115.835938 56.578125 L 123.175781 56.578125 L 123.175781 58.320312 M 123.175781 54.699219 L 115.835938 54.699219 L 115.835938 52.929688 L 123.175781 52.929688 L 123.175781 54.699219 " fill-opacity="1" fill-rule="nonzero"/><g clip-path="url(#9cf98bef82)"><path fill="#edf5f9" d="M 125.007812 32.300781 C 124.273438 32.300781 123.71875 32.097656 123.34375 31.691406 C 122.972656 31.285156 122.785156 30.667969 122.785156 29.835938 C 122.785156 29.003906 122.972656 28.386719 123.355469 27.976562 C 123.738281 27.570312 124.289062 27.363281 125.007812 27.363281 C 125.746094 27.363281 126.292969 27.570312 126.660156 27.976562 C 127.027344 28.386719 127.207031 29 127.207031 29.816406 C 127.207031 30.65625 127.019531 31.28125 126.644531 31.6875 C 126.269531 32.097656 125.722656 32.300781 125.007812 32.300781 M 125.007812 28.449219 C 124.84375 28.449219 124.71875 28.476562 124.625 28.535156 C 124.535156 28.597656 124.460938 28.6875 124.402344 28.808594 C 124.351562 28.917969 124.316406 29.066406 124.292969 29.25 C 124.273438 29.4375 124.261719 29.632812 124.261719 29.835938 C 124.261719 30.085938 124.269531 30.285156 124.285156 30.433594 C 124.296875 30.582031 124.335938 30.722656 124.394531 30.859375 C 124.449219 30.976562 124.523438 31.066406 124.625 31.128906 C 124.722656 31.191406 124.851562 31.222656 125.007812 31.222656 C 125.160156 31.222656 125.289062 31.195312 125.386719 31.132812 C 125.484375 31.070312 125.5625 30.980469 125.617188 30.859375 C 125.664062 30.75 125.699219 30.609375 125.71875 30.441406 C 125.742188 30.273438 125.753906 30.066406 125.753906 29.832031 C 125.753906 29.617188 125.746094 29.421875 125.726562 29.246094 C 125.707031 29.070312 125.671875 28.921875 125.617188 28.804688 C 125.5625 28.683594 125.484375 28.597656 125.386719 28.535156 C 125.289062 28.476562 125.160156 28.449219 125.007812 28.449219 M 120.175781 32.144531 L 118.828125 32.144531 L 122.808594 24.574219 L 124.15625 24.574219 L 120.175781 32.144531 M 118.007812 29.363281 C 117.273438 29.363281 116.71875 29.160156 116.34375 28.753906 C 115.96875 28.347656 115.78125 27.726562 115.78125 26.898438 C 115.78125 26.066406 115.972656 25.449219 116.351562 25.039062 C 116.734375 24.628906 117.285156 24.425781 118.007812 24.425781 C 118.742188 24.425781 119.292969 24.628906 119.65625 25.039062 C 120.023438 25.449219 120.207031 26.058594 120.207031 26.878906 C 120.207031 27.71875 120.019531 28.34375 119.640625 28.75 C 119.265625 29.160156 118.722656 29.363281 118.007812 29.363281 M 118.007812 25.507812 C 117.84375 25.507812 117.714844 25.539062 117.625 25.597656 C 117.53125 25.65625 117.457031 25.75 117.398438 25.871094 C 117.347656 25.980469 117.3125 26.125 117.292969 26.3125 C 117.273438 26.5 117.261719 26.695312 117.261719 26.898438 C 117.261719 27.148438 117.269531 27.347656 117.28125 27.496094 C 117.292969 27.640625 117.332031 27.785156 117.394531 27.917969 C 117.445312 28.039062 117.519531 28.128906 117.621094 28.191406 C 117.722656 28.253906 117.847656 28.285156 118.007812 28.285156 C 118.160156 28.285156 118.285156 28.253906 118.382812 28.195312 C 118.484375 28.132812 118.558594 28.042969 118.613281 27.917969 C 118.660156 27.8125 118.695312 27.671875 118.71875 27.503906 C 118.742188 27.332031 118.75 27.128906 118.75 26.890625 C 118.75 26.679688 118.742188 26.484375 118.722656 26.308594 C 118.703125 26.132812 118.667969 25.984375 118.613281 25.863281 C 118.558594 25.746094 118.484375 25.65625 118.382812 25.597656 C 118.285156 25.539062 118.160156 25.507812 118.007812 25.507812 " fill-opacity="1" fill-rule="nonzero"/></g><path fill="#416e8d" d="M 95.835938 59.378906 C 95.109375 59.378906 94.566406 59.179688 94.199219 58.78125 C 93.828125 58.378906 93.644531 57.773438 93.644531 56.957031 C 93.644531 56.136719 93.832031 55.527344 94.207031 55.125 C 94.582031 54.726562 95.125 54.523438 95.835938 54.523438 C 96.558594 54.523438 97.097656 54.726562 97.457031 55.125 C 97.816406 55.527344 97.996094 56.132812 97.996094 56.933594 C 97.996094 57.761719 97.8125 58.375 97.441406 58.777344 C 97.074219 59.179688 96.535156 59.378906 95.835938 59.378906 M 95.835938 55.589844 C 95.671875 55.589844 95.546875 55.617188 95.457031 55.675781 C 95.367188 55.734375 95.292969 55.824219 95.238281 55.945312 C 95.1875 56.050781 95.152344 56.195312 95.132812 56.378906 C 95.109375 56.5625 95.101562 56.753906 95.101562 56.957031 C 95.101562 57.203125 95.109375 57.398438 95.121094 57.542969 C 95.132812 57.6875 95.171875 57.828125 95.230469 57.960938 C 95.28125 58.078125 95.355469 58.164062 95.453125 58.226562 C 95.554688 58.289062 95.679688 58.320312 95.835938 58.320312 C 95.984375 58.320312 96.109375 58.289062 96.207031 58.230469 C 96.300781 58.171875 96.378906 58.078125 96.429688 57.960938 C 96.480469 57.851562 96.511719 57.714844 96.535156 57.550781 C 96.554688 57.382812 96.566406 57.183594 96.566406 56.949219 C 96.566406 56.738281 96.558594 56.546875 96.539062 56.375 C 96.519531 56.199219 96.484375 56.054688 96.429688 55.9375 C 96.378906 55.824219 96.300781 55.734375 96.207031 55.675781 C 96.109375 55.617188 95.984375 55.589844 95.835938 55.589844 M 91.078125 59.226562 L 89.753906 59.226562 L 93.671875 51.777344 L 94.996094 51.777344 L 91.078125 59.226562 M 88.945312 56.488281 C 88.222656 56.488281 87.675781 56.289062 87.308594 55.890625 C 86.941406 55.488281 86.757812 54.882812 86.757812 54.0625 C 86.757812 53.246094 86.945312 52.636719 87.320312 52.234375 C 87.691406 51.835938 88.234375 51.632812 88.945312 51.632812 C 89.667969 51.632812 90.210938 51.835938 90.570312 52.234375 C 90.929688 52.636719 91.109375 53.238281 91.109375 54.042969 C 91.109375 54.871094 90.925781 55.484375 90.554688 55.886719 C 90.183594 56.289062 89.648438 56.488281 88.945312 56.488281 M 88.945312 52.699219 C 88.785156 52.699219 88.660156 52.726562 88.570312 52.785156 C 88.476562 52.84375 88.40625 52.933594 88.347656 53.054688 C 88.296875 53.160156 88.261719 53.304688 88.242188 53.488281 C 88.222656 53.671875 88.210938 53.863281 88.210938 54.0625 C 88.210938 54.3125 88.21875 54.507812 88.230469 54.652344 C 88.246094 54.796875 88.28125 54.9375 88.34375 55.070312 C 88.394531 55.1875 88.46875 55.273438 88.566406 55.335938 C 88.664062 55.398438 88.792969 55.429688 88.945312 55.429688 C 89.097656 55.429688 89.21875 55.398438 89.316406 55.339844 C 89.414062 55.277344 89.488281 55.191406 89.542969 55.070312 C 89.589844 54.960938 89.625 54.828125 89.644531 54.660156 C 89.667969 54.492188 89.679688 54.292969 89.679688 54.058594 C 89.679688 53.847656 89.667969 53.65625 89.652344 53.484375 C 89.632812 53.308594 89.597656 53.164062 89.542969 53.050781 C 89.488281 52.933594 89.414062 52.84375 89.316406 52.785156 C 89.21875 52.726562 89.097656 52.699219 88.945312 52.699219 " fill-opacity="1" fill-rule="nonzero"/></svg>