<svg xmlns="http://www.w3.org/2000/svg" xmlns:xlink="http://www.w3.org/1999/xlink" width="400" zoomAndPan="magnify" viewBox="0 0 300 74.999997" height="100" preserveAspectRatio="xMidYMid meet" version="1.0"><defs><g/></defs><g fill="#c5f656" fill-opacity="1"><g transform="translate(7.64074, 41.775003)"><g><path d="M 14.285156 -11.679688 L 14.285156 -14.308594 C 14.816406 -15.070312 15.320312 -15.851562 15.75 -16.636719 L 23.613281 -16.636719 L 23.613281 -19.71875 L 1.695312 -19.71875 L 1.695312 -16.636719 L 11.78125 -16.636719 C 9.429688 -12.769531 5.484375 -8.847656 0.886719 -6.699219 C 1.542969 -6.015625 2.476562 -4.777344 2.957031 -3.96875 C 5.992188 -5.535156 8.695312 -7.738281 10.996094 -10.1875 L 10.996094 2.148438 L 14.285156 2.148438 L 14.285156 -10.949219 C 17.015625 -8.847656 20.453125 -5.964844 22.019531 -4.097656 L 24.574219 -6.394531 C 22.753906 -8.394531 18.859375 -11.300781 16.15625 -13.246094 Z M 14.285156 -11.679688 "/></g></g></g><g fill="#c5f656" fill-opacity="1"><g transform="translate(33.929485, 41.775003)"><g><path d="M 14.410156 -8.015625 L 14.410156 -11.125 L 19.746094 -11.125 L 19.746094 -8.015625 Z M 6.546875 -8.015625 C 6.597656 -8.949219 6.625 -9.859375 6.625 -10.667969 L 6.625 -11.125 L 11.378906 -11.125 L 11.378906 -8.015625 Z M 11.378906 -16.863281 L 11.378906 -13.929688 L 6.625 -13.929688 L 6.625 -16.863281 Z M 19.746094 -13.929688 L 14.410156 -13.929688 L 14.410156 -16.863281 L 19.746094 -16.863281 Z M 22.730469 -19.71875 L 3.640625 -19.71875 L 3.640625 -10.695312 C 3.640625 -7.15625 3.414062 -2.65625 0.65625 0.378906 C 1.339844 0.734375 2.554688 1.769531 3.035156 2.324219 C 4.855469 0.355469 5.765625 -2.425781 6.21875 -5.183594 L 11.378906 -5.183594 L 11.378906 1.871094 L 14.410156 1.871094 L 14.410156 -5.183594 L 19.746094 -5.183594 L 19.746094 -1.390625 C 19.746094 -0.933594 19.570312 -0.785156 19.089844 -0.785156 C 18.632812 -0.785156 16.964844 -0.757812 15.546875 -0.835938 C 15.929688 -0.0507812 16.410156 1.238281 16.507812 2.046875 C 18.785156 2.074219 20.328125 2.023438 21.363281 1.515625 C 22.375 1.0625 22.730469 0.253906 22.730469 -1.367188 Z M 22.730469 -19.71875 "/></g></g></g><g fill="#c5f656" fill-opacity="1"><g transform="translate(60.218229, 41.775003)"><g><path d="M 17.066406 -14.132812 L 8.21875 -14.132812 L 8.21875 -17.546875 L 17.066406 -17.546875 Z M 20.125 -20.429688 L 5.308594 -20.429688 L 5.308594 -11.277344 L 20.125 -11.277344 Z M 8.445312 -6.296875 L 8.445312 -1.945312 L 4.675781 -1.945312 L 4.675781 -6.296875 Z M 1.820312 2.199219 L 4.675781 2.199219 L 4.675781 0.933594 L 8.445312 0.933594 L 8.445312 2.074219 L 11.453125 2.074219 L 11.453125 -9.175781 L 1.820312 -9.175781 Z M 16.484375 -1.945312 L 16.484375 -6.296875 L 20.503906 -6.296875 L 20.503906 -1.945312 Z M 13.601562 -9.175781 L 13.601562 2.199219 L 16.484375 2.199219 L 16.484375 0.933594 L 20.503906 0.933594 L 20.503906 2.097656 L 23.539062 2.097656 L 23.539062 -9.175781 Z M 13.601562 -9.175781 "/></g></g></g><g fill="#c5f656" fill-opacity="1"><g transform="translate(86.506971, 41.775003)"><g><path d="M 14.6875 -7.507812 L 10.238281 -7.507812 L 10.238281 -11.882812 L 14.6875 -11.882812 Z M 7.40625 -14.511719 L 7.40625 -4.90625 L 17.722656 -4.90625 L 17.722656 -14.511719 Z M 4.980469 -1.972656 L 4.980469 -17.496094 L 20.175781 -17.496094 L 20.175781 -1.972656 Z M 1.84375 -20.578125 L 1.84375 2.175781 L 4.980469 2.175781 L 4.980469 0.835938 L 20.175781 0.835938 L 20.175781 2.175781 L 23.460938 2.175781 L 23.460938 -20.578125 Z M 1.84375 -20.578125 "/></g></g></g><g fill="#c5f656" fill-opacity="1"><g transform="translate(112.795718, 41.775003)"><g><path d="M 7.332031 -6.875 L 5.007812 -6.09375 L 5.007812 -18.808594 L 2.277344 -18.808594 L 2.277344 -6.445312 C 2.277344 -5.460938 1.871094 -4.980469 1.441406 -4.703125 C 1.84375 -4.046875 2.324219 -2.679688 2.476562 -1.871094 C 2.984375 -2.300781 3.691406 -2.78125 7.332031 -4.144531 L 7.332031 2.226562 L 10.164062 2.226562 L 10.164062 -20.960938 L 7.332031 -20.960938 Z M 20.277344 -17.191406 C 19.746094 -13.777344 18.859375 -10.746094 17.597656 -8.167969 C 16.308594 -10.820312 15.371094 -13.878906 14.738281 -17.191406 Z M 21.488281 -20 L 21.007812 -19.898438 L 11.097656 -19.898438 L 11.097656 -17.191406 L 13.90625 -17.191406 L 12.058594 -16.863281 C 12.917969 -12.386719 14.082031 -8.417969 15.902344 -5.183594 C 14.359375 -2.984375 12.515625 -1.265625 10.367188 -0.125 C 11.046875 0.40625 11.90625 1.59375 12.335938 2.351562 C 14.386719 1.113281 16.15625 -0.503906 17.648438 -2.453125 C 19.039062 -0.632812 20.757812 0.910156 22.78125 2.074219 C 23.234375 1.339844 24.144531 0.175781 24.828125 -0.378906 C 22.652344 -1.492188 20.859375 -3.136719 19.390625 -5.132812 C 21.464844 -8.824219 22.804688 -13.550781 23.386719 -19.46875 Z M 21.488281 -20 "/></g></g></g><g fill="#c5f656" fill-opacity="1"><g transform="translate(139.084466, 41.775003)"><g><path d="M 23.96875 -17.167969 C 23.234375 -18.355469 21.667969 -20.023438 20.328125 -21.238281 L 18.078125 -19.847656 C 19.390625 -18.558594 20.910156 -16.789062 21.539062 -15.597656 Z M 7.207031 -21.210938 C 5.6875 -17.394531 3.035156 -13.679688 0.304688 -11.351562 C 0.835938 -10.617188 1.695312 -9 1.972656 -8.292969 C 2.882812 -9.101562 3.742188 -10.0625 4.601562 -11.125 L 4.601562 2.148438 L 7.738281 2.148438 L 7.738281 -15.625 C 8.648438 -17.167969 9.429688 -18.734375 10.085938 -20.277344 Z M 24.347656 -12.136719 L 23.917969 -14.96875 L 16.710938 -14.03125 C 16.535156 -16.179688 16.433594 -18.558594 16.382812 -21.035156 L 13.324219 -21.035156 C 13.398438 -18.378906 13.550781 -15.902344 13.726562 -13.628906 L 8.621094 -12.945312 L 9.050781 -10.039062 L 14.03125 -10.71875 C 14.941406 -3.007812 16.9375 1.746094 21.210938 2.148438 C 22.628906 2.226562 23.992188 1.0625 24.625 -3.816406 C 24.070312 -4.121094 22.730469 -4.878906 22.171875 -5.535156 C 21.96875 -2.730469 21.667969 -1.464844 21.085938 -1.515625 C 19.0625 -1.769531 17.722656 -5.511719 17.015625 -11.125 Z M 24.347656 -12.136719 "/></g></g></g><g fill="#c5f656" fill-opacity="1"><g transform="translate(165.373213, 41.775003)"><g><path d="M 23.589844 -19.972656 L 11.300781 -19.972656 L 11.300781 -17.117188 L 23.589844 -17.117188 Z M 6.445312 -21.414062 C 5.234375 -19.644531 2.832031 -17.367188 0.734375 -16.027344 C 1.265625 -15.449219 2.023438 -14.234375 2.402344 -13.578125 C 4.804688 -15.246094 7.535156 -17.847656 9.355469 -20.226562 Z M 7.40625 -15.953125 C 5.789062 -13.097656 3.035156 -10.164062 0.457031 -8.394531 C 1.0625 -7.761719 2.074219 -6.394531 2.503906 -5.789062 C 3.1875 -6.347656 3.867188 -6.976562 4.574219 -7.660156 L 4.574219 2.226562 L 7.585938 2.226562 L 7.585938 -10.972656 C 8.597656 -12.238281 9.53125 -13.550781 10.289062 -14.839844 Z M 24.21875 -13.019531 L 10.238281 -13.019531 L 10.238281 -10.164062 L 17.699219 -10.164062 L 17.699219 -1.367188 C 17.699219 -0.984375 17.519531 -0.886719 17.066406 -0.886719 C 16.609375 -0.859375 14.941406 -0.859375 13.5 -0.933594 C 13.90625 -0.0742188 14.285156 1.238281 14.410156 2.125 C 16.660156 2.125 18.277344 2.074219 19.339844 1.617188 C 20.453125 1.164062 20.757812 0.328125 20.757812 -1.289062 L 20.757812 -10.164062 L 24.21875 -10.164062 Z M 24.21875 -13.019531 "/></g></g></g><g fill="#c5f656" fill-opacity="1"><g transform="translate(191.66196, 41.775003)"><g><path d="M 18.910156 -15.117188 L 18.910156 -17.773438 C 18.910156 -18.785156 19.011719 -19.621094 19.0625 -20.125 L 15.472656 -20.125 C 15.546875 -19.621094 15.625 -18.785156 15.625 -17.773438 L 15.625 -15.117188 L 9.632812 -15.117188 L 9.632812 -17.597656 C 9.632812 -18.609375 9.707031 -19.417969 9.785156 -19.898438 L 6.195312 -19.898438 C 6.246094 -19.417969 6.347656 -18.582031 6.347656 -17.621094 L 6.347656 -15.117188 L 4.195312 -15.117188 C 2.933594 -15.117188 1.921875 -15.269531 1.464844 -15.347656 L 1.464844 -11.90625 C 2.023438 -11.957031 2.933594 -12.007812 4.195312 -12.007812 L 6.347656 -12.007812 L 6.347656 -8.570312 C 6.347656 -7.433594 6.269531 -6.421875 6.195312 -5.917969 L 9.734375 -5.917969 C 9.707031 -6.421875 9.632812 -7.457031 9.632812 -8.570312 L 9.632812 -12.007812 L 15.625 -12.007812 L 15.625 -11.046875 C 15.625 -4.855469 13.476562 -2.65625 8.597656 -0.960938 L 11.300781 1.59375 C 17.394531 -1.085938 18.910156 -4.90625 18.910156 -11.175781 L 18.910156 -12.007812 L 20.78125 -12.007812 C 22.121094 -12.007812 23.007812 -11.984375 23.5625 -11.933594 L 23.5625 -15.296875 C 22.878906 -15.167969 22.121094 -15.117188 20.78125 -15.117188 Z M 18.910156 -15.117188 "/></g></g></g><g fill="#c5f656" fill-opacity="1"><g transform="translate(217.950697, 41.775003)"><g><path d="M 2.324219 -7.738281 C 3.261719 -7.8125 4.957031 -7.863281 6.394531 -7.863281 L 19.972656 -7.863281 C 21.035156 -7.863281 22.324219 -7.761719 22.929688 -7.738281 L 22.929688 -11.707031 C 22.273438 -11.65625 21.136719 -11.554688 19.972656 -11.554688 L 6.394531 -11.554688 C 5.082031 -11.554688 3.234375 -11.628906 2.324219 -11.707031 Z M 2.324219 -7.738281 "/></g></g></g><g fill="#c5f656" fill-opacity="1"><g transform="translate(244.239444, 41.775003)"><g><path d="M 20.679688 -17.015625 C 20.199219 -17.949219 19.289062 -19.542969 18.660156 -20.480469 L 16.660156 -19.644531 C 17.34375 -18.683594 18.128906 -17.191406 18.632812 -16.15625 Z M 7.558594 -8.671875 C 10.847656 -9.480469 14.917969 -10.746094 17.46875 -11.757812 C 18.304688 -12.058594 19.441406 -12.539062 20.429688 -12.945312 L 19.0625 -16.15625 C 18.078125 -15.546875 17.21875 -15.144531 16.308594 -14.789062 C 14.058594 -13.828125 10.542969 -12.71875 7.558594 -11.984375 L 7.558594 -16.761719 C 7.558594 -17.46875 7.636719 -18.609375 7.761719 -19.390625 L 4.019531 -19.390625 C 4.144531 -18.609375 4.222656 -17.320312 4.222656 -16.761719 L 4.222656 -2.984375 C 4.222656 -0.808594 5.484375 0.40625 7.6875 0.785156 C 8.773438 0.960938 10.289062 1.085938 11.933594 1.085938 C 14.714844 1.085938 18.558594 0.910156 20.933594 0.554688 L 20.933594 -3.136719 C 18.859375 -2.578125 14.765625 -2.25 12.136719 -2.25 C 10.996094 -2.25 9.960938 -2.300781 9.203125 -2.402344 C 8.066406 -2.628906 7.558594 -2.90625 7.558594 -3.996094 Z M 19.644531 -20.808594 C 20.351562 -19.847656 21.160156 -18.378906 21.691406 -17.320312 L 23.691406 -18.179688 C 23.234375 -19.0625 22.324219 -20.679688 21.640625 -21.617188 Z M 19.644531 -20.808594 "/></g></g></g><g fill="#c5f656" fill-opacity="1"><g transform="translate(270.528191, 41.775003)"><g><path d="M 19.011719 -18.683594 C 18.507812 -18.507812 17.496094 -18.355469 16.382812 -18.355469 L 7.484375 -18.355469 C 6.726562 -18.355469 5.183594 -18.429688 4.5 -18.53125 L 4.5 -14.941406 C 5.03125 -14.96875 6.421875 -15.117188 7.484375 -15.117188 L 16.054688 -15.117188 C 15.5 -13.324219 13.957031 -10.820312 12.289062 -8.925781 C 9.910156 -6.269531 5.992188 -3.210938 1.921875 -1.667969 L 4.527344 1.0625 C 7.988281 -0.582031 11.351562 -3.210938 14.03125 -6.042969 C 16.410156 -3.742188 18.757812 -1.164062 20.402344 1.113281 L 23.285156 -1.390625 C 21.792969 -3.210938 18.734375 -6.445312 16.230469 -8.621094 C 17.925781 -10.898438 19.339844 -13.601562 20.199219 -15.574219 C 20.429688 -16.078125 20.882812 -16.863281 21.085938 -17.140625 Z M 19.011719 -18.683594 "/></g></g></g><g fill="#c5f656" fill-opacity="1"><g transform="translate(77.164053, 59.046441)"><g><path d="M 5.03125 0.125 C 4.207031 0.125 3.46875 -0.0664062 2.8125 -0.453125 C 2.15625 -0.835938 1.640625 -1.363281 1.265625 -2.03125 C 0.898438 -2.695312 0.71875 -3.445312 0.71875 -4.28125 C 0.71875 -5.113281 0.898438 -5.863281 1.265625 -6.53125 C 1.640625 -7.207031 2.15625 -7.734375 2.8125 -8.109375 C 3.46875 -8.492188 4.207031 -8.6875 5.03125 -8.6875 C 5.851562 -8.6875 6.585938 -8.492188 7.234375 -8.109375 C 7.890625 -7.734375 8.398438 -7.207031 8.765625 -6.53125 C 9.140625 -5.863281 9.328125 -5.113281 9.328125 -4.28125 C 9.328125 -3.445312 9.140625 -2.695312 8.765625 -2.03125 C 8.398438 -1.363281 7.890625 -0.835938 7.234375 -0.453125 C 6.585938 -0.0664062 5.851562 0.125 5.03125 0.125 Z M 5.03125 -0.8125 C 5.65625 -0.8125 6.210938 -0.957031 6.703125 -1.25 C 7.203125 -1.539062 7.59375 -1.945312 7.875 -2.46875 C 8.15625 -3 8.296875 -3.601562 8.296875 -4.28125 C 8.296875 -4.96875 8.15625 -5.570312 7.875 -6.09375 C 7.59375 -6.625 7.203125 -7.035156 6.703125 -7.328125 C 6.210938 -7.617188 5.65625 -7.765625 5.03125 -7.765625 C 4.394531 -7.765625 3.828125 -7.617188 3.328125 -7.328125 C 2.835938 -7.035156 2.453125 -6.625 2.171875 -6.09375 C 1.898438 -5.570312 1.765625 -4.96875 1.765625 -4.28125 C 1.765625 -3.601562 1.898438 -3 2.171875 -2.46875 C 2.453125 -1.945312 2.835938 -1.539062 3.328125 -1.25 C 3.828125 -0.957031 4.394531 -0.8125 5.03125 -0.8125 Z M 5.203125 -1.8125 C 4.722656 -1.8125 4.3125 -1.90625 3.96875 -2.09375 C 3.625 -2.28125 3.359375 -2.5625 3.171875 -2.9375 C 2.984375 -3.3125 2.890625 -3.757812 2.890625 -4.28125 C 2.890625 -4.8125 2.984375 -5.257812 3.171875 -5.625 C 3.359375 -6 3.625 -6.28125 3.96875 -6.46875 C 4.3125 -6.65625 4.722656 -6.75 5.203125 -6.75 C 5.679688 -6.75 6.078125 -6.65625 6.390625 -6.46875 C 6.703125 -6.289062 6.9375 -6.019531 7.09375 -5.65625 L 6.203125 -5.125 L 6.109375 -5.125 C 6.015625 -5.320312 5.894531 -5.46875 5.75 -5.5625 C 5.613281 -5.664062 5.429688 -5.71875 5.203125 -5.71875 C 4.503906 -5.71875 4.15625 -5.238281 4.15625 -4.28125 C 4.15625 -3.78125 4.242188 -3.414062 4.421875 -3.1875 C 4.609375 -2.957031 4.867188 -2.84375 5.203125 -2.84375 C 5.453125 -2.84375 5.65625 -2.910156 5.8125 -3.046875 C 5.96875 -3.191406 6.078125 -3.398438 6.140625 -3.671875 L 6.234375 -3.671875 L 7.15625 -3.21875 C 6.8125 -2.28125 6.160156 -1.8125 5.203125 -1.8125 Z M 5.203125 -1.8125 "/></g></g></g><g fill="#c5f656" fill-opacity="1"><g transform="translate(87.698739, 59.046441)"><g><path d="M 6.875 -8.5625 L 6.875 -7.140625 L 4.390625 -7.140625 L 4.390625 0 L 2.703125 0 L 2.703125 -7.140625 L 0.234375 -7.140625 L 0.234375 -8.5625 Z M 6.875 -8.5625 "/></g></g></g><g fill="#c5f656" fill-opacity="1"><g transform="translate(95.280302, 59.046441)"><g><path d="M 1.109375 0 L 1.109375 -8.5625 L 4.546875 -8.5625 C 5.441406 -8.5625 6.113281 -8.359375 6.5625 -7.953125 C 7.007812 -7.546875 7.234375 -6.984375 7.234375 -6.265625 C 7.234375 -5.742188 7.101562 -5.316406 6.84375 -4.984375 C 6.582031 -4.648438 6.1875 -4.394531 5.65625 -4.21875 L 5.65625 -4.109375 C 5.925781 -3.984375 6.144531 -3.804688 6.3125 -3.578125 C 6.476562 -3.347656 6.632812 -3.007812 6.78125 -2.5625 L 7.640625 0 L 5.90625 0 L 5.0625 -2.5625 C 4.976562 -2.820312 4.878906 -3.019531 4.765625 -3.15625 C 4.660156 -3.300781 4.523438 -3.40625 4.359375 -3.46875 C 4.191406 -3.53125 3.976562 -3.5625 3.71875 -3.5625 L 2.8125 -3.5625 L 2.8125 0 Z M 4.34375 -4.90625 C 5.164062 -4.90625 5.578125 -5.289062 5.578125 -6.0625 C 5.578125 -6.832031 5.164062 -7.21875 4.34375 -7.21875 L 2.8125 -7.21875 L 2.8125 -4.90625 Z M 4.34375 -4.90625 "/></g></g></g><g fill="#c5f656" fill-opacity="1"><g transform="translate(103.770067, 59.046441)"><g><path d="M 4.546875 0.125 C 3.359375 0.125 2.476562 -0.15625 1.90625 -0.71875 C 1.34375 -1.28125 1.0625 -2.113281 1.0625 -3.21875 L 1.0625 -8.5625 L 2.71875 -8.5625 L 2.71875 -3.21875 C 2.71875 -2.59375 2.867188 -2.125 3.171875 -1.8125 C 3.472656 -1.5 3.929688 -1.34375 4.546875 -1.34375 C 5.753906 -1.34375 6.359375 -1.96875 6.359375 -3.21875 L 6.359375 -8.5625 L 8.015625 -8.5625 L 8.015625 -3.21875 C 8.015625 -2.113281 7.726562 -1.28125 7.15625 -0.71875 C 6.59375 -0.15625 5.722656 0.125 4.546875 0.125 Z M 4.546875 0.125 "/></g></g></g><g fill="#c5f656" fill-opacity="1"><g transform="translate(113.332097, 59.046441)"><g><path d="M 2.8125 -3.765625 L 2.8125 -1.421875 L 6.890625 -1.421875 L 6.890625 0 L 1.109375 0 L 1.109375 -8.5625 L 6.796875 -8.5625 L 6.796875 -7.15625 L 2.8125 -7.15625 L 2.8125 -5.140625 L 6.296875 -5.140625 L 6.296875 -3.765625 Z M 2.8125 -3.765625 "/></g></g></g><g fill="#c5f656" fill-opacity="1"><g transform="translate(121.177331, 59.046441)"><g/></g></g><g fill="#c5f656" fill-opacity="1"><g transform="translate(124.487408, 59.046441)"><g><path d="M 2.8125 -8.5625 L 2.8125 -1.421875 L 6.65625 -1.421875 L 6.65625 0 L 1.109375 0 L 1.109375 -8.5625 Z M 2.8125 -8.5625 "/></g></g></g><g fill="#c5f656" fill-opacity="1"><g transform="translate(131.90491, 59.046441)"><g><path d="M 2.8125 0 L 1.109375 0 L 1.109375 -8.5625 L 2.8125 -8.5625 Z M 2.8125 0 "/></g></g></g><g fill="#c5f656" fill-opacity="1"><g transform="translate(136.31069, 59.046441)"><g><path d="M 2.75 0 L 1.109375 0 L 1.109375 -8.5625 L 3.046875 -8.5625 L 6.5 -3.046875 L 6.640625 -3.078125 L 6.640625 -8.5625 L 8.28125 -8.5625 L 8.28125 0 L 6.546875 0 L 2.90625 -5.890625 L 2.75 -5.875 Z M 2.75 0 "/></g></g></g><g fill="#c5f656" fill-opacity="1"><g transform="translate(146.183267, 59.046441)"><g><path d="M 1.109375 0 L 1.109375 -8.5625 L 2.8125 -8.5625 L 2.8125 -5.0625 L 3 -5.0625 L 5.859375 -8.5625 L 7.59375 -8.5625 L 7.59375 -8.421875 L 4.4375 -4.53125 L 7.921875 -0.140625 L 7.921875 0 L 6 0 L 3 -3.703125 L 2.8125 -3.703125 L 2.8125 0 Z M 1.109375 0 "/></g></g></g><g fill="#c5f656" fill-opacity="1"><g transform="translate(154.579282, 59.046441)"><g/></g></g><g fill="#c5f656" fill-opacity="1"><g transform="translate(157.889359, 59.046441)"><g><path d="M 4.6875 0.125 C 3.894531 0.125 3.195312 -0.0351562 2.59375 -0.359375 C 1.988281 -0.691406 1.515625 -1.1875 1.171875 -1.84375 C 0.835938 -2.507812 0.671875 -3.320312 0.671875 -4.28125 C 0.671875 -5.25 0.835938 -6.0625 1.171875 -6.71875 C 1.515625 -7.375 1.988281 -7.863281 2.59375 -8.1875 C 3.195312 -8.519531 3.894531 -8.6875 4.6875 -8.6875 C 5.507812 -8.6875 6.207031 -8.523438 6.78125 -8.203125 C 7.351562 -7.878906 7.765625 -7.390625 8.015625 -6.734375 L 6.78125 -5.984375 L 6.640625 -5.984375 C 6.453125 -6.429688 6.203125 -6.75 5.890625 -6.9375 C 5.578125 -7.132812 5.175781 -7.234375 4.6875 -7.234375 C 3.96875 -7.234375 3.410156 -6.992188 3.015625 -6.515625 C 2.617188 -6.046875 2.421875 -5.300781 2.421875 -4.28125 C 2.421875 -3.257812 2.617188 -2.515625 3.015625 -2.046875 C 3.410156 -1.578125 3.96875 -1.34375 4.6875 -1.34375 C 5.800781 -1.34375 6.484375 -1.882812 6.734375 -2.96875 L 6.875 -2.96875 L 8.125 -2.3125 C 7.882812 -1.5 7.484375 -0.890625 6.921875 -0.484375 C 6.359375 -0.078125 5.613281 0.125 4.6875 0.125 Z M 4.6875 0.125 "/></g></g></g><g fill="#c5f656" fill-opacity="1"><g transform="translate(166.771702, 59.046441)"><g><path d="M 4.671875 0.125 C 3.890625 0.125 3.195312 -0.0351562 2.59375 -0.359375 C 1.988281 -0.679688 1.515625 -1.171875 1.171875 -1.828125 C 0.835938 -2.484375 0.671875 -3.300781 0.671875 -4.28125 C 0.671875 -5.257812 0.835938 -6.078125 1.171875 -6.734375 C 1.515625 -7.398438 1.988281 -7.890625 2.59375 -8.203125 C 3.195312 -8.523438 3.890625 -8.6875 4.671875 -8.6875 C 5.453125 -8.6875 6.140625 -8.523438 6.734375 -8.203125 C 7.335938 -7.890625 7.804688 -7.398438 8.140625 -6.734375 C 8.484375 -6.078125 8.65625 -5.257812 8.65625 -4.28125 C 8.65625 -3.300781 8.484375 -2.476562 8.140625 -1.8125 C 7.804688 -1.15625 7.335938 -0.664062 6.734375 -0.34375 C 6.140625 -0.03125 5.453125 0.125 4.671875 0.125 Z M 4.671875 -1.34375 C 5.398438 -1.34375 5.953125 -1.578125 6.328125 -2.046875 C 6.710938 -2.515625 6.90625 -3.257812 6.90625 -4.28125 C 6.90625 -5.300781 6.710938 -6.046875 6.328125 -6.515625 C 5.953125 -6.984375 5.398438 -7.21875 4.671875 -7.21875 C 3.941406 -7.21875 3.382812 -6.984375 3 -6.515625 C 2.613281 -6.046875 2.421875 -5.300781 2.421875 -4.28125 C 2.421875 -3.257812 2.613281 -2.515625 3 -2.046875 C 3.382812 -1.578125 3.941406 -1.34375 4.671875 -1.34375 Z M 4.671875 -1.34375 "/></g></g></g><g fill="#c5f656" fill-opacity="1"><g transform="translate(176.585691, 59.046441)"><g><path d="M 2.671875 0 L 1.109375 0 L 1.109375 -8.5625 L 3.328125 -8.5625 L 5.5 -2.265625 L 5.625 -2.265625 L 7.78125 -8.5625 L 9.9375 -8.5625 L 9.9375 0 L 8.328125 0 L 8.328125 -5.65625 L 8.1875 -5.6875 L 6.203125 0 L 4.796875 0 L 2.8125 -5.6875 L 2.671875 -5.65625 Z M 2.671875 0 "/></g></g></g><g fill="#c5f656" fill-opacity="1"><g transform="translate(188.12233, 59.046441)"><g><path d="M 4.421875 -8.5625 C 5.035156 -8.5625 5.5625 -8.445312 6 -8.21875 C 6.4375 -8 6.765625 -7.6875 6.984375 -7.28125 C 7.203125 -6.882812 7.3125 -6.414062 7.3125 -5.875 C 7.3125 -5.34375 7.203125 -4.875 6.984375 -4.46875 C 6.765625 -4.070312 6.4375 -3.757812 6 -3.53125 C 5.5625 -3.300781 5.035156 -3.1875 4.421875 -3.1875 L 2.8125 -3.1875 L 2.8125 0 L 1.109375 0 L 1.109375 -8.5625 Z M 4.203125 -4.53125 C 5.140625 -4.53125 5.609375 -4.976562 5.609375 -5.875 C 5.609375 -6.769531 5.140625 -7.21875 4.203125 -7.21875 L 2.8125 -7.21875 L 2.8125 -4.53125 Z M 4.203125 -4.53125 "/></g></g></g><g fill="#c5f656" fill-opacity="1"><g transform="translate(196.430454, 59.046441)"><g><path d="M 8.21875 0 L 6.4375 0 L 5.796875 -1.96875 L 2.515625 -1.96875 L 1.875 0 L 0.125 0 L 3.09375 -8.5625 L 5.265625 -8.5625 Z M 4.078125 -6.78125 L 2.96875 -3.40625 L 5.328125 -3.40625 L 4.21875 -6.78125 Z M 4.078125 -6.78125 "/></g></g></g><g fill="#c5f656" fill-opacity="1"><g transform="translate(205.260062, 59.046441)"><g><path d="M 2.75 0 L 1.109375 0 L 1.109375 -8.5625 L 3.046875 -8.5625 L 6.5 -3.046875 L 6.640625 -3.078125 L 6.640625 -8.5625 L 8.28125 -8.5625 L 8.28125 0 L 6.546875 0 L 2.90625 -5.890625 L 2.75 -5.875 Z M 2.75 0 "/></g></g></g><g fill="#c5f656" fill-opacity="1"><g transform="translate(215.132639, 59.046441)"><g><path d="M 4.6875 0 L 3 0 L 3 -3.359375 L 0.046875 -8.5625 L 1.859375 -8.5625 L 3.8125 -5.203125 L 3.96875 -5.203125 L 5.875 -8.5625 L 7.65625 -8.5625 L 4.6875 -3.359375 Z M 4.6875 0 "/></g></g></g></svg>